<?xml version="1.0" encoding="UTF-8" standalone="no"?>
<!-- Created with Inkscape (http://www.inkscape.org/) -->

<svg
   version="1.1"
   id="svg1"
   width="1600"
   height="1600"
   viewBox="0 0 1600 1600"
   sodipodi:docname="v921-audi-wit-014.eps"
   xmlns:inkscape="http://www.inkscape.org/namespaces/inkscape"
   xmlns:sodipodi="http://sodipodi.sourceforge.net/DTD/sodipodi-0.dtd"
   xmlns="http://www.w3.org/2000/svg"
   xmlns:svg="http://www.w3.org/2000/svg">
  <defs
     id="defs1" />
  <sodipodi:namedview
     id="namedview1"
     pagecolor="#ffffff"
     bordercolor="#000000"
     borderopacity="0.25"
     inkscape:showpageshadow="2"
     inkscape:pageopacity="0.0"
     inkscape:pagecheckerboard="0"
     inkscape:deskcolor="#d1d1d1">
    <inkscape:page
       x="0"
       y="0"
       inkscape:label="1"
       id="page1"
       width="1600"
       height="1600"
       margin="0"
       bleed="0" />
  </sodipodi:namedview>
  <g
     id="g1"
     inkscape:groupmode="layer"
     inkscape:label="1">
    <g
       id="group-R5">
      <path
          id="path2"
          d="M 12000,0 H 0 V 12000 H 12000 V 0"
          style="fill:#E2F0E5;fill-opacity:1;fill-rule:nonzero;stroke:none"
          transform="matrix(0.13333333,0,0,-0.13333333,0,1600)" />

      <path
         id="path3"
         d="m 9567.48,6000 c 0,-1970.27 -1597.21,-3567.48 -3567.48,-3567.48 -1970.27,0 -3567.48,1597.21 -3567.48,3567.48 0,1970.27 1597.21,3567.48 3567.48,3567.48 1970.27,0 3567.48,-1597.21 3567.48,-3567.48"
         style="fill:#f9edb5;fill-opacity:1;fill-rule:nonzero;stroke:none"
         transform="matrix(0.13333333,0,0,-0.13333333,0,1600)" />
      <path
         id="path4"
         d="m 7348.15,7837.93 c 1.47,51.84 -1.17,104.51 -8.32,157.72 -79.51,591.93 -678.22,1026.7 -1337.27,971.09 -361.93,-30.53 -666.75,-202.63 -854.9,-449.63 -530.78,9.75 -920.37,-123.57 -1000.95,-385.23 -131.87,-428.17 613.66,-1037.79 1665.15,-1361.61 1051.5,-323.82 2010.81,-239.23 2142.67,188.95 80.31,260.78 -164.85,588.88 -606.38,878.71"
         style="fill:#cdab5d;fill-opacity:1;fill-rule:nonzero;stroke:none"
         transform="matrix(0.13333333,0,0,-0.13333333,0,1600)" />
      <path
         id="path5"
         d="m 7168.07,7922.71 c -4.22,0 -8.47,1.02 -12.4,3.28 -256.16,145.49 -558.28,273.75 -873.67,370.89 -338.51,104.2 -681.88,169.7 -993.01,189.35 -13.81,0.88 -24.34,12.78 -23.47,26.59 0.84,13.77 11.67,24.85 26.61,23.47 315.05,-19.88 662.43,-86.12 1004.68,-191.5 318.76,-98.17 624.35,-227.95 883.66,-375.2 12.04,-6.81 16.26,-22.14 9.39,-34.2 -4.6,-8.13 -13.07,-12.68 -21.79,-12.68"
         style="fill:#3a222b;fill-opacity:1;fill-rule:nonzero;stroke:none"
         transform="matrix(0.13333333,0,0,-0.13333333,0,1600)" />
      <path
         id="path6"
         d="m 8454.81,3918.57 -202.06,954.08 c -41.34,195.28 -153.72,372.95 -319.69,505.46 -108.69,86.77 -345.02,151.57 -484.37,189.95 l -685.66,188.83 H 6142.76 5522.5 L 4836.85,5568.06 C 4697.5,5529.68 4569.08,5464.88 4460.39,5378.11 4294.41,5245.6 4182.04,5067.93 4140.68,4872.65 l -202.06,-954.08 h 732.41 V 2201.08 h 3277.66 v 1717.49 h 506.12"
         style="fill:#55b798;fill-opacity:1;fill-rule:nonzero;stroke:none"
         transform="matrix(0.13333333,0,0,-0.13333333,0,1600)" />
      <path
         id="path7"
         d="M 6313.04,3037.81 H 4853.12 c -25.83,0 -50.28,11.64 -66.57,31.7 L 3554.97,4586.97 c -23.18,28.57 -5.08,71.45 31.56,74.76 l 1439.92,130.12 c 51.54,4.65 101.79,-17.83 132.68,-59.34 L 6356.04,3123.39 c 26.3,-35.35 1.07,-85.58 -43,-85.58"
         style="fill:#3a222b;fill-opacity:1;fill-rule:nonzero;stroke:none"
         transform="matrix(0.13333333,0,0,-0.13333333,0,1600)" />
      <path
         id="path8"
         d="m 3794,4537.14 c 0,-20.65 -16.74,-37.39 -37.38,-37.39 -20.65,0 -37.39,16.74 -37.39,37.39 0,20.64 16.74,37.38 37.39,37.38 20.64,0 37.38,-16.74 37.38,-37.38"
         style="fill:#ffffff;fill-opacity:1;fill-rule:nonzero;stroke:none"
         transform="matrix(0.13333333,0,0,-0.13333333,0,1600)" />
      <path
         id="path9"
         d="m 4303.56,3367.84 c -6.33,-21.14 -2.44,-44.14 11.04,-61.61 l 356.43,-461.93 v 367.56 l -320.35,394.7 c -2.97,-55.1 -15.26,-132.3 -47.12,-238.72"
         style="fill:#f0a76e;fill-opacity:1;fill-rule:nonzero;stroke:none"
         transform="matrix(0.13333333,0,0,-0.13333333,0,1600)" />
      <path
         id="path10"
         d="m 3549.62,4131.57 c 14.23,21.35 122.95,155.47 153.83,193.49 5.44,6.71 12.03,12.19 19.57,16.39 l 308.27,171.65 c 26.99,15.03 60.73,9.94 82.08,-12.39 v 0 c 28.91,-30.21 23.89,-79.14 -10.56,-102.84 l -210.52,-144.92 c -6.87,-4.74 -12.81,-10.68 -17.51,-17.56 l -96.71,-141.2 564.54,265.22 c 31.02,14.57 68.04,3.73 86.32,-25.28 l 1.57,-2.51 c 20.32,-32.25 10.09,-74.92 -22.64,-94.46 l -476.12,-284.19 612.6,268.24 c 31.88,13.97 69.16,1.55 86.3,-28.74 l 1.03,-1.82 c 17.53,-30.96 8.18,-70.2 -21.42,-89.94 l -171.78,-114.52 214.22,78.55 c 20.64,7.57 43.81,0.35 56.49,-17.62 v 0 c 15.61,-22.11 10.17,-52.71 -12.1,-68.09 l -321.2,-221.86 c -22.44,-15.51 -32.91,-42.54 -28.39,-69.44 8.07,-48.07 8.59,-144.49 -43.93,-319.89 -6.33,-21.14 -2.44,-44.14 11.04,-61.61 l 386.8,-501.29 c 35.2,-45.62 75.68,-169.2 103.31,-292.65 40.61,-181.34 -36.52,-392.83 -212.52,-452.45 -97.93,-33.17 -244.71,18.9 -244.71,18.9 -127.61,32.42 -269.88,227.81 -309.86,353.25 0,0 -87.22,693.64 -105.14,924.3 v 0 c 2.19,17.71 -2.69,35.58 -13.57,49.73 l -306.45,398.38 c -5.87,7.63 -10,16.25 -12.23,25.62 -13.85,58.51 -65.02,279.94 -50.61,301.55"
         style="fill:#f0a76e;fill-opacity:1;fill-rule:nonzero;stroke:none"
         transform="matrix(0.13333333,0,0,-0.13333333,0,1600)" />
      <path
         id="path11"
         d="m 4303.56,3367.84 c -6.33,-21.14 -2.44,-44.14 11.04,-61.61 l 356.43,-461.93 v 100.65 l -311.51,372.43 c -19.86,22.97 -12.48,62.72 -2.77,91.48 20.48,60.63 30.56,118.12 34.8,147.35 l -40.87,50.35 c -2.97,-55.1 -15.26,-132.3 -47.12,-238.72"
         style="fill:#3a222b;fill-opacity:1;fill-rule:nonzero;stroke:none"
         transform="matrix(0.13333333,0,0,-0.13333333,0,1600)" />
      <path
         id="path12"
         d="m 6975.86,7171.03 c -8.79,1.52 -17.59,1.89 -26.36,1.25 12.72,126.9 12.16,210.72 12.16,210.72 0,51.33 -5.99,101.32 -15.79,150.13 -235.91,157.67 -726.53,417.02 -1340.1,360.77 -170.31,-15.61 -286.86,-27.56 -370.02,-45.11 -92.35,-133.53 -145.14,-293.13 -145.14,-465.03 0,0 -2.82,-85.64 6.91,-214.92 -84.37,-22.76 -133.05,-146.25 -109.44,-282.99 24.02,-139.06 113.87,-240.09 202.45,-229.41 78.14,-252.4 216.72,-502.96 462.01,-626.7 -51.77,-148.55 -130.04,-272.85 -130.04,-272.85 l 620.26,-1041.15 620.27,1041.15 c 0,0 -148.71,236.12 -171.68,446.51 120.47,131.95 201.76,300.51 256.6,468.73 12.07,-7.44 25.16,-12.56 39.16,-14.98 90.3,-15.59 183.37,86.8 207.88,228.7 24.5,141.9 -28.83,269.58 -119.13,285.18"
         style="fill:#f0a76e;fill-opacity:1;fill-rule:nonzero;stroke:none"
         transform="matrix(0.13333333,0,0,-0.13333333,0,1600)" />
      <path
         id="path13"
         d="m 5678.65,7112.16 c 0,-52.85 -33.53,-95.7 -74.89,-95.7 -41.36,0 -74.88,42.85 -74.88,95.7 0,52.86 33.52,95.71 74.88,95.71 41.36,0 74.89,-42.85 74.89,-95.71"
         style="fill:#3a222b;fill-opacity:1;fill-rule:nonzero;stroke:none"
         transform="matrix(0.13333333,0,0,-0.13333333,0,1600)" />
      <path
         id="path14"
         d="m 6417.02,7112.16 c 0,-52.85 -33.52,-95.7 -74.88,-95.7 -41.36,0 -74.89,42.85 -74.89,95.7 0,52.86 33.53,95.71 74.89,95.71 41.36,0 74.88,-42.85 74.88,-95.71"
         style="fill:#3a222b;fill-opacity:1;fill-rule:nonzero;stroke:none"
         transform="matrix(0.13333333,0,0,-0.13333333,0,1600)" />
      <path
         id="path15"
         d="m 6318.51,6576.61 c 0,0 -111.09,-258.07 -424.41,-232.81 -206.14,16.61 -285.24,232.81 -285.24,232.81 h 709.65"
         style="fill:#ffffff;fill-opacity:1;fill-rule:nonzero;stroke:none"
         transform="matrix(0.13333333,0,0,-0.13333333,0,1600)" />
      <path
         id="path16"
         d="m 6897.97,6828.86 c -5.99,0 -11.94,2.13 -16.65,6.32 -8.55,7.62 -10.84,20.06 -5.59,30.21 l 99.64,192.65 c 6.34,12.28 21.48,17.02 33.73,10.74 12.28,-6.36 17.1,-21.44 10.74,-33.73 l -54.5,-105.4 43.88,29.66 c 11.51,7.77 27.03,4.74 34.75,-6.72 7.76,-11.45 4.74,-27.01 -6.71,-34.75 l -125.28,-84.68 c -4.26,-2.88 -9.14,-4.3 -14.01,-4.3"
         style="fill:#3a222b;fill-opacity:1;fill-rule:nonzero;stroke:none"
         transform="matrix(0.13333333,0,0,-0.13333333,0,1600)" />
      <path
         id="path17"
         d="m 5946.83,6775.78 c -0.95,0 -1.9,0.04 -2.85,0.16 -55.21,6.24 -89.79,25.59 -102.8,57.46 -19.57,48.03 20.64,99.37 25.27,105.1 8.75,10.66 24.43,12.24 35.14,3.59 10.72,-8.69 12.38,-24.45 3.73,-35.19 -8.69,-10.78 -24.45,-38.35 -17.73,-54.66 5.43,-13.19 27.46,-22.63 62,-26.54 13.74,-1.54 23.64,-13.94 22.08,-27.68 -1.45,-12.8 -12.29,-22.24 -24.84,-22.24"
         style="fill:#3a222b;fill-opacity:1;fill-rule:nonzero;stroke:none"
         transform="matrix(0.13333333,0,0,-0.13333333,0,1600)" />
      <path
         id="path18"
         d="m 5386.91,7292.2 c -7.98,0 -15.8,3.79 -20.66,10.86 -7.84,11.41 -4.93,26.97 6.46,34.83 6.89,4.7 169.68,114.21 323.85,17.42 11.71,-7.35 15.24,-22.83 7.9,-34.52 -7.37,-11.73 -22.83,-15.28 -34.52,-7.9 -126.56,79.42 -267.45,-15.28 -268.88,-16.31 -4.34,-2.96 -9.27,-4.38 -14.15,-4.38"
         style="fill:#3a222b;fill-opacity:1;fill-rule:nonzero;stroke:none"
         transform="matrix(0.13333333,0,0,-0.13333333,0,1600)" />
      <path
         id="path19"
         d="m 6489.69,7284.58 c -5.74,0 -11.5,1.93 -16.2,5.92 -5.34,4.5 -132.22,109.83 -265.73,44.31 -12.46,-6.04 -27.45,-0.99 -33.51,11.45 -6.11,12.4 -0.97,27.41 11.43,33.5 163.38,80.28 313.92,-45.74 320.28,-51.15 10.49,-8.97 11.74,-24.72 2.8,-35.23 -4.94,-5.84 -11.99,-8.8 -19.07,-8.8"
         style="fill:#3a222b;fill-opacity:1;fill-rule:nonzero;stroke:none"
         transform="matrix(0.13333333,0,0,-0.13333333,0,1600)" />
      <path
         id="path20"
         d="m 8378.71,3918.57 h -875.35 v -534.85 l -1083.66,371.26 -95.78,136.83 v 0 l -192.44,300.84 -8.02,14.51 c -19.64,35.48 -63.57,49.44 -100.08,31.83 l -114.2,-58.77 c -3.64,7.49 -8.21,14.67 -14.78,20.84 l -125.1,117.57 c -18.95,17.82 -46.17,23.79 -70.84,15.57 l -44.54,-14.85 c -9.93,-3.31 -19,-8.77 -26.56,-16.01 L 5492.99,4174.7 c -42.17,-40.36 -37.2,-109.12 10.33,-143 34.22,-24.41 80.56,-22.83 113.05,3.83 l 38,31.17 465.83,-626.24 102.9,-31.6 1440.76,-1109.34 c 102.04,-78.57 231.67,-112.24 359.05,-93.25 l 32.33,4.82 c 177.15,26.42 324.27,150.43 380.3,320.56 v 0 c 8.98,27.3 15.27,55.18 19.15,83.27 l 0.12,-0.01 -0.02,0.53 c 8.36,61.01 -76.08,1303.13 -76.08,1303.13"
         style="fill:#f0a76e;fill-opacity:1;fill-rule:nonzero;stroke:none"
         transform="matrix(0.13333333,0,0,-0.13333333,0,1600)" />
      <path
         id="path21"
         d="m 5706.13,4044.36 c 1.52,-20.35 7.95,-40.43 19.51,-58.35 32.1,-49.79 95.6,-70.77 153.26,-48.91 l 140.48,61.04 c 0,0 161.13,-176.69 177.35,-176.69 l -158.83,239.33 -178.96,-77.74 c -33.7,-12.72 -71.71,-0.18 -91.23,30.1 -20.13,31.24 -14.11,70.77 10.71,95.4 -25.4,14.79 -57.35,12.88 -80.3,-5.95 l -43.75,-35.89 29.93,-40.24 21.83,17.9"
         style="fill:#3a222b;fill-opacity:1;fill-rule:nonzero;stroke:none"
         transform="matrix(0.13333333,0,0,-0.13333333,0,1600)" />
      <path
         id="path22"
         d="m 7503.35,3383.72 615.12,-210.74 -615.12,335.33 z"
         style="fill:#3a222b;fill-opacity:1;fill-rule:nonzero;stroke:none"
         transform="matrix(0.13333333,0,0,-0.13333333,0,1600)" />
      <path
         id="path23"
         d="m 5363.75,5713.16 -356.28,-820.21 601.39,211.14 533.9,-388.35 v 0 l -620.26,1041.15 -158.75,-43.73"
         style="fill:#2f7346;fill-opacity:1;fill-rule:nonzero;stroke:none"
         transform="matrix(0.13333333,0,0,-0.13333333,0,1600)" />
      <path
         id="path24"
         d="m 6921.78,5713.16 356.29,-820.21 -601.4,211.14 -533.91,-388.35 v 0 l 620.27,1041.15 158.75,-43.73"
         style="fill:#2f7346;fill-opacity:1;fill-rule:nonzero;stroke:none"
         transform="matrix(0.13333333,0,0,-0.13333333,0,1600)" />
      <path
         id="path25"
         d="m 4998.13,7630.79 c -23.89,-114.89 -28,-288.06 10.42,-548.96 20.21,43.71 50.71,75.48 89.1,85.94 -9.82,129.77 -7.04,215.99 -7.04,215.99 0,171.57 52.62,330.86 144.64,464.24 l -1.79,0.29 c -74.68,-15.97 -122.25,-36.58 -156.6,-68.89 -46.31,-43.55 -68.47,-106.45 -78.73,-148.61"
         style="fill:#3a222b;fill-opacity:1;fill-rule:nonzero;stroke:none"
         transform="matrix(0.13333333,0,0,-0.13333333,0,1600)" />
      <path
         id="path26"
         d="m 6946.28,7532.86 c 9.95,-48.62 15.38,-98.65 15.38,-149.86 0,0 0.47,-84.35 -12.31,-211.6 8.83,0.66 17.67,1.15 26.52,-0.37 39.18,-6.77 70.76,-35.45 92.67,-76.43 29.93,127.42 36.12,234.51 28.91,325.63 -7.17,6.27 -60.1,51.72 -151.17,112.63"
         style="fill:#3a222b;fill-opacity:1;fill-rule:nonzero;stroke:none"
         transform="matrix(0.13333333,0,0,-0.13333333,0,1600)" />
      <path
         id="path27"
         d="m 5652.58,6029.72 c -31.82,-91.28 -73.64,-173.37 -101.16,-223.08 l 0.01,-0.02 c 0,0 317.65,-258.15 759.27,199.27 -88.59,-35.5 -189.09,-55.83 -303.43,-55.83 -137.93,0 -255.07,29.4 -354.69,79.66"
         style="fill:#3a222b;fill-opacity:1;fill-rule:nonzero;stroke:none"
         transform="matrix(0.13333333,0,0,-0.13333333,0,1600)" />
    </g>
  </g>
</svg>
