<svg id="vector" xmlns="http://www.w3.org/2000/svg" width="500" height="500" viewBox="0 0 500 500"><defs><clipPath id="clip_path_0"><path d="M254,267s10.8,4.37 19,5.14 20.82,-5.14 22.88,-15.94 -4.89,-31.1 -7.2,-35.47 -16.2,-35.22 -23.91,-41.9 -20.31,-10.55 -22.88,-11.57 -0.77,8.74 -1.28,14.91 -0.52,37.53 -0.52,37.53l-1.8,41.13S247.78,264.41 254,267Z"/></clipPath><clipPath id="clip_path_1"><path d="M156.33,162.33s-16.33,5.34 -24,11.67 -35.66,32.33 -48,41 -17,23 -10.66,33.67S92.33,262 100.33,260s18,-13.67 27,-19 16,-15 16,-15 4.67,-33.67 6.34,-43.67 8,-18.66 8,-18.66S157.67,161.33 156.33,162.33Z"/></clipPath><clipPath id="clip_path_2"><path d="M190.5,153s-25.79,7.18 -32.79,9.18S147,179 146,196s-6,77 -6.5,79.5S133.31,301 134.81,309 150.5,413 150.5,413s-4,6 -3,7.5 1.5,9 1.5,9 12.5,4.5 20.5,4.5 18,-3 18,-3 -2.5,-18.5 -1.5,-29.5 1,-83 1,-83l10,114s12,3.5 22.5,3S241,429 241,429s1.5,-8.5 0.5,-12.5 -7,-11 -7,-13.5 5,-86 5,-86 3,-23.5 2.5,-35.5 0.5,-40 0.5,-40 2,-25.5 3.5,-40S247.92,174 247.42,171s-24.92,-13 -30.92,-15S198,153.5 190.5,153Z"/></clipPath><clipPath id="clip_path_3"><path d="M96.32,220.59c-2.79,8.73 -3.32,20.65 -1.69,26.16a24,24 114.66,0 0,5.57 9.36l13.77,2.24a1.94,1.94 47.66,0 0,1.04 0.49c1.18,0.11 3.3,-1.45 5.47,-6.2A59.09,59.09 47.66,0 0,124.91 234.3a59.28,59.28 47.66,0 0,-0.95 -18.86c-1.26,-5.06 -3.06,-7 -4.22,-7.11l-13.84,-0.83C105.48,209.55 99.04,212.07 96.32,220.59Z"/></clipPath><clipPath id="clip_path_4"><path d="M129.36,211.9c-8.85,-2.38 -20.78,-2.36 -26.21,-0.47a24,24 0,0 0,-9.09 6l-1.6,13.86a1.94,1.94 0,0 0,-0.44 1.06c-0.06,1.18 1.6,3.23 6.45,5.18A59.09,59.09 0,0 0,117 241.1a59.28,59.28 0,0 0,18.8 -1.82c5,-1.49 6.85,-3.38 6.91,-4.55l0.19,-13.86C140.82,220.54 138,214.23 129.36,211.9Z"/></clipPath><clipPath id="clip_path_5"><path d="M129.36,211.9c-8.85,-2.38 -20.78,-2.36 -26.21,-0.47a24,24 0,0 0,-9.09 6l-1.6,13.86a1.94,1.94 0,0 0,-0.44 1.06c-0.06,1.18 1.6,3.23 6.45,5.18A59.09,59.09 0,0 0,117 241.1a59.28,59.28 0,0 0,18.8 -1.82c5,-1.49 6.85,-3.38 6.91,-4.55l0.19,-13.86C140.82,220.54 138,214.23 129.36,211.9Z"/></clipPath><clipPath id="clip_path_6"><path d="M129.36,211.9c-8.85,-2.38 -20.78,-2.36 -26.21,-0.47a24,24 0,0 0,-9.09 6l-1.6,13.86a1.94,1.94 0,0 0,-0.44 1.06c-0.06,1.18 1.6,3.23 6.45,5.18A59.09,59.09 0,0 0,117 241.1a59.28,59.28 0,0 0,18.8 -1.82c5,-1.49 6.85,-3.38 6.91,-4.55l0.19,-13.86C140.82,220.54 138,214.23 129.36,211.9Z"/></clipPath><clipPath id="clip_path_7"><path d="M129.36,211.9c-8.85,-2.38 -20.78,-2.36 -26.21,-0.47a24,24 0,0 0,-9.09 6l-1.6,13.86a1.94,1.94 0,0 0,-0.44 1.06c-0.06,1.18 1.6,3.23 6.45,5.18A59.09,59.09 0,0 0,117 241.1a59.28,59.28 0,0 0,18.8 -1.82c5,-1.49 6.85,-3.38 6.91,-4.55l0.19,-13.86C140.82,220.54 138,214.23 129.36,211.9Z"/></clipPath><clipPath id="clip_path_8"><path d="M129.36,211.9c-8.85,-2.38 -20.78,-2.36 -26.21,-0.47a24,24 0,0 0,-9.09 6l-1.6,13.86a1.94,1.94 0,0 0,-0.44 1.06c-0.06,1.18 1.6,3.23 6.45,5.18A59.09,59.09 0,0 0,117 241.1a59.28,59.28 0,0 0,18.8 -1.82c5,-1.49 6.85,-3.38 6.91,-4.55l0.19,-13.86C140.82,220.54 138,214.23 129.36,211.9Z"/></clipPath><clipPath id="clip_path_9"><path d="M129.36,211.9c-8.85,-2.38 -20.78,-2.36 -26.21,-0.47a24,24 0,0 0,-9.09 6l-1.6,13.86a1.94,1.94 0,0 0,-0.44 1.06c-0.06,1.18 1.6,3.23 6.45,5.18A59.09,59.09 0,0 0,117 241.1a59.28,59.28 0,0 0,18.8 -1.82c5,-1.49 6.85,-3.38 6.91,-4.55l0.19,-13.86C140.82,220.54 138,214.23 129.36,211.9Z"/></clipPath><clipPath id="clip_path_10"><path d="M129.36,211.9c-8.85,-2.38 -20.78,-2.36 -26.21,-0.47a24,24 0,0 0,-9.09 6l-1.6,13.86a1.94,1.94 0,0 0,-0.44 1.06c-0.06,1.18 1.6,3.23 6.45,5.18A59.09,59.09 0,0 0,117 241.1a59.28,59.28 0,0 0,18.8 -1.82c5,-1.49 6.85,-3.38 6.91,-4.55l0.19,-13.86C140.82,220.54 138,214.23 129.36,211.9Z"/></clipPath><clipPath id="clip_path_11"><path d="M129.36,211.9c-8.85,-2.38 -20.78,-2.36 -26.21,-0.47a24,24 0,0 0,-9.09 6l-1.6,13.86a1.94,1.94 0,0 0,-0.44 1.06c-0.06,1.18 1.6,3.23 6.45,5.18A59.09,59.09 0,0 0,117 241.1a59.28,59.28 0,0 0,18.8 -1.82c5,-1.49 6.85,-3.38 6.91,-4.55l0.19,-13.86C140.82,220.54 138,214.23 129.36,211.9Z"/></clipPath></defs><path fill="#92E3A9" d="M166.19,77.92S90.42,116.52 52.63,176 17.83,312 63.75,368.8s133.69,49.34 207.18,85.32 154.57,28.57 189.32,-47.66S442.6,301.74 433.6,213.52 345.07,-3.88 166.19,77.92Z" id="path_0"/><path fill="#fff" d="M166.19,77.92S90.42,116.52 52.63,176 17.83,312 63.75,368.8s133.69,49.34 207.18,85.32 154.57,28.57 189.32,-47.66S442.6,301.74 433.6,213.52 345.07,-3.88 166.19,77.92Z" fill-opacity="0.8" stroke-opacity="0.8" id="path_1"/><path fill="#000000" d="M394.43,76c-4.68,-2.56 -6.81,-0.43 -8.52,-2.56s4.69,-7.67 -8.09,-13.2c0,0 -0.85,-11.93 -18.32,-12.36S346.72,59.84 342,62.82s-6,-1.7 -10.65,1.28 -2.56,9 -6.39,9.8 -8.95,-3.84 -13.63,-0.85 -4.69,5.53 -6.82,5.53 -6.39,-1.7 -8.94,0 -5.54,3.84 -5.54,3.84H397.84S399.12,78.58 394.43,76Z" fill-opacity="0" stroke-linejoin="round" stroke-linecap="round" stroke="#263238" stroke-width="1" id="path_2"/><path fill="#000000" d="M330.68,74.28a15.7,15.7 0,0 1,-1.9 0.9" fill-opacity="0" stroke-linejoin="round" stroke-linecap="round" stroke="#263238" stroke-width="1" id="path_3"/><path fill="#000000" d="M353.74,54.38a7.27,7.27 0,0 0,-4.16 5.2c-0.78,3.9 -2.6,6.5 -4.68,6.76s-9.88,-0.52 -11.18,2.34a11.36,11.36 0,0 0,-0.73 2.61" fill-opacity="0" stroke-linejoin="round" stroke-linecap="round" stroke="#263238" stroke-width="1" id="path_4"/><path fill="#000000" d="M339.79,106.65c-2.46,-1.34 -3.57,-0.22 -4.47,-1.34s2.46,-4 -4.24,-6.92c0,0 -0.45,-6.26 -9.6,-6.48s-6.7,6.25 -9.16,7.82 -3.13,-0.9 -5.58,0.67 -1.34,4.69 -3.35,5.13 -4.7,-2 -7.15,-0.44 -2.46,2.9 -3.58,2.9 -3.35,-0.89 -4.69,0 -2.9,2 -2.9,2h56.51S342.25,108 339.79,106.65Z" fill-opacity="0" stroke-linejoin="round" stroke-linecap="round" stroke="#263238" stroke-width="1" id="path_5"/><path fill="#000000" d="M306.36,105.73a6.63,6.63 0,0 1,-1 0.47" fill-opacity="0" stroke-linejoin="round" stroke-linecap="round" stroke="#263238" stroke-width="1" id="path_6"/><path fill="#000000" d="M318.45,95.3A3.81,3.81 0,0 0,316.27 98c-0.41,2 -1.36,3.41 -2.45,3.55s-5.18,-0.27 -5.86,1.23a6,6 0,0 0,-0.39 1.36" fill-opacity="0" stroke-linejoin="round" stroke-linecap="round" stroke="#263238" stroke-width="1" id="path_7"/><path fill="#92E3A9" d="M56.58,201.5s45,4.45 67.77,32.33c0,0 24.08,-32.3 67.34,-31.63a87.41,87.41 0,1 0,-135.12 -0.62Z" id="path_8"/><path fill="#fff" d="M56.58,201.5s45,4.45 67.77,32.33c0,0 24.08,-32.3 67.34,-31.63a87.41,87.41 0,1 0,-135.12 -0.62Z" fill-opacity="0.5" stroke-opacity="0.5" id="path_9"/><path fill="#263238" d="M122.86,65.16l-1.52,343.84l7.6,0l-6.08,-343.84z" id="path_10"/><path fill="#263238" d="M125.14,225.33s15.18,-27.32 42.51,-35.67c0,0 -28.85,6.83 -43.27,30.36Z" id="path_11"/><path fill="#263238" d="M125.14,147.91s15.18,-27.33 42.51,-35.68c0,0 -28.85,6.83 -43.27,30.36Z" id="path_12"/><path fill="#263238" d="M125.14,186.62s15.18,-27.33 42.51,-35.68c0,0 -28.85,6.83 -43.27,30.37Z" id="path_13"/><path fill="#263238" d="M122.89,167.64s-14.65,-27.33 -41,-35.68c0,0 27.84,6.84 41.75,30.37Z" id="path_14"/><path fill="#263238" d="M122.89,205.6s-14.65,-27.33 -41,-35.68c0,0 27.84,6.83 41.75,30.36Z" id="path_15"/><path fill="#92E3A9" d="M345.8,230.93s38.6,3.82 58.16,27.75c0,0 20.66,-27.72 57.78,-27.15A75,75 0,1 0,345.79 231Z" id="path_16"/><path fill="#fff" d="M345.8,230.93s38.6,3.82 58.16,27.75c0,0 20.66,-27.72 57.78,-27.15A75,75 0,1 0,345.79 231Z" fill-opacity="0.5" stroke-opacity="0.5" id="path_17"/><path fill="#263238" d="M402.68,113.93l-1.3,295.07l6.51,0l-5.21,-295.07z" id="path_18"/><path fill="#263238" d="M404.63,251.38s13,-23.45 36.48,-30.61c0,0 -24.75,5.86 -37.13,26Z" id="path_19"/><path fill="#263238" d="M404.63,184.94s13,-23.45 36.48,-30.62c0,0 -24.75,5.86 -37.13,26.06Z" id="path_20"/><path fill="#263238" d="M404.63,218.16s13,-23.45 36.48,-30.62c0,0 -24.75,5.87 -37.13,26.06Z" id="path_21"/><path fill="#263238" d="M402.7,201.88s-12.57,-23.46 -35.2,-30.62c0,0 23.89,5.86 35.83,26.06Z" id="path_22"/><path fill="#263238" d="M402.7,234.45S390.13,211 367.5,203.83c0,0 23.89,5.86 35.83,26.06Z" id="path_23"/><path fill="#92E3A9" d="M255.64,410.23c0.14,-3.13 -0.28,-9.06 -3.68,-18 -5.33,-14 -14.66,14 -14.66,14s0,-3.33 -10,-14 -18.67,8 -18.67,8 4.67,-44.66 -6.67,-41.33 -10,41.33 -10,41.33 -8,-28 -18.66,-28 -13.34,20 -13.34,20 -2.66,-35.33 -13.33,-36S124,385.57 124,385.57s3.34,-40 -7.33,-42S102,358.23 102,358.23s-9.33,-55.33 -27.33,-48.66 -2.67,68 -2.67,68S54,334.9 39.3,344.9C26,354 42.93,401.64 46.13,410.23Z" id="path_24"/><path fill="#000000" d="M40.63,411.57s-8,-25.34 -4,-29.34S58,395.57 58,395.57s-12.66,-42.67 7.34,-48S88.63,388.9 88.63,388.9s14.67,-21.33 18,-13.33A44.37,44.37 0,0 1,110 390.9s7.34,-58 24,-55.33 1.34,60 1.34,60 9.33,-20 20,-18S170,392.23 170,392.23s4.67,-11.33 8,-11.33 7.34,20 7.34,20 4,-30.67 11.33,-29.33S219.3,398.9 219.3,398.9s-2.67,-14.67 5.33,-15.33 12.67,22.66 12.67,22.66 10.66,-22 17.33,-18S258,413.57 258,413.57" fill-opacity="0" stroke-linejoin="round" stroke-linecap="round" stroke="#263238" stroke-width="1" id="path_25"/><path fill="#000000" d="M77.3,411.57L70.63,381.57" fill-opacity="0" stroke-linejoin="round" stroke-linecap="round" stroke="#263238" stroke-width="1" id="path_26"/><path fill="#000000" d="M117.96,410.23L121.3,391.57" fill-opacity="0" stroke-linejoin="round" stroke-linecap="round" stroke="#263238" stroke-width="1" id="path_27"/><path fill="#000000" d="M203.96,411.57L197.96,394.9" fill-opacity="0" stroke-linejoin="round" stroke-linecap="round" stroke="#263238" stroke-width="1" id="path_28"/><path fill="#000000" d="M150.63,410.9L157.96,397.57" fill-opacity="0" stroke-linejoin="round" stroke-linecap="round" stroke="#263238" stroke-width="1" id="path_29"/><path fill="#000000" d="M75.3,398.9L80.63,388.23" fill-opacity="0" stroke-linejoin="round" stroke-linecap="round" stroke="#263238" stroke-width="1" id="path_30"/><path fill="#000000" d="M117.96,404.23L113.3,394.9" fill-opacity="0" stroke-linejoin="round" stroke-linecap="round" stroke="#263238" stroke-width="1" id="path_31"/><path fill="#000000" d="M153.96,403.57L150.63,397.57" fill-opacity="0" stroke-linejoin="round" stroke-linecap="round" stroke="#263238" stroke-width="1" id="path_32"/><path fill="#000000" d="M201.3,402.9L203.3,396.23" fill-opacity="0" stroke-linejoin="round" stroke-linecap="round" stroke="#263238" stroke-width="1" id="path_33"/><path fill="#92E3A9" d="M460.22,410.23c0.14,-3.13 -0.28,-9.06 -3.68,-18 -5.33,-14 -14.66,14 -14.66,14s0,-3.33 -10,-14 -18.67,8 -18.67,8 4.67,-44.66 -6.67,-41.33 -10,41.33 -10,41.33 -8,-28 -18.66,-28 -13.34,20 -13.34,20 -2.66,-35.33 -13.33,-36 -22.67,29.34 -22.67,29.34 3.34,-40 -7.33,-42 -14.67,14.66 -14.67,14.66 -9.33,-55.33 -27.33,-48.66 -2.67,68 -2.67,68 -18,-42.67 -32.66,-32.67c-13.34,9.09 3.63,56.74 6.83,65.33Z" id="path_34"/><path fill="#000000" d="M245.21,411.57s-8,-25.34 -4,-29.34 21.33,13.34 21.33,13.34 -12.66,-42.67 7.34,-48 23.33,41.33 23.33,41.33 14.67,-21.33 18,-13.33a44.37,44.37 0,0 1,3.33 15.33s7.34,-58 24,-55.33 1.34,60 1.34,60 9.33,-20 20,-18 14.66,14.66 14.66,14.66 4.67,-11.33 8,-11.33 7.34,20 7.34,20 4,-30.67 11.33,-29.33 22.67,27.33 22.67,27.33 -2.67,-14.67 5.33,-15.33 12.67,22.66 12.67,22.66 10.66,-22 17.33,-18 3.33,25.34 3.33,25.34" fill-opacity="0" stroke-linejoin="round" stroke-linecap="round" stroke="#263238" stroke-width="1" id="path_35"/><path fill="#000000" d="M281.88,411.57L275.21,381.57" fill-opacity="0" stroke-linejoin="round" stroke-linecap="round" stroke="#263238" stroke-width="1" id="path_36"/><path fill="#000000" d="M322.54,410.23L325.88,391.57" fill-opacity="0" stroke-linejoin="round" stroke-linecap="round" stroke="#263238" stroke-width="1" id="path_37"/><path fill="#000000" d="M408.54,411.57L402.54,394.9" fill-opacity="0" stroke-linejoin="round" stroke-linecap="round" stroke="#263238" stroke-width="1" id="path_38"/><path fill="#000000" d="M355.21,410.9L362.54,397.57" fill-opacity="0" stroke-linejoin="round" stroke-linecap="round" stroke="#263238" stroke-width="1" id="path_39"/><path fill="#000000" d="M279.88,398.9L285.21,388.23" fill-opacity="0" stroke-linejoin="round" stroke-linecap="round" stroke="#263238" stroke-width="1" id="path_40"/><path fill="#000000" d="M322.54,404.23L317.88,394.9" fill-opacity="0" stroke-linejoin="round" stroke-linecap="round" stroke="#263238" stroke-width="1" id="path_41"/><path fill="#000000" d="M358.54,403.57L355.21,397.57" fill-opacity="0" stroke-linejoin="round" stroke-linecap="round" stroke="#263238" stroke-width="1" id="path_42"/><path fill="#000000" d="M405.88,402.9L407.88,396.23" fill-opacity="0" stroke-linejoin="round" stroke-linecap="round" stroke="#263238" stroke-width="1" id="path_43"/><path fill="#ccc" d="M231.28,335.82h11.11v77.75h-11.11z" stroke-linejoin="round" stroke-linecap="round" stroke="#263238" stroke-width="1" id="path_44"/><path fill="#fff" d="M240.8,335.82h11.11v77.75h-11.11z" stroke-linejoin="round" stroke-linecap="round" stroke="#263238" stroke-width="1" id="path_45"/><path fill="#ccc" d="M350.28,335.82h11.11v77.75h-11.11z" stroke-linejoin="round" stroke-linecap="round" stroke="#263238" stroke-width="1" id="path_46"/><path fill="#fff" d="M359.8,335.82h11.11v77.75h-11.11z" stroke-linejoin="round" stroke-linecap="round" stroke="#263238" stroke-width="1" id="path_47"/><path fill="#ccc" d="M418.51,335.82h11.11v77.75h-11.11z" stroke-linejoin="round" stroke-linecap="round" stroke="#263238" stroke-width="1" id="path_48"/><path fill="#fff" d="M428.03,335.82h11.11v77.75h-11.11z" stroke-linejoin="round" stroke-linecap="round" stroke="#263238" stroke-width="1" id="path_49"/><path fill="#ccc" d="M404.23,335.82h11.11v77.75h-11.11z" stroke-linejoin="round" stroke-linecap="round" stroke="#263238" stroke-width="1" id="path_50"/><path fill="#fff" d="M413.75,335.82h11.11v77.75h-11.11z" stroke-linejoin="round" stroke-linecap="round" stroke="#263238" stroke-width="1" id="path_51"/><path fill="#ccc" d="M452.62,335.82h11.11v77.75h-11.11z" stroke-linejoin="round" stroke-linecap="round" stroke="#263238" stroke-width="1" id="path_52"/><path fill="#fff" d="M462.14,335.82h11.11v77.75h-11.11z" stroke-linejoin="round" stroke-linecap="round" stroke="#263238" stroke-width="1" id="path_53"/><path fill="#b2b2b2" d="M370.47,164.07a4.77,4.77 0,0 0,-6 0.1l-67.09,55.91v12.39l70.23,-58.53 74.95,58.4V220.28Z" stroke-linejoin="round" stroke-linecap="round" stroke="#263238" stroke-width="1" id="path_54"/><path fill="#fff" d="M438.95,340.24l-137.72,0l0,-117.32l66.31,-55.09l71.41,55.09l0,117.32z" stroke-linejoin="round" stroke-linecap="round" stroke="#263238" stroke-width="1" id="path_55"/><path fill="#ccc" d="M375.67,340.24l45.22,0l0,-44.08l-45.22,-30.94l0,75.02z" stroke-linejoin="round" stroke-linecap="round" stroke="#263238" stroke-width="1" id="path_56"/><path fill="#ccc" d="M368.56,340.24l-137.72,0l0,-117.32l66.31,-55.09l71.41,55.09l0,117.32z" stroke-linejoin="round" stroke-linecap="round" stroke="#263238" stroke-width="1" id="path_57"/><path fill="#000000" d="M258.7,199.37L335.39,199.37" fill-opacity="0" stroke-linejoin="round" stroke-linecap="round" stroke="#263238" stroke-width="1" id="path_58"/><path fill="#000000" d="M230.49,227.14L437.64,227.14" fill-opacity="0" stroke-linejoin="round" stroke-linecap="round" stroke="#263238" stroke-width="1" id="path_59"/><path fill="#000000" d="M230.49,254.9L438.28,254.9" fill-opacity="0" stroke-linejoin="round" stroke-linecap="round" stroke="#263238" stroke-width="1" id="path_60"/><path fill="#000000" d="M230.49,282.67L375.67,282.67" fill-opacity="0" stroke-linejoin="round" stroke-linecap="round" stroke="#263238" stroke-width="1" id="path_61"/><path fill="#000000" d="M230.49,310.44L376.16,310.44" fill-opacity="0" stroke-linejoin="round" stroke-linecap="round" stroke="#263238" stroke-width="1" id="path_62"/><path fill="#fff" d="M297.82,166.83l70.39,0l73.08,56.28l-70.39,0l-73.08,-56.28z" stroke-linejoin="round" stroke-linecap="round" stroke="#263238" stroke-width="1" id="path_63"/><path fill="#000000" d="M318.88,181.06L386.32,181.06" fill-opacity="0" stroke-linejoin="round" stroke-linecap="round" stroke="#263238" stroke-width="1" id="path_64"/><path fill="#000000" d="M337.73,195.38L404.71,195.38" fill-opacity="0" stroke-linejoin="round" stroke-linecap="round" stroke="#263238" stroke-width="1" id="path_65"/><path fill="#000000" d="M356.57,209.69L423.34,209.69" fill-opacity="0" stroke-linejoin="round" stroke-linecap="round" stroke="#263238" stroke-width="1" id="path_66"/><path fill="#b2b2b2" d="M370.82,219.2l-70.74,-55.13a4.77,4.77 0,0 0,-6 0.1l-66.83,55.69v12.39l70,-58.31 73.57,57.33Z" stroke-linejoin="round" stroke-linecap="round" stroke="#263238" stroke-width="1" id="path_67"/><path fill="#b2b2b2" d="M479.53,301.75l-51.44,-32.88l0,-17.14l51.44,32.88l0,17.14z" stroke-linejoin="round" stroke-linecap="round" stroke="#263238" stroke-width="1" id="path_68"/><path fill="#fff" d="M418.51,340.24l57.91,0l0,-44.08l-57.91,-30.94l0,75.02z" stroke-linejoin="round" stroke-linecap="round" stroke="#263238" stroke-width="1" id="path_69"/><path fill="#fff" d="M424.9,296.2l53.94,0l-47.64,-30.98l-55.53,0l49.23,30.98z" stroke-linejoin="round" stroke-linecap="round" stroke="#263238" stroke-width="1" id="path_70"/><path fill="#b2b2b2" d="M424.39,301.75l-51.43,-32.88l0,-17.14l51.43,32.88l0,17.14z" stroke-linejoin="round" stroke-linecap="round" stroke="#263238" stroke-width="1" id="path_71"/><path fill="#263238" d="M273.33,275.98h46.81v64.26h-46.81z" stroke-linejoin="round" stroke-linecap="round" stroke="#263238" stroke-width="1" id="path_72"/><path fill="#ccc" d="M273.33,213.3h46.81v64.26h-46.81z" stroke-linejoin="round" stroke-linecap="round" stroke="#263238" stroke-width="1" id="path_73"/><path fill="#b2b2b2" d="M273.33,222.2h46.81v8.9h-46.81z" stroke-linejoin="round" stroke-linecap="round" stroke="#263238" stroke-width="1" id="path_74"/><path fill="#fff" d="M273.28,340.24l47.6,0l-33.22,73.33l-47.6,0l33.22,-73.33z" stroke-linejoin="round" stroke-linecap="round" stroke="#263238" stroke-width="1" id="path_75"/><path fill="#ccc" d="M268.45,350.89l47.6,0l-2.87,6.35l-47.6,0l2.87,-6.35z" stroke-linejoin="round" stroke-linecap="round" stroke="#263238" stroke-width="1" id="path_76"/><path fill="#ccc" d="M258.75,372.31l47.6,0l-2.88,6.35l-47.6,0l2.88,-6.35z" stroke-linejoin="round" stroke-linecap="round" stroke="#263238" stroke-width="1" id="path_77"/><path fill="#ccc" d="M249.04,393.73l47.6,0l-2.87,6.35l-47.6,0l2.87,-6.35z" stroke-linejoin="round" stroke-linecap="round" stroke="#263238" stroke-width="1" id="path_78"/><path fill="#92E3A9" d="M42,449a155,21 0,1 0,310 0a155,21 0,1 0,-310 0z" id="path_79"/><path fill="#fff" d="M42,449a155,21 0,1 0,310 0a155,21 0,1 0,-310 0z" fill-opacity="0.5" stroke-opacity="0.5" id="path_80"/><path fill="#fff" d="M254,267s10.8,4.37 19,5.14 20.82,-5.14 22.88,-15.94 -4.89,-31.1 -7.2,-35.47 -16.2,-35.22 -23.91,-41.9 -20.31,-10.55 -22.88,-11.57 -0.77,8.74 -1.28,14.91 -0.52,37.53 -0.52,37.53l-1.8,41.13S247.78,264.41 254,267Z" id="path_81"/><g id="g_0"><path fill="#ccc" d="M290.55,225.19a28.12,28.12 0,0 0,-3.87 -0.24c-1.63,-4.27 -3.5,-8.72 -5.48,-13 0.75,-0.64 1.51,-1.25 2.28,-1.85l-0.91,-1.85c-0.76,0.58 -1.51,1.18 -2.26,1.8a142.28,142.28 0,0 0,-9 -16.44c0.5,-1.4 1,-2.69 1.38,-3.85 -0.45,-0.75 -0.89,-1.49 -1.33,-2.2 -0.42,1.16 -0.91,2.5 -1.44,4a30.08,30.08 0,0 0,-4 -4.8,49.49 49.49,0 0,0 -5.36,-4.23q0.9,-3.21 1.65,-5.69c-0.56,-0.4 -1.14,-0.79 -1.73,-1.17 -0.5,1.63 -1.06,3.54 -1.67,5.69a75.85,75.85 0,0 0,-17 -8l-0.59,1.91a75.7,75.7 0,0 1,17 8.15c-0.78,2.9 -1.62,6.15 -2.43,9.66a37.51,37.51 0,0 0,-11 -3.68l-0.27,2A36.37,36.37 0,0 1,255.35 195c-0.86,3.82 -1.67,7.91 -2.38,12.14a88.09,88.09 0,0 0,-7.77 -5.69l-1.07,1.69a89.1,89.1 0,0 1,8.47 6.31c-0.65,4.15 -1.18,8.4 -1.52,12.66a60.35,60.35 0,0 0,-7.61 -5l-0.94,1.76a61.17,61.17 0,0 1,8.38 5.7c-0.18,2.94 -0.28,5.88 -0.24,8.76l2,0c0,-2.34 0,-4.72 0.15,-7.12a42.54,42.54 0,0 1,4.74 4.92c-0.34,1.42 -0.63,2.77 -0.88,4l1.23,0.24c-2,2.85 -3.23,4.79 -3.42,5.09l1.69,1.06 0.77,-1.18 0.06,0.05s0.44,-0.39 1.15,-1l0,0.22a27.8,27.8 0,0 1,6.43 2.53l-2,0.92c-17.89,8.13 -22.44,9.26 -22.48,9.27l0.45,1.95c0.18,0 4.64,-1.12 22.85,-9.4q1.69,-0.76 3.18,-1.5a19.28,19.28 0,0 1,7.46 8.93l-0.13,0a30.82,30.82 0,0 0,-5.62 1.36c-5.8,2.26 -23.55,3.92 -23.73,3.94l0.19,2c0.74,-0.07 18.21,-1.7 24.27,-4.06a29,29 0,0 1,5.24 -1.26l0.42,-0.08a19.59,19.59 0,0 1,0.64 5.07,33.16 33.16,0 0,1 -0.17,3.42c-0.68,0.19 -1.35,0.36 -2,0.49 -4.43,0.83 -15.09,1.8 -22.45,2.41L254,267l0.84,0.33c6.85,-0.6 14.91,-1.39 18.71,-2.1 0.45,-0.09 0.91,-0.19 1.36,-0.3a20.39,20.39 0,0 1,-2.61 7.14l0.73,0.07a14.65,14.65 0,0 0,1.5 0.07,23.69 23.69,0 0,0 2.5,-7.91 24.2,24.2 0,0 0,12.41 -9.12c0.11,0.35 0.22,0.71 0.3,1.07a15.78,15.78 0,0 1,-1 10.94,21.55 21.55,0 0,0 3.1,-2.86 18.33,18.33 0,0 0,-0.12 -8.54,22.1 22.1,0 0,0 -0.92,-2.92 18.72,18.72 0,0 0,1.54 -4.6c0.7,-3.68 -1.4,-11.92 -4.82,-21.26a24.09,24.09 0,0 1,3.87 0.34C291.05,226.57 290.79,225.86 290.55,225.19ZM284.6,225.05a32.67,32.67 0,0 0,-5.13 0.84c-1.11,-2.26 -2.59,-5.2 -4.26,-8.36 1.43,-1.46 2.91,-2.88 4.42,-4.24C281.42,217.19 283.11,221.19 284.6,225.05ZM274.1,236.79a51.23,51.23 0,0 0,-7.91 -3c1.27,-0.77 2.64,-1.53 4.09,-2.26a1.93,1.93 0,0 1,0.12 0.29,1 1,0 0,1 0,-0.35l0.59,-0.29 0.34,0.49 -0.55,0.83 0.72,0.45 0.58,-0.57c0.32,-0.32 0.53,-0.53 0,-1.71a46.15,46.15 0,0 1,6.35 -2.37c0.62,1.27 1.05,2.17 1.23,2.56C279.55,231.37 278.85,233.46 274.1,236.79ZM281.32,232.22a10.63,10.63 0,0 1,4.38 11.88c-0.06,0.24 -0.13,0.45 -0.2,0.67a37.1,37.1 0,0 0,-9.38 -7C279.41,235.37 280.78,233.49 281.32,232.22ZM267.43,223.05c-0.39,-0.61 -0.81,-1.24 -1.26,-1.93a46.16,46.16 0,0 0,-2.74 -3.72c1.08,-3.52 2.23,-7.1 3.37,-10.55 2,3.19 4.06,6.83 5.93,10.31C270.86,219.1 269.09,221.09 267.43,223.05ZM273.74,219.05c1.45,2.75 2.74,5.3 3.75,7.35a48.5,48.5 0,0 0,-6.41 2.43c-0.57,-1 -1.38,-2.28 -2.49,-4C270.2,222.92 271.93,221 273.74,219.06ZM267.24,226.45c0.91,1.43 1.56,2.49 2,3.26a66.7,66.7 0,0 0,-8.53 5.19C262.5,232.47 264.71,229.54 267.24,226.46ZM270.51,196a152.46,152.46 0,0 1,8.23 15.4c-1.55,1.37 -3.07,2.8 -4.54,4.28 -2.07,-3.83 -4.36,-7.84 -6.59,-11.24C268.62,201.41 269.61,198.55 270.51,196ZM260,184.55a48,48 0,0 1,4.58 3.66,32.33 32.33,0 0,1 4.57,5.64c-0.9,2.56 -1.9,5.42 -2.93,8.47a30.88,30.88 0,0 0,-4.21 -5.06,28.93 28.93,0 0,0 -4.37,-3.23C258.41,190.61 259.22,187.41 260,184.55ZM257.17,196.11a25.2,25.2 0,0 1,3.5 2.63,33.72 33.72,0 0,1 4.75,6c-1.18,3.53 -2.38,7.23 -3.52,10.9a77.09,77.09 0,0 0,-7.15 -6.94C255.45,204.3 256.28,200.07 257.16,196.11ZM258.17,228.71a46.88,46.88 0,0 0,-5.17 -5c0.29,-4.25 0.78,-8.5 1.4,-12.66a68.83,68.83 0,0 1,6.82 6.84C260.05,221.64 259,225.33 258.15,228.71ZM259.7,230.82 L259.82,230.73 259.75,230.64c0.81,-3.35 1.85,-7.06 3,-10.9 0.63,0.81 1.23,1.64 1.78,2.48s1.11,1.69 1.58,2.43c-2.78,3.37 -5.2,6.58 -7.09,9.22C259.19,232.9 259.43,231.87 259.68,230.82ZM259.9,238.07c1.14,-0.88 2.6,-1.93 4.29,-3l-0.06,0.27a47.83,47.83 0,0 1,8 2.8c-1.5,0.94 -3.3,1.95 -5.45,3A31.85,31.85 0,0 0,259.88 238.07ZM268.55,242.43c2.25,-1.18 4.13,-2.28 5.68,-3.3a35.62,35.62 0,0 1,10.43 7.73c-1.81,3.31 -5,4.39 -8.6,5.11A21.07,21.07 0,0 0,268.53 242.43ZM277.25,262.08c0.06,-0.87 0.1,-1.78 0.1,-2.75a21,21 0,0 0,-0.69 -5.44c3.58,-0.75 7.15,-1.95 9.36,-5.38a21.29,21.29 0,0 1,2.51 4.27A21.41,21.41 0,0 1,277.23 262.08ZM290.31,247.88a16,16 0,0 1,-0.7 2.51A24.77,24.77 0,0 0,287 246.5a14.09,14.09 0,0 0,0.63 -1.93A12.9,12.9 0,0 0,281.43 230c-0.19,-0.4 -0.54,-1.16 -1,-2.16a30.76,30.76 0,0 1,5 -0.74C288.81,236.27 291,244.39 290.29,247.88Z" clip-path="url(#clip_path_0)"/></g><path fill="#000000" d="M254,267s10.8,4.37 19,5.14 20.82,-5.14 22.88,-15.94 -4.89,-31.1 -7.2,-35.47 -16.2,-35.22 -23.91,-41.9 -20.31,-10.55 -22.88,-11.57 -0.77,8.74 -1.28,14.91 -0.52,37.53 -0.52,37.53l-1.8,41.13S247.78,264.41 254,267Z" fill-opacity="0" stroke-linejoin="round" stroke-linecap="round" stroke="#263238" stroke-width="1" id="path_82"/><path fill="#000000" d="M267.06,233.82s12.09,-9.26 21.34,3.34" fill-opacity="0" stroke-linejoin="round" stroke-linecap="round" stroke="#263238" stroke-width="1" id="path_83"/><path fill="#92E3A9" d="M180.93,98.38c-0.52,0.86 -0.25,-13.86 3.92,-21 1.4,-2.39 14.2,-6.87 26.57,-4s17.67,9.06 18.11,11.93S228,106.56 228,106.56 208.1,95.07 180.93,98.38Z" stroke-linejoin="round" stroke-linecap="round" stroke="#263238" stroke-width="1" id="path_84"/><path fill="#a6a6a6" d="M202.05,129.67a17.12,42.75 95.87,1 0,3.5 -34.06a17.12,42.75 95.87,1 0,-3.5 34.06z" stroke-linejoin="round" stroke-linecap="round" stroke="#263238" stroke-width="1" id="path_85"/><path fill="#fff" d="M156.33,162.33s-16.33,5.34 -24,11.67 -35.66,32.33 -48,41 -17,23 -10.66,33.67S92.33,262 100.33,260s18,-13.67 27,-19 16,-15 16,-15 4.67,-33.67 6.34,-43.67 8,-18.66 8,-18.66S157.67,161.33 156.33,162.33Z" id="path_86"/><g id="g_1"><path fill="#ccc" d="M140.15,181.11c0.5,-5.48 1,-9.93 1.41,-12.75 -0.72,0.35 -1.44,0.72 -2.15,1.1 -0.4,3.14 -0.92,7.65 -1.39,13a67.48,67.48 0,0 0,-9.07 7.18c-1.5,1.44 -3.2,2.9 -5,4.36 -0.24,-5.22 -0.38,-9.47 -0.46,-12.27l-2,1.73c0.09,3 0.24,7.14 0.48,12 -4.3,3.27 -9.22,6.56 -14.16,9.81 -0.91,-2.92 -1.74,-5.48 -2.43,-7.6l-1.64,1.43c0.68,2.08 1.47,4.54 2.33,7.32l-1.24,0.81c-3.81,2.49 -7.48,4.9 -10.78,7.21A21.73,21.73 0,0 0,90.54 212c-0.47,-0.26 -0.92,-0.48 -1.36,-0.67 -0.63,0.49 -1.24,1 -1.83,1.41a14.86,14.86 0,0 1,2.35 1.08,19.64 19.64,0 0,1 2.67,1.85c-2.15,1.55 -4.11,3.05 -5.76,4.48A31.57,31.57 0,0 0,81.26 226a22.62,22.62 0,0 0,-7.36 0.56q-0.63,1.2 -1.14,2.43A21.54,21.54 0,0 1,80 228c-4.74,8.27 -4,18 2.27,28.56a1,1 0,0 0,0.86 0.49,0.94 0.94,0 0,0 0.51,-0.14 1,1 0,0 0,0.35 -1.37c-6,-10.19 -6.58,-19.49 -1.73,-27.33a19.59,19.59 0,0 1,2.39 0.5,23.26 23.26,0 0,1 8,4.07c-0.28,0.48 -0.56,1 -0.8,1.45 -5.31,10.57 2.44,17.17 2.52,17.24a1,1 0,0 0,1.41 -0.13,1 1,0 0,0 -0.13,-1.41c-0.07,-0.06 -6.62,-5.64 -2,-14.8 0.17,-0.35 0.38,-0.7 0.58,-1.06a43.93,43.93 0,0 1,8.14 10,9.49 9.49,0 0,0 0.42,4.65 1,1 0,0 0,0.9 0.55,1 1,0 0,0 0.45,-0.1 1,1 0,0 0,0.53 -1q1.36,2.61 2.66,5.56a1,1 0,0 0,0.92 0.6,1 1,0 0,0 0.4,-0.09 1,1 0,0 0,0.51 -1.31,80.22 80.22,0 0,0 -4.77,-9.33 24.51,24.51 0,0 1,1.72 -6,151.81 151.81,0 0,1 5.13,16c0.57,-0.44 1.13,-0.9 1.7,-1.37a143.78,143.78 0,0 0,-5.67 -17.05,34.83 34.83,0 0,1 5,-7c1.76,6.72 3.42,13.8 4.74,20.69l1.76,-1.46c-1.38,-7 -3.09,-14.15 -4.87,-20.91 0.84,-0.82 1.74,-1.63 2.71,-2.42a62.58,62.58 0,0 1,6.92 -4.8c0.27,3.2 0.57,6.47 0.91,9.75a43.22,43.22 0,0 0,-7.8 5.87,1 1,0 0,0 0,1.41 1,1 0,0 0,1.42 0,38.57 38.57,0 0,1 6.62,-5.06c0.38,3.58 0.82,7.17 1.3,10.7 0.45,-0.3 0.91,-0.59 1.36,-0.86l0.49,-0.31c-0.47,-3.53 -0.89,-7.11 -1.27,-10.68a121.33,121.33 0,0 1,10.8 -5.54c0.21,2.58 0.49,5.12 0.84,7.58 0.63,-0.67 1.22,-1.32 1.76,-1.92 -0.27,-2.13 -0.5,-4.31 -0.67,-6.53 1.7,-0.75 3.29,-1.42 4.66,-2 0.1,-0.71 0.21,-1.47 0.33,-2.3 -1.46,0.58 -3.21,1.3 -5.14,2.14 -0.21,-3.33 -0.32,-6.71 -0.36,-10.09 2.59,-1.15 5,-2.15 7,-3 0.1,-0.76 0.21,-1.52 0.32,-2.3 -2.07,0.82 -4.6,1.85 -7.37,3.06 0,-3.45 0.07,-6.88 0.2,-10.21 3.56,-2.16 6.59,-3.95 9,-5.36 0.13,-0.87 0.26,-1.72 0.38,-2.54 -2.35,1.37 -5.47,3.22 -9.26,5.5 0.22,-4.59 0.52,-9 0.86,-12.89a111.35,111.35 0,0 1,11 -6.25c0.29,-0.94 0.61,-1.84 0.95,-2.72A116.63,116.63 0,0 0,140.15 181.11ZM122.09,198c0.14,2.73 0.31,5.66 0.51,8.73 -4.4,2.79 -8.38,5.44 -12,8 -0.76,-2.61 -1.5,-5.09 -2.21,-7.38C113.15,204.24 117.87,201.09 122.09,198ZM105.92,209c0.26,-0.16 0.51,-0.33 0.76,-0.5 0.72,2.34 1.47,4.85 2.24,7.5a90.57,90.57 0,0 0,-8 6.67,39.49 39.49,0 0,0 -5.35,-6.74C98.73,213.69 102.27,211.37 105.92,209ZM93.69,231a25.11,25.11 0,0 0,-8.5 -4.3c-0.56,-0.15 -1.11,-0.27 -1.65,-0.38a29.31,29.31 0,0 1,4.38 -4.67c1.69,-1.46 3.73,-3 6,-4.62a37.14,37.14 0,0 1,5.55 7A44.08,44.08 0,0 0,93.69 231ZM102.86,241.12a43.32,43.32 0,0 0,-7.6 -8.85,41.22 41.22,0 0,1 5.28,-6.47 76.56,76.56 0,0 1,4.54 9.23A29.6,29.6 0,0 0,102.86 241.16ZM106.28,232.81A79.42,79.42 0,0 0,102 224.4a88.49,88.49 0,0 1,7.53 -6.33c0.71,2.49 1.43,5.08 2.14,7.75A37,37 0,0 0,106.28 232.85ZM115.34,222.4c-0.72,0.58 -1.39,1.17 -2,1.77 -0.69,-2.55 -1.38,-5 -2.07,-7.43 3.47,-2.55 7.32,-5.14 11.52,-7.82q0.25,3.89 0.59,8A67.44,67.44 0,0 0,115.34 222.44ZM124.67,207.7 L126.98,206.25q5.43,-3.37 9.94,-6.11c-0.11,3.23 -0.17,6.54 -0.15,9.87 -3.71,1.68 -7.7,3.64 -11.52,5.8C125,213.07 124.84,210.36 124.67,207.74ZM126.33,227.78c-0.34,-3.29 -0.63,-6.56 -0.9,-9.76 3.71,-2.13 7.66,-4.1 11.36,-5.79 0,3.37 0.17,6.74 0.4,10.06C133.73,223.89 129.9,225.76 126.33,227.82ZM137.01,197.78c-3.29,2 -7,4.26 -11.08,6.8l-1.41,0.88c-0.2,-3.18 -0.36,-6.19 -0.5,-9a81.09,81.09 0,0 0,6.32 -5.37,63.6 63.6,0 0,1 7.46,-6C137.48,189 137.2,193.3 137,197.79Z" clip-path="url(#clip_path_1)"/></g><path fill="#000000" d="M156.33,162.33s-16.33,5.34 -24,11.67 -35.66,32.33 -48,41 -17,23 -10.66,33.67S92.33,262 100.33,260s18,-13.67 27,-19 16,-15 16,-15 4.67,-33.67 6.34,-43.67 8,-18.66 8,-18.66S157.67,161.33 156.33,162.33Z" fill-opacity="0" stroke-linejoin="round" stroke-linecap="round" stroke="#263238" stroke-width="1" id="path_87"/><path fill="#fff" d="M82.67,238.67a11.18,11.18 0,0 0,-10.79 6.07,20.36 20.36,0 0,0 1.79,3.93 24,24 0,0 0,12.86 10.46c4.87,-1.88 8.47,-5.37 8.47,-8.46C95,246.67 93.33,239 82.67,238.67Z" stroke-linejoin="round" stroke-linecap="round" stroke="#263238" stroke-width="1" id="path_88"/><path fill="#878787" d="M150,427.23l-11.82,11c-3.84,3.57 -7.42,6.87 -7.42,9.34s-1.37,5.77 0.55,7.42 10.72,3.58 19.24,3.58a28.68,28.68 0,0 0,18.15 -6.87c3.29,-2.75 3.57,-6.33 7.14,-8s9.9,-1.37 11,-5.49 -0.55,-10.45 -0.55,-10.45Z" stroke-linejoin="round" stroke-linecap="round" stroke="#263238" stroke-width="1" id="path_89"/><path fill="#263238" d="M186.82,438.23a13.32,13.32 0,0 0,0.37 -3.21c-4.15,3.38 -12.84,6.9 -15.52,9.27 -3.12,2.76 -5.88,9.72 -21.37,10.56 -13,0.71 -18.43,-3.12 -19.87,-4.4 -0.25,1.76 -0.37,3.49 0.86,4.54 1.93,1.65 10.72,3.58 19.24,3.58a28.68,28.68 0,0 0,18.15 -6.87c3.29,-2.75 3.57,-6.33 7.14,-8S185.72,442.35 186.82,438.23Z" stroke-linejoin="round" stroke-linecap="round" stroke="#263238" stroke-width="1" id="path_90"/><path fill="#878787" d="M238,427.23l11.82,11c3.85,3.57 7.42,6.87 7.42,9.34s1.37,5.77 -0.55,7.42 -10.72,3.58 -19.24,3.58a28.65,28.65 0,0 1,-18.14 -6.87c-3.3,-2.75 -3.57,-6.33 -7.15,-8s-9.89,-1.37 -11,-5.49 0.55,-10.45 0.55,-10.45Z" stroke-linejoin="round" stroke-linecap="round" stroke="#263238" stroke-width="1" id="path_91"/><path fill="#263238" d="M201.16,438.23a13.32,13.32 0,0 1,-0.38 -3.21c4.16,3.38 12.84,6.9 15.52,9.27 3.13,2.76 5.89,9.72 21.37,10.56 13,0.71 18.43,-3.12 19.88,-4.4 0.24,1.76 0.36,3.49 -0.87,4.54 -1.92,1.65 -10.72,3.58 -19.24,3.58a28.65,28.65 0,0 1,-18.14 -6.87c-3.3,-2.75 -3.57,-6.33 -7.15,-8S202.26,442.35 201.16,438.23Z" stroke-linejoin="round" stroke-linecap="round" stroke="#263238" stroke-width="1" id="path_92"/><path fill="#fff" d="M190.5,153s-25.79,7.18 -32.79,9.18S147,179 146,196s-6,77 -6.5,79.5S133.31,301 134.81,309 150.5,413 150.5,413s-4,6 -3,7.5 1.5,9 1.5,9 12.5,4.5 20.5,4.5 18,-3 18,-3 -2.5,-18.5 -1.5,-29.5 1,-83 1,-83l10,114s12,3.5 22.5,3S241,429 241,429s1.5,-8.5 0.5,-12.5 -7,-11 -7,-13.5 5,-86 5,-86 3,-23.5 2.5,-35.5 0.5,-40 0.5,-40 2,-25.5 3.5,-40S247.92,174 247.42,171s-24.92,-13 -30.92,-15S198,153.5 190.5,153Z" id="path_93"/><g id="g_2"><path fill="#ccc" d="M245.6,205.49c-1.9,-0.84 -3.85,-1.62 -5.87,-2.34l0.71,-11.53c1.66,0.75 4.34,1.81 6,2.66l-0.1,-2q-2.84,-1.49 -5.74,-2.76l0.81,-13.09c2,0.94 3.9,1.94 5.79,3l0.4,-0.7c0,-0.46 0,-0.91 0,-1.34q-3,-1.68 -6.08,-3.12L242,167c-0.62,-0.33 -1.26,-0.66 -1.94,-1l-0.46,7.42c-2.78,-1.22 -5.61,-2.3 -8.48,-3.26l1.16,-7.79 -1.89,-0.83 -1.2,8a121.8,121.8 0,0 0,-15.66 -3.79l1.26,-10.18c-0.61,-0.15 -1.27,-0.3 -2,-0.43l-1.27,10.27a158.63,158.63 0,0 0,-16.77 -1.76l1,-10.26 -2,-0.12 -1,10.28c-5.45,-0.22 -10.73,-0.19 -15.71,0 0.18,-2.6 0.34,-4.92 0.48,-6.88l-2.05,0.57c-0.13,1.87 -0.28,4 -0.44,6.4 -5.35,0.27 -10.33,0.73 -14.78,1.26q0.33,-1.89 0.63,-3.57l-2.14,0.6c-0.18,1 -0.37,2.09 -0.56,3.22 -1.79,0.23 -3.47,0.47 -5.05,0.72A18.63,18.63 0,0 0,151.8 168c1.85,-0.29 3.87,-0.6 6,-0.88 -0.69,4.18 -1.39,9 -2,14.35 -3.27,0.5 -6.09,1 -8.39,1.45q-0.18,1 -0.33,2.1c2.26,-0.45 5.12,-1 8.47,-1.49 -0.4,3.42 -0.78,7.05 -1.12,10.87 -3.23,0.16 -6,0.34 -8.36,0.5 0,0.36 0,0.71 -0.07,1.06s0,0.63 -0.06,1c2.29,-0.17 5.09,-0.35 8.31,-0.51a384.36,384.36 0,0 0,-0.54 58.27l2,-0.14a382.12,382.12 0,0 1,0.57 -58.23c4.83,-0.21 10.46,-0.36 16.58,-0.35 -1.09,16.77 -2.18,34.46 -2.74,46.3l2,0.1c0.56,-11.86 1.65,-29.59 2.75,-46.4 4.65,0 9.56,0.16 14.6,0.43L185.61,235l2,0.2 3.86,-38.62c5.26,0.31 10.64,0.78 16,1.44l-3.63,29.21 2,0.25 3.63,-29.2c5.08,0.68 10.13,1.54 15,2.63l-5.14,34.5 2,0.29 5.13,-34.34c3.86,0.92 7.61,2 11.2,3.21l-2.36,38.21 2,0.13 2.33,-37.65q3,1.09 5.8,2.37C245.47,206.87 245.53,206.17 245.6,205.49ZM213.25,167.66a121,121 0,0 1,15.62 3.82l-2,13.06a129.3,129.3 0,0 0,-15.34 -3.39ZM173,194c-6.09,0 -11.7,0.14 -16.54,0.35 0.35,-3.9 0.75,-7.6 1.16,-11.09 4.68,-0.67 10.17,-1.29 16.21,-1.67C173.54,185.58 173.26,189.75 173,194ZM174,179.59c-6,0.37 -11.42,1 -16.09,1.62 0.67,-5.36 1.38,-10.16 2.07,-14.32 4.48,-0.54 9.53,-1 15,-1.3C174.61,169.74 174.29,174.49 173.94,179.59ZM243.68,227c-34.19,-16.18 -81.58,-15.35 -98.85,-14.4q-0.08,1 -0.15,2c17,-1 64.83,-1.9 98.82,14.51C243.56,228.46 243.62,227.75 243.68,227ZM189.68,194.42c-5.07,-0.27 -10,-0.4 -14.67,-0.44 0.28,-4.3 0.56,-8.51 0.83,-12.54 4.78,-0.25 9.87,-0.35 15.16,-0.2ZM191.2,179.25c-5.31,-0.15 -10.42,-0.05 -15.22,0.19 0.34,-5.09 0.66,-9.84 0.95,-14 5,-0.2 10.22,-0.24 15.65,0ZM207.71,196c-5.38,-0.67 -10.78,-1.14 -16.05,-1.45L193,181.33a156.26,156.26 0,0 1,16.37 1.49ZM193.18,179.34 L194.56,165.55a157.44,157.44 0,0 1,16.72 1.76l-1.68,13.53A160,160 0,0 0,193.18 179.35ZM224.77,198.89c-4.91,-1.09 -10,-2 -15.07,-2.63l1.63,-13.14a124.39,124.39 0,0 1,15.29 3.41ZM237.77,202.46c-3.55,-1.19 -7.24,-2.23 -11,-3.12l1.83,-12.23a103.75,103.75 0,0 1,9.93 3.64ZM238.62,188.64q-4.81,-2 -9.77,-3.53l1.94,-13q4.4,1.49 8.65,3.39Z" clip-path="url(#clip_path_2)"/></g><path fill="#000000" d="M190.5,153s-25.79,7.18 -32.79,9.18S147,179 146,196s-6,77 -6.5,79.5S133.31,301 134.81,309 150.5,413 150.5,413s-4,6 -3,7.5 1.5,9 1.5,9 12.5,4.5 20.5,4.5 18,-3 18,-3 -2.5,-18.5 -1.5,-29.5 1,-83 1,-83l10,114s12,3.5 22.5,3S241,429 241,429s1.5,-8.5 0.5,-12.5 -7,-11 -7,-13.5 5,-86 5,-86 3,-23.5 2.5,-35.5 0.5,-40 0.5,-40 2,-25.5 3.5,-40S247.92,174 247.42,171s-24.92,-13 -30.92,-15S198,153.5 190.5,153Z" fill-opacity="0" stroke-linejoin="round" stroke-linecap="round" stroke="#263238" stroke-width="1" id="path_94"/><path fill="#000000" d="M192.88,170.11L188.66,210.67" fill-opacity="0" stroke-linejoin="round" stroke-linecap="round" stroke="#263238" stroke-width="1" id="path_95"/><path fill="#92E3A9" d="M187,318.5l10,114s12,3.5 22.5,3S241,429 241,429s1.5,-8.5 0.5,-12.5 -7,-11 -7,-13.5 5,-86 5,-86 3,-23.5 2.5,-35.5c-0.06,-1.33 -0.09,-2.87 -0.11,-4.53 -1,-3.21 -5.6,-18 -9.21,-33.54 -4.08,-17.57 -8.38,-34.49 -8.38,-34.49l-61,-5c-2.82,-0.63 -3.13,2.51 -3.13,2.51l-18.68,47c-1,12 -1.85,21.19 -2,22.14C139,278 133.31,301 134.81,309S150.5,413 150.5,413s-4,6 -3,7.5 1.5,9 1.5,9 12.5,4.5 20.5,4.5 18,-3 18,-3 -2.5,-18.5 -1.5,-29.5S187,318.5 187,318.5Z" stroke-linejoin="round" stroke-linecap="round" stroke="#263238" stroke-width="1" id="path_96"/><path fill="#000000" d="M169.63,215.82 L211,219.9l-0.56,25.7a7.43,7.43 0,0 1,-2.79 5.65l-18.22,14.57a5.56,5.56 0,0 1,-7.66 -0.68l-15.44,-17.71a7.46,7.46 0,0 1,-1.69 -6.32Z" fill-opacity="0" stroke-linejoin="round" stroke-linecap="round" stroke="#263238" stroke-width="1" id="path_97"/><path fill="#000000" d="M173.08,280.76s11.92,3.76 27.92,0.62" fill-opacity="0" stroke-linejoin="round" stroke-linecap="round" stroke="#263238" stroke-width="1" id="path_98"/><path fill="#000000" d="M183.43,285.46l-0.31,25.41 0.7,-0.61a13.47,13.47 0,0 0,4.58 -9.51l0.68,-14.35" fill-opacity="0" stroke-linejoin="round" stroke-linecap="round" stroke="#263238" stroke-width="1" id="path_99"/><path fill="#000000" d="M174.33,314.64L192.21,319.34" fill-opacity="0" stroke-linejoin="round" stroke-linecap="round" stroke="#263238" stroke-width="1" id="path_100"/><path fill="#fff" d="M182.7,148.75s-4.64,6.63 -4.86,13.26 -2.87,15 0,15.46 13,-8.62 16.13,-7.95 11.7,11.26 13.69,11 5.75,-8.61 5.75,-18.11 -0.67,-11.49 -6,-14.58S189.77,141.46 182.7,148.75Z" stroke-linejoin="round" stroke-linecap="round" stroke="#263238" stroke-width="1" id="path_101"/><path fill="#ccc" d="M186.23,152.73s1.55,13.92 6.41,16.34S207,156.26 208.1,155.6 196,156.93 186.23,152.73Z" stroke-linejoin="round" stroke-linecap="round" stroke="#263238" stroke-width="1" id="path_102"/><path fill="#fff" d="M224.59,130.45s4.06,-4.89 6,-2 -0.22,8.39 -2.65,11.26a8.45,8.45 0,0 1,-5.31 3.1Z" stroke-linejoin="round" stroke-linecap="round" stroke="#263238" stroke-width="1" id="path_103"/><path fill="#fff" d="M178.94,125.56s-4.41,-5.31 -6,-0.67 3.76,12.82 4.42,12.82h0.66Z" stroke-linejoin="round" stroke-linecap="round" stroke="#263238" stroke-width="1" id="path_104"/><path fill="#fff" d="M180.4,109.64s-3.56,28.91 -1.12,36 12,13.79 20.91,13.34 17.13,-4.89 20,-8 6.67,-39.37 6.67,-39.37 -9.56,-5.12 -24.69,-6.67S180.4,109.64 180.4,109.64Z" stroke-linejoin="round" stroke-linecap="round" stroke="#263238" stroke-width="1" id="path_105"/><path fill="#fff" d="M211.32,124.12a0.52,0.52 0,1 1,-0.51 -0.51A0.51,0.51 0,0 1,211.32 124.12Z" stroke-linejoin="round" stroke-linecap="round" stroke="#263238" stroke-width="0.5" id="path_106"/><path fill="#fff" d="M217.45,123.26a0.52,0.52 0,1 1,-0.51 -0.51A0.51,0.51 0,0 1,217.45 123.26Z" stroke-linejoin="round" stroke-linecap="round" stroke="#263238" stroke-width="0.5" id="path_107"/><path fill="#fff" d="M216.82,126.7a0.52,0.52 0,1 1,-1 0,0.52 0.52,0 1,1 1,0Z" stroke-linejoin="round" stroke-linecap="round" stroke="#263238" stroke-width="0.5" id="path_108"/><path fill="#fff" d="M191.15,121.31a0.52,0.52 0,1 0,0.51 -0.51A0.51,0.51 0,0 0,191.15 121.31Z" stroke-linejoin="round" stroke-linecap="round" stroke="#263238" stroke-width="0.5" id="path_109"/><path fill="#fff" d="M185,120.45a0.52,0.52 0,1 0,0.51 -0.51A0.51,0.51 0,0 0,185 120.45Z" stroke-linejoin="round" stroke-linecap="round" stroke="#263238" stroke-width="0.5" id="path_110"/><path fill="#fff" d="M185.65,123.89a0.52,0.52 0,1 0,0.51 -0.51A0.51,0.51 0,0 0,185.65 123.89Z" stroke-linejoin="round" stroke-linecap="round" stroke="#263238" stroke-width="0.5" id="path_111"/><path fill="#263238" d="M225.42,111.11a14.77,14.77 0,0 0,-1.83 8,67.29 67.29,0 0,0 1.6,8.48l-0.6,2.83 2.29,-18.81Z" stroke-linejoin="round" stroke-linecap="round" stroke="#263238" stroke-width="1" id="path_112"/><path fill="#263238" d="M182.32,108.82a41,41 0,0 1,0 7.79,15.63 15.63,0 0,1 -2.75,5.74l-0.63,3.21 1.46,-15.92Z" stroke-linejoin="round" stroke-linecap="round" stroke="#263238" stroke-width="1" id="path_113"/><path fill="#000000" d="M197.94,117.82s-2.87,10.61 -2.43,11.71 4.2,2 7.29,1.55S205,117.6 205,117.6" fill-opacity="0" stroke-linejoin="round" stroke-linecap="round" stroke="#263238" stroke-width="1" id="path_114"/><path fill="#000000" d="M210.53,119.15s3.1,-2.21 7.29,0.66" fill-opacity="0" stroke-linejoin="round" stroke-linecap="round" stroke="#263238" stroke-width="1" id="path_115"/><path fill="#000000" d="M187.12,117.16a4.71,4.71 0,0 1,6 0.44" fill-opacity="0" stroke-linejoin="round" stroke-linecap="round" stroke="#263238" stroke-width="1" id="path_116"/><path fill="#000000" d="M196.4,109s-7.74,-0.89 -11.49,2.43" fill-opacity="0" stroke-linejoin="round" stroke-linecap="round" stroke="#263238" stroke-width="3" id="path_117"/><path fill="#000000" d="M209,111.42s7.29,-1.77 11.49,4" fill-opacity="0" stroke-linejoin="round" stroke-linecap="round" stroke="#263238" stroke-width="3" id="path_118"/><path fill="#263238" d="M222,134.39c-1.54,2.87 -5.52,6 -5.52,6s0.22,-8 -2.65,-8.4 -13.26,0.22 -18.34,-1.54c0,0 -10.16,-1.55 -10.6,0.66s-1.55,7.51 -1.55,7.51 -0.88,0.44 -2.43,-3.53a42.25,42.25 0,0 1,-2.12 -8.44c-0.5,7.66 -0.67,15.73 0.47,19 2.45,7.12 12,13.79 20.91,13.34s17.13,-4.89 20,-8c1.43,-1.54 3.08,-11.2 4.38,-20.56A29.4,29.4 0,0 0,222 134.39ZM209.41,144.33c-1.74,1 -4.85,1.25 -8.19,1.06 -1.09,-3.7 -1.54,-3.27 -4.4,-3.27 -1.91,0 -2.06,1.46 -2,2.44a28,28 0,0 1,-6 -1.77c-4.2,-2 -0.67,-7.29 -0.67,-7.29 6.41,2.43 22.09,1.54 22.09,1.54S213.63,141.9 209.43,144.33Z" stroke-linejoin="round" stroke-linecap="round" stroke="#263238" stroke-width="1" id="path_119"/><path fill="#000000" d="M160.22,206.41s0.94,7.84 2.82,8.16 3.77,-8.79 3.77,-8.79S161.79,206.41 160.22,206.41Z" fill-opacity="0" stroke-linejoin="round" stroke-linecap="round" stroke="#263238" stroke-width="1" id="path_120"/><path fill="#000000" d="M217.71,208.4s-0.45,7.89 1.35,8.53 5.24,-8 5.24,-8S219.25,208.68 217.71,208.4Z" fill-opacity="0" stroke-linejoin="round" stroke-linecap="round" stroke="#263238" stroke-width="1" id="path_121"/><path fill="#92E3A9" d="M163,159.36S159,198.88 159,203.59s6.9,7.21 8.79,-0.63 5.64,-45.17 5.64,-45.17S167.43,157.16 163,159.36Z" stroke-linejoin="round" stroke-linecap="round" stroke="#263238" stroke-width="1" id="path_122"/><path fill="#92E3A9" d="M224.21,158.73s-9.1,48 -7.21,50.19 5.64,5.33 9.09,-1.25 9.73,-45.18 9.73,-45.18S229.54,159 224.21,158.73Z" stroke-linejoin="round" stroke-linecap="round" stroke="#263238" stroke-width="1" id="path_123"/><path fill="#fff" d="M165.55,211.9a2,2 0,1 1,-2 -2A2,2 0,0 1,165.55 211.9Z" stroke-linejoin="round" stroke-linecap="round" stroke="#263238" stroke-width="1" id="path_124"/><path fill="#fff" d="M221.7,215a2,2 0,1 1,-2 -2A2,2 0,0 1,221.7 215Z" stroke-linejoin="round" stroke-linecap="round" stroke="#263238" stroke-width="1" id="path_125"/><path fill="#fff" d="M262.18,248.22s7.71,2.57 6.17,11.56 -7.46,9 -9,8.74A55.33,55.33 0,0 1,254 267s3.86,-4.88 2.06,-10.28S254.47,247.7 262.18,248.22Z" stroke-linejoin="round" stroke-linecap="round" stroke="#263238" stroke-width="1" id="path_126"/><path fill="#cfcfcf" d="M223.88,262.1a16.55,16.55 0,0 0,4.88 8.22c3.86,3.35 11.05,3.86 11.05,3.86a23.16,23.16 0,0 1,-5.91 8.74c-4.11,3.6 -8.74,8.74 -10,12.08s1,2.32 2.57,0.26 3.6,-5.4 3.6,-5.4 -2.06,6.94 0,5.66 3.34,-6.69 3.34,-6.69 0,6.69 1.54,5.15 1.29,-6.43 1.29,-7.2 2.82,-1.55 4.37,-3.09 -4.89,0 -4.89,0 9.26,-6.42 10.8,-8.74 -2.32,-6.43 -3.34,-7.71S223.88,262.1 223.88,262.1Z" stroke-linejoin="round" stroke-linecap="round" stroke="#263238" stroke-width="1" id="path_127"/><path fill="#fff" d="M239.81,274.18a23.16,23.16 0,0 1,-5.91 8.74c-4.11,3.6 -8.74,8.74 -10,12.08s1,2.32 2.57,0.26 3.6,-5.4 3.6,-5.4 -2.06,6.94 0,5.66 3.34,-6.69 3.34,-6.69 0,6.69 1.54,5.15 1.29,-6.43 1.29,-7.2 2.82,-1.55 4.37,-3.09 -4.89,0 -4.89,0 9.26,-6.42 10.8,-8.74c0.64,-1 0.34,-2.25 -0.3,-3.51C242.27,270.43 239.81,274.18 239.81,274.18Z" stroke-linejoin="round" stroke-linecap="round" stroke="#263238" stroke-width="1" id="path_128"/><path fill="#fff" d="M222.89,252.76a16.61,16.61 0,0 0,4.89 8.22c3.85,3.34 11.05,3.86 11.05,3.86a23.3,23.3 0,0 1,-5.91 8.74c-4.11,3.6 -8.74,8.74 -10,12.08s1,2.32 2.57,0.26 3.6,-5.4 3.6,-5.4 -2.05,6.94 0,5.66 3.34,-6.69 3.34,-6.69 0,6.69 1.55,5.14 1.28,-6.42 1.28,-7.19 2.83,-1.55 4.37,-3.09 -4.88,0 -4.88,0 9.25,-6.43 10.8,-8.74 -2.32,-6.43 -3.35,-7.71S222.89,252.76 222.89,252.76Z" stroke-linejoin="round" stroke-linecap="round" stroke="#263238" stroke-width="1" id="path_129"/><path fill="#fff" d="M238.83,264.84a23.3,23.3 0,0 1,-5.91 8.74c-4.11,3.6 -8.74,8.74 -10,12.08s1,2.32 2.57,0.26 3.6,-5.4 3.6,-5.4 -2.05,6.94 0,5.66 3.34,-6.69 3.34,-6.69 0,6.69 1.55,5.14 1.28,-6.42 1.28,-7.19 2.83,-1.55 4.37,-3.09 -4.88,0 -4.88,0 9.25,-6.43 10.8,-8.74c0.64,-1 0.34,-2.25 -0.31,-3.51C241.28,261.09 238.83,264.84 238.83,264.84Z" stroke-linejoin="round" stroke-linecap="round" stroke="#263238" stroke-width="1" id="path_130"/><path fill="#cfcfcf" d="M224.67,221s-8,-6 -14,0.33 -2.67,20.34 1.33,26 23.33,12.34 35,11.34 20.33,-13.67 20.33,-20.34 -5.66,-11.33 -10,-11.66S244.67,225 244.67,225 228.33,224 224.67,221Z" stroke-linejoin="round" stroke-linecap="round" stroke="#263238" stroke-width="1" id="path_131"/><path fill="#263238" d="M255,209.86s1.43,-2.67 -0.1,-7.48 -4.81,-5 -4.81,-3.72v2s-3.27,-3.5 -4.15,-2.84 -0.22,4.37 -0.22,4.37S252.65,203.79 255,209.86Z" stroke-linejoin="round" stroke-linecap="round" stroke="#263238" stroke-width="1" id="path_132"/><path fill="#878787" d="M255,209.86s-2.19,-6.59 -7.84,-8.16 -11.92,1 -14.12,3.46a123.87,123.87 0,0 0,-8.15 11.6c-2.2,3.45 -13.49,8.79 -11.29,10.67s8.15,-0.94 8.15,-0.94 -4.08,6.27 0.94,5.33 5.34,-3.14 5.34,-3.14 -1.26,7.85 2.19,6.59 3.14,-4.08 3.14,-4.08 -1.57,7.22 1.88,7.22 4.08,-5 4.08,-5 0.94,6.59 5,5.64 1.88,-4.7 1.88,-4.7 5,4.39 6,1.88 -1.88,-7.21 -1.88,-7.21 -3.45,-7.53 -0.32,-10.67 9.73,-5 9.73,-5Z" stroke-linejoin="round" stroke-linecap="round" stroke="#263238" stroke-width="1" id="path_133"/><path fill="#92E3A9" d="M253.07,215.19c0.21,0.19 0.42,0.36 0.63,0.53a35.74,35.74 0,0 1,6 -2.41L255,209.86S249.62,212.06 253.07,215.19Z" stroke-linejoin="round" stroke-linecap="round" stroke="#263238" stroke-width="1" id="path_134"/><path fill="#fff" d="M249.39,208.39a1.21,1.21 0,1 1,-1.2 -1.2A1.2,1.2 0,0 1,249.39 208.39Z" stroke-linejoin="round" stroke-linecap="round" stroke="#263238" stroke-width="1" id="path_135"/><path fill="#fff" d="M260.38,253.87s-6.17,2.57 -9.77,-0.26 -9,-7.19 -13.88,-7.19 -5.4,4.11 -3.09,5.65 7.72,5.66 7.72,5.66 -7.2,0.25 -11.31,-3.09 -7,-9.25 -9.77,-9 0.25,5.92 0.25,5.92 -4.11,-4.63 -5.65,-2.83 2.83,7.71 4.88,10.8S233.13,267 236.22,268a16.18,16.18 0,0 0,4.37 1S251.13,267.5 254,267s5.66,-1.28 6.69,-5.4S261.15,254.64 260.38,253.87Z" stroke-linejoin="round" stroke-linecap="round" stroke="#263238" stroke-width="1" id="path_136"/><path fill="#fff" d="M220.53,251.56s3.6,7.71 9.26,10.79" stroke-linejoin="round" stroke-linecap="round" stroke="#263238" stroke-width="1" id="path_137"/><path fill="#878787" d="M145,235.75l-55.25,-2.5L92,260h0.28c1.6,6.07 11.92,11.14 24.65,11.73 5.77,0.27 12.11,-0.11 17.61,-2.21 5.73,-2.18 7.79,-7.67 8.54,-13.32C143.39,253.93 144.53,235.73 145,235.75Z" stroke-linejoin="round" stroke-linecap="round" stroke="#263238" stroke-width="1" id="path_138"/><path fill="#878787" d="M120.62,245.33q-1.87,0 -3.78,-0.09a63.63,63.63 0,0 1,-20 -3.87c-7.66,-3.07 -9.13,-6.65 -9,-9.12s1.91,-5.89 9.83,-8.25a63.88,63.88 0,0 1,20.3 -2,63.63 63.63,0 0,1 20,3.87c7.66,3.07 9.13,6.65 9,9.12h0c-0.12,2.46 -1.91,5.89 -9.83,8.25A59.7,59.7 0,0 1,120.62 245.33ZM114.11,225.92a55.29,55.29 0,0 0,-15.36 1.92c-5.06,1.5 -6.92,3.41 -7,4.6s1.62,3.26 6.51,5.22A59.56,59.56 0,0 0,117 241.24a59.75,59.75 0,0 0,19 -1.83c5.06,-1.5 6.92,-3.41 7,-4.6h0c0.06,-1.18 -1.62,-3.26 -6.51,-5.22A59.56,59.56 0,0 0,117.73 226C116.51,226 115.3,225.92 114.11,225.92Z" stroke-linejoin="round" stroke-linecap="round" stroke="#263238" stroke-width="1" id="path_139"/><g id="g_3"><path fill="#fff" d="M116.94,243.1a9.54,27.37 92.66,1 0,0.89 -19.06a9.54,27.37 92.66,1 0,-0.89 19.06z" stroke-linejoin="round" stroke-linecap="round" stroke="#263238" stroke-width="1" clip-path="url(#clip_path_3)"/></g><g id="g_4"><path fill="#fff" d="M120.65,234.44c-3,2.62 -7.31,2.59 -9.66,-0.08s-1.83,-7 1.15,-9.59 11,-5.84 13.35,-3.17S123.63,231.81 120.65,234.44Z" stroke="#263238" stroke-width="1" clip-path="url(#clip_path_4)"/></g><g id="g_5"><path fill="#fff" d="M115,229.7c0,4 -2.88,7.19 -6.44,7.19s-6.44,-3.22 -6.44,-7.19 2.89,-12.12 6.44,-12.12S115,225.72 115,229.7Z" stroke="#263238" stroke-width="1" clip-path="url(#clip_path_5)"/></g><g id="g_6"><path fill="#fff" d="M133.85,233.91c0,4 -2.89,7.2 -6.44,7.2s-6.44,-3.23 -6.44,-7.2 2.88,-12.12 6.44,-12.12S133.85,229.93 133.85,233.91Z" stroke="#263238" stroke-width="1" clip-path="url(#clip_path_6)"/></g><g id="g_7"><path fill="#fff" d="M125.43,239.11c0,4 -2.89,7.2 -6.44,7.2s-6.44,-3.23 -6.44,-7.2S115.43,227 119,227 125.43,235.13 125.43,239.11Z" stroke="#263238" stroke-width="1" clip-path="url(#clip_path_7)"/></g><g id="g_8"><path fill="#fff" d="M105.61,234.65c0,4 -2.88,7.2 -6.44,7.2s-6.44,-3.22 -6.44,-7.2 2.88,-12.12 6.44,-12.12S105.61,230.68 105.61,234.65Z" stroke="#263238" stroke-width="1" clip-path="url(#clip_path_8)"/></g><g id="g_9"><path fill="#fff" d="M141.28,234.65c0,4 -2.89,7.2 -6.44,7.2s-6.44,-3.22 -6.44,-7.2 2.88,-12.12 6.44,-12.12S141.28,230.68 141.28,234.65Z" stroke="#263238" stroke-width="1" clip-path="url(#clip_path_9)"/></g><g id="g_10"><path fill="#fff" d="M112.23,242.86c-3,2.63 -7.31,2.59 -9.66,-0.08s-1.84,-7 1.15,-9.59 11,-5.84 13.35,-3.17S115.21,240.23 112.23,242.86Z" stroke="#263238" stroke-width="1" clip-path="url(#clip_path_10)"/></g><g id="g_11"><path fill="#fff" d="M136.79,235.33c2.76,2.86 2.92,7.19 0.36,9.65s-6.88,2.15 -9.63,-0.71 -6.34,-10.73 -3.77,-13.2S134,232.47 136.79,235.33Z" stroke="#263238" stroke-width="1" clip-path="url(#clip_path_11)"/></g><path fill="#878787" d="M144.51,235.93a2,2 0,0 1,-2 -1.82l-1.11,-19.79a22.13,22.13 0,0 0,-11.48 -17.51l-2.17,-1.18a22.2,22.2 0,0 0,-32.55 15.94l-3.24,20a2,2 0,0 1,-3.94 -0.64l3.24,-20a26.2,26.2 0,0 1,38.41 -18.82l2.17,1.19A26.16,26.16 0,0 1,145.4 214l1.1,19.79a2,2 0,0 1,-1.81 2.17Z" stroke-linejoin="round" stroke-linecap="round" stroke="#263238" stroke-width="1" id="path_140"/><path fill="#fff" d="M99,272.67s0.87,0.13 5.87,0.8 13,-2.16 14.13,-6.14c0.59,-2 -3.67,-2 -6.67,-0.66S99,272.67 99,272.67Z" stroke-linejoin="round" stroke-linecap="round" stroke="#263238" stroke-width="1" id="path_141"/><path fill="#fff" d="M87.67,247s5.66,-2.33 11,0.67a53.74,53.74 0,0 1,10 7.66s1.66,2 -1.67,4 -4,0.67 -6.67,-1.33A14.07,14.07 0,0 0,94 255.67s6.67,6.33 9,8.33 9,-1.67 11,1 1,3.67 -4.67,5.33S98.33,275 93.67,272s-15.67,-15.33 -17,-19.33S83,244.33 87.67,247Z" stroke-linejoin="round" stroke-linecap="round" stroke="#263238" stroke-width="1" id="path_142"/></svg>