<svg xmlns="http://www.w3.org/2000/svg" viewBox="0 0 500 500"><g id="freepik--background-simple--inject-31"><path d="M466.55,377.37c35.58-84.17,40.08-203.12-21.24-277C411.49,59.6,358.27,46.05,307.47,43c-45.53-2.72-94.27-1.63-135.63,19.89C101.73,99.41,100,186.17,47.48,237.37,5.14,278.64-12.42,337.46,23.73,414.85S127,509.79,193.1,485s96-29.92,175.57-17.54c36.55,5.69,63.07-21.72,79.11-51.24C454.65,403.58,461,390.6,466.55,377.37Z" style="fill:#4A9E60"></path><path d="M466.55,377.37c35.58-84.17,40.08-203.12-21.24-277C411.49,59.6,358.27,46.05,307.47,43c-45.53-2.72-94.27-1.63-135.63,19.89C101.73,99.41,100,186.17,47.48,237.37,5.14,278.64-12.42,337.46,23.73,414.85S127,509.79,193.1,485s96-29.92,175.57-17.54c36.55,5.69,63.07-21.72,79.11-51.24C454.65,403.58,461,390.6,466.55,377.37Z" style="fill:#fff;opacity:0.7000000000000001"></path></g><g id="freepik--Clouds--inject-31"><path d="M325.43,52c-4.75-21.35-29.37-37.27-50.83-34.22A26.85,26.85,0,0,0,260,24.28c-5.48,5-4.18,10.76-6.89,17a5.83,5.83,0,0,1-4.09,3.59c-5.33.92-9.63-4.4-15-4.44-4,0-9.2,2.2-11.46,5.69-2.09,3.25-.63,8.92-4.41,11.07-4.22,2.42-9.36-2.17-13.93-.51-5.67,2.06-3.09,6.19-5.15,8.77s-6.19,1.54-11.87,1-10.31,6.19-10.31,6.19h179s1.54-2.58-5.16-12.9-16-3.09-20.12-3.09S325.43,52.05,325.43,52Z" style="fill:none;stroke:#263238;stroke-miterlimit:10"></path><path d="M137.51,128.69c-3.23-14.51-19.95-25.32-34.53-23.25a18.31,18.31,0,0,0-9.9,4.39c-3.72,3.42-2.84,7.31-4.68,11.56a4,4,0,0,1-2.78,2.44c-3.62.62-6.54-3-10.22-3-2.74,0-6.25,1.49-7.78,3.86-1.43,2.21-.43,6.06-3,7.53-2.87,1.64-6.36-1.48-9.46-.35-3.86,1.4-2.1,4.2-3.51,6s-4.2,1.05-8.06.7-7,4.2-7,4.2H158.19s1.05-1.75-3.5-8.76-10.87-2.1-13.67-2.1S137.52,128.7,137.51,128.69Z" style="fill:none;stroke:#263238;stroke-miterlimit:10"></path><path d="M474.61,195.71c-2.14-9.61-13.22-16.78-22.88-15.4a12.1,12.1,0,0,0-6.56,2.9c-2.46,2.27-1.88,4.85-3.1,7.66a2.62,2.62,0,0,1-1.84,1.62c-2.4.41-4.34-2-6.77-2a6.58,6.58,0,0,0-5.16,2.56c-.94,1.46-.28,4-2,5-1.91,1.08-4.22-1-6.27-.24-2.56.93-1.4,2.79-2.33,3.95s-2.78.7-5.34.47-4.64,2.78-4.64,2.78h80.57s.7-1.16-2.32-5.8-7.2-1.4-9.05-1.4S474.62,195.72,474.61,195.71Z" style="fill:none;stroke:#263238;stroke-miterlimit:10"></path></g><g id="freepik--Mountains--inject-31"><path d="M8.66,317S187.55,197.93,200.84,200.15s137.71,99.31,137.71,99.31" style="fill:none;stroke:#263238;stroke-miterlimit:10"></path><path d="M158.75,221.2s10-3.33,10-.56-3.88,8.31,0,8.86,25.48-12.73,25.48-12.73,2.21,10.52,6.64,11.63,5-9.42,5-9.42l5.54,4.43v-6.09l9.57,3.55-.16-8" style="fill:none;stroke:#263238;stroke-miterlimit:10"></path><path d="M243.17,361.61S422.06,242.53,435.35,244.75s56,36.35,56,36.35" style="fill:none;stroke:#263238;stroke-miterlimit:10"></path><path d="M393.26,265.79s10-3.32,10-.55-3.88,8.31,0,8.86,25.48-12.74,25.48-12.74,2.21,10.53,6.64,11.64,5-9.42,5-9.42l5.54,4.43v-6.09l9.57,3.55-.16-8" style="fill:none;stroke:#263238;stroke-miterlimit:10"></path></g><g id="freepik--Trees--inject-31"><path d="M377.61,321.1l1.52-6.1c1.53-6.11,0-39.3.39-42s-5.73,13.73-5.73,13.73a97.43,97.43,0,0,0,2.29-12.59c.25-3.2,1.13-19.65,1.52-32.62-.48-5-1-10.07-1.55-15.09-1.6,4-3.78,13.76-3.78,13.76s-1.15-33.57,0-37.39-5,5.72-5,5.72,1.9-14.11,2.29-19.83c.22-3.38-1-12.33-2.06-19.65-.69-3.43-1.4-6.73-2.12-9.86-1.53,3-4.89,12.37-4.6,11.19.38-1.52,0-26.7,0-26.7l.29-.4c-3.5-10.71-7.29-17.18-11.25-17.18s-7.72,6.41-11.2,17l.38.54s-.38,25.18,0,26.7c.3,1.21-3.21-8.55-4.7-11.37-.57,2.47-1.13,5.05-1.68,7.72-1.1,7.63-2.65,18.22-2.4,22,.39,5.72,2.29,19.83,2.29,19.83s-6.1-9.53-5-5.72,0,37.39,0,37.39-2.28-10.25-3.89-14c-.52,4.73-1,9.49-1.47,14.24.37,13.13,1.29,30.43,1.55,33.72a97.43,97.43,0,0,0,2.29,12.59S320,270.36,320.34,273s-1.14,35.86.39,42l1.52,6.1-4-3.31c.74,55.49,14.63,49.86,31.65,49.86s30.89,5.63,31.65-49.74Z" style="fill:#4A9E60"></path><path d="M377.61,321.1l1.52-6.1c1.53-6.11,0-39.3.39-42s-5.73,13.73-5.73,13.73a97.43,97.43,0,0,0,2.29-12.59c.25-3.2,1.13-19.65,1.52-32.62-.48-5-1-10.07-1.55-15.09-1.6,4-3.78,13.76-3.78,13.76s-1.15-33.57,0-37.39-5,5.72-5,5.72,1.9-14.11,2.29-19.83c.22-3.38-1-12.33-2.06-19.65-.69-3.43-1.4-6.73-2.12-9.86-1.53,3-4.89,12.37-4.6,11.19.38-1.52,0-26.7,0-26.7l.29-.4c-3.5-10.71-7.29-17.18-11.25-17.18s-7.72,6.41-11.2,17l.38.54s-.38,25.18,0,26.7c.3,1.21-3.21-8.55-4.7-11.37-.57,2.47-1.13,5.05-1.68,7.72-1.1,7.63-2.65,18.22-2.4,22,.39,5.72,2.29,19.83,2.29,19.83s-6.1-9.53-5-5.72,0,37.39,0,37.39-2.28-10.25-3.89-14c-.52,4.73-1,9.49-1.47,14.24.37,13.13,1.29,30.43,1.55,33.72a97.43,97.43,0,0,0,2.29,12.59S320,270.36,320.34,273s-1.14,35.86.39,42l1.52,6.1-4-3.31c.74,55.49,14.63,49.86,31.65,49.86s30.89,5.63,31.65-49.74Z" style="fill:#fff;opacity:0.22"></path><polygon points="369.18 299.35 350.57 325.99 349.74 272.95 368.8 251.28 349.65 267.48 348.9 219.56 346.92 292.19 331.41 271.5 346.67 301.3 342.69 447.35 352.48 447.35 350.76 338.3 369.18 299.35" style="fill:#949494"></polygon><path d="M301.87,330.12l1.42-5.67c1.42-5.66,0-36.48.36-39s-5.32,12.75-5.32,12.75a91.76,91.76,0,0,0,2.13-11.69c.23-3,1.05-18.25,1.41-30.3-.45-4.66-.93-9.34-1.44-14-1.49,3.67-3.51,12.77-3.51,12.77s-1.07-31.17,0-34.71-4.61,5.31-4.61,5.31,1.77-13.11,2.13-18.42c.2-3.14-.94-11.44-1.92-18.24-.63-3.19-1.29-6.25-2-9.16-1.42,2.82-4.55,11.49-4.27,10.39.35-1.41,0-24.79,0-24.79l.26-.38c-3.24-9.94-6.76-15.94-10.44-15.94s-7.17,5.95-10.4,15.82l.35.5s-.35,23.38,0,24.79c.28,1.12-3-7.94-4.36-10.56q-.79,3.45-1.56,7.17c-1,7.09-2.46,16.92-2.23,20.4.36,5.31,2.13,18.42,2.13,18.42s-5.67-8.86-4.61-5.31,0,34.71,0,34.71-2.11-9.52-3.61-13c-.49,4.4-.94,8.82-1.37,13.22.34,12.2,1.21,28.26,1.44,31.32A91.76,91.76,0,0,0,254,298.24s-5.67-15.23-5.32-12.75-1.06,33.3.36,39l1.42,5.67-3.76-3.07c.69,51.53,13.59,46.29,29.39,46.29s28.68,5.23,29.39-46.18Z" style="fill:#4A9E60"></path><path d="M301.87,330.12l1.42-5.67c1.42-5.66,0-36.48.36-39s-5.32,12.75-5.32,12.75a91.76,91.76,0,0,0,2.13-11.69c.23-3,1.05-18.25,1.41-30.3-.45-4.66-.93-9.34-1.44-14-1.49,3.67-3.51,12.77-3.51,12.77s-1.07-31.17,0-34.71-4.61,5.31-4.61,5.31,1.77-13.11,2.13-18.42c.2-3.14-.94-11.44-1.92-18.24-.63-3.19-1.29-6.25-2-9.16-1.42,2.82-4.55,11.49-4.27,10.39.35-1.41,0-24.79,0-24.79l.26-.38c-3.24-9.94-6.76-15.94-10.44-15.94s-7.17,5.95-10.4,15.82l.35.5s-.35,23.38,0,24.79c.28,1.12-3-7.94-4.36-10.56q-.79,3.45-1.56,7.17c-1,7.09-2.46,16.92-2.23,20.4.36,5.31,2.13,18.42,2.13,18.42s-5.67-8.86-4.61-5.31,0,34.71,0,34.71-2.11-9.52-3.61-13c-.49,4.4-.94,8.82-1.37,13.22.34,12.2,1.21,28.26,1.44,31.32A91.76,91.76,0,0,0,254,298.24s-5.67-15.23-5.32-12.75-1.06,33.3.36,39l1.42,5.67-3.76-3.07c.69,51.53,13.59,46.29,29.39,46.29s28.68,5.23,29.39-46.18Z" style="fill:#fff;opacity:0.22"></path><polygon points="294.05 309.93 276.77 334.66 276 285.42 293.69 265.29 275.92 280.33 275.22 235.84 273.38 303.27 258.98 284.07 273.15 311.74 269.45 447.35 278.54 447.35 276.95 346.1 294.05 309.93" style="fill:#949494"></polygon><path d="M82.16,330.12l1.42-5.67c1.42-5.66,0-36.48.35-39s-5.31,12.75-5.31,12.75a91.76,91.76,0,0,0,2.13-11.69c.23-3,1-18.25,1.41-30.3-.45-4.66-.93-9.34-1.45-14C79.23,245.92,77.2,255,77.2,255s-1.06-31.17,0-34.71-4.6,5.31-4.6,5.31,1.77-13.11,2.12-18.42c.21-3.14-.93-11.44-1.91-18.24-.64-3.19-1.29-6.25-2-9.16-1.43,2.82-4.55,11.49-4.27,10.39.35-1.41,0-24.79,0-24.79l.26-.38c-3.24-9.94-6.76-15.94-10.44-15.94S49.23,155,46,164.9l.35.5s-.35,23.38,0,24.79c.28,1.12-3-7.94-4.36-10.56q-.8,3.45-1.56,7.17c-1,7.09-2.46,16.92-2.23,20.4.36,5.31,2.13,18.42,2.13,18.42s-5.67-8.86-4.61-5.31,0,34.71,0,34.71-2.11-9.52-3.61-13c-.49,4.4-.94,8.82-1.37,13.22.34,12.2,1.2,28.26,1.44,31.32a89.89,89.89,0,0,0,2.13,11.69S28.64,283,29,285.49s-1.06,33.3.36,39l1.41,5.67L27,327.05c.69,51.53,13.58,46.29,29.39,46.29s28.68,5.23,29.39-46.18Z" style="fill:#4A9E60"></path><path d="M82.16,330.12l1.42-5.67c1.42-5.66,0-36.48.35-39s-5.31,12.75-5.31,12.75a91.76,91.76,0,0,0,2.13-11.69c.23-3,1-18.25,1.41-30.3-.45-4.66-.93-9.34-1.45-14C79.23,245.92,77.2,255,77.2,255s-1.06-31.17,0-34.71-4.6,5.31-4.6,5.31,1.77-13.11,2.12-18.42c.21-3.14-.93-11.44-1.91-18.24-.64-3.19-1.29-6.25-2-9.16-1.43,2.82-4.55,11.49-4.27,10.39.35-1.41,0-24.79,0-24.79l.26-.38c-3.24-9.94-6.76-15.94-10.44-15.94S49.23,155,46,164.9l.35.5s-.35,23.38,0,24.79c.28,1.12-3-7.94-4.36-10.56q-.8,3.45-1.56,7.17c-1,7.09-2.46,16.92-2.23,20.4.36,5.31,2.13,18.42,2.13,18.42s-5.67-8.86-4.61-5.31,0,34.71,0,34.71-2.11-9.52-3.61-13c-.49,4.4-.94,8.82-1.37,13.22.34,12.2,1.2,28.26,1.44,31.32a89.89,89.89,0,0,0,2.13,11.69S28.64,283,29,285.49s-1.06,33.3.36,39l1.41,5.67L27,327.05c.69,51.53,13.58,46.29,29.39,46.29s28.68,5.23,29.39-46.18Z" style="fill:#fff;opacity:0.22"></path><polygon points="74.34 309.93 57.06 334.66 56.29 285.42 73.98 265.29 56.21 280.33 55.51 235.84 53.67 303.27 39.27 284.07 53.44 311.74 49.74 447.35 58.83 447.35 57.24 346.1 74.34 309.93" style="fill:#949494"></polygon><path d="M158.49,297.9l1.81-7.22c1.8-7.23,0-46.52.45-49.68S154,257.26,154,257.26a115.66,115.66,0,0,0,2.71-14.91c.3-3.79,1.34-23.26,1.8-38.62-.56-5.95-1.18-11.92-1.84-17.85-1.89,4.67-4.47,16.28-4.47,16.28s-1.36-39.74,0-44.26-5.87,6.78-5.87,6.78S148.56,148,149,141.19c.26-4-1.2-14.59-2.44-23.25-.81-4.07-1.65-8-2.5-11.67-1.82,3.59-5.8,14.64-5.45,13.24.45-1.8,0-31.61,0-31.61l.34-.48c-4.14-12.67-8.63-20.33-13.31-20.33s-9.14,7.6-13.26,20.18l.44.63s-.45,29.81,0,31.61c.36,1.43-3.8-10.12-5.55-13.46q-1,4.4-2,9.14c-1.3,9-3.13,21.57-2.83,26,.45,6.78,2.71,23.49,2.71,23.49s-7.23-11.3-5.87-6.78,0,44.26,0,44.26-2.7-12.14-4.61-16.59q-.93,8.42-1.75,16.86c.44,15.54,1.54,36,1.84,39.92a115.66,115.66,0,0,0,2.71,14.91S90.25,237.84,90.71,241s-1.36,42.45.45,49.68L93,297.9,88.18,294c.88,65.68,17.32,59,37.47,59s36.56,6.67,37.46-58.88Z" style="fill:#4A9E60"></path><path d="M158.49,297.9l1.81-7.22c1.8-7.23,0-46.52.45-49.68S154,257.26,154,257.26a115.66,115.66,0,0,0,2.71-14.91c.3-3.79,1.34-23.26,1.8-38.62-.56-5.95-1.18-11.92-1.84-17.85-1.89,4.67-4.47,16.28-4.47,16.28s-1.36-39.74,0-44.26-5.87,6.78-5.87,6.78S148.56,148,149,141.19c.26-4-1.2-14.59-2.44-23.25-.81-4.07-1.65-8-2.5-11.67-1.82,3.59-5.8,14.64-5.45,13.24.45-1.8,0-31.61,0-31.61l.34-.48c-4.14-12.67-8.63-20.33-13.31-20.33s-9.14,7.6-13.26,20.18l.44.63s-.45,29.81,0,31.61c.36,1.43-3.8-10.12-5.55-13.46q-1,4.4-2,9.14c-1.3,9-3.13,21.57-2.83,26,.45,6.78,2.71,23.49,2.71,23.49s-7.23-11.3-5.87-6.78,0,44.26,0,44.26-2.7-12.14-4.61-16.59q-.93,8.42-1.75,16.86c.44,15.54,1.54,36,1.84,39.92a115.66,115.66,0,0,0,2.71,14.91S90.25,237.84,90.71,241s-1.36,42.45.45,49.68L93,297.9,88.18,294c.88,65.68,17.32,59,37.47,59s36.56,6.67,37.46-58.88Z" style="fill:#fff;opacity:0.22"></path><polygon points="148.51 272.16 126.49 303.69 125.5 240.91 148.06 215.26 125.4 234.43 124.51 177.71 122.17 263.68 103.8 239.19 121.87 274.47 117.15 447.35 128.74 447.35 126.72 318.27 148.51 272.16" style="fill:#949494"></polygon></g><g id="freepik--Windmill--inject-31"><polygon points="386.01 62.51 394.58 91.94 400.02 89.66 396.3 56.67 386.01 62.51" style="fill:#263238"></polygon><polygon points="370 72.28 388.12 97.02 392.44 93.01 377.67 63.28 370 72.28" style="fill:#263238"></polygon><polygon points="358.29 86.95 383.78 103.99 386.47 98.75 362.42 75.86 358.29 86.95" style="fill:#263238"></polygon><polygon points="352.31 104.73 382.09 112.03 382.82 106.18 352.4 92.91 352.31 104.73" style="fill:#263238"></polygon><polygon points="352.77 123.49 383.25 120.16 381.94 114.42 348.81 112.35 352.77 123.49" style="fill:#263238"></polygon><polygon points="359.62 140.96 387.12 127.41 383.93 122.46 352.08 131.84 359.62 140.96" style="fill:#263238"></polygon><polygon points="372.03 155.04 393.24 132.89 388.54 129.33 361.83 149.05 372.03 155.04" style="fill:#263238"></polygon><polygon points="388.5 164.02 400.86 135.96 395.23 134.22 376.87 161.88 388.5 164.02" style="fill:#263238"></polygon><polygon points="407.06 166.82 409.07 136.23 403.19 136.52 395.39 168.79 407.06 166.82" style="fill:#263238"></polygon><polygon points="425.45 163.11 416.88 133.67 411.45 135.96 415.16 168.95 425.45 163.11" style="fill:#263238"></polygon><polygon points="441.47 153.33 423.34 128.6 419.02 132.61 433.8 162.34 441.47 153.33" style="fill:#263238"></polygon><polygon points="453.17 138.66 427.68 121.63 424.99 126.87 449.04 149.75 453.17 138.66" style="fill:#263238"></polygon><polygon points="459.15 120.88 429.37 113.59 428.64 119.43 459.07 132.71 459.15 120.88" style="fill:#263238"></polygon><polygon points="458.69 102.12 428.21 105.45 429.52 111.2 462.66 113.27 458.69 102.12" style="fill:#263238"></polygon><polygon points="451.85 84.65 424.34 98.21 427.54 103.16 459.38 93.77 451.85 84.65" style="fill:#263238"></polygon><polygon points="439.44 70.58 418.23 92.72 422.92 96.28 449.64 76.57 439.44 70.58" style="fill:#263238"></polygon><polygon points="422.96 61.6 410.6 89.66 416.23 91.4 434.59 63.74 422.96 61.6" style="fill:#263238"></polygon><polygon points="404.4 58.79 402.39 89.39 408.28 89.1 416.07 56.83 404.4 58.79" style="fill:#263238"></polygon><circle cx="405.73" cy="112.81" r="42.91" transform="translate(-11.69 168.48) rotate(-23.13)" style="fill:none;stroke:#263238;stroke-miterlimit:10"></circle><circle cx="405.73" cy="112.81" r="23.72" style="fill:none;stroke:#263238;stroke-miterlimit:10"></circle><line x1="405.47" y1="119.5" x2="362.01" y2="448.46" style="fill:none;stroke:#263238;stroke-miterlimit:10"></line><line x1="405.47" y1="119.5" x2="448.93" y2="448.46" style="fill:none;stroke:#263238;stroke-miterlimit:10"></line><line x1="405.47" y1="119.5" x2="405.47" y2="448.51" style="fill:none;stroke:#263238;stroke-miterlimit:10;stroke-width:3px"></line><polygon points="398.4 122.72 412.54 122.72 412.54 115.01 401.61 95.73 395.83 95.73 398.4 114.36 398.4 122.72" style="fill:#263238;stroke:#263238;stroke-miterlimit:10"></polygon><polygon points="336.71 115.65 348.28 127.86 340.56 145.21 292.37 158.7 288.51 118.86 336.71 115.65" style="fill:#c2c2c2;stroke:#263238;stroke-miterlimit:10"></polygon><line x1="405.47" y1="129.14" x2="327.07" y2="129.14" style="fill:#fff;stroke:#263238;stroke-miterlimit:10"></line><line x1="384.9" y1="186.98" x2="425.39" y2="186.98" style="fill:#fff;stroke:#263238;stroke-miterlimit:10;stroke-width:2px"></line><line x1="393.26" y1="212.68" x2="418.35" y2="212.68" style="fill:#fff;stroke:#263238;stroke-miterlimit:10"></line><line x1="390" y1="241.05" x2="421.61" y2="241.05" style="fill:#fff;stroke:#263238;stroke-miterlimit:10"></line><line x1="384.45" y1="281.8" x2="427.16" y2="281.8" style="fill:#fff;stroke:#263238;stroke-miterlimit:10"></line><line x1="377.28" y1="333.97" x2="434.33" y2="333.97" style="fill:#fff;stroke:#263238;stroke-miterlimit:10"></line><line x1="368.14" y1="395.92" x2="441.83" y2="395.92" style="fill:#fff;stroke:#263238;stroke-miterlimit:10"></line></g><g id="freepik--farm-tractor--inject-31"><path d="M27.9,373.08l-1.21,4.07L24.05,376a3.83,3.83,0,1,0-1.34,2.86l2.17,1.2-1.06,4.83,8,3,3.47-12.23Z" style="fill:#263238;stroke:#263238;stroke-miterlimit:10"></path><path d="M51.1,337.73l25.21,3.94v62H290l1.57-8.14h12.1a13.32,13.32,0,0,0,9.7-4.2h0V388.4l-7.88-2.88V382.1h8.14v-1.34a5,5,0,0,0-3.13-4.66l-14.2-5.81-15.49-5H181.59V377.9H154s2.36-6.3-9.72-23.37S125.93,332,119.63,328s-.79-5-16.54-7.09a146.57,146.57,0,0,0-28.36-1.05l-3.93,7.35H59.51Z" style="fill:#263238;stroke:#263238;stroke-miterlimit:10"></path><path d="M180.34,317.66s15.49-1.87,25.11-.8,23.25,10.69,23.25,10.69,36.06,4.27,47.29,9.89,11.48,15,11.22,20-6.15,21.91-6.15,21.91-48.89-12.56-98.32-12.29l-1.6-43Z" style="fill:#4A9E60;stroke:#263238;stroke-miterlimit:10"></path><path d="M219.68,327.15c1.87.17,3.71.37,5.5.6" style="fill:none;stroke:#263238;stroke-miterlimit:10"></path><path d="M184.85,326.42a313.9,313.9,0,0,1,32,.49" style="fill:none;stroke:#263238;stroke-miterlimit:10"></path><path d="M277.61,344c1.81.29,3.44.6,4.84.94" style="fill:none;stroke:#263238;stroke-miterlimit:10"></path><path d="M192.36,341s54.42-.83,81.28,2.48" style="fill:none;stroke:#263238;stroke-miterlimit:10"></path><path d="M123.64,306.68,115.8,305v8.86l7.84-1.73A2.77,2.77,0,0,0,123.64,306.68Z" style="fill:#263238"></path><path d="M197.43,341h-5.07V263c1-10.22,10.26-9.94,10.57-10.06l-1.2,4.76-.89-2.38.9,2.38c-.17.06-4.31,1.71-4.31,5.3Z" style="fill:#263238"></path><path d="M174.19,316.33l-24.85,24L159,353.2a35.11,35.11,0,0,1,9.62,3.47c5.88,2.94,7.21,10.42,7.21,10.42h7V318.47Z" style="fill:#263238;stroke:#263238;stroke-miterlimit:10"></path><circle cx="256.79" cy="407.44" r="41.08" transform="translate(-61.21 45.74) rotate(-9.1)" style="fill:#263238;stroke:#263238;stroke-miterlimit:10"></circle><circle cx="256.79" cy="407.44" r="26.85" transform="translate(-221.69 462.18) rotate(-64.31)" style="fill:#fff;stroke:#263238;stroke-miterlimit:10"></circle><circle cx="256.79" cy="407.44" r="23.99" transform="translate(-218.39 485.85) rotate(-67.15)" style="fill:#263238;stroke:#263238;stroke-miterlimit:10"></circle><path d="M276.5,407.44c0-3.9,2.12-8.41.3-11.56s-6.9-3.64-10.15-5.52-6-6-9.86-6-6.7,4.2-9.85,6-8.27,2.28-10.15,5.53.29,7.65.29,11.55-2.11,8.4-.29,11.55,6.9,3.64,10.15,5.52,6,6,9.85,6,6.71-4.2,9.86-6,8.27-2.28,10.15-5.52S276.5,411.33,276.5,407.44Z" style="fill:#fff;stroke:#263238;stroke-miterlimit:10"></path><circle cx="256.79" cy="407.44" r="8.82" transform="translate(-61.79 46.25) rotate(-9.19)" style="fill:#263238;stroke:#263238;stroke-miterlimit:10"></circle><path d="M254.38,366.69s-2.16,1.72-2.48,3.45,1,1.84,1.51,1.73,2.59.21,4-.54,4-4.43,4-4.43S256.65,365.93,254.38,366.69Z" style="fill:#6b6b6b;stroke:#263238;stroke-miterlimit:10"></path><path d="M243,369s-1.59,2.27-1.41,4,1.45,1.49,1.94,1.23,2.55-.52,3.68-1.64,2.59-5.38,2.59-5.38S245,367.65,243,369Z" style="fill:#6b6b6b;stroke:#263238;stroke-miterlimit:10"></path><path d="M232.73,374.46s-.88,2.62-.22,4.25,1.81,1,2.21.63,2.3-1.22,3.07-2.61,1-5.89,1-5.89S234.23,372.6,232.73,374.46Z" style="fill:#6b6b6b;stroke:#263238;stroke-miterlimit:10"></path><path d="M224.42,382.57s-.11,2.76,1,4.14,2,.47,2.3,0,1.86-1.82,2.21-3.37-.73-5.92-.73-5.92S225.33,380.36,224.42,382.57Z" style="fill:#6b6b6b;stroke:#263238;stroke-miterlimit:10"></path><path d="M218.72,392.7s.68,2.68,2.12,3.69,2.07-.12,2.2-.65,1.27-2.27,1.16-3.86-2.36-5.48-2.36-5.48S219,390.32,218.72,392.7Z" style="fill:#6b6b6b;stroke:#263238;stroke-miterlimit:10"></path><path d="M216.12,404s1.4,2.39,3.06,3,2-.7,1.93-1.25.58-2.53,0-4-3.81-4.59-3.81-4.59S215.69,401.67,216.12,404Z" style="fill:#6b6b6b;stroke:#263238;stroke-miterlimit:10"></path><path d="M216.8,415.62s2,1.89,3.78,2,1.67-1.23,1.49-1.75-.15-2.59-1.1-3.87-4.95-3.33-4.95-3.33S215.73,413.48,216.8,415.62Z" style="fill:#6b6b6b;stroke:#263238;stroke-miterlimit:10"></path><path d="M220.73,426.56s2.47,1.24,4.17.82,1.27-1.65.95-2.09-.88-2.45-2.15-3.41-5.69-1.8-5.69-1.8S219.1,424.81,220.73,426.56Z" style="fill:#6b6b6b;stroke:#263238;stroke-miterlimit:10"></path><path d="M227.58,435.94s2.72.5,4.23-.38.75-1.94.32-2.28-1.53-2.1-3-2.66-6-.12-6-.12S225.52,434.72,227.58,435.94Z" style="fill:#6b6b6b;stroke:#263238;stroke-miterlimit:10"></path><path d="M236.79,443s2.75-.29,4-1.56.17-2.07-.34-2.28-2.06-1.58-3.65-1.7S231,439,231,439,234.47,442.43,236.79,443Z" style="fill:#6b6b6b;stroke:#263238;stroke-miterlimit:10"></path><path d="M247.63,447.21s2.56-1,3.35-2.61-.41-2-1-2.09-2.43-.93-4-.6S241,445,241,445,245.24,447.3,247.63,447.21Z" style="fill:#6b6b6b;stroke:#263238;stroke-miterlimit:10"></path><path d="M259.2,448.19s2.16-1.73,2.49-3.46-1-1.84-1.51-1.73-2.6-.21-4,.54-4,4.43-4,4.43S256.94,448.94,259.2,448.19Z" style="fill:#6b6b6b;stroke:#263238;stroke-miterlimit:10"></path><path d="M270.59,445.86s1.58-2.27,1.41-4-1.45-1.49-1.94-1.23-2.55.52-3.68,1.64-2.59,5.38-2.59,5.38S268.62,447.22,270.59,445.86Z" style="fill:#6b6b6b;stroke:#263238;stroke-miterlimit:10"></path><path d="M280.85,440.41s.89-2.62.22-4.25-1.81-1-2.2-.63-2.3,1.22-3.07,2.61-1,5.89-1,5.89S279.35,442.28,280.85,440.41Z" style="fill:#6b6b6b;stroke:#263238;stroke-miterlimit:10"></path><path d="M289.17,432.3s.11-2.76-1-4.14-2-.47-2.29,0-1.86,1.82-2.21,3.37.73,5.92.73,5.92S288.26,434.51,289.17,432.3Z" style="fill:#6b6b6b;stroke:#263238;stroke-miterlimit:10"></path><path d="M294.86,422.17s-.67-2.68-2.11-3.69-2.07.12-2.2.65-1.27,2.27-1.17,3.86,2.37,5.48,2.37,5.48S294.61,424.55,294.86,422.17Z" style="fill:#6b6b6b;stroke:#263238;stroke-miterlimit:10"></path><path d="M297.47,410.85s-1.4-2.38-3.06-3-2,.7-1.93,1.25-.58,2.53,0,4,3.81,4.59,3.81,4.59S297.9,413.2,297.47,410.85Z" style="fill:#6b6b6b;stroke:#263238;stroke-miterlimit:10"></path><path d="M296.79,399.25s-2-1.89-3.78-2-1.68,1.23-1.49,1.75.15,2.59,1.1,3.87,4.95,3.33,4.95,3.33S297.86,401.39,296.79,399.25Z" style="fill:#6b6b6b;stroke:#263238;stroke-miterlimit:10"></path><path d="M292.86,388.31s-2.47-1.24-4.17-.82-1.27,1.65-.95,2.09.88,2.45,2.15,3.41,5.69,1.8,5.69,1.8S294.49,390.06,292.86,388.31Z" style="fill:#6b6b6b;stroke:#263238;stroke-miterlimit:10"></path><path d="M286,378.93s-2.72-.5-4.24.38-.75,1.94-.31,2.28,1.53,2.1,3,2.66,6,.12,6,.12S288.07,380.15,286,378.93Z" style="fill:#6b6b6b;stroke:#263238;stroke-miterlimit:10"></path><path d="M276.8,371.85s-2.75.29-4,1.57-.18,2.06.34,2.27,2.06,1.58,3.65,1.7,5.76-1.56,5.76-1.56S279.11,372.44,276.8,371.85Z" style="fill:#6b6b6b;stroke:#263238;stroke-miterlimit:10"></path><path d="M266,367.66s-2.56,1-3.35,2.61.41,2,1,2.09,2.42.93,4,.6,5.09-3.12,5.09-3.12S268.35,367.57,266,367.66Z" style="fill:#6b6b6b;stroke:#263238;stroke-miterlimit:10"></path><circle cx="85.97" cy="391.96" r="56.55" transform="translate(-86.47 29.62) rotate(-13.08)" style="fill:#263238;stroke:#263238;stroke-miterlimit:10"></circle><circle cx="85.97" cy="391.96" r="36.96" transform="translate(-61.1 18.61) rotate(-9.13)" style="fill:#fff;stroke:#263238;stroke-miterlimit:10"></circle><circle cx="85.97" cy="391.96" r="33.03" transform="translate(-86.68 29.72) rotate(-13.11)" style="fill:#263238;stroke:#263238;stroke-miterlimit:10"></circle><path d="M85,419.08c5.36.19,11.45,3.32,15.87,1s5.35-9.32,8.09-13.7,8.57-7.9,8.76-13.26-5.45-9.43-7.81-13.85-2.73-11.49-7.11-14.23-10.54,0-15.9-.15-11.46-3.32-15.88-1S65.7,373.2,63,377.58s-8.57,7.9-8.76,13.27,5.46,9.43,7.81,13.85,2.73,11.48,7.11,14.23S79.65,418.89,85,419.08Z" style="fill:#fff;stroke:#263238;stroke-miterlimit:10"></path><circle cx="85.97" cy="391.96" r="12.14" transform="translate(-49.99 14.42) rotate(-7.43)" style="fill:#263238;stroke:#263238;stroke-miterlimit:10"></circle><path d="M82.65,335.86s-3,2.38-3.42,4.76,1.34,2.53,2.08,2.38,3.57.3,5.5-.74,5.5-6.1,5.5-6.1S85.77,334.82,82.65,335.86Z" style="fill:#6b6b6b;stroke:#263238;stroke-miterlimit:10"></path><path d="M67,339.07S64.8,342.19,65,344.6s2,2,2.67,1.69,3.5-.72,5.06-2.26,3.56-7.4,3.56-7.4S69.68,337.19,67,339.07Z" style="fill:#6b6b6b;stroke:#263238;stroke-miterlimit:10"></path><path d="M52.85,346.56s-1.22,3.61-.31,5.85,2.49,1.41,3,.88,3.16-1.68,4.22-3.6,1.34-8.1,1.34-8.1S54.91,344,52.85,346.56Z" style="fill:#6b6b6b;stroke:#263238;stroke-miterlimit:10"></path><path d="M41.4,357.73s-.15,3.81,1.35,5.7,2.79.65,3.16,0,2.57-2.5,3-4.65-1-8.15-1-8.15S42.66,354.69,41.4,357.73Z" style="fill:#6b6b6b;stroke:#263238;stroke-miterlimit:10"></path><path d="M33.56,371.68s.93,3.69,2.91,5.08,2.85-.16,3-.9,1.76-3.12,1.61-5.31S37.84,363,37.84,363,33.91,368.4,33.56,371.68Z" style="fill:#6b6b6b;stroke:#263238;stroke-miterlimit:10"></path><path d="M30,387.26s1.93,3.28,4.22,4.06,2.69-1,2.65-1.72.8-3.49,0-5.55-5.25-6.31-5.25-6.31S29.38,384,30,387.26Z" style="fill:#6b6b6b;stroke:#263238;stroke-miterlimit:10"></path><path d="M30.91,403.23s2.78,2.61,5.2,2.71,2.31-1.69,2.06-2.4S38,400,36.65,398.2s-6.82-4.58-6.82-4.58S29.44,400.29,30.91,403.23Z" style="fill:#6b6b6b;stroke:#263238;stroke-miterlimit:10"></path><path d="M36.32,418.29s3.4,1.71,5.74,1.13,1.75-2.27,1.3-2.88-1.21-3.37-3-4.7-7.83-2.47-7.83-2.47S34.07,415.88,36.32,418.29Z" style="fill:#6b6b6b;stroke:#263238;stroke-miterlimit:10"></path><path d="M45.74,431.21s3.75.69,5.84-.53,1-2.67.43-3.13-2.11-2.89-4.16-3.67-8.21-.17-8.21-.17S42.91,429.53,45.74,431.21Z" style="fill:#6b6b6b;stroke:#263238;stroke-miterlimit:10"></path><path d="M58.43,441s3.79-.39,5.45-2.15.24-2.85-.47-3.13-2.84-2.18-5-2.35-7.92,2.16-7.92,2.16S55.24,440.14,58.43,441Z" style="fill:#6b6b6b;stroke:#263238;stroke-miterlimit:10"></path><path d="M73.35,446.72s3.52-1.44,4.62-3.6-.57-2.8-1.33-2.87-3.34-1.29-5.49-.83-7,4.3-7,4.3S70.06,446.84,73.35,446.72Z" style="fill:#6b6b6b;stroke:#263238;stroke-miterlimit:10"></path><path d="M89.29,448.06s3-2.38,3.42-4.76-1.34-2.52-2.09-2.37-3.56-.3-5.5.74-5.5,6.09-5.5,6.09S86.16,449.1,89.29,448.06Z" style="fill:#6b6b6b;stroke:#263238;stroke-miterlimit:10"></path><path d="M105,444.85s2.18-3.12,1.94-5.52-2-2.05-2.67-1.7-3.51.72-5.07,2.26-3.56,7.4-3.56,7.4S102.26,446.73,105,444.85Z" style="fill:#6b6b6b;stroke:#263238;stroke-miterlimit:10"></path><path d="M119.09,437.36s1.22-3.61.3-5.85-2.49-1.4-3-.87-3.16,1.67-4.23,3.6-1.33,8.1-1.33,8.1S117,439.93,119.09,437.36Z" style="fill:#6b6b6b;stroke:#263238;stroke-miterlimit:10"></path><path d="M130.54,426.19s.15-3.8-1.36-5.7-2.78-.64-3.16,0-2.56,2.5-3,4.64,1,8.15,1,8.15S129.28,429.23,130.54,426.19Z" style="fill:#6b6b6b;stroke:#263238;stroke-miterlimit:10"></path><path d="M138.38,412.25s-.93-3.69-2.91-5.09-2.85.17-3,.91-1.75,3.12-1.61,5.31,3.26,7.53,3.26,7.53S138,415.52,138.38,412.25Z" style="fill:#6b6b6b;stroke:#263238;stroke-miterlimit:10"></path><path d="M142,396.66s-1.93-3.28-4.22-4.06-2.69,1-2.65,1.72-.81,3.49,0,5.55,5.25,6.31,5.25,6.31S142.55,399.9,142,396.66Z" style="fill:#6b6b6b;stroke:#263238;stroke-miterlimit:10"></path><path d="M141,380.69s-2.77-2.6-5.19-2.7-2.31,1.68-2.06,2.4.21,3.57,1.52,5.33,6.82,4.58,6.82,4.58S142.5,383.64,141,380.69Z" style="fill:#6b6b6b;stroke:#263238;stroke-miterlimit:10"></path><path d="M135.62,365.64s-3.4-1.72-5.75-1.13-1.74,2.26-1.3,2.88,1.21,3.37,3,4.69,7.83,2.47,7.83,2.47S137.86,368.05,135.62,365.64Z" style="fill:#6b6b6b;stroke:#263238;stroke-miterlimit:10"></path><path d="M126.19,352.72s-3.74-.69-5.83.53-1,2.66-.44,3.13,2.12,2.89,4.17,3.67,8.21.16,8.21.16S129,354.39,126.19,352.72Z" style="fill:#6b6b6b;stroke:#263238;stroke-miterlimit:10"></path><path d="M113.51,343s-3.79.4-5.45,2.16-.24,2.85.46,3.12,2.84,2.18,5,2.35,7.92-2.15,7.92-2.15S116.7,343.79,113.51,343Z" style="fill:#6b6b6b;stroke:#263238;stroke-miterlimit:10"></path><path d="M98.59,337.2s-3.52,1.44-4.62,3.6.57,2.8,1.33,2.87,3.33,1.29,5.48.84,7-4.3,7-4.3S101.88,337.08,98.59,337.2Z" style="fill:#6b6b6b;stroke:#263238;stroke-miterlimit:10"></path><path d="M56.62,326.44,44,340.88h7.35s8.66-9.71,12.07-10.76,37-2.89,49.63,3.15,19.16,14.44,24.94,24.94a147.17,147.17,0,0,1,9.45,21.53l3.15-12.08s-14.7-27.83-28.09-36-21.79-7.09-33.08-8.14-30.46,0-30.46,0Z" style="fill:#4A9E60;stroke:#263238;stroke-miterlimit:10"></path><rect x="151.93" y="382.36" width="27.31" height="17.07" style="fill:#6b6b6b;stroke:#263238;stroke-miterlimit:10"></rect><rect x="157.7" y="400.45" width="24.68" height="3.68" style="fill:#6b6b6b;stroke:#263238;stroke-miterlimit:10"></rect><path d="M163.35,312.34l-20.79,11.15a.72.72,0,0,0,.34,1.36h7.31l7.42,11.43,5.93-3.81-6.15-10.38,6.78-8.76A.66.66,0,0,0,163.35,312.34Z" style="fill:#263238;stroke:#263238;stroke-miterlimit:10"></path><polygon points="152.59 367.19 165.8 367.19 163.64 350.2 181.98 350.2 181.98 377.36 154.03 377.9 152.59 367.19" style="fill:#263238;stroke:#263238;stroke-miterlimit:10"></polygon><polygon points="173.21 283.28 124.86 331.62 138.96 341.5 176.29 304.17 173.21 283.28" style="opacity:0.30000000000000004"></polygon><polygon points="115.8 266.06 73.9 294.24 78.35 258.63 114.99 257.94 115.8 266.06" style="opacity:0.30000000000000004"></polygon><path d="M184.83,379.92H152.08l-.32-2.17c-3.55-24-20.93-40.47-31-48.13-13.66-10.43-47.21-7.94-47.55-7.91l-3,.23L75.46,259l5.06.41-4.71,57c8.9-.4,35.26-.65,48.05,9.11,17.71,13.5,29.21,30.92,32.57,49.26H179.7c-.18-16.52-.84-52.88-2.15-58.84-1.72-7.9-9.59-55.32-9.93-57.34l5-.83c.08.49,8.18,49.31,9.89,57.09,1.76,8.09,2.26,60.22,2.28,62.44Z" style="fill:#263238"></path><rect x="111.92" y="260.47" width="5.45" height="63.65" style="fill:#263238"></rect><path d="M123.64,267.8l-7.84-1.74v8.87l7.84-1.74A2.76,2.76,0,0,0,123.64,267.8Z" style="fill:#263238"></path><path d="M176.32,290.35l2.89,1.45a10.42,10.42,0,0,1,5.61,7.49c1.27,7.09,3.36,19.65,3.36,25.84,0,5.78.34,14.54.58,19.95a10.44,10.44,0,0,1-3.38,8.16l-2.86,2.62" style="fill:none;stroke:#263238;stroke-miterlimit:10;stroke-width:3px"></path><line x1="176.58" y1="287.65" x2="176.58" y2="260.15" style="fill:none;stroke:#263238;stroke-miterlimit:10;stroke-width:3px"></line><path d="M177.12,266.36h23.25a5.33,5.33,0,0,1,5.33,5.33v1.41" style="fill:none;stroke:#263238;stroke-miterlimit:10;stroke-width:3px"></path><path d="M199.23,268.51h1.31a5.16,5.16,0,0,1,5.16,5.16v11.78a5.16,5.16,0,0,1-5.16,5.16h-1.31a0,0,0,0,1,0,0V268.51A0,0,0,0,1,199.23,268.51Z" style="fill:#263238;stroke:#263238;stroke-miterlimit:10"></path><path d="M183.48,262.49v-1.3A10.47,10.47,0,0,0,173,250.73H84.72a10.46,10.46,0,0,0-10.46,10.46v1.3Z" style="fill:#4A9E60;stroke:#263238;stroke-miterlimit:10"></path></g><g id="freepik--Floor--inject-31"><line x1="8.36" y1="448.51" x2="493.3" y2="448.51" style="fill:none;stroke:#263238;stroke-miterlimit:10"></line></g></svg>
