<svg xmlns="http://www.w3.org/2000/svg" viewBox="0 0 500 500"><g id="freepik--Mountains--inject-3"><g id="freepik--mountains--inject-3"><g id="freepik--mountains--inject-3"><path d="M10,223.69,58.6,145.23c.78-1.14,3.93-1.13,4.68,0L85,175l20-19.24c1.91-1.83,6.12-1.83,8,0l20,19.24,51-57.31c1.87-2.1,6.62-2.07,8.42.06l41.59,48.37,32.52-29.79c1.7-1.89,5.85-2.08,8-.37l19.65,16L338,103.53c1.91-2.11,6.74-2,8.47.15l56.23,70.68,27.78-30c2.15-2.31,7.46-2.17,9.29.25l50.19,66V301H10Z" style="fill:#f0f0f0"></path><path d="M440.32,150.44a6.18,6.18,0,0,0-4.89-.3l-4.35,1.61a6.23,6.23,0,0,1-4.95-.34l-1.41-.81,5.78-6.23c2.14-2.31,7.45-2.17,9.28.25l6.61,8.74a5.42,5.42,0,0,1-1.86-.6Z" style="fill:#fafafa"></path><path d="M58.6,145.23c.78-1.14,3.93-1.13,4.68,0l5.25,7.17,2.79,3.92-1.08,1.12a3.79,3.79,0,0,1-4.61.22l-3.4-2.75a3.88,3.88,0,0,0-4.35,0l-1.17.92a3.78,3.78,0,0,1-4.55-.22Z" style="fill:#fafafa"></path><path d="M274.68,135.92l8.21,6.65-2.78,2.05a4.67,4.67,0,0,1-5.11-.05l-1.79-1.41a4.68,4.68,0,0,0-5.08-.07h0c-1.52,1.09-4.27.91-5.39-.36l-1.37-1.55,5.35-4.9C268.43,134.39,272.57,134.2,274.68,135.92Z" style="fill:#fafafa"></path><path d="M192.61,117.7l15.57,18.1-1.94,2.47c-1.26,1.62-4.8,1.74-6.33.22L196.45,135a5,5,0,0,0-5.89-.22h0a5,5,0,0,1-5.75-.11l-3.59-3.11a5.09,5.09,0,0,0-5.2-.45l-7,3.55,15.19-17C186.06,115.54,190.81,115.57,192.61,117.7Z" style="fill:#fafafa"></path><path d="M113.11,155.72l8.94,8.57L115,161.68a3.37,3.37,0,0,0-3.1.39l-1.93,1.6a3.39,3.39,0,0,1-3.58.16l-1.63-1a3.44,3.44,0,0,0-3.35,0l-10.33,6.37h0l14-13.46C107,153.89,111.2,153.89,113.11,155.72Z" style="fill:#fafafa"></path><path d="M346.48,103.68l10.22,12.84-1.11,1.16c-1.57,1.62-5.14,1.83-7.14.41l-3-2.15a6.3,6.3,0,0,0-6.64,0l-6.45,4.56a6.28,6.28,0,0,1-6.71,0l-1.74-1.3L338,103.53C339.93,101.42,344.75,101.5,346.48,103.68Z" style="fill:#fafafa"></path><g style="opacity:0.05"><polygon points="427.87 147.2 445.75 164.53 435.25 164.53 443.06 183.51 426.5 172.85 412.54 187.21 402.71 174.36 427.87 147.2"></polygon><polygon points="337.4 104.21 325.54 139.66 344.62 153.81 347.2 195.14 294.34 151.87 337.4 104.21"></polygon><polygon points="265.23 137.65 272.44 150.25 262.82 150.25 280.1 178.44 253.18 164.46 240.9 174.31 234.2 166.07 265.23 137.65"></polygon><polygon points="133.15 174.95 181.13 121.06 171.39 146.7 187.79 161.96 147.33 169.78 160.34 179.18 153.51 184.61 164.04 204.98 133.15 174.95"></polygon><polygon points="105.09 155.72 113.33 171.61 102.22 170.63 100.67 191.56 85.04 174.94 105.09 155.72"></polygon><polygon points="53.63 153.26 29.89 202.6 48.47 228.83 27.85 225.22 76.15 300.96 10.04 300.96 10.04 223.69 53.63 153.26"></polygon></g></g></g></g><g id="freepik--Windmill--inject-3"><g id="freepik--windmill--inject-3"><path d="M444.13,301.63a.63.63,0,0,1-.62-.57L426.9,90.73h-9.56l-16.57,210a.59.59,0,0,1-.67.56.62.62,0,0,1-.57-.66L416.16,90.06a.61.61,0,0,1,.61-.57h10.7a.62.62,0,0,1,.62.57L444.75,301a.63.63,0,0,1-.57.67Z" style="fill:#455a64"></path><path d="M431.14,137.17h-18a.64.64,0,0,1-.54-.32.62.62,0,0,1,0-.63l8.81-13.87-6.81-10.72a.59.59,0,0,1,0-.64l6.84-11.72-5.17-8.85a.62.62,0,0,1,1.07-.62l4.81,8.25,4.82-8.25a.62.62,0,0,1,1.07.62l-5.17,8.85L429.68,111a.61.61,0,0,1,0,.64l-6.81,10.72,8.8,13.87a.6.6,0,0,1,0,.63A.61.61,0,0,1,431.14,137.17Zm-16.91-1.24H430l-7.9-12.42Zm1.59-24.64,6.3,9.91,6.31-9.91-6.31-10.79Z" style="fill:#455a64"></path><path d="M410.41,171.32a.54.54,0,0,1-.32-.09.6.6,0,0,1-.21-.84l20.73-34.16a.62.62,0,0,1,.85-.21.61.61,0,0,1,.21.85L410.94,171A.62.62,0,0,1,410.41,171.32Z" style="fill:#455a64"></path><path d="M437,211.61h-29.8a.62.62,0,0,1-.51-1l14.67-22.21-11.49-17.39a.66.66,0,0,1,0-.64.62.62,0,0,1,.55-.32h22.33l-20.16-33.22a.61.61,0,1,1,1.05-.64l20.73,34.14.07.14h0l0,.11h0a.71.71,0,0,1-.1.42l-11.5,17.39,14.68,22.21a.64.64,0,0,1,0,.64A.62.62,0,0,1,437,211.61Zm-28.65-1.23h27.51l-13.76-20.82Zm3.19-39.06,10.56,16,10.57-16Z" style="fill:#455a64"></path><path d="M439.51,243.05a.6.6,0,0,1-.43-.18l-32.29-31.43a.62.62,0,1,1,.87-.89L439.94,242a.62.62,0,0,1,0,.87A.59.59,0,0,1,439.51,243.05Z" style="fill:#455a64"></path><path d="M404.74,243.05a.59.59,0,0,1-.44-.19.61.61,0,0,1,0-.87l32.28-31.44a.62.62,0,0,1,.87.89l-32.29,31.43A.61.61,0,0,1,404.74,243.05Z" style="fill:#455a64"></path><rect x="409.71" y="109.56" width="24.82" height="2.75" rx="1.26" style="fill:#455a64"></rect><path d="M422.12,301.61a.61.61,0,0,1-.61-.62V90.11a.61.61,0,0,1,.61-.62.62.62,0,0,1,.62.62V301A.62.62,0,0,1,422.12,301.61Z" style="fill:#455a64"></path><path d="M419.77,66.25a2.36,2.36,0,1,1,2.35,2.36A2.36,2.36,0,0,1,419.77,66.25Z" style="fill:#455a64"></path><path d="M422.12,60.43s-3.81-7.34-2.35-10.81,4.22-6.1,4.71-4.3S422.12,60.43,422.12,60.43Z" style="fill:#455a64"></path><path d="M418.7,61.54s-7.4-3.7-8.26-7.36-.17-7.41,1.29-6.24S418.7,61.54,418.7,61.54Z" style="fill:#455a64"></path><path d="M416.59,64.45s-8.17,1.36-11-1.1-4.49-5.9-2.63-5.81S416.59,64.45,416.59,64.45Z" style="fill:#455a64"></path><path d="M416.59,68.05S410.78,74,407,73.63s-7.11-2.13-5.55-3.15S416.59,68.05,416.59,68.05Z" style="fill:#455a64"></path><path d="M418.7,71s-1.23,8.19-4.44,10.13-7,2.45-6.34.7S418.7,71,418.7,71Z" style="fill:#455a64"></path><path d="M422.12,72.07s3.82,7.35,2.36,10.81-4.22,6.1-4.71,4.3S422.12,72.07,422.12,72.07Z" style="fill:#455a64"></path><path d="M425.54,71s7.41,3.7,8.26,7.36.17,7.41-1.28,6.24S425.54,71,425.54,71Z" style="fill:#455a64"></path><path d="M427.66,68.05s8.16-1.36,11,1.1,4.49,5.9,2.63,5.81S427.66,68.05,427.66,68.05Z" style="fill:#455a64"></path><path d="M427.66,64.45s5.8-5.9,9.55-5.58,7.1,2.13,5.54,3.15S427.66,64.45,427.66,64.45Z" style="fill:#455a64"></path><path d="M425.54,61.54s1.23-8.18,4.45-10.13,7-2.45,6.34-.7S425.54,61.54,425.54,61.54Z" style="fill:#455a64"></path></g></g><g id="freepik--Floor--inject-3"><g id="freepik--floor--inject-3"><path d="M422.36,223.8c-95.15-54.94-249.41-54.94-344.56,0s-95.15,144,0,198.93,249.41,54.93,344.56,0S517.51,278.73,422.36,223.8Z" style="fill:#4A9E60"></path><path d="M422.36,223.8c-95.15-54.94-249.41-54.94-344.56,0s-95.15,144,0,198.93,249.41,54.93,344.56,0S517.51,278.73,422.36,223.8Z" style="fill:#fff;opacity:0.7000000000000001"></path></g></g><g id="freepik--Clouds--inject-3"><path id="freepik--Cloud--inject-3" d="M184.4,54c0-4.35-4.77-7.38-10.18-7.89-6.36-.6-10.88,2.24-11,7.25-4.16-1.7-8.55-.61-8.22,4-1.09-1.25-5.14-1.21-6.59-.87a5.71,5.71,0,0,0-3.63,3.1,4.26,4.26,0,0,0-.38,2.34c-2.42-.8-7.94-1.28-9.32.94-2.46,4,7.35,4.09,9.34,2.89.41,3.09,11,3.59,13.52.75,2,2,4.86,2.45,8,2.63,5.22.32,8.43-1.45,12.5-3.53,4.42,3.75,12.08,3.82,16.07-.47,1,1,3.82,1.25,6.07.72,1.47-.36,1.82-1,1.82-1a13,13,0,0,0,2.7.81c2.9.61,8.28,0,6-2.64-.77-.89-3.58-1.45-4.78-1.18C205,59.31,199.93,57,197,59.06c-.12-3-2.87-5.36-6.74-6C189,52.9,185.88,52.72,184.4,54Z" style="fill:#ebebeb"></path><path id="freepik--cloud--inject-3" d="M90.22,89c0-5-5.45-8.42-11.61-9-7.27-.69-12.42,2.55-12.6,8.27-4.75-2-9.76-.7-9.38,4.53-1.24-1.43-5.86-1.39-7.52-1A6.47,6.47,0,0,0,45,95.35,4.76,4.76,0,0,0,44.54,98c-2.77-.91-9.07-1.46-10.65,1.08-2.8,4.52,8.4,4.66,10.66,3.3.48,3.52,12.52,4.09,15.44.85,2.27,2.29,5.54,2.8,9.08,3,6,.35,9.61-1.67,14.25-4,5.06,4.28,13.8,4.36,18.35-.54,1.16,1.1,4.36,1.44,6.93.83,1.68-.41,2.07-1.12,2.07-1.12a15.37,15.37,0,0,0,3.09.93c3.3.69,9.45,0,6.87-3-.88-1-4.09-1.65-5.46-1.34-1.44-2.83-7.22-5.52-10.54-3.12-.13-3.44-3.27-6.12-7.68-6.8C95.47,87.81,91.91,87.61,90.22,89Z" style="fill:#f5f5f5"></path><path id="freepik--cloud--inject-3" d="M352.58,59c0-3.87-4.24-6.57-9.05-7-5.66-.53-9.68,2-9.81,6.45-3.7-1.52-7.61-.54-7.31,3.53-1-1.11-4.57-1.08-5.86-.77A5,5,0,0,0,317.32,64,3.71,3.71,0,0,0,317,66c-2.16-.71-7.07-1.14-8.3.84-2.19,3.52,6.55,3.63,8.31,2.57.37,2.74,9.75,3.19,12,.66,1.78,1.79,4.33,2.18,7.08,2.35,4.64.27,7.49-1.3,11.11-3.15,3.94,3.34,10.75,3.4,14.3-.42.9.86,3.39,1.12,5.39.64,1.31-.31,1.62-.87,1.62-.87a11.64,11.64,0,0,0,2.4.73c2.58.53,7.37,0,5.36-2.35-.69-.79-3.19-1.29-4.25-1.05-1.13-2.21-5.63-4.3-8.22-2.43-.1-2.68-2.54-4.77-6-5.3C356.67,58.08,353.9,57.92,352.58,59Z" style="fill:#f5f5f5"></path></g><g id="freepik--Sun--inject-3"><circle id="freepik--sun--inject-3" cx="263.72" cy="58.86" r="17" transform="matrix(0.92, -0.38, 0.38, 0.92, -2.45, 105.4)" style="fill:#ffbda7"></circle></g><g id="freepik--Shadows--inject-3"><polygon id="freepik--Shadow--inject-3" points="317.91 245.47 472.3 334.59 479.79 330.18 325.42 241.05 317.91 245.47" style="fill:#4A9E60;opacity:0.30000000000000004"></polygon><path id="freepik--shadow--inject-3" d="M394.92,359.59l-146,84.29c-4.74,2.73-13,2.39-18.49-.77L48.12,337.84c-5.48-3.15-6.07-7.93-1.33-10.67l146-84.29c4.74-2.73,13-2.39,18.49.77L393.59,348.91C399.06,352.07,399.65,356.85,394.92,359.59Z" style="fill:#4A9E60;opacity:0.30000000000000004"></path></g><g id="freepik--Fence--inject-3"><g id="freepik--fence--inject-3"><g id="freepik--fence--inject-3"><polygon points="468 326.76 468 270.11 463.81 261.46 459.52 265.23 459.52 321.88 468 326.76" style="fill:#37474f"></polygon><polygon points="468 270.11 470.13 268.89 470.13 325.54 468 326.76 468 270.11" style="fill:#263238"></polygon><polygon points="463.81 261.46 465.93 260.19 470.13 268.89 468 270.11 463.81 261.46" style="fill:#455a64"></polygon><polygon points="436.64 308.74 436.64 252.09 432.44 243.43 428.16 247.21 428.16 303.86 436.64 308.74" style="fill:#37474f"></polygon><polygon points="436.64 252.09 438.76 250.87 438.76 307.52 436.64 308.74 436.64 252.09" style="fill:#263238"></polygon><polygon points="432.44 243.43 434.56 242.16 438.76 250.87 436.64 252.09 432.44 243.43" style="fill:#455a64"></polygon><polygon points="405.28 290.71 405.28 234.06 401.08 225.41 396.79 229.18 396.79 285.83 405.28 290.71" style="fill:#37474f"></polygon><polygon points="405.28 234.06 407.4 232.84 407.4 289.49 405.28 290.71 405.28 234.06" style="fill:#263238"></polygon><polygon points="401.08 225.41 403.2 224.14 407.4 232.84 405.28 234.06 401.08 225.41" style="fill:#455a64"></polygon><polygon points="373.92 272.69 373.92 216.03 369.72 207.38 365.43 211.16 365.43 267.81 373.92 272.69" style="fill:#37474f"></polygon><polygon points="373.92 216.03 376.04 214.81 376.04 271.47 373.92 272.69 373.92 216.03" style="fill:#263238"></polygon><polygon points="369.72 207.38 371.84 206.11 376.04 214.81 373.92 216.03 369.72 207.38" style="fill:#455a64"></polygon><polygon points="342.56 254.66 342.56 198.01 338.36 189.35 334.07 193.13 334.07 249.78 342.56 254.66" style="fill:#37474f"></polygon><polygon points="342.56 198.01 344.68 196.79 344.68 253.44 342.56 254.66 342.56 198.01" style="fill:#263238"></polygon><polygon points="338.36 189.35 340.48 188.09 344.68 196.79 342.56 198.01 338.36 189.35" style="fill:#455a64"></polygon><polygon points="334.07 215.89 342.56 220.76 342.56 217.42 334.07 212.55 334.07 215.89" style="fill:#263238"></polygon><polygon points="373.92 235.44 365.43 230.57 365.43 233.9 373.92 238.78 373.92 235.44" style="fill:#263238"></polygon><polygon points="436.64 271.48 428.16 266.61 428.16 269.94 436.64 274.82 436.64 271.48" style="fill:#263238"></polygon><polygon points="405.28 253.46 396.79 248.59 396.79 251.92 405.28 256.8 405.28 253.46" style="fill:#263238"></polygon><polygon points="468 289.5 459.52 284.62 459.52 287.96 468 292.84 468 289.5" style="fill:#263238"></polygon><polygon points="334.07 237.4 342.56 242.27 342.56 238.94 334.07 234.06 334.07 237.4" style="fill:#263238"></polygon><polygon points="373.92 256.95 365.43 252.08 365.43 255.41 373.92 260.29 373.92 256.95" style="fill:#263238"></polygon><polygon points="436.64 292.99 428.16 288.12 428.16 291.45 436.64 296.33 436.64 292.99" style="fill:#263238"></polygon><polygon points="405.28 274.97 396.79 270.1 396.79 273.43 405.28 278.31 405.28 274.97" style="fill:#263238"></polygon><polygon points="468 311.01 459.52 306.13 459.52 309.47 468 314.35 468 311.01" style="fill:#263238"></polygon><polygon points="477.61 314.2 325.07 226.57 325.07 229.9 477.61 317.54 477.61 314.2" style="fill:#37474f"></polygon><polygon points="477.61 314.2 479.79 312.95 479.79 316.29 477.61 317.54 477.61 314.2" style="fill:#263238"></polygon><polygon points="325.07 226.57 477.61 314.2 479.79 312.95 327.27 225.3 325.07 226.57" style="fill:#455a64"></polygon><polygon points="477.61 292.84 325.07 205.21 325.07 208.54 477.61 296.18 477.61 292.84" style="fill:#37474f"></polygon><polygon points="477.61 292.84 479.79 291.6 479.79 294.93 477.61 296.18 477.61 292.84" style="fill:#263238"></polygon><polygon points="325.07 205.21 477.61 292.84 479.79 291.6 327.27 203.94 325.07 205.21" style="fill:#455a64"></polygon></g></g></g><g id="freepik--farm-tractor--inject-3"><g id="freepik--farm-tractor--inject-3"><path d="M311.38,194.43a1.58,1.58,0,0,0-.93-1.3,5,5,0,0,0-4.51,0,1.58,1.58,0,0,0-.94,1.3v66a1.58,1.58,0,0,0,.94,1.3,5,5,0,0,0,4.51,0,1.58,1.58,0,0,0,.93-1.3Z" style="fill:#37474f"></path><path d="M311.38,200.29v-5.86a1.58,1.58,0,0,0-.93-1.3,5,5,0,0,0-4.51,0,1.58,1.58,0,0,0-.94,1.3v5.86A8.39,8.39,0,0,0,311.38,200.29Z" style="fill:#263238"></path><path d="M313.42,170.32a2.6,2.6,0,0,0-1.53-2.13,8.16,8.16,0,0,0-7.39,0,2.6,2.6,0,0,0-1.53,2.13v25.83a2.6,2.6,0,0,0,1.53,2.14,8.22,8.22,0,0,0,7.39,0,2.6,2.6,0,0,0,1.53-2.14Z" style="fill:#37474f"></path><path d="M304.5,168.19a2.25,2.25,0,0,0,0,4.26,8.16,8.16,0,0,0,7.39,0,2.25,2.25,0,0,0,0-4.26A8.16,8.16,0,0,0,304.5,168.19Z" style="fill:#455a64"></path><path d="M305,156.34v13.73a1.58,1.58,0,0,0,.94,1.3,5,5,0,0,0,4.51,0,1.58,1.58,0,0,0,.93-1.3V156.34Z" style="fill:#37474f"></path><path d="M317,146.31c-3.05-1.57-6.32-2.87-9.56-.15-1.63,1.37-2.39,3.58-2.39,6.63v3.63h6.38c0-2.13-.16-4,.62-4.71.37-.34,1-.49,1.76.13Z" style="fill:#37474f"></path><path d="M313.09,150.38a1.38,1.38,0,0,0,2.26,1.3,5,5,0,0,0,2.26-3.9,1.62,1.62,0,0,0-.66-1.47,1.61,1.61,0,0,0-1.6.16A5,5,0,0,0,313.09,150.38Z" style="fill:#263238"></path><path d="M143.72,187.91,156,195l-41.71,24.37V229.6L101.14,222a8.68,8.68,0,0,1-4-6.91A3.34,3.34,0,0,1,98.66,212l41.66-24.34a2.73,2.73,0,0,1,1.38-.36A4,4,0,0,1,143.72,187.91Z" style="fill:#4A9E60"></path><path d="M143.72,187.91,156,195l-41.71,24.37V229.6L101.14,222a8.68,8.68,0,0,1-4-6.91A3.34,3.34,0,0,1,98.66,212l41.66-24.34a2.73,2.73,0,0,1,1.38-.36A4,4,0,0,1,143.72,187.91Z" style="fill:#fff;opacity:0.30000000000000004"></path><polygon points="114.31 219.38 114.31 229.6 156.02 205.23 156.02 195.01 114.31 219.38" style="fill:#4A9E60"></polygon><polygon points="114.31 219.38 114.31 229.6 156.02 205.23 156.02 195.01 114.31 219.38" style="opacity:0.2"></polygon><path d="M102,212.27a4.09,4.09,0,0,0-2-.59c-1.7,0-2.84,1.36-2.84,3.41a8.71,8.71,0,0,0,4,6.91l13.17,7.6V219.38Z" style="fill:#4A9E60"></path><path d="M102.18,215.28a1.55,1.55,0,0,0-.8-.23c-.66,0-1.1.53-1.1,1.33a3.39,3.39,0,0,0,1.55,2.7l5.16,3v-4Z" style="fill:#263238"></path><path d="M295,216.13a5.1,5.1,0,0,1-1.64-3.28q-.37-2.61-.95-5.22a3.46,3.46,0,0,1,.19-2.56l.52-.3c.49-.29.54-1.44.1-2.73l-3.31-9.54c-.49-1.42-1.41-2.47-2.05-2.34s-1.66-.9-2.32-2.25q-1.21-2.49-2.56-4.87c-.73-1.29-1.05-2.84-.68-3.48s0-2.1-.86-3.25l-5.73-7.71c-.71-1-1.53-1.4-2-1.13l-1,.57a2.88,2.88,0,0,1-1.59-.93c-1.13-1.15-2.29-2.24-3.47-3.25a5,5,0,0,1-1.75-3.24,3.73,3.73,0,0,0-1.78-2.84L257.56,154a1.33,1.33,0,0,0-1.33-.16L253,155.68a24.53,24.53,0,0,0-2.42-.47,3.33,3.33,0,0,1-2.36-2.13,2.21,2.21,0,0,0-2.21-1.66l-5.73,1.1a1.18,1.18,0,0,0-.37.14c-.58.35-28.28,16.34-28.39,16.4a1.6,1.6,0,0,0-.61,1.71l-7,4.07a1.39,1.39,0,0,0-.47.49l-3.3,5.73a3.06,3.06,0,0,0,.26,3.09,4.34,4.34,0,0,1,.54,3.42,38.43,38.43,0,0,0-.95,4.13l-2.34,1.35a1.87,1.87,0,0,0-.61,1.65v8.81a3.93,3.93,0,0,0,1.29,3.12,5,5,0,0,1,1.61,3.27c.25,1.75.57,3.51.94,5.26a3.53,3.53,0,0,1-.17,2.56l-.49.29c-.48.28-.53,1.43-.08,2.73l3.3,9.54c.49,1.42,1.39,2.47,2,2.35s1.6.91,2.25,2.26q1.23,2.55,2.6,5c.73,1.29,1.07,2.81.72,3.41s.06,2,.91,3.18l5.72,7.71c.72,1,1.54,1.44,2,1.18l.86-.5a3,3,0,0,1,1.63,1q1.75,1.78,3.58,3.35a4.93,4.93,0,0,1,1.75,3.11,3.58,3.58,0,0,0,1.77,2.69l6.62,3.82a1.41,1.41,0,0,0,1.36.19l3-1.7a23.75,23.75,0,0,0,2.79.56,3.11,3.11,0,0,1,2.3,2,2.12,2.12,0,0,0,2.17,1.52l5.72-1.11a1,1,0,0,0,.39-.14l28.39-16.4a1.53,1.53,0,0,0,.6-1.71l7-4a1.43,1.43,0,0,0,.5-.53l3.31-5.72a3,3,0,0,0-.23-3.05,4.28,4.28,0,0,1-.52-3.39,40.8,40.8,0,0,0,.94-4.18v0l2.29-1.32a1.92,1.92,0,0,0,.61-1.66v-8.82A3.92,3.92,0,0,0,295,216.13Z" style="fill:#37474f"></path><path d="M268,244.48v-8.81a4,4,0,0,0-1.31-3.13,5,5,0,0,1-1.64-3.28q-.39-2.61-1-5.23c-.3-1.42-.09-2.67.55-2.8s.75-1.37.26-2.78l-3.31-9.54c-.49-1.42-1.41-2.47-2.05-2.35s-1.66-.89-2.32-2.24q-1.2-2.49-2.55-4.87c-.73-1.3-1.06-2.84-.68-3.49s0-2.1-.87-3.24L247.35,185c-.85-1.15-1.85-1.55-2.22-.9s-1.42.35-2.35-.59c-1.14-1.15-2.3-2.24-3.48-3.25a5.06,5.06,0,0,1-1.75-3.25,3.7,3.7,0,0,0-1.78-2.83l-6.61-3.82c-1-.56-1.78-.21-1.78.78a1.25,1.25,0,0,1-1.74,1.23,24.56,24.56,0,0,0-3.48-.77,3.29,3.29,0,0,1-2.35-2.12,2.22,2.22,0,0,0-2.22-1.66l-5.73,1.1c-.85.16-1.23,1.17-.86,2.24a2.33,2.33,0,0,1-.68,2.7,17.27,17.27,0,0,0-2.56,1.92,1.56,1.56,0,0,1-2.32-.43c-.64-.87-1.56-.88-2.05,0l-3.3,5.73a3.06,3.06,0,0,0,.26,3.09,4.34,4.34,0,0,1,.54,3.42,38.43,38.43,0,0,0-.95,4.13c-.21,1.16-.91,1.81-1.64,1.39s-1.31.3-1.31,1.61v8.81a3.93,3.93,0,0,0,1.29,3.12,5,5,0,0,1,1.61,3.27c.25,1.75.57,3.51.94,5.26.31,1.42.1,2.68-.52,2.79s-.71,1.37-.22,2.79l3.3,9.54c.49,1.42,1.39,2.47,2,2.35s1.6.91,2.25,2.26q1.23,2.55,2.6,5c.73,1.29,1.07,2.81.72,3.41s.06,2,.91,3.18l5.72,7.71c.85,1.14,1.82,1.58,2.17,1s1.37-.27,2.3.68q1.75,1.78,3.58,3.35a4.93,4.93,0,0,1,1.75,3.11,3.58,3.58,0,0,0,1.77,2.69l6.62,3.82c1,.57,1.77.28,1.77-.64s.79-1.38,1.75-1.09a24.24,24.24,0,0,0,3.58.78,3.11,3.11,0,0,1,2.3,2,2.12,2.12,0,0,0,2.17,1.52l5.72-1.1a1.51,1.51,0,0,0,.91-2.13,2.23,2.23,0,0,1,.72-2.59,17.42,17.42,0,0,0,2.6-2,1.48,1.48,0,0,1,2.25.35,1.11,1.11,0,0,0,2,0l3.3-5.73a3,3,0,0,0-.23-3,4.36,4.36,0,0,1-.52-3.39,38.85,38.85,0,0,0,.94-4.18c.2-1.17.9-1.82,1.61-1.41S268,245.79,268,244.48Z" style="fill:#455a64"></path><path d="M253,155.67l-25.05,14.49-.1.06a1.06,1.06,0,0,0-.42.94,1.25,1.25,0,0,1-1.75,1.22c-.36-.12-.73-.2-1.1-.29a18.53,18.53,0,0,0-2.38-.47,2.7,2.7,0,0,1-1.43-.77l28.37-16.42a2.76,2.76,0,0,0,1.45.77C251.36,155.32,252.14,155.48,253,155.67Z" style="fill:#263238"></path><path d="M266.65,162.63,238.25,179a4.16,4.16,0,0,1-.7-2,3.16,3.16,0,0,0-.51-1.56l28.4-16.39a3,3,0,0,1,.51,1.55A4.12,4.12,0,0,0,266.65,162.63Z"></path><path d="M272.75,168,245.5,183.82a.23.23,0,0,0-.14.07.45.45,0,0,0-.23.22.67.67,0,0,1-.78.32,2.85,2.85,0,0,1-1.58-.91c-1.13-1.15-2.29-2.24-3.48-3.25a5,5,0,0,1-1-1.24l28.4-16.4a5.67,5.67,0,0,0,1.05,1.22c1.19,1,2.34,2.1,3.48,3.26A2.82,2.82,0,0,0,272.75,168Z" style="fill:#263238"></path><path d="M288.66,190.44l-28.41,16.4a.92.92,0,0,0-.75-.28c-.65.12-1.66-.89-2.32-2.24q-1.22-2.49-2.56-4.88c-.73-1.29-1.06-2.83-.68-3.48a1.41,1.41,0,0,0,.12-.85l28.39-16.4a1.32,1.32,0,0,1-.12.84c-.37.65-.05,2.2.68,3.5.91,1.57,1.75,3.2,2.55,4.86.67,1.36,1.68,2.37,2.33,2.25A1,1,0,0,1,288.66,190.44Z" style="fill:#263238"></path><path d="M260.25,206.84l28.41-16.4a1,1,0,0,0-.77-.28.72.72,0,0,1-.35,0l-28.4,16.39a.67.67,0,0,0,.36.05A.92.92,0,0,1,260.25,206.84Z"></path><path d="M282.33,179.55a1.32,1.32,0,0,0,.12-.84l-28.39,16.4a1.41,1.41,0,0,1-.12.85,2,2,0,0,0-.1,1.22l28.39-16.42A2.17,2.17,0,0,1,282.33,179.55Z"></path><path d="M295.89,217.2l-28.42,16.4a2.24,2.24,0,0,0-.84-1.07,5,5,0,0,1-1.62-3.27c-.27-1.74-.58-3.47-1-5.22a3.26,3.26,0,0,1,.22-2.61h0l.3-.18.26-.16,27.77-16a3.59,3.59,0,0,0-.19,2.55c.39,1.75.7,3.5,1,5.23a5,5,0,0,0,1.65,3.29A2.41,2.41,0,0,1,295.89,217.2Z" style="fill:#263238"></path><path d="M295,216.14a2.89,2.89,0,0,1-1-1.21l-28.4,16.39a3,3,0,0,0,1,1.21,2.24,2.24,0,0,1,.84,1.07l28.42-16.4A2.41,2.41,0,0,0,295,216.14Z"></path><path d="M293.5,239.84l-28.39,16.41a2.91,2.91,0,0,0-.49-1.17,4.5,4.5,0,0,1-.52-3.39,36.59,36.59,0,0,0,.94-4.18v0c.21-1.16.89-1.79,1.61-1.38a.71.71,0,0,0,.77,0l26-15v0c-.27,1.47-.58,2.87-.95,4.18a4.24,4.24,0,0,0,.53,3.39A2.7,2.7,0,0,1,293.5,239.84Z" style="fill:#263238"></path><path d="M264.62,255.08a2.91,2.91,0,0,1,.49,1.17l28.39-16.41a2.7,2.7,0,0,0-.47-1.17,3.48,3.48,0,0,1-.58-1.46L264.06,253.6A3.84,3.84,0,0,0,264.62,255.08Z"></path><path d="M210.31,173.87a18.5,18.5,0,0,0-2.55,1.92,1.55,1.55,0,0,1-2.32-.43,1.21,1.21,0,0,0-1.51-.55l.09-.07,6.87-4c0,.12.07.26.1.4A2.28,2.28,0,0,1,210.31,173.87Z" style="fill:#263238"></path><path d="M281.84,253.7a0,0,0,0,0,0,0l-.07,0-.42.25-27.62,16-.19.1a1.64,1.64,0,0,0,.46-1.94,2.24,2.24,0,0,1,.71-2.59,17.35,17.35,0,0,0,2.61-2,1.48,1.48,0,0,1,2.25.33,1.19,1.19,0,0,0,1.3.58l.26-.14L282.45,252A1.52,1.52,0,0,1,281.84,253.7Z"></path><path d="M240.08,267.3l-2.94,1.7a.85.85,0,0,0,.41-.83c0-.92.8-1.38,1.76-1.1Z" style="fill:#263238"></path><path d="M220.4,254.87l-.68.39.05-.09A.58.58,0,0,1,220.4,254.87Z" style="fill:#263238"></path><path d="M199.93,191.7c-.19,1.17-.91,1.8-1.63,1.38a.76.76,0,0,0-.59-.09l.19-.1.33-.19Z" style="fill:#263238"></path><path d="M249.1,154.43l-28.37,16.42a3.48,3.48,0,0,1-.93-1.37,2.64,2.64,0,0,0-1-1.31l28.4-16.39a2.6,2.6,0,0,1,1,1.31A3.46,3.46,0,0,0,249.1,154.43Z"></path><path d="M284.92,230.32c0,14.32-4.77,24.41-12.28,28.74l-5.1,2.92c7.41-4.41,12.1-14.44,12.1-28.63,0-26.15-15.89-56.55-35.52-67.88-8.46-4.89-16.24-5.42-22.34-2.36l4.36-2.51c6.24-3.62,14.37-3.29,23.27,1.85C269,173.78,284.92,204.17,284.92,230.32Z" style="fill:#37474f"></path><path d="M279.64,233.35c0,14.2-4.69,24.23-12.1,28.64l-3.41,1.95c7.4-4.38,12.08-14.42,12.08-28.59,0-26.15-15.91-56.55-35.52-67.88-8.77-5.07-16.8-5.45-23-2l4.09-2.36c6.1-3.06,13.88-2.53,22.34,2.36C263.75,176.81,279.64,207.2,279.64,233.35Z"></path><path d="M247.23,151.78l-28.4,16.39a1.62,1.62,0,0,0-1.25-.35l-2.36.46-3.35.64-.23.07.37-.22,26.29-15.19.49-.28.49-.28.19-.11.26-.16.16-.08.17-.09a.73.73,0,0,1,.2-.05l5.73-1.1A1.52,1.52,0,0,1,247.23,151.78Z" style="fill:#37474f"></path><path d="M265.44,159.07,237,175.46a3.83,3.83,0,0,0-1.26-1.27l-6.62-3.82a1.44,1.44,0,0,0-1.25-.21L253,155.67l2.12-1.2.75-.44.4-.23a1.41,1.41,0,0,1,1.33.16l6.61,3.83A3.79,3.79,0,0,1,265.44,159.07Z" style="fill:#37474f"></path><path d="M282.45,178.71l-28.39,16.4a5.24,5.24,0,0,0-1-2.4l-5.72-7.7c-.64-.86-1.38-1.32-1.85-1.19L272.75,168l1-.56c.47-.28,1.27.16,2,1.12l5.73,7.73A4.82,4.82,0,0,1,282.45,178.71Z" style="fill:#37474f"></path><path d="M293.2,204.72l-.16.11-.42.24-27.77,16a3,3,0,0,0,0-2.64l-3.3-9.54a4.72,4.72,0,0,0-1.3-2.06l28.41-16.4a4.85,4.85,0,0,1,1.27,2.06l3.32,9.55C293.67,203.27,293.64,204.39,293.2,204.72Z" style="fill:#37474f"></path><path d="M296.35,219.27v8.81a1.9,1.9,0,0,1-.61,1.66l-2.29,1.32-26,15a2.09,2.09,0,0,0,.52-1.61v-8.83a4.6,4.6,0,0,0-.47-2v0l28.42-16.4A5.06,5.06,0,0,1,296.35,219.27Z" style="fill:#37474f"></path><path d="M293.25,241.71l-3.3,5.73a1.31,1.31,0,0,1-.51.53l-1.55.89-.58.33L282.45,252l-21.34,12.33a1.54,1.54,0,0,0,.44-.47l3.3-5.74a2.86,2.86,0,0,0,.26-1.87l28.39-16.41A2.8,2.8,0,0,1,293.25,241.71Z" style="fill:#37474f"></path><path d="M232.47,193.72c-10.72-6.18-19.4.38-19.4,14.67s8.68,30.88,19.4,37.07,19.4-.38,19.4-14.67S243.18,199.91,232.47,193.72Zm0,47.27c-8.87-5.12-16.05-18.85-16.05-30.67s7.18-17.25,16.05-12.13,16.05,18.85,16.05,30.67S241.33,246.11,232.47,241Z" style="fill:#4A9E60"></path><path d="M248.52,228.86c0,4.49-1.05,8.08-2.83,10.49-2.88,3.93-7.72,4.81-13.21,1.64-8.88-5.12-16.07-18.84-16.07-30.66,0-8.26,3.52-13.4,8.66-14a12.18,12.18,0,0,1,7.41,1.85C241.34,203.31,248.52,217.05,248.52,228.86Z" style="fill:#4A9E60"></path><path d="M248.52,228.86c0,4.49-1.05,8.08-2.83,10.49-2.88,3.93-7.72,4.81-13.21,1.64-8.88-5.12-16.07-18.84-16.07-30.66,0-8.26,3.52-13.4,8.66-14a12.18,12.18,0,0,1,7.41,1.85C241.34,203.31,248.52,217.05,248.52,228.86Z" style="opacity:0.4"></path><path d="M248.52,228.86c0,4.49-1.05,8.08-2.83,10.49a12.1,12.1,0,0,1-7.43-1.85c-8.86-5.11-16-18.85-16-30.66,0-4.51,1.05-8.1,2.85-10.51a12.18,12.18,0,0,1,7.41,1.85C241.34,203.31,248.52,217.05,248.52,228.86Z" style="fill:#263238"></path><path d="M230.29,212.2,228,220.27l-5.79-19.18a7.44,7.44,0,0,1,1.1-3.89Z" style="fill:#4A9E60"></path><path d="M230.29,212.2,228,220.27l-5.79-19.18a7.44,7.44,0,0,1,1.1-3.89Z" style="opacity:0.2"></path><path d="M227.42,217.54l6,9.26-4.07,4.85a12.44,12.44,0,0,1-3.09-4.53Z" style="fill:#4A9E60"></path><path d="M227.42,217.54l6,9.26-4.07,4.85a12.44,12.44,0,0,1-3.09-4.53Z" style="opacity:0.2"></path><path d="M247.53,235.66A12,12,0,0,1,246,239l-14.42-13.24,5-2,.36,1.68,1.46-.62h0Z" style="fill:#4A9E60"></path><path d="M247.53,235.66A12,12,0,0,1,246,239l-14.42-13.24,5-2,.36,1.68,1.46-.62h0Z" style="opacity:0.2"></path><path d="M247.91,222.67l-9.52,2.13h0l-.88-1.43-.94.37L235,216.42l1.16.66-.08-1.9,9.62-.06A40.8,40.8,0,0,1,247.91,222.67Z" style="fill:#4A9E60"></path><path d="M247.91,222.67l-9.52,2.13h0l-.88-1.43-.94.37L235,216.42l1.16.66-.08-1.9,9.62-.06A40.8,40.8,0,0,1,247.91,222.67Z" style="opacity:0.2"></path><path d="M236.09,215.18l-1.45-.46.37,1.7-6.24-3.62,5.49-13.46a27.76,27.76,0,0,1,4.65,4.35Z" style="fill:#4A9E60"></path><path d="M236.09,215.18l-1.45-.46.37,1.7-6.24-3.62,5.49-13.46a27.76,27.76,0,0,1,4.65,4.35Z" style="opacity:0.2"></path><path d="M238.54,223.1c0,4.47-2.72,6.52-6.07,4.59s-6.07-7.13-6.07-11.6,2.72-6.53,6.07-4.59S238.54,218.63,238.54,223.1Z" style="fill:#4A9E60"></path><path d="M281.82,213.86c-6.82-24.06-22-46.82-39.63-57-10.84-6.25-20.75-6.69-28.36-2.34-4.4,2.51-16.78,9.69-21.11,12.18-4.74,2.73-8.59,7.33-11.2,13.54l3.66,2.12c4.23-13.33,19.07-19.22,34.56-9.5,14.48,9.08,28.19,28.33,35.49,48.85,3.28,9.24,4.62,19,5.37,28.65l4,2.32,21-12.14c0-.21,0-.43,0-.65A96.33,96.33,0,0,0,281.82,213.86Z" style="fill:#4A9E60"></path><path d="M281.82,213.86c-6.82-24.06-22-46.82-39.63-57-10.84-6.25-20.75-6.69-28.36-2.34-4.4,2.51-16.78,9.69-21.11,12.18-4.74,2.73-8.59,7.33-11.2,13.54l3.66,2.12c4.23-13.33,19.07-19.22,34.56-9.5,14.48,9.08,28.19,28.33,35.49,48.85,3.28,9.24,4.62,19,5.37,28.65l4,2.32,21-12.14c0-.21,0-.43,0-.65A96.33,96.33,0,0,0,281.82,213.86Z" style="fill:#fff;opacity:0.2"></path><path d="M193.47,169.15c-5.09,3.34-8.16,7.6-8.29,13.21,4.32-2.49,21.2-12.27,25.6-14.78C210.78,167.58,204.08,163.5,193.47,169.15Z" style="fill:#4A9E60"></path><path d="M193.47,169.15c-5.09,3.34-8.16,7.6-8.29,13.21,4.32-2.49,21.2-12.27,25.6-14.78C210.78,167.58,204.08,163.5,193.47,169.15Z" style="opacity:0.30000000000000004"></path><path d="M260.78,226c-6.82-24.06-22-46.82-39.63-57s-32.82-4.95-39.63,11.24l3.66,2.12c4.23-13.33,19.07-19.22,34.56-9.5,14.48,9.08,28.19,28.33,35.49,48.85,3.28,9.24,4.62,19,5.37,28.65l4,2.32c0-.21,0-.43,0-.65A96.33,96.33,0,0,0,260.78,226Z" style="fill:#4A9E60"></path><path d="M369,330.25a4.22,4.22,0,0,1-1.39-2.78c-.22-1.48-.49-3-.81-4.43a3,3,0,0,1,.16-2.18l.44-.25c.42-.25.46-1.22.08-2.31l-2.8-8.1c-.42-1.2-1.2-2.09-1.74-2s-1.41-.75-2-1.9c-.68-1.41-1.4-2.78-2.17-4.13-.62-1.1-.89-2.41-.57-3s0-1.78-.74-2.75l-4.85-6.54c-.61-.82-1.3-1.19-1.7-1l-.84.48a2.43,2.43,0,0,1-1.34-.79c-1-1-2-1.89-3-2.75a4.25,4.25,0,0,1-1.48-2.76,3.16,3.16,0,0,0-1.51-2.4l-5.61-3.24a1.14,1.14,0,0,0-1.13-.13L333.28,279a19.56,19.56,0,0,0-2-.41,2.8,2.8,0,0,1-2-1.8,1.88,1.88,0,0,0-1.88-1.41l-4.86.94a1,1,0,0,0-.31.11c-.5.3-24,13.87-24.08,13.92a1.35,1.35,0,0,0-.52,1.45l-6,3.45a1.14,1.14,0,0,0-.39.42l-2.81,4.86a2.61,2.61,0,0,0,.22,2.62,3.62,3.62,0,0,1,.46,2.9,34.77,34.77,0,0,0-.81,3.51l-2,1.14a1.59,1.59,0,0,0-.52,1.4v7.48a3.3,3.3,0,0,0,1.1,2.64,4.25,4.25,0,0,1,1.37,2.77c.21,1.49.48,3,.8,4.47a3,3,0,0,1-.15,2.17l-.42.24c-.41.24-.45,1.22-.07,2.32l2.81,8.09c.41,1.2,1.17,2.1,1.69,2s1.36.77,1.91,1.92c.7,1.44,1.43,2.85,2.21,4.22.62,1.1.9,2.39.61,2.9s0,1.72.77,2.69l4.85,6.55c.62.82,1.3,1.22,1.68,1l.73-.42a2.62,2.62,0,0,1,1.39.83c1,1,2,2,3,2.84a4.19,4.19,0,0,1,1.48,2.63,3.06,3.06,0,0,0,1.51,2.29l5.61,3.24a1.22,1.22,0,0,0,1.16.16l2.5-1.44a18.93,18.93,0,0,0,2.36.47,2.67,2.67,0,0,1,2,1.68,1.78,1.78,0,0,0,1.84,1.29l4.85-.93a1,1,0,0,0,.33-.13l24.09-13.91a1.32,1.32,0,0,0,.51-1.45l5.93-3.42a1.15,1.15,0,0,0,.42-.45l2.81-4.85a2.57,2.57,0,0,0-.2-2.59,3.66,3.66,0,0,1-.44-2.87,33.58,33.58,0,0,0,.8-3.55v0l1.95-1.13a1.6,1.6,0,0,0,.52-1.41v-7.47A3.34,3.34,0,0,0,369,330.25Z" style="fill:#37474f"></path><path d="M346,354.3v-7.47a3.33,3.33,0,0,0-1.12-2.66,4.24,4.24,0,0,1-1.39-2.78c-.22-1.48-.49-3-.81-4.43-.26-1.21-.07-2.28.46-2.38s.64-1.16.22-2.37l-2.8-8.09c-.42-1.2-1.2-2.09-1.74-2s-1.41-.75-2-1.9q-1-2.12-2.17-4.13c-.62-1.1-.89-2.41-.57-3s0-1.78-.74-2.75l-4.85-6.55c-.73-1-1.57-1.31-1.89-.76s-1.2.3-2-.5c-1-1-1.95-1.89-2.95-2.76a4.21,4.21,0,0,1-1.48-2.75,3.16,3.16,0,0,0-1.51-2.4l-5.61-3.24c-.83-.48-1.51-.18-1.51.66a1.06,1.06,0,0,1-1.48,1,20.92,20.92,0,0,0-2.95-.65,2.8,2.8,0,0,1-2-1.8,1.88,1.88,0,0,0-1.88-1.41l-4.86.93c-.72.14-1,1-.73,1.91a2,2,0,0,1-.58,2.29,15.19,15.19,0,0,0-2.17,1.63,1.32,1.32,0,0,1-2-.37c-.55-.73-1.33-.74-1.74,0l-2.81,4.86a2.61,2.61,0,0,0,.22,2.62,3.62,3.62,0,0,1,.46,2.9,34.77,34.77,0,0,0-.81,3.51c-.17,1-.77,1.53-1.38,1.17s-1.12.26-1.12,1.37v7.48a3.3,3.3,0,0,0,1.1,2.64,4.25,4.25,0,0,1,1.37,2.77c.21,1.49.48,3,.8,4.47.25,1.2.08,2.27-.44,2.37s-.61,1.15-.2,2.36l2.81,8.09c.41,1.2,1.17,2.1,1.69,2s1.36.77,1.91,1.92c.7,1.44,1.43,2.85,2.21,4.22.62,1.1.9,2.39.61,2.9s0,1.72.77,2.69l4.85,6.55c.72,1,1.55,1.34,1.84.83s1.16-.23,2,.58c1,1,2,2,3,2.84a4.19,4.19,0,0,1,1.48,2.63,3.06,3.06,0,0,0,1.51,2.29l5.61,3.24c.83.48,1.51.24,1.51-.55s.67-1.16,1.48-.92a19.42,19.42,0,0,0,3,.66,2.67,2.67,0,0,1,2,1.68,1.78,1.78,0,0,0,1.84,1.29l4.85-.93c.73-.14,1.07-.95.77-1.81a1.9,1.9,0,0,1,.61-2.2,14.64,14.64,0,0,0,2.21-1.68,1.26,1.26,0,0,1,1.91.29.94.94,0,0,0,1.69,0l2.81-4.85a2.57,2.57,0,0,0-.2-2.59,3.67,3.67,0,0,1-.44-2.88,32.84,32.84,0,0,0,.8-3.54c.17-1,.76-1.54,1.36-1.19S346,355.41,346,354.3Z" style="fill:#455a64"></path><path d="M333.27,279,312,291.25l-.09.05a.9.9,0,0,0-.35.8,1.07,1.07,0,0,1-1.49,1,8,8,0,0,0-.93-.25,14.72,14.72,0,0,0-2-.4,2.29,2.29,0,0,1-1.21-.66L330,277.91a2.39,2.39,0,0,0,1.23.65C331.91,278.66,332.57,278.8,333.27,279Z" style="fill:#263238"></path><path d="M344.88,284.86l-24.1,13.91a3.58,3.58,0,0,1-.59-1.7,2.57,2.57,0,0,0-.43-1.32l24.1-13.91a2.57,2.57,0,0,1,.43,1.32A3.58,3.58,0,0,0,344.88,284.86Z"></path><path d="M350.06,289.45l-23.12,13.39a.23.23,0,0,0-.12.06.35.35,0,0,0-.19.19.57.57,0,0,1-.67.26,2.27,2.27,0,0,1-1.33-.77c-1-1-1.95-1.89-3-2.75a4.86,4.86,0,0,1-.89-1.06l24.1-13.91a5,5,0,0,0,.89,1c1,.86,2,1.78,3,2.76A2.49,2.49,0,0,0,350.06,289.45Z" style="fill:#263238"></path><path d="M363.55,308.46l-24.1,13.91a.77.77,0,0,0-.63-.24c-.55.1-1.41-.76-2-1.9q-1-2.12-2.16-4.14c-.62-1.09-.91-2.4-.58-2.95a1.25,1.25,0,0,0,.1-.72l24.09-13.91a1.08,1.08,0,0,1-.11.71c-.31.55,0,1.87.58,3,.77,1.34,1.48,2.72,2.17,4.13.56,1.15,1.42,2,2,1.91A.81.81,0,0,1,363.55,308.46Z" style="fill:#263238"></path><path d="M339.45,322.37l24.1-13.91a.81.81,0,0,0-.65-.24.64.64,0,0,1-.3,0l-24.09,13.9a.57.57,0,0,0,.31,0A.77.77,0,0,1,339.45,322.37Z"></path><path d="M358.18,299.22a1.08,1.08,0,0,0,.11-.71L334.2,312.42a1.25,1.25,0,0,1-.1.72,1.74,1.74,0,0,0-.09,1l24.09-13.92A1.83,1.83,0,0,1,358.18,299.22Z"></path><path d="M369.69,331.16l-24.11,13.91a1.94,1.94,0,0,0-.71-.91,4.18,4.18,0,0,1-1.38-2.77c-.22-1.48-.49-2.95-.82-4.43a2.74,2.74,0,0,1,.2-2.21v0l.25-.14.22-.14,23.57-13.58a3,3,0,0,0-.17,2.16c.33,1.49.6,3,.82,4.44a4.29,4.29,0,0,0,1.39,2.78A2.1,2.1,0,0,1,369.69,331.16Z" style="fill:#263238"></path><path d="M369,330.25a2.62,2.62,0,0,1-.83-1L344,343.14a2.46,2.46,0,0,0,.83,1,1.94,1.94,0,0,1,.71.91l24.11-13.91A2.1,2.1,0,0,0,369,330.25Z"></path><path d="M367.66,350.36l-24.08,13.93a2.63,2.63,0,0,0-.42-1,3.11,3.11,0,0,1-.5-1.36,3.32,3.32,0,0,1,.06-1.51,33,33,0,0,0,.8-3.55v0c.18-1,.75-1.51,1.36-1.17a.55.55,0,0,0,.65,0l22.08-12.75v0a34.8,34.8,0,0,1-.8,3.54,3.63,3.63,0,0,0,.45,2.88A2.23,2.23,0,0,1,367.66,350.36Z" style="fill:#263238"></path><path d="M343.16,363.29a2.63,2.63,0,0,1,.42,1l24.08-13.93a2.23,2.23,0,0,0-.4-1,2.81,2.81,0,0,1-.49-1.24L342.68,362A3.32,3.32,0,0,0,343.16,363.29Z"></path><path d="M297.09,294.4a14.65,14.65,0,0,0-2.17,1.63,1.32,1.32,0,0,1-2-.37,1,1,0,0,0-1.28-.46l.08-.06,5.83-3.37.09.34A2,2,0,0,1,297.09,294.4Z" style="fill:#263238"></path><path d="M357.77,362.12a0,0,0,0,0,0,0l-.06,0-.35.2-23.43,13.54-.16.09a1.39,1.39,0,0,0,.38-1.64,1.9,1.9,0,0,1,.61-2.2,15.09,15.09,0,0,0,2.21-1.67,1.25,1.25,0,0,1,1.91.28,1,1,0,0,0,1.1.49l.22-.12,18.11-10.46A1.29,1.29,0,0,1,357.77,362.12Z"></path><path d="M322.34,373.66l-2.49,1.44a.74.74,0,0,0,.34-.7c0-.78.68-1.17,1.5-.93Z" style="fill:#263238"></path><path d="M305.64,363.12l-.57.32a.21.21,0,0,0,0-.07A.48.48,0,0,1,305.64,363.12Z" style="fill:#263238"></path><path d="M288.28,309.52c-.16,1-.77,1.53-1.38,1.18a.62.62,0,0,0-.5-.08l.16-.09.28-.16Z" style="fill:#263238"></path><path d="M330,277.91l-24.06,13.92a2.73,2.73,0,0,1-.79-1.15,2.19,2.19,0,0,0-.83-1.12l24.1-13.91a2.3,2.3,0,0,1,.83,1.12A3,3,0,0,0,330,277.91Z"></path><path d="M360.39,342.29c0,12.15-4.05,20.7-10.43,24.38-1.88,1.08-2.71,1.54-4.32,2.48,6.28-3.74,10.26-12.25,10.26-24.29,0-22.19-13.48-48-30.13-57.59-7.18-4.15-13.78-4.59-18.95-2l3.69-2.13c5.3-3.07,12.19-2.79,19.74,1.57C346.89,294.32,360.39,320.11,360.39,342.29Z" style="fill:#37474f"></path><path d="M355.9,344.86c0,12-4,20.55-10.26,24.29l-2.89,1.66C349,367.09,353,358.58,353,346.55c0-22.18-13.49-48-30.13-57.58-7.44-4.3-14.25-4.63-19.51-1.69l3.47-2c5.17-2.6,11.77-2.15,18.95,2C342.42,296.89,355.9,322.68,355.9,344.86Z"></path><path d="M328.41,275.65l-24.1,13.91a1.37,1.37,0,0,0-1.05-.29l-2,.38-2.84.55a1.52,1.52,0,0,0-.2.06l.32-.19,22.3-12.89.41-.24.42-.23.16-.09.23-.14.13-.07.15-.07a.49.49,0,0,1,.16,0l4.86-.93A1.31,1.31,0,0,1,328.41,275.65Z" style="fill:#37474f"></path><path d="M343.86,281.84l-24.1,13.91a3.16,3.16,0,0,0-1.07-1.08l-5.62-3.24a1.22,1.22,0,0,0-1.05-.18L333.27,279l1.79-1,.64-.37.34-.2a1.23,1.23,0,0,1,1.13.14l5.61,3.25A3.19,3.19,0,0,1,343.86,281.84Z" style="fill:#37474f"></path><path d="M358.29,298.51,334.2,312.42a4.44,4.44,0,0,0-.84-2l-4.85-6.54c-.55-.72-1.17-1.11-1.57-1l23.12-13.39.84-.48c.4-.24,1.09.13,1.69.95l4.87,6.55A4.21,4.21,0,0,1,358.29,298.51Z" style="fill:#37474f"></path><path d="M367.41,320.57l-.14.09-.35.21-23.57,13.58a2.48,2.48,0,0,0,0-2.24l-2.8-8.09a4,4,0,0,0-1.1-1.75l24.1-13.91a4,4,0,0,1,1.08,1.75l2.82,8.09C367.81,319.34,367.78,320.29,367.41,320.57Z" style="fill:#37474f"></path><path d="M370.08,332.91v7.47a1.6,1.6,0,0,1-.52,1.41l-1.95,1.13-22.08,12.75a1.73,1.73,0,0,0,.45-1.36v-7.49a4,4,0,0,0-.4-1.74h0l24.11-13.91A4.2,4.2,0,0,1,370.08,332.91Z" style="fill:#37474f"></path><path d="M367.45,352l-2.8,4.86a1.17,1.17,0,0,1-.43.45l-1.32.76-.49.28-4.12,2.38-18.11,10.46a1.2,1.2,0,0,0,.37-.4l2.8-4.87a2.4,2.4,0,0,0,.23-1.58l24.08-13.93A2.41,2.41,0,0,1,367.45,352Z" style="fill:#37474f"></path><path d="M315.88,311.24c-9.09-5.25-16.45.32-16.45,12.44s7.36,26.2,16.45,31.45,16.46-.32,16.46-12.44S325,316.49,315.88,311.24Zm0,40.1c-7.52-4.34-13.61-16-13.61-26s6.09-14.63,13.61-10.29,13.62,16,13.62,26S323.4,355.68,315.88,351.34Z" style="fill:#4A9E60"></path><path d="M329.5,341.05c0,3.81-.89,6.85-2.4,8.9-2.45,3.33-6.55,4.08-11.21,1.39-7.53-4.34-13.63-16-13.63-26,0-7,3-11.37,7.34-11.88a10.27,10.27,0,0,1,6.29,1.58C323.41,319.37,329.5,331,329.5,341.05Z" style="fill:#4A9E60"></path><path d="M329.5,341.05c0,3.81-.89,6.85-2.4,8.9-2.45,3.33-6.55,4.08-11.21,1.39-7.53-4.34-13.63-16-13.63-26,0-7,3-11.37,7.34-11.88a10.27,10.27,0,0,1,6.29,1.58C323.41,319.37,329.5,331,329.5,341.05Z" style="opacity:0.4"></path><path d="M329.5,341.05c0,3.81-.89,6.85-2.4,8.9a10.23,10.23,0,0,1-6.3-1.57c-7.52-4.33-13.61-16-13.61-26,0-3.83.89-6.87,2.41-8.92a10.27,10.27,0,0,1,6.29,1.58C323.41,319.37,329.5,331,329.5,341.05Z" style="fill:#263238"></path><path d="M314,326.92l-1.94,6.84-4.91-16.27a6.26,6.26,0,0,1,.93-3.3Z" style="fill:#4A9E60"></path><path d="M314,326.92l-1.94,6.84-4.91-16.27a6.26,6.26,0,0,1,.93-3.3Z" style="opacity:0.2"></path><path d="M311.6,331.45l5.08,7.85-3.45,4.12a10.64,10.64,0,0,1-2.62-3.85Z" style="fill:#4A9E60"></path><path d="M311.6,331.45l5.08,7.85-3.45,4.12a10.64,10.64,0,0,1-2.62-3.85Z" style="opacity:0.2"></path><path d="M328.66,346.82a10.24,10.24,0,0,1-1.34,2.8l-12.23-11.24,4.27-1.67.31,1.42,1.24-.52h0Z" style="fill:#4A9E60"></path><path d="M328.66,346.82a10.24,10.24,0,0,1-1.34,2.8l-12.23-11.24,4.27-1.67.31,1.42,1.24-.52h0Z" style="opacity:0.2"></path><path d="M329,335.8l-8.07,1.81h0l-.75-1.22-.8.32L318,330.49l1,.57-.06-1.61,8.16-.06A34.86,34.86,0,0,1,329,335.8Z" style="fill:#4A9E60"></path><path d="M329,335.8l-8.07,1.81h0l-.75-1.22-.8.32L318,330.49l1,.57-.06-1.61,8.16-.06A34.86,34.86,0,0,1,329,335.8Z" style="opacity:0.2"></path><path d="M319,329.45l-1.23-.4.31,1.44-5.29-3.07L317.4,316a23.51,23.51,0,0,1,4,3.7Z" style="fill:#4A9E60"></path><path d="M319,329.45l-1.23-.4.31,1.44-5.29-3.07L317.4,316a23.51,23.51,0,0,1,4,3.7Z" style="opacity:0.2"></path><path d="M321,336.16c0,3.79-2.31,5.54-5.16,3.89s-5.15-6-5.15-9.84,2.31-5.53,5.15-3.89S321,332.37,321,336.16Z" style="fill:#4A9E60"></path><polygon points="338.91 367.09 316.08 380.27 230.64 330.93 253.47 317.75 338.91 367.09" style="fill:#4A9E60"></polygon><polygon points="338.91 367.09 316.08 380.27 230.64 330.93 253.47 317.75 338.91 367.09" style="fill:#fff;opacity:0.5"></polygon><polygon points="338.91 367.09 316.08 380.27 316.08 393.46 338.91 380.27 338.91 367.09" style="fill:#4A9E60"></polygon><polygon points="230.64 330.93 230.64 344.11 316.08 393.46 316.08 380.27 230.64 330.93" style="fill:#4A9E60"></polygon><polygon points="230.64 330.93 230.64 344.11 316.08 393.46 316.08 380.27 230.64 330.93" style="fill:#fff;opacity:0.30000000000000004"></polygon><polygon points="247.15 318.94 224.32 332.12 138.87 282.77 161.7 269.59 247.15 318.94" style="fill:#4A9E60"></polygon><polygon points="247.15 318.94 224.32 332.12 138.87 282.77 161.7 269.59 247.15 318.94" style="fill:#fff;opacity:0.5"></polygon><polygon points="247.15 318.94 224.32 332.12 224.32 365.74 247.15 352.56 247.15 318.94" style="fill:#4A9E60"></polygon><polygon points="138.87 282.77 138.87 316.39 224.32 365.74 224.32 332.12 138.87 282.77" style="fill:#4A9E60"></polygon><polygon points="138.87 282.77 138.87 316.39 224.32 365.74 224.32 332.12 138.87 282.77" style="fill:#4A9E60;opacity:0.30000000000000004"></polygon><g style="opacity:0.30000000000000004"><polygon points="138.87 282.77 138.87 316.39 224.32 365.74 224.32 332.12 138.87 282.77"></polygon><polygon points="138.87 282.77 138.87 316.39 224.32 365.74 224.32 332.12 138.87 282.77" style="opacity:0.30000000000000004"></polygon></g><polygon points="138.87 310.29 138.87 316.39 224.32 365.74 224.32 359.64 138.87 310.29" style="opacity:0.30000000000000004"></polygon><polygon points="198.14 225.61 110.68 276.05 199.03 327.06 286.49 276.62 198.14 225.61" style="fill:#455a64"></polygon><polygon points="286.49 276.62 286.49 288.1 199.03 338.54 199.03 327.06 286.49 276.62" style="fill:#263238"></polygon><polygon points="110.68 276.05 110.68 287.53 199.03 338.54 199.03 327.06 110.68 276.05" style="fill:#455a64"></polygon><path d="M285.86,223.39l-25.61-76.1a15.87,15.87,0,0,0-.8-1.82,9.77,9.77,0,0,0-1.87-2.62l-87.46,50.46a11.5,11.5,0,0,1,2.67,4.44l25.62,76.09a12.21,12.21,0,0,1,.62,3.59v49.63l87.46-50.46V227A11.8,11.8,0,0,0,285.86,223.39ZM204.1,267.92l-24.53-70.35,46.53-26.72,28.52-16.39,21.74,63,2.5,7.34Z" style="fill:#37474f"></path><g style="opacity:0.7000000000000001"><path d="M253.73,140.21,256,141.5a10.83,10.83,0,0,1,4.29,5.83l25.62,76.09a11.49,11.49,0,0,1,.62,3.55V229s-22.84-68.25-25.59-76.21S257.31,142.28,253.73,140.21Z" style="fill:#455a64"></path></g><path d="M255.46,136.44c-2.91-2.19-40.36-28.29-46.83-32.53-2.35-1.54-5-2.51-7.44-.91l-87,50.26a4.4,4.4,0,0,0-.51.29c-3,2-3,6.61-3,11.42l59.44,28.34,87.51-50.55C257.63,140.36,257.75,138.18,255.46,136.44Z" style="fill:#4A9E60"></path><path d="M255.46,136.44c-2.91-2.19-40.36-28.29-46.83-32.53-2.35-1.54-5-2.51-7.44-.91l-87,50.26a4.4,4.4,0,0,0-.51.29c-3,2-3,6.61-3,11.42l59.44,28.34,87.51-50.55C257.63,140.36,257.75,138.18,255.46,136.44Z" style="fill:#fff;opacity:0.2"></path><path d="M110.68,165c0-4.81,0-9.44,3-11.42,2.44-1.61,5.09-.63,7.44.91C127.58,158.7,165,184.8,167.94,187c2.3,1.73,2.18,3.92,2.18,6.32Z" style="fill:#4A9E60"></path><path d="M110.68,165c0-4.81,0-9.44,3-11.42,2.44-1.61,5.09-.63,7.44.91C127.58,158.7,165,184.8,167.94,187c2.3,1.73,2.18,3.92,2.18,6.32Z" style="opacity:0.1"></path><path d="M131.55,170.63V288.1l-20.87-12.05V165c0-3.53,2.15-5.16,4.79-3.63Z" style="fill:#263238"></path><path d="M127.62,226.06l-.11-49.43A4.58,4.58,0,0,0,125.6,173l-9.18-5.31c-1.06-.61-1.92,0-1.92,1.45l.11,49.44a4.6,4.6,0,0,0,1.91,3.66l9.19,5.3C126.77,228.13,127.62,227.48,127.62,226.06Z" style="fill:#4A9E60"></path><path d="M127.62,226.06l-.11-49.43A4.58,4.58,0,0,0,125.6,173l-9.18-5.31c-1.06-.61-1.92,0-1.92,1.45l.11,49.44a4.6,4.6,0,0,0,1.91,3.66l9.19,5.3C126.77,228.13,127.62,227.48,127.62,226.06Z" style="fill:#fff;opacity:0.5"></path><polygon points="175.92 196.23 256.27 150.07 282.51 226.19 202.46 272.35 175.92 196.23" style="fill:#4A9E60"></polygon><polygon points="175.92 196.23 256.27 150.07 282.51 226.19 202.46 272.35 175.92 196.23" style="fill:#fff;opacity:0.6000000000000001"></polygon><g style="opacity:0.30000000000000004"><path d="M202.46,272.35l80-46.16C268,218.31,205.48,249.82,202.46,272.35Z" style="fill:#4A9E60"></path><path d="M237.28,219.06c-2.91-1.68-6.62-1.39-10.45.82h0C219.66,224,214,233.76,214,242c0,4.42,1.6,7.78,4.51,9.46a8.16,8.16,0,0,0,4.13,1.08,12.83,12.83,0,0,0,6.32-1.9c7.17-4.14,12.79-13.88,12.79-22.16C241.79,224.1,240.19,220.74,237.28,219.06Zm-10.45,27.87c-2.39,1.39-4.63,1.69-6.12.83s-2.35-2.95-2.35-5.72a18.89,18.89,0,0,1,1.26-6.41l4.43.39a6.66,6.66,0,0,0-.23,1.62c0,2.18,1.28,3.25,3,2.8Zm1.08-16.38a8.56,8.56,0,0,0-3,3.37l-4.35-.39c2-4.14,5.06-7.93,8.49-9.91h0a8.48,8.48,0,0,1,4.15-1.31,3.94,3.94,0,0,1,2,.48,3.65,3.65,0,0,1,.85.72l-5.35,6.67A3,3,0,0,0,227.91,230.55ZM229,245.42V239.2a9.18,9.18,0,0,0,3-6.28,5.14,5.14,0,0,0-.08-.91l5.15-6.41a10.37,10.37,0,0,1,.39,2.92C237.47,234.32,233.76,241.47,229,245.42Z" style="fill:#4A9E60"></path><path d="M210.34,253.13l-6-40.21a2.35,2.35,0,0,0-1.18-1.86h0l-4.95-2.86a6.62,6.62,0,0,0,2.15-4.52V198c0-4.35-1.48-7.38-3.83-8.72v0l-4.24-2.47-16.43,9.44,26.54,76.12,20.31-11.71L210.21,255A4.63,4.63,0,0,0,210.34,253.13Z" style="fill:#4A9E60"></path></g><polygon points="259.93 160.69 256.42 150.49 197.47 258.03 201.01 268.19 259.93 160.69" style="fill:#fff;opacity:0.2"></polygon><polygon points="276.2 207.89 265.21 176 216.99 263.98 258.62 239.97 276.2 207.89" style="fill:#fff;opacity:0.2"></polygon><polygon points="181.07 211.01 192.14 242.75 236.82 161.25 195.27 185.12 181.07 211.01" style="fill:#fff;opacity:0.2"></polygon><path d="M278.1,225c-7.06-.6-18.32,2.6-30,7.9a110,110,0,0,0-21.77-39,5.37,5.37,0,0,1-1.63-3.7v-22l28.89-16.6a7.67,7.67,0,0,1,1.16,2.24l15.41,47.06Z" style="fill:#fff;opacity:0.2"></path><polygon points="133.52 171.77 133.52 289.24 131.56 288.1 131.55 170.63 133.52 171.77" style="fill:#37474f"></polygon><path d="M198.4,273.88l-25.61-76.09a10.76,10.76,0,0,0-4.3-5.83l-35-20.2V289.24L199,327.06V277.42A11.2,11.2,0,0,0,198.4,273.88Z" style="fill:#263238"></path><path d="M166.27,190.67,168.5,192a10.83,10.83,0,0,1,4.29,5.83l25.61,76.09a11.21,11.21,0,0,1,.62,3.55v2.06s-22.83-68.25-25.59-76.21S169.85,192.74,166.27,190.67Z" style="fill:#455a64"></path><path d="M184.11,246.77,168.7,199.7a6.57,6.57,0,0,0-2.62-3.59l-25.72-14.85a2.26,2.26,0,0,0-1.54-.29,4.38,4.38,0,0,0-.17,1.31v53.79a5.31,5.31,0,0,0,1.63,3.7c8.36,9.49,24.26,32,25.86,61.61l29.08,16.78V280.42Z" style="fill:#4A9E60"></path><path d="M184.11,246.77,168.7,199.7a6.57,6.57,0,0,0-2.62-3.59l-25.72-14.85a2.26,2.26,0,0,0-1.54-.29,4.38,4.38,0,0,0-.17,1.31v53.79a5.31,5.31,0,0,0,1.63,3.7c8.36,9.49,24.26,32,25.86,61.61l29.08,16.78V280.42Z" style="fill:#fff;opacity:0.5"></path><g style="opacity:0.45"><path d="M182.65,249.41l-31.07-18-12.26,7.07a4.93,4.93,0,0,0,1,1.25c8.36,9.49,24.26,32,25.86,61.61h0l16.5-9.52Z" style="fill:#4A9E60"></path><path d="M195.22,280.42l-11.11-33.65-13.73-41.94a21.76,21.76,0,0,0-.16,2.53V213a2.08,2.08,0,0,0,.86,1.91h0l2.4,1.39-3.81,2.2a6.06,6.06,0,0,0-1.61,1.45c-.19.25-.38.51-.55.78h0a6.34,6.34,0,0,0-1,2.91l-2,45.5a2,2,0,0,0,.78,1.93l2.74,1.58v7l0,0h0v.06a4.55,4.55,0,0,0,.09.73l0,0a4.32,4.32,0,0,0,1.56,2.29l3.27,2.65,19.44,15.78a4.86,4.86,0,0,0,.53.35,3.41,3.41,0,0,0,.44.3,6.91,6.91,0,0,0,.78.36l.3.14c.23.09.47.14.7.21Z" style="fill:#4A9E60"></path></g><path d="M114.61,218.55a4.6,4.6,0,0,0,1.91,3.66l7.33,4.23-9.25-10.56Zm12.9-41.92A4.58,4.58,0,0,0,125.6,173l-7.34-4.24,9.26,10.58Zm49.87,49.58L138.66,182c0,.09,0,.18,0,.28V192l44,50.24ZM114.52,177.5l.06,29,13,14.88-.06-29Zm75,85.67-50.88-58.11V234l56.57,64.62V280.42Zm-27,17.15,32.7,37.35V308l-39.67-45.31A104.21,104.21,0,0,1,162.52,280.32Z" style="fill:#fff;opacity:0.2"></path><path d="M341.14,295A15.65,15.65,0,0,0,336,283.77l-53.73-52.32L203.86,276.7v59.05l87.79,36.58c10.19,4.25,26.21,3.21,35.77-2.32l5.57-3.22c5.38-3.12,8.15-7.87,8.15-12.81C341.13,350.14,341.12,299.91,341.14,295Z" style="fill:#4A9E60"></path><path d="M341.14,295A15.65,15.65,0,0,0,336,283.77l-53.73-52.32L203.86,276.7v59.05l87.79,36.58c10.19,4.25,26.21,3.21,35.77-2.32l5.57-3.22c5.38-3.12,8.15-7.87,8.15-12.81C341.13,350.14,341.12,299.91,341.14,295Z" style="opacity:0.1"></path><path d="M203.87,282.33c25.66,9.74,55.35,20.51,64.14,25.92l-64.2-19.57Z" style="fill:#fafafa"></path><path d="M250.88,340.35,210.7,323.6V294.49s24.51,8.58,34.17,28.23A69.61,69.61,0,0,1,250.88,340.35Z" style="opacity:0.30000000000000004"></path><path d="M252.2,355.9l-41.5-17.3V325.77l40.6,16.92A79.25,79.25,0,0,1,252.2,355.9Z" style="opacity:0.30000000000000004"></path><polygon points="213.44 312.48 213.44 324.74 215.37 325.55 215.37 313.29 213.44 312.48" style="opacity:0.30000000000000004"></polygon><polygon points="217.14 314.02 217.14 326.28 219.07 327.09 219.07 314.83 217.14 314.02" style="opacity:0.30000000000000004"></polygon><polygon points="220.84 315.57 220.84 327.83 222.77 328.63 222.77 316.37 220.84 315.57" style="opacity:0.30000000000000004"></polygon><path d="M336,283.77c7.92,7.7,6.58,18.43-3,24L327.42,311c-9.56,5.53-25.58,6.57-35.77,2.32L203.86,276.7l78.38-45.25Z" style="fill:#4A9E60"></path><path d="M336,283.77c7.92,7.7,6.58,18.43-3,24L327.42,311c-9.56,5.53-25.58,6.57-35.77,2.32L203.86,276.7l78.38-45.25Z" style="fill:#fff;opacity:0.2"></path><path d="M294.8,299.28a668,668,0,0,0-66.2-29.66A668,668,0,0,0,294.8,299.28Zm-19.18-54.13a435.4,435.4,0,0,0,40.31,42.53A437.81,437.81,0,0,0,275.62,245.15Z" style="fill:#4A9E60"></path><path d="M341.14,344.45a13.26,13.26,0,0,1-2.3,7.46,16.07,16.07,0,0,1-1,1.34,16.47,16.47,0,0,1-3.62,3.23c-.32.22-.65.43-1,.64l-.22.14-3.46,2-1,.58-1.11.65a37.49,37.49,0,0,1-12.31,4.19c-.33.06-.67.1-1,.15-1.29.2-2.6.34-3.91.44-.33,0-.67.06-1,.07-.91.06-1.82.08-2.73.08l-1.23,0-1-.07h0a37.73,37.73,0,0,1-4-.51c-.32-.05-.65-.12-1-.19-1.36-.27-2.71-.59-4-1-.33-.09-.66-.17-1-.27l3.18-38.67h0c.23.05.45.08.68.14l.31.08c1.28.32,2.53.61,3.68.84l1,.19h0a21.89,21.89,0,0,0,3.63.41h1c1.21,0,2.41-.1,3.61-.22a1.46,1.46,0,0,0,.22,0h.1c.23,0,.46,0,.68-.06,1.19-.14,2.38-.32,3.55-.55.34-.06.68-.12,1-.2,1.2-.25,2.37-.55,3.5-.89l.5-.16a5,5,0,0,0,.51-.16,31.92,31.92,0,0,0,3.44-1.34c.35-.14.68-.3,1-.47.53-.26,1.05-.53,1.55-.82l1.83-1.06,1-.58,2.74-1.58c.2-.11.39-.23.58-.36l.51-.33a5.25,5.25,0,0,0,.49-.33h0a16.39,16.39,0,0,0,3.26-3c.18-.22.35-.44.52-.67a7.5,7.5,0,0,0,.48-.67h0a13.3,13.3,0,0,0,2.3-7.39C341.12,310.38,341.13,340.61,341.14,344.45Z" style="fill:#37474f"></path><path d="M298.43,324.9h0l-3.19,38.73c-.33-.09-.66-.17-1-.27l3.18-38.67h0c.23.05.45.08.68.14Z" style="fill:#263238"></path><path d="M303.09,325.94l-1-.19-2.85,38.85,1,.19Z" style="fill:#263238"></path><polygon points="328.53 359.83 329.54 359.25 330.26 319.78 329.25 320.37 328.53 359.83" style="fill:#263238"></polygon><path d="M337.83,353.25a12.6,12.6,0,0,0,1-1.34V312.86a13.82,13.82,0,0,1-1,1.35Z" style="fill:#263238"></path><path d="M333.21,357.12c.35-.21.69-.42,1-.64l.36-39.3c-.32.23-.66.45-1,.67Z" style="fill:#263238"></path><path d="M309.19,365.33l1-.07L312.35,326l-1,.09Z" style="fill:#263238"></path><path d="M304.24,365.31l1,.07,2.5-39.05c-.34,0-.67,0-1,0Z" style="fill:#263238"></path><path d="M321.41,324c-.34.11-.66.24-1,.34L319,363.82c.34-.09.68-.17,1-.27Z" style="fill:#263238"></path><path d="M325.86,322.23l-1,.49-1.08,39.5c.34-.14.68-.27,1-.42Z" style="fill:#263238"></path><path d="M316.91,325.26l-1,.2-1.8,39.36,1-.15Z" style="fill:#263238"></path><path d="M264.83,330.7c-.2,3-.29,5.73,1.51,8.24a9.18,9.18,0,0,0,3.92,3.43,4.21,4.21,0,0,0,3.15.21,3.72,3.72,0,0,0,2-2.92c.1-.75.2-1.45.3-2.11l-10.85-7.45C264.86,330.3,264.85,330.5,264.83,330.7Zm.24-2.35,10.94,7.5c.31-1.86.65-3.63,1-5.81.17-1.07.34-2.15.5-3.21l-11.17-4.54A41.22,41.22,0,0,0,265.07,328.35Zm10.9-11.2c-1.68-1.44-4.13-2.18-6-.8a9.51,9.51,0,0,0-3.15,4.46l10.93,4.45c0-.21.07-.42.1-.63C278.32,321.81,278.34,319.18,276,317.15Z" style="fill:#263238"></path><path d="M316.08,371.81a1.8,1.8,0,0,1,.77-1.68l20.8-11.84a1.81,1.81,0,0,1,1.83.19l13.92,8A5.77,5.77,0,0,1,356,371v23.48a1.82,1.82,0,0,1-.76,1.68L334.43,408a1.83,1.83,0,0,1-1.83-.18l-13.92-1a5.76,5.76,0,0,1-2.6-4.5Z" style="fill:#4A9E60"></path><path d="M316.08,371.81a1.8,1.8,0,0,1,.77-1.68l20.8-11.84a1.81,1.81,0,0,1,1.83.19l13.92,8A5.77,5.77,0,0,1,356,371v23.48a1.82,1.82,0,0,1-.76,1.68L334.43,408a1.83,1.83,0,0,1-1.83-.18l-13.92-1a5.76,5.76,0,0,1-2.6-4.5Z" style="fill:#fff;opacity:0.2"></path><path d="M335.2,382.81v23.47a1.87,1.87,0,0,1-.7,1.65l20.73-11.79a1.85,1.85,0,0,0,.76-1.69V371a5.28,5.28,0,0,0-.73-2.5c-2.91,1.68-18.38,10.44-20.79,11.84A5.24,5.24,0,0,1,335.2,382.81Z" style="fill:#4A9E60"></path><path d="M332.6,378.31l-13.92-8a1.84,1.84,0,0,0-1.84-.18,1.82,1.82,0,0,0-.76,1.68v30.44c0,1.66.54,4.44,3.53,4.82,4.19.52,8.89,1.07,11.47,1.3,2.41.21,2.88-.13,3.35-.4a1.81,1.81,0,0,0,.77-1.68V382.81A5.76,5.76,0,0,0,332.6,378.31Z" style="fill:#4A9E60"></path><path d="M332.6,378.31l-13.92-8a1.84,1.84,0,0,0-1.84-.18,1.82,1.82,0,0,0-.76,1.68v30.44c0,1.66.54,4.44,3.53,4.82,4.19.52,8.89,1.07,11.47,1.3,2.41.21,2.88-.13,3.35-.4a1.81,1.81,0,0,0,.77-1.68V382.81A5.76,5.76,0,0,0,332.6,378.31Z" style="opacity:0.1"></path><polygon points="308.12 384.87 318.27 390.73 326.24 386.13 316.08 380.27 308.12 384.87" style="fill:#4A9E60"></polygon><polygon points="308.12 384.87 318.27 390.73 326.24 386.13 316.08 380.27 308.12 384.87" style="fill:#fff;opacity:0.5"></polygon><polygon points="308.12 384.87 318.27 390.73 318.27 403.91 308.12 398.06 308.12 384.87" style="fill:#4A9E60"></polygon><polygon points="308.12 384.87 318.27 390.73 318.27 403.91 308.12 398.06 308.12 384.87" style="fill:#fff;opacity:0.30000000000000004"></polygon><polygon points="326.24 386.13 326.24 399.31 318.27 403.91 318.27 390.73 326.24 386.13" style="fill:#4A9E60"></polygon><polygon points="326.24 386.13 326.24 399.31 318.27 403.91 318.27 390.73 326.24 386.13" style="fill:#4A9E60"></polygon><path d="M322.25,399.37h0c-.72.42-1.31,0-1.31-1v-5.21a3.15,3.15,0,0,1,1.31-2.5h0c.73-.42,1.31,0,1.31,1v5.2A3.13,3.13,0,0,1,322.25,399.37Z" style="fill:#263238"></path><path d="M282.63,380.1a4.27,4.27,0,0,1-1.39-2.78q-.33-2.22-.81-4.44a3,3,0,0,1,.15-2.17l.45-.25c.41-.25.46-1.23.08-2.32l-2.8-8.09c-.42-1.21-1.2-2.1-1.74-2s-1.41-.76-2-1.91c-.68-1.4-1.41-2.78-2.17-4.13-.62-1.09-.89-2.41-.58-2.95s0-1.78-.73-2.76l-4.86-6.54c-.6-.82-1.3-1.19-1.69-1l-.84.49a2.54,2.54,0,0,1-1.35-.79q-1.44-1.47-2.94-2.76A4.25,4.25,0,0,1,258,333a3.12,3.12,0,0,0-1.51-2.4l-5.6-3.24a1.16,1.16,0,0,0-1.14-.14L247,328.81a19.66,19.66,0,0,0-2.06-.4,2.81,2.81,0,0,1-2-1.8A1.88,1.88,0,0,0,241,325.2l-4.86.93a.84.84,0,0,0-.31.12l-24.09,13.91a1.36,1.36,0,0,0-.51,1.46s-5.56,3.2-6,3.45a1.16,1.16,0,0,0-.4.42l-2.8,4.85a2.59,2.59,0,0,0,.22,2.62,3.7,3.7,0,0,1,.46,2.91,34.57,34.57,0,0,0-.81,3.5l-2,1.14a1.6,1.6,0,0,0-.52,1.4v7.48a3.33,3.33,0,0,0,1.1,2.65,4.18,4.18,0,0,1,1.36,2.77c.22,1.48.48,3,.8,4.46a3,3,0,0,1-.15,2.18l-.41.24c-.41.24-.45,1.21-.07,2.31l2.8,8.1c.42,1.2,1.18,2.09,1.7,2s1.36.77,1.91,1.92c.69,1.44,1.43,2.85,2.2,4.23.62,1.1.91,2.38.61,2.9s0,1.72.77,2.69l4.86,6.54c.61.83,1.3,1.22,1.67,1l.73-.42a2.52,2.52,0,0,1,1.39.82q1.49,1.52,3,2.85a4.16,4.16,0,0,1,1.49,2.63,3,3,0,0,0,1.51,2.29l5.61,3.24a1.2,1.2,0,0,0,1.15.16l2.5-1.44a21.56,21.56,0,0,0,2.37.47,2.65,2.65,0,0,1,2,1.68,1.79,1.79,0,0,0,1.84,1.29L247,426a.93.93,0,0,0,.33-.12L271.44,412a1.31,1.31,0,0,0,.52-1.45l5.92-3.43a1.21,1.21,0,0,0,.43-.44l2.8-4.86a2.55,2.55,0,0,0-.19-2.58,3.67,3.67,0,0,1-.44-2.88,32.86,32.86,0,0,0,.79-3.54v0l1.94-1.12c.32-.18.52-.69.52-1.41v-7.48A3.33,3.33,0,0,0,282.63,380.1Z" style="fill:#37474f"></path><path d="M259.65,404.15v-7.48a3.33,3.33,0,0,0-1.11-2.65,4.27,4.27,0,0,1-1.39-2.79c-.22-1.47-.49-3-.81-4.43-.26-1.2-.08-2.27.46-2.37s.64-1.17.22-2.37l-2.8-8.09c-.42-1.21-1.2-2.1-1.74-2s-1.41-.76-2-1.91c-.68-1.4-1.41-2.78-2.17-4.13-.62-1.09-.89-2.41-.58-2.95s0-1.79-.73-2.76l-4.86-6.54c-.72-1-1.56-1.31-1.88-.76s-1.2.3-2-.5q-1.44-1.47-2.94-2.76a4.25,4.25,0,0,1-1.49-2.75,3.15,3.15,0,0,0-1.51-2.41l-5.6-3.23c-.84-.48-1.51-.19-1.51.66a1.06,1.06,0,0,1-1.49,1,19.09,19.09,0,0,0-2.95-.65,2.8,2.8,0,0,1-2-1.81,1.88,1.88,0,0,0-1.88-1.4l-4.86.93c-.72.14-1,1-.73,1.91a2,2,0,0,1-.58,2.29,14.58,14.58,0,0,0-2.17,1.62,1.33,1.33,0,0,1-2-.36c-.54-.74-1.32-.75-1.74,0l-2.8,4.85a2.59,2.59,0,0,0,.22,2.62,3.7,3.7,0,0,1,.46,2.91,34.57,34.57,0,0,0-.81,3.5c-.17,1-.77,1.53-1.39,1.18s-1.11.25-1.11,1.37v7.47a3.33,3.33,0,0,0,1.1,2.65,4.18,4.18,0,0,1,1.36,2.77c.22,1.48.48,3,.8,4.46.26,1.21.08,2.27-.44,2.37s-.61,1.16-.19,2.36l2.8,8.1c.42,1.2,1.18,2.09,1.7,2s1.36.77,1.91,1.92c.69,1.44,1.43,2.85,2.2,4.23.62,1.1.91,2.38.61,2.9s0,1.72.77,2.69l4.86,6.54c.72,1,1.54,1.35,1.84.84s1.16-.23,1.95.57q1.49,1.52,3,2.85a4.16,4.16,0,0,1,1.49,2.63,3,3,0,0,0,1.51,2.29l5.6,3.24c.84.48,1.51.23,1.51-.55s.67-1.16,1.49-.92a20.36,20.36,0,0,0,3,.66,2.65,2.65,0,0,1,2,1.68,1.79,1.79,0,0,0,1.84,1.29L247,426a1.27,1.27,0,0,0,.77-1.8,1.9,1.9,0,0,1,.61-2.2,14.57,14.57,0,0,0,2.2-1.68,1.26,1.26,0,0,1,1.91.29.94.94,0,0,0,1.7,0l2.8-4.86a2.55,2.55,0,0,0-.19-2.58,3.68,3.68,0,0,1-.44-2.88,32.86,32.86,0,0,0,.79-3.54c.17-1,.76-1.55,1.37-1.2S259.65,405.26,259.65,404.15Z" style="fill:#455a64"></path><path d="M246.94,328.81,225.69,341.1l-.09,0a.92.92,0,0,0-.36.81,1.06,1.06,0,0,1-1.48,1c-.31-.1-.62-.17-.94-.25a16.23,16.23,0,0,0-2-.4,2.33,2.33,0,0,1-1.22-.65l24.07-13.93a2.34,2.34,0,0,0,1.23.66C245.57,328.51,246.24,328.64,246.94,328.81Z" style="fill:#263238"></path><path d="M258.55,334.71l-24.1,13.91a3.48,3.48,0,0,1-.59-1.71,2.7,2.7,0,0,0-.43-1.32l24.09-13.91A2.6,2.6,0,0,1,258,333,3.5,3.5,0,0,0,258.55,334.71Z"></path><path d="M263.72,339.29,240.6,352.68a.39.39,0,0,0-.11.06.41.41,0,0,0-.2.19.56.56,0,0,1-.66.27,2.38,2.38,0,0,1-1.34-.77c-1-1-1.94-1.9-2.95-2.76a4.34,4.34,0,0,1-.89-1.05l24.1-13.91a5,5,0,0,0,.89,1c1,.86,2,1.78,2.95,2.76A2.42,2.42,0,0,0,263.72,339.29Z" style="fill:#263238"></path><path d="M277.22,358.3l-24.1,13.91a.81.81,0,0,0-.64-.24c-.55.11-1.41-.75-2-1.89-.68-1.41-1.41-2.79-2.16-4.14-.63-1.1-.91-2.4-.58-2.95a1.29,1.29,0,0,0,.1-.73L272,348.35a1.07,1.07,0,0,1-.1.71c-.31.55,0,1.87.58,3,.77,1.33,1.48,2.71,2.16,4.12.57,1.16,1.43,2,2,1.91A.84.84,0,0,1,277.22,358.3Z" style="fill:#263238"></path><path d="M253.12,372.21l24.1-13.91a.84.84,0,0,0-.65-.24.62.62,0,0,1-.3,0l-24.09,13.91a.64.64,0,0,0,.3,0A.81.81,0,0,1,253.12,372.21Z"></path><path d="M271.85,349.06a1.07,1.07,0,0,0,.1-.71l-24.08,13.91a1.29,1.29,0,0,1-.1.73,1.67,1.67,0,0,0-.09,1l24.09-13.93A1.75,1.75,0,0,1,271.85,349.06Z"></path><path d="M283.36,381l-24.11,13.9a1.92,1.92,0,0,0-.72-.9,4.28,4.28,0,0,1-1.38-2.77c-.22-1.49-.49-2.95-.81-4.44a2.76,2.76,0,0,1,.19-2.21h0l.25-.15.22-.13,23.56-13.59a3,3,0,0,0-.16,2.17c.33,1.48.59,3,.82,4.43a4.27,4.27,0,0,0,1.39,2.79A2.11,2.11,0,0,1,283.36,381Z" style="fill:#263238"></path><path d="M282.63,380.1a2.43,2.43,0,0,1-.83-1L257.71,393a2.5,2.5,0,0,0,.82,1,1.92,1.92,0,0,1,.72.9L283.36,381A2.11,2.11,0,0,0,282.63,380.1Z"></path><path d="M281.33,400.21l-24.09,13.92a2.37,2.37,0,0,0-.41-1,3.35,3.35,0,0,1-.51-1.36,3.51,3.51,0,0,1,.06-1.52,28.67,28.67,0,0,0,.8-3.54v0c.18-1,.76-1.51,1.37-1.17a.59.59,0,0,0,.65,0l22.08-12.76v0c-.22,1.25-.49,2.44-.8,3.55a3.6,3.6,0,0,0,.44,2.88A2.24,2.24,0,0,1,281.33,400.21Z" style="fill:#263238"></path><path d="M256.83,413.14a2.37,2.37,0,0,1,.41,1l24.09-13.92a2.24,2.24,0,0,0-.41-1,3.07,3.07,0,0,1-.49-1.24l-24.08,13.9A3,3,0,0,0,256.83,413.14Z"></path><path d="M210.75,344.24a15.18,15.18,0,0,0-2.16,1.64,1.32,1.32,0,0,1-2-.38,1,1,0,0,0-1.28-.46l.08-.05,5.82-3.37c0,.1.06.22.09.34A1.93,1.93,0,0,1,210.75,344.24Z" style="fill:#263238"></path><path d="M271.43,412h0l-.06,0-.36.21-23.43,13.54-.16.09a1.41,1.41,0,0,0,.39-1.65,1.88,1.88,0,0,1,.6-2.19,14.16,14.16,0,0,0,2.21-1.68,1.27,1.27,0,0,1,1.92.28,1,1,0,0,0,1.09.49l.23-.12L272,410.53A1.27,1.27,0,0,1,271.43,412Z"></path><path d="M236,423.51l-2.49,1.43a.71.71,0,0,0,.34-.69c0-.79.68-1.17,1.5-.94Z" style="fill:#263238"></path><path d="M219.31,413l-.58.33a.56.56,0,0,0,.05-.08A.48.48,0,0,1,219.31,413Z" style="fill:#263238"></path><path d="M202,359.37c-.17,1-.78,1.53-1.38,1.17a.64.64,0,0,0-.51-.07l.17-.09.28-.17Z" style="fill:#263238"></path><path d="M243.66,327.75l-24.07,13.93a2.84,2.84,0,0,1-.78-1.16,2.32,2.32,0,0,0-.83-1.11l24.09-13.91a2.2,2.2,0,0,1,.83,1.11A2.93,2.93,0,0,0,243.66,327.75Z"></path><path d="M274.05,392.14c0,12.14-4.05,20.7-10.42,24.38L259.3,419c6.29-3.74,10.27-12.25,10.27-24.29,0-22.18-13.48-48-30.14-57.58-7.17-4.15-13.77-4.6-19-2,1.66-.95,1.94-1.11,3.7-2.14,5.3-3.07,12.19-2.78,19.74,1.58C260.56,344.16,274.05,370,274.05,392.14Z" style="fill:#37474f"></path><path d="M269.57,394.71c0,12-4,20.55-10.27,24.29l-2.89,1.66c6.28-3.72,10.25-12.24,10.25-24.26,0-22.19-13.49-48-30.13-57.58-7.45-4.3-14.25-4.63-19.52-1.69l3.47-2c5.18-2.59,11.78-2.15,19,2C256.09,346.74,269.57,372.52,269.57,394.71Z"></path><path d="M242.07,325.5,218,339.41a1.4,1.4,0,0,0-1.06-.3l-2,.39-2.85.55a.7.7,0,0,0-.19.06l.31-.2L234.49,327l.42-.24.42-.24.16-.09.22-.13.13-.07.15-.08a1,1,0,0,1,.17,0l4.86-.94A1.33,1.33,0,0,1,242.07,325.5Z" style="fill:#37474f"></path><path d="M257.52,331.68l-24.09,13.91a3.35,3.35,0,0,0-1.07-1.08l-5.62-3.23a1.19,1.19,0,0,0-1.05-.18l21.25-12.29,1.79-1,.64-.37.34-.19a1.19,1.19,0,0,1,1.13.13l5.6,3.25A3.28,3.28,0,0,1,257.52,331.68Z" style="fill:#37474f"></path><path d="M272,348.35l-24.08,13.91a4.47,4.47,0,0,0-.84-2l-4.85-6.54c-.55-.73-1.17-1.11-1.58-1l23.12-13.39.85-.47c.4-.24,1.08.13,1.69.95l4.86,6.55A4.05,4.05,0,0,1,272,348.35Z" style="fill:#37474f"></path><path d="M281.07,370.42l-.13.09-.36.2L257,384.3a2.52,2.52,0,0,0,0-2.24l-2.8-8.1a4.09,4.09,0,0,0-1.1-1.75l24.1-13.91a4.2,4.2,0,0,1,1.08,1.75l2.82,8.1C281.47,369.19,281.44,370.14,281.07,370.42Z" style="fill:#37474f"></path><path d="M283.74,382.76v7.47a1.6,1.6,0,0,1-.52,1.41l-1.94,1.12L259.2,405.52a1.75,1.75,0,0,0,.45-1.37v-7.49a4,4,0,0,0-.4-1.73v0L283.36,381A4.35,4.35,0,0,1,283.74,382.76Z" style="fill:#37474f"></path><path d="M281.12,401.8l-2.81,4.86a1,1,0,0,1-.42.44l-1.32.76-.49.28L272,410.53,253.85,421a1.21,1.21,0,0,0,.37-.4l2.8-4.86a2.49,2.49,0,0,0,.22-1.59l24.09-13.92A2.42,2.42,0,0,1,281.12,401.8Z" style="fill:#37474f"></path><path d="M229.55,361.09c-9.09-5.25-16.46.32-16.46,12.44s7.37,26.2,16.46,31.45S246,404.65,246,392.53,238.64,366.34,229.55,361.09Zm0,40.1c-7.52-4.34-13.62-16-13.62-26s6.1-14.64,13.62-10.29,13.62,16,13.62,26S237.07,405.53,229.55,401.19Z" style="fill:#4A9E60"></path><path d="M243.17,390.9c0,3.81-.89,6.85-2.4,8.89-2.45,3.34-6.56,4.08-11.21,1.4-7.54-4.35-13.63-16-13.63-26,0-7,3-11.38,7.34-11.88a10.34,10.34,0,0,1,6.29,1.57C237.08,369.22,243.17,380.87,243.17,390.9Z" style="fill:#4A9E60"></path><path d="M243.17,390.9c0,3.81-.89,6.85-2.4,8.89-2.45,3.34-6.56,4.08-11.21,1.4-7.54-4.35-13.63-16-13.63-26,0-7,3-11.38,7.34-11.88a10.34,10.34,0,0,1,6.29,1.57C237.08,369.22,243.17,380.87,243.17,390.9Z" style="opacity:0.4"></path><path d="M243.17,390.9c0,3.81-.89,6.85-2.4,8.89a10.13,10.13,0,0,1-6.3-1.57c-7.52-4.33-13.62-16-13.62-26,0-3.82.89-6.86,2.42-8.91a10.34,10.34,0,0,1,6.29,1.57C237.08,369.22,243.17,380.87,243.17,390.9Z" style="fill:#263238"></path><path d="M227.7,376.76l-1.94,6.85-4.91-16.28a6.42,6.42,0,0,1,.94-3.3Z" style="fill:#4A9E60"></path><path d="M227.7,376.76l-1.94,6.85-4.91-16.28a6.42,6.42,0,0,1,.94-3.3Z" style="opacity:0.2"></path><path d="M225.27,381.29l5.08,7.86-3.45,4.11a10.39,10.39,0,0,1-2.62-3.84Z" style="fill:#4A9E60"></path><path d="M225.27,381.29l5.08,7.86-3.45,4.11a10.39,10.39,0,0,1-2.62-3.84Z" style="opacity:0.2"></path><path d="M242.33,396.66a10.31,10.31,0,0,1-1.34,2.81l-12.23-11.24,4.27-1.68.31,1.42,1.23-.52h0Z" style="fill:#4A9E60"></path><path d="M242.33,396.66a10.31,10.31,0,0,1-1.34,2.81l-12.23-11.24,4.27-1.68.31,1.42,1.23-.52h0Z" style="opacity:0.2"></path><path d="M242.65,385.65l-8.08,1.8h0l-.74-1.21-.8.31-1.32-6.21,1,.56-.07-1.61,8.16-.05A34.67,34.67,0,0,1,242.65,385.65Z" style="fill:#4A9E60"></path><path d="M242.65,385.65l-8.08,1.8h0l-.74-1.21-.8.31-1.32-6.21,1,.56-.07-1.61,8.16-.05A34.67,34.67,0,0,1,242.65,385.65Z" style="opacity:0.2"></path><path d="M232.62,379.29l-1.22-.39.31,1.44-5.3-3.07,4.66-11.42a23.39,23.39,0,0,1,3.94,3.69Z" style="fill:#4A9E60"></path><path d="M232.62,379.29l-1.22-.39.31,1.44-5.3-3.07,4.66-11.42a23.39,23.39,0,0,1,3.94,3.69Z" style="opacity:0.2"></path><path d="M234.7,386c0,3.79-2.3,5.53-5.15,3.89s-5.15-6-5.15-9.84,2.31-5.54,5.15-3.9S234.7,382.21,234.7,386Z" style="fill:#4A9E60"></path><path d="M153.94,297.55a5.05,5.05,0,0,1-1.64-3.28q-.37-2.61-1-5.23a3.53,3.53,0,0,1,.18-2.56l.52-.3c.49-.29.55-1.44.1-2.72l-3.3-9.55c-.49-1.41-1.41-2.46-2-2.34s-1.67-.89-2.32-2.24q-1.22-2.49-2.56-4.87c-.73-1.3-1-2.84-.68-3.49s0-2.1-.87-3.24L134.65,250c-.72-1-1.53-1.4-2-1.13l-1,.58a3,3,0,0,1-1.58-.93c-1.13-1.15-2.29-2.24-3.48-3.25a5.06,5.06,0,0,1-1.75-3.25,3.7,3.7,0,0,0-1.77-2.83l-6.61-3.82a1.4,1.4,0,0,0-1.34-.16l-3.25,1.88a21.55,21.55,0,0,0-2.42-.48,3.29,3.29,0,0,1-2.35-2.12,2.22,2.22,0,0,0-2.22-1.66l-5.72,1.1a.92.92,0,0,0-.37.14l-28.39,16.4a1.6,1.6,0,0,0-.61,1.71s-6.55,3.77-7,4.07a1.37,1.37,0,0,0-.46.49L59,262.48a3.06,3.06,0,0,0,.26,3.08A4.33,4.33,0,0,1,59.8,269a40.35,40.35,0,0,0-1,4.13l-2.34,1.35a1.87,1.87,0,0,0-.61,1.65v8.81a3.91,3.91,0,0,0,1.3,3.12,5,5,0,0,1,1.61,3.26c.25,1.76.56,3.51.94,5.27a3.58,3.58,0,0,1-.17,2.56l-.5.29c-.48.27-.52,1.43-.08,2.72l3.31,9.54c.49,1.42,1.38,2.48,2,2.36s1.6.91,2.25,2.26q1.23,2.55,2.6,5c.73,1.3,1.07,2.81.72,3.42s0,2,.9,3.17l5.73,7.71c.72,1,1.53,1.44,2,1.19l.86-.5a3.07,3.07,0,0,1,1.64,1c1.16,1.18,2.36,2.3,3.57,3.35a4.91,4.91,0,0,1,1.75,3.1,3.61,3.61,0,0,0,1.78,2.7l6.61,3.82a1.47,1.47,0,0,0,1.36.19l2.95-1.7a24.52,24.52,0,0,0,2.79.55,3.15,3.15,0,0,1,2.31,2,2.08,2.08,0,0,0,2.17,1.52l5.72-1.1a1.64,1.64,0,0,0,.39-.14l28.38-16.4a1.53,1.53,0,0,0,.61-1.71l7-4a1.39,1.39,0,0,0,.5-.52l3.3-5.73a3,3,0,0,0-.22-3,4.32,4.32,0,0,1-.53-3.39,36.59,36.59,0,0,0,.94-4.18v0l2.29-1.33a1.88,1.88,0,0,0,.61-1.66v-8.81A3.92,3.92,0,0,0,153.94,297.55Z" style="fill:#37474f"></path><path d="M126.86,325.9v-8.81a3.9,3.9,0,0,0-1.32-3.13,5.1,5.1,0,0,1-1.64-3.28c-.25-1.74-.57-3.49-1-5.23-.31-1.42-.09-2.68.55-2.8s.75-1.37.26-2.79l-3.31-9.54c-.49-1.42-1.41-2.46-2-2.34s-1.66-.89-2.32-2.25c-.81-1.65-1.66-3.28-2.56-4.86-.73-1.3-1-2.84-.68-3.49s0-2.1-.86-3.25l-5.73-7.71c-.85-1.14-1.84-1.55-2.22-.9s-1.41.36-2.35-.59q-1.7-1.73-3.47-3.25a5,5,0,0,1-1.75-3.24,3.7,3.7,0,0,0-1.78-2.83l-6.61-3.82c-1-.57-1.78-.22-1.78.78a1.25,1.25,0,0,1-1.75,1.22,24.07,24.07,0,0,0-3.47-.76,3.31,3.31,0,0,1-2.36-2.13,2.21,2.21,0,0,0-2.21-1.66l-5.73,1.1c-.85.17-1.24,1.17-.86,2.25a2.32,2.32,0,0,1-.69,2.7,17.19,17.19,0,0,0-2.55,1.92,1.56,1.56,0,0,1-2.32-.43c-.64-.87-1.56-.88-2,0L59,262.48a3.06,3.06,0,0,0,.26,3.08A4.33,4.33,0,0,1,59.8,269a40.35,40.35,0,0,0-1,4.13c-.2,1.16-.91,1.8-1.63,1.38s-1.32.31-1.32,1.62v8.81a3.91,3.91,0,0,0,1.3,3.12,5,5,0,0,1,1.61,3.26c.25,1.76.56,3.51.94,5.27.3,1.42.1,2.67-.52,2.79s-.72,1.37-.23,2.78l3.31,9.54c.49,1.42,1.38,2.48,2,2.36s1.6.91,2.25,2.26q1.23,2.55,2.6,5c.73,1.3,1.07,2.81.72,3.42s0,2,.9,3.17l5.73,7.71c.85,1.15,1.82,1.59,2.17,1s1.37-.27,2.3.68c1.16,1.18,2.36,2.3,3.57,3.35a4.91,4.91,0,0,1,1.75,3.1,3.61,3.61,0,0,0,1.78,2.7l6.61,3.82c1,.56,1.78.28,1.78-.65s.79-1.37,1.75-1.08a24.34,24.34,0,0,0,3.57.77,3.15,3.15,0,0,1,2.31,2,2.08,2.08,0,0,0,2.17,1.52l5.72-1.1a1.51,1.51,0,0,0,.91-2.13,2.23,2.23,0,0,1,.71-2.59,17.51,17.51,0,0,0,2.6-2,1.5,1.5,0,0,1,2.26.34,1.1,1.1,0,0,0,2,0l3.31-5.73a3,3,0,0,0-.23-3,4.3,4.3,0,0,1-.52-3.4,41.21,41.21,0,0,0,.94-4.17c.2-1.17.89-1.82,1.61-1.41S126.86,327.21,126.86,325.9Z" style="fill:#455a64"></path><path d="M111.87,237.09,86.82,251.58l-.1,0a1.06,1.06,0,0,0-.42,1,1.25,1.25,0,0,1-1.75,1.22c-.37-.12-.74-.21-1.1-.3a20.83,20.83,0,0,0-2.38-.47,2.67,2.67,0,0,1-1.43-.77L108,235.85a2.72,2.72,0,0,0,1.45.77C110.26,236.74,111.05,236.9,111.87,237.09Z" style="fill:#263238"></path><path d="M125.56,244.05,97.15,260.44a4.12,4.12,0,0,1-.7-2,3.08,3.08,0,0,0-.5-1.55l28.4-16.4a3.16,3.16,0,0,1,.51,1.56A4.16,4.16,0,0,0,125.56,244.05Z"></path><path d="M131.66,249.45l-27.25,15.78a.37.37,0,0,0-.14.07.51.51,0,0,0-.23.23.68.68,0,0,1-.79.31,2.77,2.77,0,0,1-1.57-.9c-1.14-1.16-2.29-2.24-3.48-3.26a5.11,5.11,0,0,1-1-1.24l28.41-16.39a5.88,5.88,0,0,0,1,1.22c1.19,1,2.35,2.1,3.48,3.25A2.87,2.87,0,0,0,131.66,249.45Z" style="fill:#263238"></path><path d="M147.56,271.86l-28.4,16.39a1,1,0,0,0-.75-.28c-.65.13-1.66-.89-2.33-2.23-.8-1.66-1.66-3.29-2.55-4.88-.73-1.29-1.07-2.83-.68-3.48a1.45,1.45,0,0,0,.12-.86l28.39-16.39a1.32,1.32,0,0,1-.12.84c-.37.64-.06,2.2.68,3.49.91,1.58,1.75,3.2,2.55,4.86.66,1.37,1.68,2.38,2.32,2.26A1,1,0,0,1,147.56,271.86Z" style="fill:#263238"></path><path d="M119.16,288.25l28.4-16.39a1,1,0,0,0-.77-.28.74.74,0,0,1-.35,0l-28.39,16.39a.76.76,0,0,0,.36,0A1,1,0,0,1,119.16,288.25Z"></path><path d="M141.24,261a1.32,1.32,0,0,0,.12-.84L113,276.52a1.45,1.45,0,0,1-.12.86,2.1,2.1,0,0,0-.11,1.22l28.4-16.42A2,2,0,0,1,141.24,261Z"></path><path d="M154.8,298.62,126.38,315a2.24,2.24,0,0,0-.84-1.07,5,5,0,0,1-1.63-3.27c-.26-1.75-.57-3.48-1-5.23a3.23,3.23,0,0,1,.23-2.6l0,0,.29-.17.27-.16,27.77-16a3.49,3.49,0,0,0-.19,2.55c.38,1.75.7,3.5,1,5.23a5.08,5.08,0,0,0,1.64,3.28A2.52,2.52,0,0,1,154.8,298.62Z" style="fill:#263238"></path><path d="M153.94,297.55a2.88,2.88,0,0,1-1-1.21l-28.4,16.4a2.88,2.88,0,0,0,1,1.21,2.24,2.24,0,0,1,.84,1.07l28.42-16.4A2.52,2.52,0,0,0,153.94,297.55Z"></path><path d="M152.4,321.26,124,337.67a3,3,0,0,0-.49-1.17,3.78,3.78,0,0,1-.6-1.61,4.23,4.23,0,0,1,.07-1.78,36.58,36.58,0,0,0,1-4.18v0c.21-1.15.89-1.78,1.61-1.38a.68.68,0,0,0,.77,0l26-15v0c-.26,1.46-.57,2.86-.94,4.17a4.19,4.19,0,0,0,.52,3.39A2.56,2.56,0,0,1,152.4,321.26Z" style="fill:#263238"></path><path d="M123.53,336.5a3,3,0,0,1,.49,1.17l28.38-16.41a2.56,2.56,0,0,0-.47-1.18,3.5,3.5,0,0,1-.58-1.46L123,335A3.54,3.54,0,0,0,123.53,336.5Z"></path><path d="M69.22,255.29a17.92,17.92,0,0,0-2.55,1.92,1.56,1.56,0,0,1-2.33-.44,1.2,1.2,0,0,0-1.5-.54l.09-.07,6.87-4c0,.13.07.27.1.41A2.3,2.3,0,0,1,69.22,255.29Z" style="fill:#263238"></path><path d="M140.75,335.12h0l-.07,0c-.09.05-.23.12-.42.24l-27.62,16-.19.11a1.65,1.65,0,0,0,.45-1.94,2.24,2.24,0,0,1,.72-2.59,17.27,17.27,0,0,0,2.6-2,1.48,1.48,0,0,1,2.26.33,1.18,1.18,0,0,0,1.29.57l.27-.14,21.34-12.32A1.52,1.52,0,0,1,140.75,335.12Z"></path><path d="M99,348.72l-2.94,1.69a.86.86,0,0,0,.4-.82c0-.93.81-1.38,1.77-1.1C98.48,348.56,98.72,348.65,99,348.72Z" style="fill:#263238"></path><path d="M79.31,336.29l-.69.38.06-.08A.56.56,0,0,1,79.31,336.29Z" style="fill:#263238"></path><path d="M58.84,273.12c-.2,1.17-.91,1.8-1.63,1.38a.72.72,0,0,0-.59-.09l.19-.1.33-.2Z" style="fill:#263238"></path><path d="M108,235.85,79.64,252.26a3.41,3.41,0,0,1-.93-1.36,2.6,2.6,0,0,0-1-1.31l28.41-16.4a2.65,2.65,0,0,1,1,1.31A3.39,3.39,0,0,0,108,235.85Z"></path><path d="M143.83,311.74c0,14.32-4.77,24.4-12.29,28.74-2.22,1.27-3.19,1.81-5.09,2.92,7.41-4.41,12.09-14.44,12.09-28.64,0-26.15-15.89-56.54-35.52-67.87-8.46-4.89-16.23-5.42-22.33-2.36L85.05,242c6.24-3.61,14.36-3.28,23.26,1.86C127.92,255.19,143.83,285.59,143.83,311.74Z" style="fill:#37474f"></path><path d="M138.54,314.77c0,14.19-4.68,24.23-12.09,28.63l-3.41,2c7.39-4.39,12.08-14.42,12.08-28.6,0-26.15-15.91-56.54-35.52-67.87-8.78-5.07-16.8-5.45-23-2l4.09-2.36c6.1-3.06,13.87-2.54,22.33,2.36C122.65,258.22,138.54,288.62,138.54,314.77Z"></path><path d="M106.14,233.19l-28.41,16.4a1.6,1.6,0,0,0-1.24-.35l-2.36.45-3.36.65-.22.07c.08,0,.21-.12.36-.23L97.2,235l.49-.28.49-.28.2-.1.26-.16.16-.09L99,234a.7.7,0,0,1,.19-.06l5.74-1.1A1.61,1.61,0,0,1,106.14,233.19Z" style="fill:#37474f"></path><path d="M124.35,240.48,96,256.88a3.86,3.86,0,0,0-1.26-1.28l-6.63-3.81a1.41,1.41,0,0,0-1.24-.21l25.05-14.49,2.11-1.21.76-.43.4-.23a1.41,1.41,0,0,1,1.33.16l6.6,3.83A3.88,3.88,0,0,1,124.35,240.48Z" style="fill:#37474f"></path><path d="M141.36,260.13,113,276.52a5.27,5.27,0,0,0-1-2.39l-5.71-7.71c-.65-.86-1.38-1.31-1.85-1.19l27.25-15.78,1-.56c.47-.28,1.28.16,2,1.12l5.73,7.72A4.81,4.81,0,0,1,141.36,260.13Z" style="fill:#37474f"></path><path d="M152.11,286.14l-.16.1-.42.25-27.77,16a3,3,0,0,0,0-2.64l-3.31-9.54a4.72,4.72,0,0,0-1.29-2.07l28.4-16.39a5,5,0,0,1,1.28,2.06l3.32,9.54C152.58,284.69,152.55,285.81,152.11,286.14Z" style="fill:#37474f"></path><path d="M155.25,300.68v8.81c0,.86-.24,1.45-.61,1.66l-2.29,1.33-26,15a2.07,2.07,0,0,0,.52-1.6v-8.83a4.82,4.82,0,0,0-.47-2.05h0l28.42-16.4A5,5,0,0,1,155.25,300.68Z" style="fill:#37474f"></path><path d="M152.16,323.13l-3.3,5.73a1.34,1.34,0,0,1-.51.52l-1.56.89-.57.34-4.86,2.81L120,345.74a1.41,1.41,0,0,0,.43-.47l3.31-5.73a3,3,0,0,0,.26-1.87l28.38-16.41A2.74,2.74,0,0,1,152.16,323.13Z" style="fill:#37474f"></path><path d="M91.38,275.14C80.66,269,72,275.52,72,289.81s8.68,30.88,19.4,37.07,19.4-.39,19.4-14.67S102.09,281.33,91.38,275.14Zm0,47.27c-8.87-5.12-16.06-18.85-16.06-30.67s7.19-17.25,16.06-12.13,16.05,18.85,16.05,30.66S100.24,327.53,91.38,322.41Z" style="fill:#4A9E60"></path><path d="M107.43,310.28c0,4.49-1.05,8.07-2.83,10.49-2.89,3.93-7.73,4.8-13.22,1.64-8.88-5.12-16.06-18.84-16.06-30.66,0-8.27,3.51-13.41,8.65-14a12.1,12.1,0,0,1,7.41,1.85C100.25,284.72,107.43,298.46,107.43,310.28Z" style="fill:#4A9E60"></path><path d="M107.43,310.28c0,4.49-1.05,8.07-2.83,10.49-2.89,3.93-7.73,4.8-13.22,1.64-8.88-5.12-16.06-18.84-16.06-30.66,0-8.27,3.51-13.41,8.65-14a12.1,12.1,0,0,1,7.41,1.85C100.25,284.72,107.43,298.46,107.43,310.28Z" style="opacity:0.4"></path><path d="M107.43,310.28c0,4.49-1.05,8.07-2.83,10.49a12,12,0,0,1-7.43-1.86c-8.86-5.1-16-18.84-16-30.66,0-4.51,1-8.09,2.85-10.5a12.1,12.1,0,0,1,7.41,1.85C100.25,284.72,107.43,298.46,107.43,310.28Z" style="fill:#263238"></path><path d="M89.2,293.62l-2.29,8.07L81.12,282.5a7.48,7.48,0,0,1,1.11-3.89Z" style="fill:#4A9E60"></path><path d="M89.2,293.62l-2.29,8.07L81.12,282.5a7.48,7.48,0,0,1,1.11-3.89Z" style="opacity:0.2"></path><path d="M86.33,299l6,9.26-4.07,4.85a12.36,12.36,0,0,1-3.09-4.54Z" style="fill:#4A9E60"></path><path d="M86.33,299l6,9.26-4.07,4.85a12.36,12.36,0,0,1-3.09-4.54Z" style="opacity:0.2"></path><path d="M106.43,317.08a11.73,11.73,0,0,1-1.57,3.3L90.44,307.13l5-2,.37,1.67,1.46-.61h0Z" style="fill:#4A9E60"></path><path d="M106.43,317.08a11.73,11.73,0,0,1-1.57,3.3L90.44,307.13l5-2,.37,1.67,1.46-.61h0Z" style="opacity:0.2"></path><path d="M106.82,304.09l-9.52,2.13h0l-.88-1.43-1,.37-1.55-7.33,1.15.67L95,296.6l9.62-.06A41.35,41.35,0,0,1,106.82,304.09Z" style="fill:#4A9E60"></path><path d="M106.82,304.09l-9.52,2.13h0l-.88-1.43-1,.37-1.55-7.33,1.15.67L95,296.6l9.62-.06A41.35,41.35,0,0,1,106.82,304.09Z" style="opacity:0.2"></path><path d="M95,296.6l-1.45-.46.37,1.69-6.24-3.62,5.49-13.45a27.33,27.33,0,0,1,4.65,4.35Z" style="fill:#4A9E60"></path><path d="M95,296.6l-1.45-.46.37,1.69-6.24-3.62,5.49-13.45a27.33,27.33,0,0,1,4.65,4.35Z" style="opacity:0.2"></path><path d="M97.45,304.51c0,4.47-2.72,6.53-6.07,4.59S85.3,302,85.3,297.5,88,291,91.38,292.91,97.45,300,97.45,304.51Z" style="fill:#4A9E60"></path><path d="M157.94,285.36c-6.82-24.06-22-46.82-39.63-57C107.48,222.11,97.57,221.67,90,226c-4.4,2.51-16.78,9.69-21.11,12.18-4.74,2.73-8.59,7.33-11.2,13.54l3.66,2.12c4.23-13.33,19.07-19.22,34.56-9.5,14.48,9.08,28.19,28.33,35.49,48.85,3.28,9.24,4.62,19,5.37,28.65l4,2.32,21-12.14c0-.21,0-.43,0-.65A96.33,96.33,0,0,0,157.94,285.36Z" style="fill:#4A9E60"></path><path d="M157.94,285.36c-6.82-24.06-22-46.82-39.63-57C107.48,222.11,97.57,221.67,90,226c-4.4,2.51-16.78,9.69-21.11,12.18-4.74,2.73-8.59,7.33-11.2,13.54l3.66,2.12c4.23-13.33,19.07-19.22,34.56-9.5,14.48,9.08,28.19,28.33,35.49,48.85,3.28,9.24,4.62,19,5.37,28.65l4,2.32,21-12.14c0-.21,0-.43,0-.65A96.33,96.33,0,0,0,157.94,285.36Z" style="fill:#fff;opacity:0.2"></path><path d="M69.59,240.65c-5.08,3.34-8.15,7.6-8.28,13.21,4.32-2.49,21.2-12.27,25.6-14.78C86.91,239.08,80.21,235,69.59,240.65Z" style="fill:#4A9E60"></path><path d="M69.59,240.65c-5.08,3.34-8.15,7.6-8.28,13.21,4.32-2.49,21.2-12.27,25.6-14.78C86.91,239.08,80.21,235,69.59,240.65Z" style="opacity:0.30000000000000004"></path><path d="M136.91,297.5c-6.82-24.06-22-46.82-39.63-57s-32.82-4.95-39.63,11.24l3.66,2.12c4.23-13.33,19.07-19.22,34.56-9.5,14.48,9.08,28.19,28.33,35.49,48.85,3.28,9.24,4.62,19,5.37,28.65l4,2.32c0-.21,0-.43,0-.65A96.33,96.33,0,0,0,136.91,297.5Z" style="fill:#4A9E60"></path><g id="freepik--percentage-box--inject-3"><path d="M155.73,208.11l7.51-4.36a1.72,1.72,0,0,1,1.75-.17c.44.26,1.32.8,1.77,1a1.73,1.73,0,0,1,.73,1.6v18a5.47,5.47,0,0,1-2.47,4.27l-7.5,4.35a1.73,1.73,0,0,1-1.74.18c-.45-.26-1.34-.81-1.79-1.06a1.73,1.73,0,0,1-.73-1.6v-18A5.45,5.45,0,0,1,155.73,208.11Z" style="fill:#455a64"></path><path d="M153.26,212.38v18A1.73,1.73,0,0,0,154,232c.44.25,1.11.67,1.73,1a1.81,1.81,0,0,1-.66-1.57v-18a5,5,0,0,1,.72-2.43L154,210A5,5,0,0,0,153.26,212.38Z" style="fill:#263238"></path><path d="M165,228.52l-7.5,4.35c-1.36.79-2.47.15-2.47-1.42v-18a5.45,5.45,0,0,1,2.47-4.27l7.5-4.36c1.37-.79,2.47-.15,2.47,1.42v18A5.47,5.47,0,0,1,165,228.52Z" style="fill:#37474f"></path></g><g id="freepik--percentage-box--inject-3"><path d="M273.74,139.56l7.5-4.36A1.76,1.76,0,0,1,283,135c.44.26,1.32.8,1.77,1.05a1.73,1.73,0,0,1,.73,1.6v18A5.47,5.47,0,0,1,283,160l-7.5,4.35a1.73,1.73,0,0,1-1.75.18c-.44-.26-1.33-.81-1.78-1.06a1.73,1.73,0,0,1-.73-1.6v-18A5.45,5.45,0,0,1,273.74,139.56Z" style="fill:#455a64"></path><path d="M271.27,143.83v18a1.72,1.72,0,0,0,.73,1.6l1.73,1a1.79,1.79,0,0,1-.67-1.57v-18a5,5,0,0,1,.73-2.43L272,141.4A5.08,5.08,0,0,0,271.27,143.83Z" style="fill:#263238"></path><path d="M283,160l-7.5,4.35c-1.37.79-2.47.15-2.47-1.42v-18a5.43,5.43,0,0,1,2.47-4.27l7.5-4.36c1.36-.79,2.47-.15,2.47,1.42v18A5.47,5.47,0,0,1,283,160Z" style="fill:#37474f"></path></g><path d="M160.48,217.15a.87.87,0,0,0,.72.43.84.84,0,0,0,.84-.83l.07-14.75a.83.83,0,0,1,.42-.72l22.91-13a.83.83,0,0,0-.82-1.44l-22.91,13a2.5,2.5,0,0,0-1.27,2.15l-.06,14.76A.8.8,0,0,0,160.48,217.15Z" style="fill:#263238"></path><path d="M279.2,134.29a1.4,1.4,0,0,0-2.12-1.21l-31.95,19.19a1.07,1.07,0,0,0-.53,1.34c.22.4.8.42,1.35.1s24.09-14.47,31.49-18.92a.08.08,0,0,1,.12.07l-.07,14.07a.81.81,0,0,0,.11.41.82.82,0,0,0,.72.42.81.81,0,0,0,.83-.82Z" style="fill:#263238"></path><path d="M254.47,151.34a7.88,7.88,0,0,0-3.45-4.83c-.87-.48-4.26-2.46-5.12-3-2.08-1.2-4.77-1.06-7.65.6L189.1,172.53c-5,2.89-9.45,9.72-11,17h0l5.16,3Z" style="fill:#455a64"></path><path d="M243.41,147.14l-49.14,28.37c-5,2.89-9.46,9.72-11.06,17h0l71.26-41.14h0C252.87,145.94,248.42,144.25,243.41,147.14Z" style="fill:#37474f"></path><path d="M237.88,158.61,252,150.47a4.38,4.38,0,0,0-3.94-2.73,7.49,7.49,0,0,0-3.64,1.13l-6.53,3.77Z" style="fill:#4A9E60"></path><path d="M237.88,158.61,252,150.47a4.38,4.38,0,0,0-3.94-2.73,7.49,7.49,0,0,0-3.64,1.13l-6.53,3.77Z" style="fill:#fff;opacity:0.30000000000000004"></path><path d="M201.27,173.78l-6,3.46c-3.4,2-6.61,6.14-8.6,10.94l14.6-8.43Z" style="fill:#4A9E60"></path><path d="M201.27,173.78l-6,3.46c-3.4,2-6.61,6.14-8.6,10.94l14.6-8.43Z" style="fill:#fff;opacity:0.30000000000000004"></path><polygon points="236.19 153.66 236.19 159.63 229.66 163.4 229.66 157.43 236.19 153.66" style="fill:#fafafa"></polygon><polygon points="209.83 168.91 209.83 174.88 203.3 178.65 203.3 172.68 209.83 168.91" style="fill:#fafafa"></polygon><polygon points="315.05 375.15 351.79 354.11 351.79 351.74 348.74 350 312.06 371.19 312.06 373.47 315.05 375.15" style="fill:#263238"></polygon><polygon points="312.06 371.19 315.05 372.96 351.79 351.74 348.74 350 312.06 371.19" style="fill:#455a64"></polygon><polygon points="351.79 351.74 315.05 372.96 315.05 375.15 351.79 354.11 351.79 351.74"></polygon><polygon points="313.03 366.88 313.03 371.15 315 372.29 318.95 370.02 318.95 365.74 316.98 364.61 313.03 366.88" style="fill:#263238"></polygon><polygon points="315 372.29 315 367.95 313.03 366.88 313.03 371.15 315 372.29"></polygon><g id="freepik--percentage-box--inject-3"><path d="M309.23,355.55l8.68-5a.75.75,0,0,1,.74-.07l2.92,1.69a.73.73,0,0,1,.3.68v10a2.3,2.3,0,0,1-1,1.81l-8.68,5a.73.73,0,0,1-.73.07L308.49,368a.72.72,0,0,1-.3-.67v-10A2.27,2.27,0,0,1,309.23,355.55Z" style="fill:#37474f"></path><path d="M308.19,357.35v10a.72.72,0,0,0,.3.67l2.91,1.68a.74.74,0,0,1-.29-.66V359a2.08,2.08,0,0,1,.31-1l-2.93-1.7A2.1,2.1,0,0,0,308.19,357.35Z" style="fill:#263238"></path><path d="M320.83,364.67l-8.68,5c-.57.33-1,.06-1-.6V359a2.31,2.31,0,0,1,1-1.8l8.68-5c.58-.34,1-.07,1,.6v10A2.3,2.3,0,0,1,320.83,364.67Z" style="fill:#455a64"></path><path d="M312,359a1.48,1.48,0,0,1,.61-1.07l8.46-4.83v9.73a1.46,1.46,0,0,1-.62,1.07L312,368.77Z" style="fill:#f0f0f0"></path></g><polygon points="328.9 357.72 328.9 361.99 330.87 363.13 334.81 360.86 334.81 356.58 332.84 355.44 328.9 357.72" style="fill:#263238"></polygon><polygon points="330.87 363.13 330.87 358.79 328.9 357.72 328.9 361.99 330.87 363.13"></polygon><g id="freepik--percentage-box--inject-3"><path d="M325.1,346.38l8.68-5a.75.75,0,0,1,.74-.07l2.91,1.69a.71.71,0,0,1,.31.68v10a2.27,2.27,0,0,1-1,1.8l-8.68,5a.73.73,0,0,1-.73.07l-2.93-1.69a.73.73,0,0,1-.3-.68v-10A2.3,2.3,0,0,1,325.1,346.38Z" style="fill:#37474f"></path><path d="M324.06,348.18v10a.73.73,0,0,0,.3.68l2.9,1.68a.78.78,0,0,1-.28-.66v-10a2.15,2.15,0,0,1,.31-1l-2.93-1.69A2.1,2.1,0,0,0,324.06,348.18Z" style="fill:#263238"></path><path d="M336.7,355.5l-8.68,5c-.57.33-1,.06-1-.6v-10a2.31,2.31,0,0,1,1-1.8l8.68-5c.58-.33,1-.06,1,.61v10A2.27,2.27,0,0,1,336.7,355.5Z" style="fill:#455a64"></path><path d="M327.82,349.88a1.49,1.49,0,0,1,.62-1.07l8.45-4.83v9.72a1.49,1.49,0,0,1-.62,1.07l-8.45,4.84Z" style="fill:#f0f0f0"></path></g><polygon points="344.77 348.56 344.77 352.83 346.74 353.97 350.68 351.69 350.68 347.42 348.71 346.28 344.77 348.56" style="fill:#263238"></polygon><polygon points="346.74 353.97 346.74 349.63 344.77 348.56 344.77 352.83 346.74 353.97"></polygon><g id="freepik--percentage-box--inject-3"><path d="M341,337.22l8.69-5a.71.71,0,0,1,.73-.07l2.92,1.69a.73.73,0,0,1,.31.67v10a2.27,2.27,0,0,1-1,1.8l-8.68,5a.75.75,0,0,1-.74.07l-2.92-1.69a.73.73,0,0,1-.31-.68V339A2.31,2.31,0,0,1,341,337.22Z" style="fill:#37474f"></path><path d="M339.92,339v10a.73.73,0,0,0,.31.68l2.9,1.68a.78.78,0,0,1-.28-.66v-10a2.12,2.12,0,0,1,.31-1L340.23,338A2.08,2.08,0,0,0,339.92,339Z" style="fill:#263238"></path><path d="M352.57,346.34l-8.68,5c-.57.33-1,.06-1-.6v-10a2.3,2.3,0,0,1,1-1.8l8.68-5c.58-.33,1-.06,1,.6v10A2.27,2.27,0,0,1,352.57,346.34Z" style="fill:#455a64"></path><path d="M343.69,340.72a1.49,1.49,0,0,1,.62-1.07l8.45-4.84v9.73a1.49,1.49,0,0,1-.62,1.07l-8.45,4.83Z" style="fill:#f0f0f0"></path></g></g></g></svg>
