<?xml version="1.0" encoding="UTF-8"?>
<svg version="1.1" xmlns="http://www.w3.org/2000/svg" width="512" height="512">
<path d="M0 0 C0.93585938 0.4125 1.87171875 0.825 2.8359375 1.25 C14.06627992 6.78652736 22.48130308 15.43154041 29 26 C29.42152344 26.67417969 29.84304688 27.34835938 30.27734375 28.04296875 C33.9496114 34.17212722 35.12661917 39.98749944 33.5390625 47.05078125 C31.55943052 53.04790166 28.29888418 57.85762119 22.9609375 61.32421875 C16.5129993 64.57097208 10.27505327 65.37029034 3.35546875 63.15234375 C-2.04949745 60.76184146 -5.29429339 58.01655305 -8.5625 53.1328125 C-10.13446088 50.80050097 -11.8537065 48.69428495 -13.6875 46.5625 C-14.24824219 45.90378906 -14.80898438 45.24507812 -15.38671875 44.56640625 C-18.77368475 41.27785088 -23.23576019 41.54844207 -27.6953125 41.58984375 C-37.62277637 42.82197579 -47.15001202 48.00082219 -55 54 C-54.67386719 54.71542969 -54.34773438 55.43085937 -54.01171875 56.16796875 C-42.51539406 82.38230203 -43.89236232 111.79663215 -53.86816406 138.30712891 C-61.95107391 158.54868945 -73.65341349 175.40418185 -88.625 191.125 C-103.35806601 206.60053718 -111.55939855 221.82058603 -116.296875 242.67578125 C-128.50427742 296.12463507 -158.42072952 344.3841659 -203 377 C-204.12783846 377.84604192 -205.25544181 378.69239736 -206.3828125 379.5390625 C-237.07919148 402.30883718 -276.2568507 419.9552405 -315.0234375 420.203125 C-315.76263931 420.21022995 -316.50184113 420.2173349 -317.26344299 420.22465515 C-356.51386588 420.51636787 -392.08214553 412.03945871 -421.125 383.96875 C-446.53914148 358.34798948 -457.94888437 323.41016402 -458.3125 287.875 C-458.07736426 236.64362596 -435.61092081 187.15978708 -401 150 C-399.80759878 148.62924817 -398.61986117 147.25442137 -397.4375 145.875 C-391.41870001 139.00227415 -384.96564382 132.98618555 -377.83203125 127.27734375 C-376.01600776 125.81701038 -374.2195062 124.33185906 -372.44921875 122.81640625 C-345.77601044 100.1097752 -312.7185252 86.08681283 -278.70703125 78.8671875 C-256.93512861 74.16603278 -241.63219722 64.91442296 -226.04516602 49.00170898 C-201.56391559 24.20203151 -167.50027556 9.05887877 -132.625 8.6875 C-117.2423826 8.75480496 -104.17444179 12.27537659 -90 18 C-89.01 18.33 -88.02 18.66 -87 19 C-84.46010986 17.58126847 -82.09825323 16.11407995 -79.6875 14.5 C-56.85622473 -0.2129729 -26.66780653 -12.01929309 0 0 Z " fill="#ABCD36" transform="translate(468,48)"/>
<path d="M0 0 C-2 1 -2 1 -3.8046875 0.4765625 C-4.48789062 0.19554688 -5.17109375 -0.08546875 -5.875 -0.375 C-21.87527639 -6.88461815 -40.21309486 -1.73436506 -55.5 4.625 C-82.33285634 16.29896374 -104.80151883 33.5619195 -125.24829102 54.27514648 C-130.53792069 59.60719088 -135.95438239 64.52522405 -142 69 C-143.0209375 69.77214844 -144.041875 70.54429687 -145.09375 71.33984375 C-154.85556873 78.42369139 -165.59629163 83.13090332 -176.5546875 88.06640625 C-206.46629085 101.5718951 -233.3634603 120.48049085 -257.46484375 142.68359375 C-259.52643053 144.56729323 -261.61720066 146.38636708 -263.75 148.1875 C-273.1520972 156.3632367 -281.99120118 165.46320667 -290 175 C-290.88381475 176.01051789 -291.76940641 177.01948296 -292.65625 178.02734375 C-319.67437039 208.87602729 -342.769668 245.33156921 -354 285 C-354.35835938 286.20527344 -354.71671875 287.41054688 -355.0859375 288.65234375 C-359.52598673 306.43290787 -359.25420061 327.09551434 -352 344 C-351.33333333 345.66666667 -350.66666667 347.33333333 -350 349 C-372.39760715 327.91989915 -381.06821368 294.87697544 -382.22265625 265.0703125 C-383.52224894 212.02879683 -360.82170522 160.45973777 -325 122 C-323.80759878 120.62924817 -322.61986117 119.25442137 -321.4375 117.875 C-315.41870001 111.00227415 -308.96564382 104.98618555 -301.83203125 99.27734375 C-300.01600776 97.81701038 -298.2195062 96.33185906 -296.44921875 94.81640625 C-269.77601044 72.1097752 -236.7185252 58.08681283 -202.70703125 50.8671875 C-180.93512861 46.16603278 -165.63219722 36.91442296 -150.04516602 21.00170898 C-111.95323687 -17.58568099 -45.49102203 -35.96633929 0 0 Z " fill="#9AB930" transform="translate(392,76)"/>
<path d="M0 0 C15.02232907 14.04376186 20.06648904 34.39542207 21.18359375 54.265625 C21.98269117 92.43427843 4.10517119 126.10719918 -21.625 153.125 C-36.35806601 168.60053718 -44.55939855 183.82058603 -49.296875 204.67578125 C-61.50427742 258.12463507 -91.42072952 306.3841659 -136 339 C-137.12783846 339.84604192 -138.25544181 340.69239736 -139.3828125 341.5390625 C-170.07919148 364.30883718 -209.2568507 381.9552405 -248.0234375 382.203125 C-248.76263931 382.21022995 -249.50184113 382.2173349 -250.26344299 382.22465515 C-284.96110527 382.48253134 -317.38143228 376.71289205 -345 354 C-346.88671875 351.703125 -346.88671875 351.703125 -348 350 C-345.6174145 350.92229116 -343.2632756 351.87787215 -340.9453125 352.953125 C-339.82769531 353.47132813 -339.82769531 353.47132813 -338.6875 354 C-337.99011719 354.33 -337.29273438 354.66 -336.57421875 355 C-309.45688659 365.53419883 -277.39758017 354.27138514 -252.1875 343.375 C-235.14902337 335.74074127 -219.05678194 326.00467348 -204 315 C-203.3395166 314.52208008 -202.6790332 314.04416016 -201.99853516 313.55175781 C-192.26016248 306.4849741 -182.99767929 298.98506098 -174 291 C-173.07574219 290.18789063 -172.15148437 289.37578125 -171.19921875 288.5390625 C-164.36175372 282.40758749 -157.83317121 275.96501179 -151.3125 269.5 C-150.43327881 268.63383057 -149.55405762 267.76766113 -148.64819336 266.87524414 C-143.4101301 261.64407371 -138.59441557 256.22955491 -133.9675293 250.45117188 C-132.40750856 248.50767911 -130.82450707 246.61396847 -129.171875 244.75 C-121.83224368 236.41596701 -115.59940106 227.47382051 -109.47216797 218.22167969 C-108.19131466 216.28871698 -106.89702868 214.36583482 -105.59765625 212.4453125 C-96.55613687 198.80945867 -88.76223468 184.34999223 -82.1875 169.375 C-73.85018117 150.41154274 -62.57432664 136.12790975 -47.796875 121.7890625 C-43.97503292 118.04161506 -40.45611869 114.0845039 -37 110 C-36.50661133 109.41831055 -36.01322266 108.83662109 -35.50488281 108.23730469 C-20.5537929 90.40037812 -7.35254639 70.21982768 0 48 C0.391875 46.87851563 0.78375 45.75703125 1.1875 44.6015625 C3.55840865 37.0113619 4.37830731 30.04707082 4.4375 22.125 C4.4475708 21.25746094 4.4576416 20.38992187 4.46801758 19.49609375 C4.38713976 13.50310494 3.15768105 8.56788703 1 3 C0.67 2.01 0.34 1.02 0 0 Z " fill="#9AB931" transform="translate(401,86)"/>
</svg>
