<?xml version="1.0" encoding="UTF-8"?>
<svg version="1.1" xmlns="http://www.w3.org/2000/svg" width="512" height="512">
<path d="M0 0 C-3.84247924 26.8973547 -27.91765173 49.01455131 -48 65 C-49.3020829 66.05568823 -50.60277972 67.11308755 -51.90234375 68.171875 C-52.58490234 68.72697754 -53.26746094 69.28208008 -53.97070312 69.85400391 C-55.36041487 70.98906492 -56.74588132 72.12934444 -58.12695312 73.27490234 C-61.12165541 75.74473757 -64.03806257 78.02429908 -67.31640625 80.1171875 C-70.10918972 81.927253 -72.11389119 83.25305178 -74 86 C-74.09812899 89.7467432 -73.49825685 92.94524093 -72.67578125 96.59765625 C-71.46216871 102.70780955 -73.32638767 107.42515144 -75.6875 113 C-78.04325705 119.03886958 -76.63421209 124.50732415 -74.375 130.375 C-72.43730494 135.66387783 -73.15123667 140.52905564 -74 146 C-73.21238281 145.855625 -72.42476563 145.71125 -71.61328125 145.5625 C-51.89583623 142.20236736 -34.05775831 144.26525235 -17 155 C-9.53966277 160.34194285 -4.36269629 167.73262901 -2.4375 176.75 C-1.86225513 181.34542211 -1.91857916 184.75390148 -4 189 C-8.18226022 193.69140494 -13.81009317 197.05735983 -18.9609375 200.58203125 C-20.90081343 201.84187016 -20.90081343 201.84187016 -22 203 C-22.02620745 204.528643 -21.98804754 206.05850258 -21.921875 207.5859375 C-21.89609375 208.51664063 -21.8703125 209.44734375 -21.84375 210.40625 C-21.78147889 212.37816863 -21.70346471 214.34965578 -21.609375 216.3203125 C-21.55099241 218.96212476 -21.55169728 221.39521657 -22 224 C-25.5873718 227.44891184 -29.16979132 227.34986134 -33.9140625 227.3984375 C-36.18268407 227.85024611 -36.18268407 227.85024611 -37.7421875 229.9765625 C-39.42852566 234.03005857 -39.4505766 237.65074082 -39.5 242 C-39.61225855 251.87875203 -39.61225855 251.87875203 -43 256 C-45.15625 257.66015625 -45.15625 257.66015625 -47.5 259.0625 C-50.76234745 261.02534572 -53.01039656 262.71119178 -55 266 C-55.37613816 270.43843035 -55.05956627 274.06812991 -54 278.375 C-52.61488967 284.13466743 -51.89982058 290.0432678 -54 295.6875 C-55.7618378 297.72462496 -57.41223163 299.14399659 -59.5 300.8125 C-64.24874236 304.790005 -67.26595955 309.60749585 -70.63500977 314.73144531 C-74.27749353 320.17601322 -78.32581185 324.9316039 -82.94042969 329.57470703 C-87.71090373 334.44449811 -90.86839547 339.4483025 -92.5 346.125 C-93.68772134 350.2445177 -94.67387312 353.11152139 -98 356 C-102.43584064 358.11528014 -106.80960111 359.06671377 -111.6875 359.4375 C-116.16437313 359.87899095 -118.55866965 360.92476862 -122 364 C-124.15327685 366.78853478 -126.18763461 369.62519807 -128.16796875 372.5390625 C-130.1009317 375.1355799 -131.62191849 376.79493561 -134.92944336 377.28710938 C-135.64237549 377.30580078 -136.35530762 377.32449219 -137.08984375 377.34375 C-138.26643555 377.38822266 -138.26643555 377.38822266 -139.46679688 377.43359375 C-140.68979492 377.46646484 -140.68979492 377.46646484 -141.9375 377.5 C-143.55103349 377.54357438 -145.16437001 377.59538307 -146.77734375 377.65625 C-147.49140381 377.67494141 -148.20546387 377.69363281 -148.94116211 377.71289062 C-151.36629947 378.05108125 -152.93686283 378.68141095 -155 380 C-157.72522213 384.59881235 -159.3713316 389.0864455 -160.9375 394.1875 C-162.79921156 399.97705791 -164.57636919 402.85574585 -169.77050781 406.10888672 C-172.68513618 407.2738444 -175.0364635 407.18878547 -178.171875 407.1328125 C-193.36912382 407.0985436 -204.14453065 407.84233179 -217 416 C-223.80097766 419.20132788 -229.38022285 420.13233327 -236.8359375 420.17578125 C-238.39194008 420.19901491 -239.94792965 420.22313358 -241.50390625 420.24804688 C-243.92342406 420.28280587 -246.34247263 420.31231704 -248.76220703 420.32592773 C-258.56551592 420.39166067 -267.29601267 421.14645479 -276.68994141 424.05151367 C-281.51127628 425.43305121 -286.34551667 426.0551646 -291.34765625 426.28125 C-292.11110352 426.31831055 -292.87455078 426.35537109 -293.66113281 426.39355469 C-294.45358398 426.42868164 -295.24603516 426.46380859 -296.0625 426.5 C-303.09305192 426.81391392 -303.09305192 426.81391392 -310.10546875 427.390625 C-321.59690584 428.52375706 -321.59690584 428.52375706 -327 425 C-331.76042857 419.98902256 -332.25271721 415.96426655 -332.19140625 409.31640625 C-331.82519501 402.97123591 -330.62603761 396.74535222 -329.5 390.5 C-329.02749978 387.82355579 -328.56044036 385.14621928 -328.09375 382.46875 C-327.88427734 381.29763672 -327.67480469 380.12652344 -327.45898438 378.91992188 C-326.92235805 375.99869435 -326.92235805 375.99869435 -327 373 C-327.80050781 373.23783203 -327.80050781 373.23783203 -328.6171875 373.48046875 C-338.58104017 375.65291532 -348.7725373 373.61256903 -358.625 371.875 C-370.52976062 369.82251449 -381.12030604 370.18554523 -393 372 C-409.26218406 374.28707586 -422.49784599 372.938065 -436.9765625 364.953125 C-441.89357715 360.20697186 -442.54096296 353.01282261 -443.1875 346.5 C-443.26935547 345.79230469 -443.35121094 345.08460938 -443.43554688 344.35546875 C-444.82949739 331.54049515 -444.82949739 331.54049515 -442.25 326.75 C-440 324 -440 324 -437.75 321.9375 C-435.73091409 320.09181747 -435.73091409 320.09181747 -435.75 317.25 C-435.87375 316.13625 -435.87375 316.13625 -436 315 C-438.97 313.515 -438.97 313.515 -442 312 C-442.375 309.8125 -442.375 309.8125 -442 307 C-440.16038352 305.00977164 -438.20813852 303.61010101 -436 302 C-436.51182675 299.33850091 -437.22440084 297.62024473 -438.625 295.25 C-440.39025492 291.07757927 -440.23825109 288.30357197 -439 284 C-436.85287688 279.61629029 -434.41546673 277.59376367 -430.4375 275 C-424.9865901 271.03166657 -424.76030921 266.62720757 -423.69921875 260.25390625 C-422.89091821 256.49237356 -422.03774522 254.53674988 -419.0859375 252.109375 C-414.0960139 249.45555795 -407.70775422 247 -402 247 C-401.13775778 243.98215223 -400.81469839 242.46325404 -402 239.5 C-403.22696212 236.43259469 -403.20995802 235.06522697 -402 232 C-399.40644703 230.14746217 -396.7921072 228.90852717 -393.875 227.625 C-389.83230995 223.93384822 -389.6104425 220.17886954 -388.73828125 214.8984375 C-388 212 -388 212 -385 210 C-383.45233858 209.4172881 -381.88807778 208.87735813 -380.3125 208.375 C-379.50425781 208.11460937 -378.69601562 207.85421875 -377.86328125 207.5859375 C-377.24839844 207.39257812 -376.63351562 207.19921875 -376 207 C-376.268125 205.783125 -376.53625 204.56625 -376.8125 203.3125 C-377.18943537 199.97308823 -377.14882192 199.24252462 -375.3125 196.25 C-371.73292867 193.21956745 -367.07874395 192.22786206 -362.64453125 190.9921875 C-359.69849844 190.18060213 -359.69849844 190.18060213 -358 187 C-358.27942455 185.32345271 -358.62331656 183.65740715 -359 182 C-359.48629964 177.46120336 -359.59587781 175.74082106 -356.6875 172.125 C-352.71610869 168.98483013 -349.6715051 168.86535257 -344.75 168.625 C-335.04231943 167.89396758 -329.92405414 164.4379251 -323 158 C-321.54651183 156.70288357 -320.08831331 155.41102218 -318.625 154.125 C-317.97789062 153.55007812 -317.33078125 152.97515625 -316.6640625 152.3828125 C-314.33080706 150.44391009 -313.17513815 150.01534229 -310.1015625 149.74609375 C-303.59878442 149.45939064 -303.59878442 149.45939064 -298.359375 146.1953125 C-297.34040852 144.10378824 -297.34040852 144.10378824 -296.7109375 141.97265625 C-295.82707367 139.52017693 -295.1052265 138.55661874 -293 137 C-289.51292407 135.91189523 -286.00013562 135.09557336 -282.4453125 134.2578125 C-277.30535174 132.38131889 -274.58994149 128.87701938 -271.375 124.625 C-262.16579355 113.84976098 -246.76386588 108.94907993 -233.62109375 104.95703125 C-228.90264262 103.23419887 -225.85990552 101.45655092 -223.4375 97 C-221.70085649 93.82717034 -220.14585062 91.86020461 -217 90 C-211.00347811 88.90524025 -205.59790415 89.94764701 -199.9375 92 C-193.28664635 94.3795847 -187.97695334 95.47191709 -181.203125 92.96484375 C-175.49425826 90.25388719 -170.26272399 86.9072614 -165 83.4375 C-146.88136816 71.55007837 -127.06859462 70.03937476 -105.875 69.75 C-104.51544189 69.71773315 -104.51544189 69.71773315 -103.12841797 69.68481445 C-98.11506792 69.66077722 -94.36178506 70.16033135 -89.66015625 71.9375 C-84.66973822 73.42223785 -82.07710764 72.61764341 -77.44140625 70.328125 C-75.11978069 68.9995877 -72.84037658 67.64737176 -70.5625 66.25 C-69.42490234 65.59644531 -68.28730469 64.94289063 -67.11523438 64.26953125 C-56.51787792 58.06708532 -46.43386137 51.03718188 -37.8125 42.25 C-37.22573486 41.65493652 -36.63896973 41.05987305 -36.03442383 40.44677734 C-27.76196203 31.85487598 -21.69713744 22.0355369 -16.26831055 11.46728516 C-12.65229946 4.67065848 -8.08346365 -0.21272273 0 0 Z " fill="#7BB13A" transform="translate(478,42)"/>
<path d="M0 0 C4.38592657 2.72902098 4.38592657 2.72902098 5.8125 5.75 C6.375 9.1875 6.375 9.1875 5.8125 12.75 C3.77634802 14.83463179 2.1961805 16.20222556 -0.1875 17.75 C-4.76653986 20.65330331 -4.76653986 20.65330331 -8.1875 24.75 C-8.50496119 26.97209199 -8.50496119 26.97209199 -8.49609375 29.42578125 C-8.52123047 30.33650391 -8.54636719 31.24722656 -8.57226562 32.18554688 C-8.6072059 34.09173281 -8.63850191 35.99798929 -8.66601562 37.90429688 C-8.89404202 45.79623475 -10.8100225 50.81457313 -16.1875 56.75 C-18.12166887 58.32766457 -20.10430012 59.84730147 -22.125 61.3125 C-32.53436832 68.6791947 -32.53436832 68.6791947 -38.1875 79.75 C-39.03488981 85.27441375 -39.3780048 90.83660495 -39.73046875 96.41015625 C-40.3779375 105.46087357 -41.96842917 112.88359094 -48.1875 119.75 C-51.34077718 122.35206163 -54.52829586 124.74442308 -57.87109375 127.09765625 C-65.29571866 132.7321981 -69.20064396 139.02732308 -72.1875 147.75 C-75.63326185 157.81284435 -80.29832184 164.74347065 -89.8125 169.8125 C-90.41078613 170.13992188 -91.00907227 170.46734375 -91.62548828 170.8046875 C-94.62365154 172.43646955 -97.65667637 173.98719472 -100.703125 175.52734375 C-111.60614513 181.11831105 -117.64843923 187.81117369 -124.54760742 197.66601562 C-132.51693247 208.98898968 -140.61950099 213.96833384 -154.1875 216.6875 C-166.25396235 219.15704177 -173.20052116 224.45703228 -181.67578125 233.1953125 C-190.99172965 242.67063171 -202.2119036 245.11443915 -215.31054688 245.31054688 C-216.56931641 245.31119141 -217.82808594 245.31183594 -219.125 245.3125 C-235.04708041 245.36974425 -248.10481997 248.3086744 -262.8125 254.375 C-265.26136112 255.371341 -267.71267834 256.36142688 -270.1640625 257.3515625 C-271.75855225 258.00632568 -271.75855225 258.00632568 -273.38525391 258.67431641 C-277.44885266 260.23418887 -280.83773011 260.90434627 -285.1875 260.9375 C-286.033125 260.95167969 -286.87875 260.96585937 -287.75 260.98046875 C-290.37923314 260.73187139 -291.96822806 260.16181363 -294.1875 258.75 C-295.75140913 255.62218174 -295.46328884 253.22354303 -295.1875 249.75 C-294.13026512 246.87636422 -292.72235229 244.24293623 -291.25 241.5625 C-290.50822685 240.1750383 -289.76982458 238.78576804 -289.03515625 237.39453125 C-288.70523682 236.78971924 -288.37531738 236.18490723 -288.03540039 235.56176758 C-286.10568709 231.43841533 -286.05469601 227.6364059 -286.01171875 223.11328125 C-285.98787109 221.81326172 -285.96402344 220.51324219 -285.93945312 219.17382812 C-285.90453091 217.12465116 -285.87508936 215.076048 -285.86157227 213.02661133 C-285.78654974 203.49182485 -285.31278117 195.90045044 -279.22265625 188.296875 C-278.57167969 187.70390625 -277.92070312 187.1109375 -277.25 186.5 C-276.55648437 185.84773437 -275.86296875 185.19546875 -275.1484375 184.5234375 C-274.50132812 183.93820312 -273.85421875 183.35296875 -273.1875 182.75 C-267.50115668 177.44274624 -265.16033419 172.7307863 -263.875 165.0625 C-261.18642518 152.02905356 -253.47501922 142.75337834 -245.1875 132.75 C-244.68347656 132.13624512 -244.17945313 131.52249023 -243.66015625 130.89013672 C-235.09983481 120.502851 -226.24728374 111.88797249 -215.05908203 104.33691406 C-207.81798782 99.36006293 -204.8318052 93.35857081 -201.27539062 85.6328125 C-198.82280627 80.50512134 -196.23806629 76.1599256 -190.86328125 73.67578125 C-190.08339844 73.47339844 -189.30351562 73.27101563 -188.5 73.0625 C-187.63246094 72.83046875 -186.76492188 72.5984375 -185.87109375 72.359375 C-183.27666387 71.77024682 -180.68113623 71.28054592 -178.0625 70.8125 C-166.5631102 68.58100652 -160.5131141 62.02148958 -153.8125 52.8125 C-148.79248871 45.98494199 -143.42721343 39.50241646 -135.1875 36.75 C-132.23999023 36.51049805 -132.23999023 36.51049805 -128.99609375 36.51171875 C-127.20655273 36.48754883 -127.20655273 36.48754883 -125.38085938 36.46289062 C-122.90434799 36.44614874 -120.4277311 36.44068253 -117.95117188 36.44726562 C-105.27605729 36.23658007 -95.98226537 31.5551235 -85.3125 25.125 C-82.27836998 23.32013166 -79.23668265 21.52929894 -76.1875 19.75 C-75.25164062 19.19441406 -74.31578125 18.63882813 -73.3515625 18.06640625 C-69.5331024 16.47773828 -65.78524632 15.7536297 -61.73535156 14.96142578 C-49.30163859 12.51481569 -38.52159827 8.71889461 -27.34472656 2.71313477 C-18.82136533 -1.66374505 -9.27237388 -3.52041655 0 0 Z " fill="#F8FBAF" transform="translate(450.1875,200.25)"/>
<path d="M0 0 C3.13669394 0.85651421 6.13776103 1.87098953 9.17578125 3.02734375 C12.11213914 4.03862053 14.929441 4.56912392 18 5 C17.071875 5.061875 17.071875 5.061875 16.125 5.125 C15.42375 5.41375 14.7225 5.7025 14 6 C12.85771342 8.75763432 12.85771342 8.75763432 12 12 C11.02995879 14.01470098 10.03755118 16.01922047 9 18 C9.99 17.67 10.98 17.34 12 17 C13.748614 16.87470123 15.49899332 16.7730939 17.25 16.6875 C20.9995468 16.39109314 23.62907338 15.96007978 26.8125 13.9375 C30.39489659 11.75996482 31.89707148 11.40165626 36 12 C37.134375 12.515625 38.26875 13.03125 39.4375 13.5625 C43.55051958 15.22213948 45.73714636 15.00302438 50 14 C50.66 13.67 51.32 13.34 52 13 C53.99960012 12.960008 56.00047242 12.95653201 58 13 C58.25 15.3125 58.25 15.3125 58 18 C54.8639122 20.97467152 51.2922093 22.12317762 47.25 23.5 C43.53401468 24.77685839 39.83521281 26.05865044 36.17578125 27.48828125 C31.51831634 29.24566649 26.76313721 30.48381807 21.9375 31.6875 C21.07833984 31.91244141 20.21917969 32.13738281 19.33398438 32.36914062 C14.49162347 33.5862046 10.0270517 34.54433044 5 34 C3.30834961 32.47924805 3.30834961 32.47924805 2 31 C-0.05807487 33.47130861 -2.06358178 35.98069302 -4.0625 38.5 C-4.93358398 39.54414063 -4.93358398 39.54414063 -5.82226562 40.609375 C-8.98186807 44.54142813 -8.98186807 44.54142813 -10.14794922 49.31640625 C-9.8877685 51.76191271 -9.8877685 51.76191271 -9 55 C-11.54013374 57.33692304 -12.73313477 57.98460393 -16.25 58.1875 C-20.98424564 59.21325322 -22.42236992 61.12382156 -25.61328125 64.609375 C-28.95049875 67.95205439 -32.68508292 70.66448351 -36.52001953 73.40991211 C-39.96839651 75.94773929 -41.92683622 78.28947263 -44 82 C-45.98075027 83.36176581 -47.98079663 84.69593116 -50 86 C-52.61740628 88.53015941 -52.96697388 89.70276493 -53.375 93.375 C-52.88560169 98.10585037 -51.63847883 101.36152117 -48.25 104.75 C-45.28728206 106.39595441 -42.27649208 107.18087698 -39 108 C-42.25240791 112.29782474 -44.62978181 113.31029731 -49.9375 114.3125 C-54.37409571 115.14753525 -54.37409571 115.14753525 -57.69140625 117.9609375 C-58.12324219 118.69570312 -58.55507812 119.43046875 -59 120.1875 C-60.3125 122.34375 -60.3125 122.34375 -62 124 C-65.13602901 124.38329243 -67.87141568 124.20441018 -71 123.79296875 C-74.45855407 124.03164501 -76.13046032 125.09895394 -78.65625 127.44262695 C-80.88475956 130.02541446 -82.13448196 132.89411583 -83.5 136 C-85.95182272 141.57669481 -88.11126363 144.53057419 -93 148 C-93.66 148 -94.32 148 -95 148 C-95 148.66 -95 149.32 -95 150 C-93.02 149.67 -91.04 149.34 -89 149 C-90.47542093 152.88974609 -92.34711107 154.12310127 -96 156 C-99.29700096 156.83534786 -102.59699213 157.44384017 -105.94140625 158.05859375 C-109.41328805 159.12720616 -110.82496289 160.11526769 -113 163 C-113.70898731 165.37052778 -113.70898731 165.37052778 -114.0625 167.875 C-114.9565046 171.27320532 -115.407816 172.61231816 -118.38671875 174.5625 C-120.32417703 175.45061185 -122.26167825 176.33863003 -124.19921875 177.2265625 C-128.57076576 179.99459924 -130.35921651 183.86750629 -132.66015625 188.390625 C-134 191 -134 191 -136 193 C-139.55224456 193.8407419 -143.12316571 194.47110031 -146.71484375 195.12109375 C-149.8571453 195.96178085 -151.17489513 196.36673061 -153 199 C-153 199.66 -153 200.32 -153 201 C-152.030625 201.268125 -151.06125 201.53625 -150.0625 201.8125 C-149.051875 202.204375 -148.04125 202.59625 -147 203 C-146.67 203.99 -146.34 204.98 -146 206 C-148.66345944 208.66345944 -150.41335988 208.42066792 -154.125 208.8125 C-159.85380865 209.62635961 -164.86463477 210.70605144 -169 215 C-169.67154684 217.71658257 -169.67154684 217.71658257 -169 220 C-167.02 220.99 -167.02 220.99 -165 222 C-170.61007806 227.10895998 -177.64093926 230.03804511 -184.36523438 233.40234375 C-192.91193593 237.75642884 -199.82841377 241.69742544 -205.125 249.875 C-207.92743835 253.51472221 -209.11683109 254.83048402 -213.68359375 255.70703125 C-217.18657728 255.68939286 -220.53313841 255.48822091 -224 255 C-222.9790625 254.01 -222.9790625 254.01 -221.9375 253 C-220.95626002 252.00203434 -219.97734592 251.00177957 -219 250 C-218.4225 249.43023437 -217.845 248.86046875 -217.25 248.2734375 C-212.29007645 243.07834516 -210.02667713 237.84790286 -208 231 C-209.43279297 231.79664063 -209.43279297 231.79664063 -210.89453125 232.609375 C-229.81715575 243 -229.81715575 243 -238 243 C-237.35862998 237.7967728 -235.09388615 235.65305338 -231.49609375 232.0625 C-229.65881777 229.52964956 -229.70778081 228.0603319 -230 225 C-231.98 224.01 -233.96 223.02 -236 222 C-236.375 219.8125 -236.375 219.8125 -236 217 C-234.16038352 215.00977164 -232.20813852 213.61010101 -230 212 C-230.51182675 209.33850091 -231.22440084 207.62024473 -232.625 205.25 C-234.39025492 201.07757927 -234.23825109 198.30357197 -233 194 C-230.85287688 189.61629029 -228.41546673 187.59376367 -224.4375 185 C-218.9865901 181.03166657 -218.76030921 176.62720757 -217.69921875 170.25390625 C-216.89091821 166.49237356 -216.03774522 164.53674988 -213.0859375 162.109375 C-208.0960139 159.45555795 -201.70775422 157 -196 157 C-195.13775778 153.98215223 -194.81469839 152.46325404 -196 149.5 C-197.22696212 146.43259469 -197.20995802 145.06522697 -196 142 C-193.40644703 140.14746217 -190.7921072 138.90852717 -187.875 137.625 C-183.83230995 133.93384822 -183.6104425 130.17886954 -182.73828125 124.8984375 C-182 122 -182 122 -179 120 C-177.45233858 119.4172881 -175.88807778 118.87735813 -174.3125 118.375 C-173.10013672 117.98441406 -173.10013672 117.98441406 -171.86328125 117.5859375 C-171.24839844 117.39257812 -170.63351563 117.19921875 -170 117 C-170.4021875 115.1746875 -170.4021875 115.1746875 -170.8125 113.3125 C-171.18943537 109.97308823 -171.14882192 109.24252462 -169.3125 106.25 C-165.73292867 103.21956745 -161.07874395 102.22786206 -156.64453125 100.9921875 C-153.69849844 100.18060213 -153.69849844 100.18060213 -152 97 C-152.27942455 95.32345271 -152.62331656 93.65740715 -153 92 C-153.48629964 87.46120336 -153.59587781 85.74082106 -150.6875 82.125 C-146.71610869 78.98483013 -143.6715051 78.86535257 -138.75 78.625 C-129.04231943 77.89396758 -123.92405414 74.4379251 -117 68 C-115.54651183 66.70288357 -114.08831331 65.41102218 -112.625 64.125 C-111.97789062 63.55007812 -111.33078125 62.97515625 -110.6640625 62.3828125 C-108.33080706 60.44391009 -107.17513815 60.01534229 -104.1015625 59.74609375 C-97.59878442 59.45939064 -97.59878442 59.45939064 -92.359375 56.1953125 C-91.34040852 54.10378824 -91.34040852 54.10378824 -90.7109375 51.97265625 C-89.82707367 49.52017693 -89.1052265 48.55661874 -87 47 C-83.51292407 45.91189523 -80.00013562 45.09557336 -76.4453125 44.2578125 C-71.30535174 42.38131889 -68.58994149 38.87701938 -65.375 34.625 C-56.16579355 23.84976098 -40.76386588 18.94907993 -27.62109375 14.95703125 C-22.90264262 13.23419887 -19.85990552 11.45655092 -17.4375 7 C-13.27722904 -0.60077186 -8.12364821 -0.96783642 0 0 Z " fill="#88B94D" transform="translate(272,132)"/>
<path d="M0 0 C-3.84247924 26.8973547 -27.91765173 49.01455131 -48 65 C-49.3020829 66.05568823 -50.60277972 67.11308755 -51.90234375 68.171875 C-52.58490234 68.72697754 -53.26746094 69.28208008 -53.97070312 69.85400391 C-55.36041487 70.98906492 -56.74588132 72.12934444 -58.12695312 73.27490234 C-61.12165541 75.74473757 -64.03806257 78.02429908 -67.31640625 80.1171875 C-70.10918972 81.927253 -72.11389119 83.25305178 -74 86 C-74.09812899 89.7467432 -73.49825685 92.94524093 -72.67578125 96.59765625 C-71.46216871 102.70780955 -73.32638767 107.42515144 -75.6875 113 C-78.04325705 119.03886958 -76.63421209 124.50732415 -74.375 130.375 C-72.43730494 135.66387783 -73.15123667 140.52905564 -74 146 C-73.21238281 145.855625 -72.42476563 145.71125 -71.61328125 145.5625 C-51.89583623 142.20236736 -34.05775831 144.26525235 -17 155 C-9.53966277 160.34194285 -4.36269629 167.73262901 -2.4375 176.75 C-1.86225513 181.34542211 -1.91857916 184.75390148 -4 189 C-8.18226022 193.69140494 -13.81009317 197.05735983 -18.9609375 200.58203125 C-20.90081343 201.84187016 -20.90081343 201.84187016 -22 203 C-22.02620745 204.528643 -21.98804754 206.05850258 -21.921875 207.5859375 C-21.89609375 208.51664063 -21.8703125 209.44734375 -21.84375 210.40625 C-21.78147889 212.37816863 -21.70346471 214.34965578 -21.609375 216.3203125 C-21.55099241 218.96212476 -21.55169728 221.39521657 -22 224 C-25.5873718 227.44891184 -29.16979132 227.34986134 -33.9140625 227.3984375 C-36.18268407 227.85024611 -36.18268407 227.85024611 -37.7421875 229.9765625 C-39.42852566 234.03005857 -39.4505766 237.65074082 -39.5 242 C-39.61225855 251.87875203 -39.61225855 251.87875203 -43 256 C-45.15625 257.66015625 -45.15625 257.66015625 -47.5 259.0625 C-50.76234745 261.02534572 -53.01039656 262.71119178 -55 266 C-55.37613816 270.43843035 -55.05956627 274.06812991 -54 278.375 C-52.61488967 284.13466743 -51.89982058 290.0432678 -54 295.6875 C-55.7618378 297.72462496 -57.41223163 299.14399659 -59.5 300.8125 C-64.24874236 304.790005 -67.26595955 309.60749585 -70.63500977 314.73144531 C-74.27749353 320.17601322 -78.32581185 324.9316039 -82.94042969 329.57470703 C-87.71090373 334.44449811 -90.86839547 339.4483025 -92.5 346.125 C-93.68772134 350.2445177 -94.67387312 353.11152139 -98 356 C-102.43584064 358.11528014 -106.80960111 359.06671377 -111.6875 359.4375 C-116.16437313 359.87899095 -118.55866965 360.92476862 -122 364 C-124.15327685 366.78853478 -126.18763461 369.62519807 -128.16796875 372.5390625 C-130.1009317 375.1355799 -131.62191849 376.79493561 -134.92944336 377.28710938 C-135.64237549 377.30580078 -136.35530762 377.32449219 -137.08984375 377.34375 C-138.26643555 377.38822266 -138.26643555 377.38822266 -139.46679688 377.43359375 C-140.28212891 377.45550781 -141.09746094 377.47742188 -141.9375 377.5 C-143.55103349 377.54357438 -145.16437001 377.59538307 -146.77734375 377.65625 C-147.84843384 377.68428711 -147.84843384 377.68428711 -148.94116211 377.71289062 C-151.36629947 378.05108125 -152.93686283 378.68141095 -155 380 C-157.72522213 384.59881235 -159.3713316 389.0864455 -160.9375 394.1875 C-162.79921156 399.97705791 -164.57636919 402.85574585 -169.77050781 406.10888672 C-172.68513618 407.2738444 -175.0364635 407.18878547 -178.171875 407.1328125 C-193.36912382 407.0985436 -204.14453065 407.84233179 -217 416 C-223.80097766 419.20132788 -229.38022285 420.13233327 -236.8359375 420.17578125 C-238.39194008 420.19901491 -239.94792965 420.22313358 -241.50390625 420.24804688 C-243.92342406 420.28280587 -246.34247263 420.31231704 -248.76220703 420.32592773 C-258.56551592 420.39166067 -267.29601267 421.14645479 -276.68994141 424.05151367 C-281.51127628 425.43305121 -286.34551667 426.0551646 -291.34765625 426.28125 C-292.11110352 426.31831055 -292.87455078 426.35537109 -293.66113281 426.39355469 C-294.45358398 426.42868164 -295.24603516 426.46380859 -296.0625 426.5 C-303.09305192 426.81391392 -303.09305192 426.81391392 -310.10546875 427.390625 C-321.59690584 428.52375706 -321.59690584 428.52375706 -327 425 C-329.49634626 422.56766262 -330.74414151 420.90713464 -331.6875 417.5625 C-330.58221318 413.44279457 -327.32974558 411.47182644 -324 409 C-323.34 411.64 -322.68 414.28 -322 417 C-311.58629513 419.60342622 -303.74728552 416.88612944 -294 413 C-291.35710418 411.95490639 -288.71242333 410.91506426 -286.0637207 409.88476562 C-284.2795381 409.18939514 -282.49912751 408.48423652 -280.72338867 407.76757812 C-268.36548582 402.92626458 -256.42538093 402.66269151 -243.26953125 402.609375 C-229.54851731 402.35709895 -219.04332032 399.58680576 -209 390 C-207.53762611 388.46216554 -206.07927628 386.92049433 -204.625 385.375 C-196.58809683 377.22569259 -187.56912567 374.71008051 -176.5546875 372.76171875 C-163.71704355 370.01079505 -156.8617589 361.74064185 -149.90234375 351.32641602 C-143.47556941 341.90837192 -136.07205519 336.4703771 -125.9375 331.375 C-113.05942616 325.25332571 -113.05942616 325.25332571 -104.375 314.4375 C-103.97539062 313.58027344 -103.57578125 312.72304688 -103.1640625 311.83984375 C-102.350458 309.8549764 -101.59988106 307.84362789 -100.8984375 305.81640625 C-96.9734659 294.48204948 -90.74725324 287.90796109 -81.25 280.9375 C-73.08284173 274.86786687 -70.23645525 269.87465864 -68.75 259.8125 C-68.18896136 254.76820665 -67.9028362 249.75618295 -67.6875 244.6875 C-67.04021574 235.69631712 -64.58020542 229.98543647 -57.7121582 224.00390625 C-53.95014647 220.88365286 -50.0468016 217.99166429 -46 215.25 C-41.87078697 212.15309023 -39.62474362 208.87423086 -38 204 C-37.8983855 202.43188359 -37.84536159 200.86032554 -37.82421875 199.2890625 C-37.80037109 198.37382812 -37.77652344 197.45859375 -37.75195312 196.515625 C-37.70916354 194.59657676 -37.67781578 192.67723753 -37.65820312 190.7578125 C-37.53014756 186.51708859 -37.43811283 183.74127127 -35.25 180.0390625 C-33.02848573 178.02581519 -30.85037153 176.34403501 -28.3125 174.75 C-25.50680583 173.06416109 -25.50680583 173.06416109 -23 171 C-22.4906255 166.58542099 -22.46438153 164.68440138 -25.25 161.125 C-31.1405812 156.57318726 -38.86463547 157.26706789 -46 158 C-50.34458807 159.41998441 -54.23094464 161.46535615 -58.25 163.625 C-67.28370224 168.16661999 -75.76999163 171.27517253 -85.6875 173.25 C-96.15037086 175.3604964 -103.96298939 178.31868311 -113 184 C-115.46669997 185.45934968 -117.95051093 186.88805842 -120.4375 188.3125 C-121.5821875 188.96863281 -122.726875 189.62476563 -123.90625 190.30078125 C-129.98781623 193.64103543 -135.02753425 195.43577911 -142 195 C-141.21625 193.96875 -140.4325 192.9375 -139.625 191.875 C-136.65382565 187.9134342 -133.75552819 183.90263176 -130.875 179.875 C-130.45557129 179.28960449 -130.03614258 178.70420898 -129.60400391 178.10107422 C-126.99681325 174.44606672 -124.47197114 170.74782722 -122 167 C-126.77128264 165.82178531 -131.48642555 165.67222806 -136.375 165.5625 C-137.2 165.51673828 -138.025 165.47097656 -138.875 165.42382812 C-143.43503511 165.34058939 -146.27063366 165.72891555 -149.8515625 168.67578125 C-152.62910013 171.40846775 -154.86666413 174.36062831 -157 177.625 C-162.8265434 185.78216076 -162.8265434 185.78216076 -168 187 C-172.35670345 187.2914696 -176.64203157 187.2359201 -181 187 C-180.69078116 185.54096742 -180.37751201 184.08279278 -180.0625 182.625 C-179.88847656 181.81289062 -179.71445312 181.00078125 -179.53515625 180.1640625 C-179 178 -179 178 -178 176 C-175.93359375 175.3671875 -175.93359375 175.3671875 -173.4375 174.875 C-172.61121094 174.70742187 -171.78492188 174.53984375 -170.93359375 174.3671875 C-170.29550781 174.24601563 -169.65742188 174.12484375 -169 174 C-168.67 172.35 -168.34 170.7 -168 169 C-169.65 167.68 -171.3 166.36 -173 165 C-171.17438386 151.24702509 -162.26589823 141.1577042 -152.0546875 132.50390625 C-147.32425161 128.88840961 -144.01605446 126.65869209 -138 126 C-137.67 125.01 -137.34 124.02 -137 123 C-134.8203125 121.61328125 -134.8203125 121.61328125 -132.125 120.3125 C-131.24070312 119.87550781 -130.35640625 119.43851562 -129.4453125 118.98828125 C-127 118 -127 118 -124 118 C-123.72414063 117.41734375 -123.44828125 116.8346875 -123.1640625 116.234375 C-118.52830378 107.33620726 -111.40062884 103.79333337 -102.64453125 99.76171875 C-99.80635734 98.45184742 -97.47554963 96.92017572 -95 95 C-94.34 95 -93.68 95 -93 95 C-92.8453125 93.2365625 -92.8453125 93.2365625 -92.6875 91.4375 C-92.16943587 87.23377966 -90.75567782 83.86249121 -89 80 C-88.25435009 77.68121064 -87.62493206 75.35551314 -87 73 C-86.02353516 72.89171875 -86.02353516 72.89171875 -85.02734375 72.78125 C-80.80507917 71.69163333 -77.33624075 69.64827057 -73.5625 67.5 C-72.37140625 66.82723022 -72.37140625 66.82723022 -71.15625 66.14086914 C-59.8388123 59.69079254 -49.39471286 53.13907441 -40 44 C-39.24203125 43.30390625 -38.4840625 42.6078125 -37.703125 41.890625 C-28.48599368 33.18202506 -22.01918484 22.66767898 -16.26953125 11.46850586 C-12.65162487 4.67208372 -8.08509095 -0.21276555 0 0 Z " fill="#79AD1B" transform="translate(478,42)"/>
<path d="M0 0 C0.83337891 0.00966797 1.66675781 0.01933594 2.52539062 0.02929688 C6.96271187 0.10997544 11.19743698 0.4394874 15.5625 1.3125 C10.08657119 11.82628332 2.97339812 21.90160188 -5.4375 30.3125 C-6.90469706 30.42121592 -8.37657288 30.46827924 -9.84765625 30.48828125 C-11.20987305 30.52405273 -11.20987305 30.52405273 -12.59960938 30.56054688 C-14.50564494 30.60290322 -16.41195624 30.63447979 -18.31835938 30.65429688 C-27.32455518 30.92644475 -33.40514418 33.58809658 -39.58984375 40.125 C-41.82579066 42.77220987 -43.8785977 45.52549181 -45.9375 48.3125 C-54.76860467 60.24642523 -62.12278519 64.99125237 -76.76538086 67.18652344 C-80.97002235 67.85368247 -84.14767624 68.56059923 -87.4375 71.3125 C-89.05366692 73.80252031 -90.27800692 76.42388103 -91.5 79.125 C-96.53916416 89.95171904 -102.08379972 96.23032324 -111.75 103.125 C-121.42824958 110.11558246 -129.11866335 117.9079198 -136.4375 127.3125 C-137.28201694 128.34655528 -138.12841895 129.37907347 -138.9765625 130.41015625 C-147.41510064 140.80437295 -153.05349973 151.21957762 -155.79296875 164.484375 C-157.65085544 172.63655662 -162.47758714 176.38344975 -168.78125 181.4921875 C-177.09065172 190.31481698 -175.95972522 200.74157879 -175.92578125 212.20898438 C-176.01349661 220.13127646 -176.80014616 226.23967824 -180.4375 233.3125 C-180.91574219 234.28703125 -181.39398438 235.2615625 -181.88671875 236.265625 C-182.49966797 237.40257812 -182.49966797 237.40257812 -183.125 238.5625 C-184.97108575 242.15274038 -186.11545195 245.23322466 -186.4375 249.3125 C-187.0975 247.9925 -187.7575 246.6725 -188.4375 245.3125 C-189.06978516 246.07046875 -189.06978516 246.07046875 -189.71484375 246.84375 C-190.53662109 247.81828125 -190.53662109 247.81828125 -191.375 248.8125 C-192.19291016 249.78703125 -192.19291016 249.78703125 -193.02734375 250.78125 C-193.49269531 251.2865625 -193.95804688 251.791875 -194.4375 252.3125 C-194.7675 252.3125 -195.0975 252.3125 -195.4375 252.3125 C-195.95107085 242.85011557 -194.36176303 233.93179267 -192.625 224.6875 C-192.36043021 223.24365383 -192.09675438 221.79964355 -191.83398438 220.35546875 C-191.30713006 217.46495901 -190.7750842 214.5754731 -190.23974609 211.68652344 C-189.29766099 206.58118708 -188.40164419 201.46786985 -187.51786804 196.35214233 C-186.87984428 192.69250956 -186.18767524 189.04967714 -185.4453125 185.40966797 C-184.46039399 180.53061017 -183.65469539 175.63589365 -182.88671875 170.71875 C-182.59790384 168.92824023 -182.30816203 167.13787978 -182.01757812 165.34765625 C-181.56853104 162.57783771 -181.12426005 159.80771367 -180.69555664 157.03466797 C-176.98861793 133.15208622 -176.98861793 133.15208622 -169.7890625 127.078125 C-168.88929688 126.57796875 -167.98953125 126.0778125 -167.0625 125.5625 C-159.20983153 120.32738768 -156.40352264 112.52460364 -153.18359375 103.98828125 C-150.52678295 96.99990432 -147.95458655 92.26127658 -141.4375 88.3125 C-138.44391071 87.01829385 -135.46535832 85.86277701 -132.3671875 84.84375 C-124.39081741 80.67476723 -121.60270298 72.77482463 -118.515625 64.80859375 C-116.02646733 58.75912448 -113.37234459 55.32920262 -107.41015625 52.2734375 C-102.64479333 50.81166973 -97.90720021 49.82791939 -93 48.9375 C-80.31554765 46.46403179 -72.78287352 41.05709537 -64.8125 31.0625 C-61.34915284 27.05230855 -57.68548953 24.26749129 -52.4375 23.3125 C-50.5766567 23.20267974 -48.71542318 23.09574513 -46.8527832 23.02246094 C-35.10270681 22.57565787 -35.10270681 22.57565787 -24.875 17.25 C-22.00830804 13.79526867 -19.22597775 10.28169771 -16.5 6.71484375 C-11.2228734 0.56819061 -7.83049519 -0.27126427 0 0 Z " fill="#9CBE58" transform="translate(341.4375,206.6875)"/>
<path d="M0 0 C-3.84247924 26.8973547 -27.91765173 49.01455131 -48 65 C-49.3020829 66.05568823 -50.60277972 67.11308755 -51.90234375 68.171875 C-52.58490234 68.72697754 -53.26746094 69.28208008 -53.97070312 69.85400391 C-55.36041487 70.98906492 -56.74588132 72.12934444 -58.12695312 73.27490234 C-61.12165541 75.74473757 -64.03806257 78.02429908 -67.31640625 80.1171875 C-70.10918972 81.927253 -72.11389119 83.25305178 -74 86 C-74.09812899 89.7467432 -73.49825685 92.94524093 -72.67578125 96.59765625 C-71.46216871 102.70780955 -73.32638767 107.42515144 -75.6875 113 C-78.04325705 119.03886958 -76.63421209 124.50732415 -74.375 130.375 C-72.49430818 135.57671834 -72.7817886 140.64170173 -74 146 C-76.69385606 148.69385606 -78.97594309 148.79503848 -82.6875 149.625 C-92.39070218 151.9896161 -100.88579902 156.51799082 -109.12109375 162.125 C-114.11117672 165.37498619 -117.62512203 166.23788384 -123.5859375 165.984375 C-125.47699219 165.93410156 -125.47699219 165.93410156 -127.40625 165.8828125 C-130.04484959 165.79451291 -132.68296978 165.6904291 -135.3203125 165.5703125 C-143.29205925 165.20363557 -143.29205925 165.20363557 -150.1640625 168.6640625 C-152.74015046 171.43190867 -154.93212579 174.46079592 -157 177.625 C-162.8265434 185.78216076 -162.8265434 185.78216076 -168 187 C-172.35670345 187.2914696 -176.64203157 187.2359201 -181 187 C-180.69078116 185.54096742 -180.37751201 184.08279278 -180.0625 182.625 C-179.88847656 181.81289062 -179.71445312 181.00078125 -179.53515625 180.1640625 C-179 178 -179 178 -178 176 C-175.93359375 175.3671875 -175.93359375 175.3671875 -173.4375 174.875 C-172.19806641 174.62363281 -172.19806641 174.62363281 -170.93359375 174.3671875 C-170.29550781 174.24601563 -169.65742188 174.12484375 -169 174 C-168.67 172.35 -168.34 170.7 -168 169 C-169.65 167.68 -171.3 166.36 -173 165 C-171.17438386 151.24702509 -162.26589823 141.1577042 -152.0546875 132.50390625 C-147.32425161 128.88840961 -144.01605446 126.65869209 -138 126 C-137.505 124.515 -137.505 124.515 -137 123 C-134.8203125 121.61328125 -134.8203125 121.61328125 -132.125 120.3125 C-131.24070312 119.87550781 -130.35640625 119.43851562 -129.4453125 118.98828125 C-127 118 -127 118 -124 118 C-123.72414063 117.41734375 -123.44828125 116.8346875 -123.1640625 116.234375 C-118.52830378 107.33620726 -111.40062884 103.79333337 -102.64453125 99.76171875 C-99.80635734 98.45184742 -97.47554963 96.92017572 -95 95 C-94.34 95 -93.68 95 -93 95 C-92.896875 93.824375 -92.79375 92.64875 -92.6875 91.4375 C-92.16943587 87.23377966 -90.75567782 83.86249121 -89 80 C-88.25435009 77.68121064 -87.62493206 75.35551314 -87 73 C-86.34902344 72.9278125 -85.69804687 72.855625 -85.02734375 72.78125 C-80.80507917 71.69163333 -77.33624075 69.64827057 -73.5625 67.5 C-72.37140625 66.82723022 -72.37140625 66.82723022 -71.15625 66.14086914 C-59.8388123 59.69079254 -49.39471286 53.13907441 -40 44 C-39.24203125 43.30390625 -38.4840625 42.6078125 -37.703125 41.890625 C-28.48599368 33.18202506 -22.01918484 22.66767898 -16.26953125 11.46850586 C-12.65162487 4.67208372 -8.08509095 -0.21276555 0 0 Z " fill="#6CA726" transform="translate(478,42)"/>
<path d="M0 0 C0.33 0 0.66 0 1 0 C1.08138426 2.87557703 1.14067851 5.74882262 1.1875 8.625 C1.21263672 9.43324219 1.23777344 10.24148437 1.26367188 11.07421875 C1.35535167 18.59196222 -0.9211952 23.39423513 -6 29 C-7.93416887 30.57766457 -9.91680012 32.09730147 -11.9375 33.5625 C-22.34686832 40.9291947 -22.34686832 40.9291947 -28 52 C-28.84738981 57.52441375 -29.1905048 63.08660495 -29.54296875 68.66015625 C-30.1904375 77.71087357 -31.78092917 85.13359094 -38 92 C-41.15327718 94.60206163 -44.34079586 96.99442308 -47.68359375 99.34765625 C-55.10821866 104.9821981 -59.01314396 111.27732308 -62 120 C-65.44576185 130.06284435 -70.11082184 136.99347065 -79.625 142.0625 C-80.22328613 142.38992188 -80.82157227 142.71734375 -81.43798828 143.0546875 C-84.43615154 144.68646955 -87.46917637 146.23719472 -90.515625 147.77734375 C-101.41864513 153.36831105 -107.46093923 160.06117369 -114.36010742 169.91601562 C-122.32943247 181.23898968 -130.43200099 186.21833384 -144 188.9375 C-156.06646235 191.40704177 -163.01302116 196.70703228 -171.48828125 205.4453125 C-180.86158705 214.97897034 -192.2001613 217.37109251 -205.3671875 217.65820312 C-207.28917969 217.67270508 -207.28917969 217.67270508 -209.25 217.6875 C-211.83859465 217.72995707 -214.4271415 217.77545404 -217.015625 217.82421875 C-218.21638672 217.84532715 -219.41714844 217.86643555 -220.65429688 217.88818359 C-224.81845625 218.02735354 -228.87233382 218.44573915 -233 219 C-227.91911441 208.03074617 -211.8375261 201.91702137 -200.96289062 197.86962891 C-190.37864036 194.13059332 -179.68465763 190.74415328 -168.89648438 187.64575195 C-135.26470925 177.95891918 -103.45541094 158.756092 -85.99609375 127.51171875 C-81.02344306 117.99739789 -74.99523678 103.73667476 -76.24194336 92.89624023 C-77.19913034 90.50188555 -78.28229829 89.68308356 -80.37890625 88.203125 C-81.05244141 87.71972656 -81.72597656 87.23632812 -82.41992188 86.73828125 C-83.12697266 86.24714844 -83.83402344 85.75601563 -84.5625 85.25 C-85.27341797 84.74339844 -85.98433594 84.23679687 -86.71679688 83.71484375 C-88.47101432 82.46687697 -90.23463359 81.23214503 -92 80 C-91.67 78.35 -91.34 76.7 -91 75 C-83.0798993 74.24570469 -79.17445721 76.09546662 -73 81 C-72.90203125 80.39414062 -72.8040625 79.78828125 -72.703125 79.1640625 C-71.6917669 73.4969697 -70.15530891 68.42549981 -67.90234375 63.12890625 C-66.91618812 60.88034058 -66.91618812 60.88034058 -66 58 C-66.66 57.67 -67.32 57.34 -68 57 C-67.125 52.125 -67.125 52.125 -66 51 C-64.0509375 50.938125 -64.0509375 50.938125 -62.0625 50.875 C-57.90965607 50.46770655 -55.65038822 49.30217982 -52.3515625 46.77734375 C-47.25606905 43.06998667 -41.99839161 40.36618671 -36.3125 37.6875 C-24.36530122 31.88014178 -13.07517232 25.43184279 -3.41796875 16.1796875 C-2 15 -2 15 0 15 C0 10.05 0 5.1 0 0 Z " fill="#F6FA9E" transform="translate(440,228)"/>
<path d="M0 0 C0.99 0.495 0.99 0.495 2 1 C1.50371094 1.52207031 1.00742188 2.04414063 0.49609375 2.58203125 C-3.17899614 6.56395976 -6.40757437 10.46617991 -9.1875 15.125 C-17.40023697 28.47538521 -28.84367825 39.50046248 -41.1875 49 C-45.35247034 52.26408334 -48.36221168 55.79278219 -51.5 60.02734375 C-54.72121207 64.26357317 -57.96526388 66.02455729 -62.875 67.75 C-69.20561995 70.2353545 -73.03093381 73.66433089 -75.87792969 79.93310547 C-77.10041558 82.87733677 -78.28080213 85.82569225 -79.34057617 88.83276367 C-81.56593197 94.88443578 -84.62108188 99.17460745 -90.37890625 102.28515625 C-91.09949219 102.54167969 -91.82007812 102.79820312 -92.5625 103.0625 C-97.49463663 105.07981799 -100.227116 107.89022593 -103.64453125 111.95703125 C-107.17772816 116.1060359 -110.441757 118.96117134 -115 122 C-116.34216975 123.99408077 -117.6772113 125.99301025 -119 128 C-119.99 128 -120.98 128 -122 128 C-122.31385383 117.2897382 -118.49645222 110.72238634 -113 102 C-112.44505859 100.83210938 -112.44505859 100.83210938 -111.87890625 99.640625 C-111 98 -111 98 -108.875 97.25 C-108.25625 97.1675 -107.6375 97.085 -107 97 C-107.22945312 95.96230469 -107.45890625 94.92460937 -107.6953125 93.85546875 C-108.48734665 87.44450195 -106.50137893 81.46716381 -104.875 75.3125 C-104.57851562 74.12205078 -104.28203125 72.93160156 -103.9765625 71.70507812 C-100.86476277 59.58092622 -97.52527907 48.39634019 -89 39 C-88.48953125 38.39800781 -87.9790625 37.79601562 -87.453125 37.17578125 C-78.48812375 27.30096552 -65.23618127 21.72325453 -53 17 C-52.34 17 -51.68 17 -51 17 C-51 19.31 -51 21.62 -51 24 C-45.12116651 26.61281488 -39.29268272 26.18328202 -33 26 C-32.59620516 21.72534692 -32.59620516 21.72534692 -34.625 18.25 C-37.34515954 16.81833709 -40.05532978 15.8700162 -43 15 C-40.15308437 13.10205625 -38.5227766 12.49808161 -35.2734375 11.73828125 C-34.33137451 11.50955322 -33.38931152 11.2808252 -32.41870117 11.04516602 C-31.41427979 10.80338623 -30.4098584 10.56160645 -29.375 10.3125 C-20.92870756 8.21803204 -12.98423572 5.68622279 -5.05419922 2.09692383 C-3.39002627 1.35031855 -1.69717557 0.66819617 0 0 Z " fill="#7AB139" transform="translate(212,219)"/>
<path d="M0 0 C3 1 3 1 4.625 4.0625 C6.6683867 9.34935764 7.27492225 14.00681371 6.5 19.625 C3.37618554 26.65358254 -3.78713085 30.35735691 -9.9609375 34.58203125 C-11.90081343 35.84187016 -11.90081343 35.84187016 -13 37 C-13.02620745 38.528643 -12.98804754 40.05850258 -12.921875 41.5859375 C-12.89609375 42.51664063 -12.8703125 43.44734375 -12.84375 44.40625 C-12.78147889 46.37816863 -12.70346471 48.34965578 -12.609375 50.3203125 C-12.55099241 52.96212476 -12.55169728 55.39521657 -13 58 C-16.5873718 61.44891184 -20.16979132 61.34986134 -24.9140625 61.3984375 C-27.18268407 61.85024611 -27.18268407 61.85024611 -28.7421875 63.9765625 C-30.42852566 68.03005857 -30.4505766 71.65074082 -30.5 76 C-30.61225855 85.87875203 -30.61225855 85.87875203 -34 90 C-36.15625 91.66015625 -36.15625 91.66015625 -38.5 93.0625 C-41.76234745 95.02534572 -44.01039656 96.71119178 -46 100 C-46.37613816 104.43843035 -46.05956627 108.06812991 -45 112.375 C-43.61488967 118.13466743 -42.89982058 124.0432678 -45 129.6875 C-46.7618378 131.72462496 -48.41223163 133.14399659 -50.5 134.8125 C-55.24874236 138.790005 -58.26595955 143.60749585 -61.63500977 148.73144531 C-65.27749353 154.17601322 -69.32581185 158.9316039 -73.94042969 163.57470703 C-78.71090373 168.44449811 -81.86839547 173.4483025 -83.5 180.125 C-84.68772134 184.2445177 -85.67387312 187.11152139 -89 190 C-93.43584064 192.11528014 -97.80960111 193.06671377 -102.6875 193.4375 C-107.16437313 193.87899095 -109.55866965 194.92476862 -113 198 C-115.15327685 200.78853478 -117.18763461 203.62519807 -119.16796875 206.5390625 C-121.1009317 209.1355799 -122.62191849 210.79493561 -125.92944336 211.28710938 C-126.64237549 211.30580078 -127.35530762 211.32449219 -128.08984375 211.34375 C-128.87423828 211.37339844 -129.65863281 211.40304687 -130.46679688 211.43359375 C-131.28212891 211.45550781 -132.09746094 211.47742188 -132.9375 211.5 C-134.55103349 211.54357438 -136.16437001 211.59538307 -137.77734375 211.65625 C-138.49140381 211.67494141 -139.20546387 211.69363281 -139.94116211 211.71289062 C-142.36629947 212.05108125 -143.93686283 212.68141095 -146 214 C-148.72522213 218.59881235 -150.3713316 223.0864455 -151.9375 228.1875 C-153.79921156 233.97705791 -155.57636919 236.85574585 -160.77050781 240.10888672 C-163.68513618 241.2738444 -166.0364635 241.18878547 -169.171875 241.1328125 C-184.36912382 241.0985436 -195.14453065 241.84233179 -208 250 C-214.80097766 253.20132788 -220.38022285 254.13233327 -227.8359375 254.17578125 C-229.39194008 254.19901491 -230.94792965 254.22313358 -232.50390625 254.24804688 C-234.92342406 254.28280587 -237.34247263 254.31231704 -239.76220703 254.32592773 C-249.71542637 254.39266585 -258.53781296 255.22014839 -268.08056641 258.14916992 C-271 259 -271 259 -274 259 C-273.02760826 251.86912721 -273.02760826 251.86912721 -271 249 C-260.5609806 244.43371198 -249.3060065 244.42913456 -238.125 244.4375 C-224.72364932 244.67723249 -224.72364932 244.67723249 -212 241 C-211.29794434 240.67668701 -210.59588867 240.35337402 -209.87255859 240.02026367 C-207.76698467 239.01155243 -205.69462898 237.95532258 -203.625 236.875 C-197.5511072 233.74262275 -193.04849992 231.88750844 -186.14453125 231.68359375 C-185.48289474 231.66281265 -184.82125824 231.64203156 -184.13957214 231.62062073 C-182.03065148 231.55535273 -179.92160865 231.49634656 -177.8125 231.4375 C-176.38084685 231.39429311 -174.94920596 231.35067812 -173.51757812 231.30664062 C-170.01184846 231.19969494 -166.50598214 231.09836359 -163 231 C-162.70778564 230.00963745 -162.70778564 230.00963745 -162.40966797 228.99926758 C-156.67394764 209.69466358 -156.67394764 209.69466358 -148.3125 204.25 C-144.58280728 202.23394988 -142.41421355 202.00647796 -138.1340332 202.06542969 C-130.77778019 202.20480334 -130.77778019 202.20480334 -124.53125 198.88671875 C-122.85935033 196.32187267 -121.43503693 193.70223329 -120 191 C-115.0281407 185.44171627 -109.50383587 184.06773704 -102.3125 183.5 C-101.38050781 183.4484375 -100.44851563 183.396875 -99.48828125 183.34375 C-96.75306793 183.14999111 -96.75306793 183.14999111 -94 181 C-93.08288612 178.26401286 -93.08288612 178.26401286 -92.375 175.0625 C-90.17875006 167.4800097 -86.3148376 162.70726541 -81 157 C-76.34961324 151.99248838 -71.99703518 147.23491506 -68.4375 141.375 C-64.64269749 135.13878609 -60.08798732 130.05865821 -54 126 C-53.61238785 121.5812215 -53.94079853 117.91514695 -55 113.625 C-56.74058997 106.29686397 -57.15717282 99.53120417 -53.33984375 92.8203125 C-50.64519112 89.15935586 -47.20483357 85.7008221 -42.8125 84.3046875 C-42.214375 83.87414062 -41.61625 83.44359375 -41 83 C-40.63466594 80.39395039 -40.49643208 78.10814629 -40.5 75.5 C-40.25173293 67.46550176 -39.19382818 60.74134158 -33.8125 54.4375 C-29.95079677 52.46374057 -26.29107617 52.186975 -22 52 C-22.33 51.01 -22.66 50.02 -23 49 C-23.96843983 35.05074161 -23.96843983 35.05074161 -20 30 C-17.13275917 27.47076724 -14.10293408 25.22992208 -11 23 C-9.47726629 21.85669334 -7.95628481 20.71104723 -6.4375 19.5625 C-5.29228934 18.70749867 -4.14670384 17.85299768 -3 17 C-3.20238281 16.35933594 -3.40476562 15.71867188 -3.61328125 15.05859375 C-5.47549136 8.0779067 -5.47549136 8.0779067 -4.01953125 4.77734375 C-2.625 2.875 -2.625 2.875 0 0 Z " fill="#729E15" transform="translate(469,208)"/>
<path d="M0 0 C1.97265625 0.265625 1.97265625 0.265625 4.97265625 2.265625 C3.45816105 6.50621156 0.63533666 7.87367044 -3.02734375 10.265625 C-5.64475003 12.79578441 -5.99431763 13.96838993 -6.40234375 17.640625 C-5.91294544 22.37147537 -4.66582258 25.62714617 -1.27734375 29.015625 C1.68537419 30.66157941 4.69616417 31.44650198 7.97265625 32.265625 C4.72024834 36.56344974 2.34287444 37.57592231 -2.96484375 38.578125 C-7.40143946 39.41316025 -7.40143946 39.41316025 -10.71875 42.2265625 C-11.15058594 42.96132812 -11.58242187 43.69609375 -12.02734375 44.453125 C-13.33984375 46.609375 -13.33984375 46.609375 -15.02734375 48.265625 C-18.16337276 48.64891743 -20.89875943 48.47003518 -24.02734375 48.05859375 C-27.48589782 48.29727001 -29.15780407 49.36457894 -31.68359375 51.70825195 C-33.91210331 54.29103946 -35.16182571 57.15974083 -36.52734375 60.265625 C-38.97916647 65.84231981 -41.13860738 68.79619919 -46.02734375 72.265625 C-46.68734375 72.265625 -47.34734375 72.265625 -48.02734375 72.265625 C-48.02734375 72.925625 -48.02734375 73.585625 -48.02734375 74.265625 C-45.05734375 73.770625 -45.05734375 73.770625 -42.02734375 73.265625 C-43.50276468 77.15537109 -45.37445482 78.38872627 -49.02734375 80.265625 C-52.32434471 81.10097286 -55.62433588 81.70946517 -58.96875 82.32421875 C-62.4406318 83.39283116 -63.85230664 84.38089269 -66.02734375 87.265625 C-66.73633106 89.63615278 -66.73633106 89.63615278 -67.08984375 92.140625 C-67.98384835 95.53883032 -68.43515975 96.87794316 -71.4140625 98.828125 C-73.35152078 99.71623685 -75.289022 100.60425503 -77.2265625 101.4921875 C-81.59810951 104.26022424 -83.38656026 108.13313129 -85.6875 112.65625 C-87.02734375 115.265625 -87.02734375 115.265625 -89.02734375 117.265625 C-92.57958831 118.1063669 -96.15050946 118.73672531 -99.7421875 119.38671875 C-102.88448905 120.22740585 -104.20223888 120.63235561 -106.02734375 123.265625 C-106.02734375 123.925625 -106.02734375 124.585625 -106.02734375 125.265625 C-105.05796875 125.53375 -104.08859375 125.801875 -103.08984375 126.078125 C-102.07921875 126.47 -101.06859375 126.861875 -100.02734375 127.265625 C-99.69734375 128.255625 -99.36734375 129.245625 -99.02734375 130.265625 C-101.69080319 132.92908444 -103.44070363 132.68629292 -107.15234375 133.078125 C-112.8811524 133.89198461 -117.89197852 134.97167644 -122.02734375 139.265625 C-122.69889059 141.98220757 -122.69889059 141.98220757 -122.02734375 144.265625 C-120.70734375 144.925625 -119.38734375 145.585625 -118.02734375 146.265625 C-123.63742181 151.37458498 -130.66828301 154.30367011 -137.39257812 157.66796875 C-145.93927968 162.02205384 -152.85575752 165.96305044 -158.15234375 174.140625 C-160.9547821 177.78034721 -162.14417484 179.09610902 -166.7109375 179.97265625 C-170.21392103 179.95501786 -173.56048216 179.75384591 -177.02734375 179.265625 C-176.00640625 178.275625 -176.00640625 178.275625 -174.96484375 177.265625 C-173.98218937 176.269052 -173.00343554 175.26862659 -172.02734375 174.265625 C-171.46144531 173.69585937 -170.89554688 173.12609375 -170.3125 172.5390625 C-164.8819135 166.76386548 -162.10924018 160.47525317 -159.1953125 153.18359375 C-157.59984883 149.26745564 -156.19914345 146.11211191 -153.02734375 143.265625 C-150.41417723 142.5017121 -147.86487808 142.01929035 -145.171875 141.625 C-143.05114244 141.48292936 -143.05114244 141.48292936 -142.02734375 140.265625 C-141.8189536 138.62455258 -141.6598265 136.97706207 -141.52734375 135.328125 C-141.13712077 130.48517903 -141.13712077 130.48517903 -140.02734375 128.265625 C-138.3612247 128.222904 -136.6935149 128.22498668 -135.02734375 128.265625 C-134.69734375 128.595625 -134.36734375 128.925625 -134.02734375 129.265625 C-134.11697437 130.95704156 -134.27312051 132.64522102 -134.46484375 134.328125 C-134.56667969 135.24722656 -134.66851562 136.16632813 -134.7734375 137.11328125 C-134.85722656 137.82355469 -134.94101563 138.53382813 -135.02734375 139.265625 C-132.01955341 137.94816312 -131.11123286 137.39745074 -129.27734375 134.515625 C-127.23849234 131.5706174 -126.04738161 130.41243346 -123.21484375 128.453125 C-119.96142485 126.17392766 -117.83676386 123.86958538 -115.52734375 120.640625 C-112.24912083 116.17984678 -109.0723655 114.31982162 -104.02734375 112.265625 C-97.30354767 108.75091341 -94.71261042 104.00708312 -92.27734375 97.015625 C-89.34076724 89.29184634 -85.92651565 82.55538443 -78.09375 78.89453125 C-76.02065514 78.10515056 -73.9425052 77.32891051 -71.859375 76.56640625 C-67.3420599 74.49155669 -64.91351166 71.19925333 -62.02734375 67.265625 C-58.05719146 62.20063962 -53.74449418 58.3177395 -48.671875 54.35546875 C-37.19785465 45.28811145 -28.41962032 34.8990614 -20.65234375 22.56787109 C-18.617649 19.3941896 -16.57546853 16.71554631 -13.8359375 14.11328125 C-11.18062119 11.42103425 -10.18669573 10.07930166 -9.27734375 6.515625 C-7.73910081 0.71763239 -6.08596012 0.04550251 0 0 Z " fill="#8BC242" transform="translate(225.02734375,207.734375)"/>
<path d="M0 0 C1 2 1 2 0.25 4.57421875 C-3.33953504 13.51440447 -7.38633931 18.28975449 -15 24 C-8.07 24 -1.14 24 6 24 C1.52611495 32.34319103 1.52611495 32.34319103 -2.77734375 34.1953125 C-4.70762674 34.67724912 -6.65283425 35.10400632 -8.609375 35.46484375 C-11.17130852 35.81426743 -11.17130852 35.81426743 -13 38 C-13 38.99 -13 39.98 -13 41 C-5.23358572 41.65601305 -0.11895314 40.21812561 6.6875 36.5625 C14.40505994 32.51465531 20.23763758 30.82682713 29.10131836 31.06542969 C46.02822436 31.50891353 67.32418935 31.38673735 82.0625 22.0625 C84.14427275 19.84641933 85.51470266 17.64770396 87 15 C89.64770599 11.20495475 91.54249362 9.36201584 96 8 C96.16002156 13.47710148 95.57100415 18.54800518 94.625 23.9375 C94.43550781 25.07735352 94.43550781 25.07735352 94.2421875 26.24023438 C93.61205565 29.92965635 92.89227575 33.56370052 91.96875 37.19140625 C91.1382104 40.45663249 90.45539857 43.68343672 89.875 47 C89.70742187 47.94875 89.53984375 48.8975 89.3671875 49.875 C89.18542969 50.926875 89.18542969 50.926875 89 52 C77.88515123 56.15974879 66.71841483 53.86543577 55.375 51.875 C43.46985392 49.82360669 32.88006438 50.18548866 21 52 C4.73781594 54.28707586 -8.49784599 52.938065 -22.9765625 44.953125 C-27.94651687 40.15587175 -28.5469459 32.88846361 -29.1875 26.3125 C-29.26935547 25.57966797 -29.35121094 24.84683594 -29.43554688 24.09179688 C-29.83366181 20.38163335 -30.09567635 16.73137775 -30 13 C-28.63681641 12.5978125 -28.63681641 12.5978125 -27.24609375 12.1875 C-17.48609415 9.14438217 -8.86572881 5.06792725 0 0 Z " fill="#6FA135" transform="translate(64,362)"/>
<path d="M0 0 C0.99386719 0.00902344 1.98773438 0.01804687 3.01171875 0.02734375 C4.15060547 0.04474609 4.15060547 0.04474609 5.3125 0.0625 C2.5754234 8.47974633 -5.73583144 13.42556251 -12.625 18.4375 C-20.97007681 24.58368125 -27.94662399 31.90853256 -34.68359375 39.765625 C-41.27715865 47.32316137 -47.97039941 54.94408284 -55.6875 61.375 C-58.13834476 63.44290027 -60.46464759 65.62845124 -62.8125 67.8125 C-67.42318143 72.01728925 -72.19458085 75.91886972 -77.13208008 79.73193359 C-80.40595356 82.26192682 -83.63694427 84.82925739 -86.8203125 87.47265625 C-87.51680908 88.04910889 -88.21330566 88.62556152 -88.9309082 89.21948242 C-90.26496374 90.3271814 -91.5945925 91.44024426 -92.91870117 92.55981445 C-98.29146778 97.00564118 -104.14396272 101.7516634 -111.25 102.375 C-112.054375 102.271875 -112.85875 102.16875 -113.6875 102.0625 C-115.83223525 98.37289798 -115.83981098 95.936571 -114.765625 91.75 C-110.0076883 79.88963604 -99.66605476 69.81659089 -90.6875 61.0625 C-90.05585938 60.40894531 -89.42421875 59.75539063 -88.7734375 59.08203125 C-83.58079217 53.75177164 -78.12023493 48.99087818 -72.30078125 44.359375 C-70.54017343 42.94406799 -68.80055024 41.50540963 -67.0625 40.0625 C-57.24866622 31.94160201 -47.12136031 24.36714475 -36.6875 17.0625 C-36.01267578 16.58619141 -35.33785156 16.10988281 -34.64257812 15.61914062 C-12.21006259 -0.1436478 -12.21006259 -0.1436478 0 0 Z " fill="#FAFCBD" transform="translate(363.6875,279.9375)"/>
<path d="M0 0 C2.84822184 2.32922973 5.22490099 4.64228313 7.26953125 7.70922852 C1.0425237 20.81559678 -10.18467904 32.86649145 -20.73046875 42.70922852 C-21.06046875 42.70922852 -21.39046875 42.70922852 -21.73046875 42.70922852 C-21.83891906 40.14558369 -21.91796619 37.58656573 -21.98046875 35.02172852 C-22.01398438 34.30049805 -22.0475 33.57926758 -22.08203125 32.83618164 C-22.15056173 29.08413806 -22.01083232 27.1676007 -20.0078125 23.89282227 C-17.78971454 21.76603537 -15.64211195 20.09174821 -13.04296875 18.45922852 C-10.23727458 16.7733896 -10.23727458 16.7733896 -7.73046875 14.70922852 C-7.22109425 10.2946495 -7.19485028 8.39362989 -9.98046875 4.83422852 C-15.87104995 0.28241577 -23.59510422 0.9762964 -30.73046875 1.70922852 C-35.07505682 3.12921293 -38.96141339 5.17458466 -42.98046875 7.33422852 C-52.01417099 11.87584851 -60.50046038 14.98440105 -70.41796875 16.95922852 C-80.88083961 19.06972491 -88.69345814 22.02791162 -97.73046875 27.70922852 C-100.19716872 29.1685782 -102.68097968 30.59728693 -105.16796875 32.02172852 C-106.31265625 32.67786133 -107.45734375 33.33399414 -108.63671875 34.01000977 C-114.71828498 37.35026395 -119.758003 39.14500763 -126.73046875 38.70922852 C-125.94671875 37.67797852 -125.16296875 36.64672852 -124.35546875 35.58422852 C-120.54762294 30.5101157 -116.87355471 25.34234653 -113.1953125 20.17407227 C-112.78748535 19.60857666 -112.3796582 19.04308105 -111.95947266 18.46044922 C-111.11931452 17.26329898 -110.31009532 16.04399312 -109.52880859 14.80761719 C-106.70701596 10.46504711 -104.58488237 8.71873996 -99.48046875 7.14672852 C-95.27040513 5.7039539 -91.73827464 4.28629117 -88.10546875 1.70922852 C-63.47886194 -15.57803049 -24.67960321 -18.40872773 0 0 Z " fill="#89AF3A" transform="translate(462.73046875,198.290771484375)"/>
<path d="M0 0 C-0.15926392 3.25767102 -0.66518237 6.01138258 -2 9 C-5.78762697 12.36762801 -10.40067957 14.30301989 -15.01171875 16.3125 C-20.90531031 18.96876662 -24.55878517 21.25023762 -28.4375 26.5 C-32.56952985 32.08013573 -36.77249925 34.29713919 -43.1796875 36.78125 C-45.99077913 37.77181904 -45.99077913 37.77181904 -47.51171875 39.625 C-49.77087168 41.71219641 -51.91846895 41.35362274 -54.9375 41.5 C-62.41330143 42.46461954 -66.17696479 46.14236072 -71.234375 51.23828125 C-79.820825 59.8126035 -90.07773241 64.22353855 -102.25 64.25 C-104.16744223 64.18698547 -106.0847485 64.11120815 -108 64 C-108.234375 59.265625 -108.234375 59.265625 -106.125 56.875 C-103.12411692 55.07447015 -101.22709504 54.58070422 -97.875 53.875 C-95.23522181 53.26946846 -95.23522181 53.26946846 -93 52 C-91.25100975 48.81332844 -90.71401731 45.5371319 -90 42 C-87.47191011 36.23595506 -87.47191011 36.23595506 -85 35 C-83.19787223 34.86347517 -81.39553797 34.72915771 -79.59228516 34.60839844 C-69.6904532 33.84520945 -62.2946862 30.87499473 -53.73388672 25.984375 C-52.24966009 25.14173888 -50.73840354 24.34702181 -49.22265625 23.5625 C-44.04216212 20.88045681 -39.16325983 17.82956819 -34.27539062 14.65625 C-27.43305669 10.22853827 -20.65294337 6.05105836 -13.1875 2.75 C-12.54852783 2.46261963 -11.90955566 2.17523926 -11.2512207 1.87915039 C-7.36743877 0.24836541 -4.19645325 -0.28276255 0 0 Z " fill="#8BC242" transform="translate(387,128)"/>
<path d="M0 0 C-3.84209635 26.89467447 -27.91649709 49.01876648 -48 65 C-50.6710656 67.16126169 -53.33514319 69.33109049 -56 71.5 C-57.36451193 72.60816084 -58.72909427 73.716235 -60.09375 74.82421875 C-65.07306791 78.86991455 -70.0387364 82.93218429 -75 87 C-75.46019531 86.38382812 -75.92039062 85.76765625 -76.39453125 85.1328125 C-77.47357421 83.69933937 -78.57171467 82.280063 -79.6875 80.875 C-81 79 -81 79 -81 77 C-81.99 76.67 -82.98 76.34 -84 76 C-84 75.01 -84 74.02 -84 73 C-83.24493164 72.59273682 -82.48986328 72.18547363 -81.71191406 71.76586914 C-78.84485575 70.21342671 -75.98283217 68.65235453 -73.12353516 67.08569336 C-71.89783397 66.41630143 -70.67035634 65.75014951 -69.44091797 65.08764648 C-57.82649902 58.82385052 -47.1124411 51.7288132 -37.8125 42.25 C-37.22573486 41.65493652 -36.63896973 41.05987305 -36.03442383 40.44677734 C-27.76196203 31.85487598 -21.69713744 22.0355369 -16.26831055 11.46728516 C-12.65229946 4.67065848 -8.08346365 -0.21272273 0 0 Z " fill="#61961D" transform="translate(478,42)"/>
<path d="M0 0 C0 0.33 0 0.66 0 1 C-1.08837158 1.00930542 -1.08837158 1.00930542 -2.19873047 1.01879883 C-10.69474627 1.36978937 -16.65882558 3.80056962 -24.125 7.6875 C-33.19275452 12.17238548 -41.76813388 15.26569242 -51.6875 17.25 C-62.15041609 19.36158984 -69.96259604 22.31843582 -79 28 C-81.46669997 29.45934968 -83.95051093 30.88805842 -86.4375 32.3125 C-87.5821875 32.96863281 -88.726875 33.62476563 -89.90625 34.30078125 C-95.98781623 37.64103543 -101.02753425 39.43577911 -108 39 C-106.66500063 37.20829032 -105.32519204 35.42006269 -103.96875 33.64453125 C-102.47962945 31.64426416 -101.0595016 29.63311582 -99.65625 27.57421875 C-98.81292041 26.38251488 -97.96916975 25.19110888 -97.125 24 C-96.73908691 23.4119458 -96.35317383 22.8238916 -95.95556641 22.21801758 C-94.29426002 19.92178468 -92.93538084 18.16372688 -90.05566406 17.65966797 C-88.0340164 17.67898908 -86.01516154 17.83703822 -84 18 C-77.17592009 17.13591196 -71.93949621 13.81645483 -66.3125 10.125 C-46.82433576 -2.52405087 -22.40300007 -5.79387933 0 0 Z " fill="#8EB93E" transform="translate(444,198)"/>
<path d="M0 0 C1.4049404 3.89060419 0.69513239 7.23092362 0.0625 11.25 C-0.13214844 12.51328125 -0.32679688 13.7765625 -0.52734375 15.078125 C-0.76130859 16.52445312 -0.76130859 16.52445312 -1 18 C-1.61488281 18.12117188 -2.22976562 18.24234375 -2.86328125 18.3671875 C-5.45911859 19.13597297 -6.63597859 20.54311961 -8.46484375 22.47265625 C-17.34347362 31.30610226 -26.47342992 35.8000974 -39 36 C-43.33658089 35.60675328 -47.59018934 34.89068806 -51.875 34.125 C-60.58326398 32.61999609 -69.1745166 31.53361705 -78 31 C-78 30.67 -78 30.34 -78 30 C-77.12085937 29.81566406 -76.24171875 29.63132812 -75.3359375 29.44140625 C-56.66086354 25.35884533 -38.13339213 19.71682842 -20.125 13.3125 C-19.40199707 13.06395264 -18.67899414 12.81540527 -17.93408203 12.55932617 C-10.88687098 9.95331751 -5.08368866 5.50732938 0 0 Z " fill="#8BC242" transform="translate(162,353)"/>
<path d="M0 0 C0.40663087 4.67625505 -0.11146785 7.58407019 -2.0625 11.875 C-4.94452725 18.63039013 -3.93098572 23.6818839 -1.375 30.375 C0.50569182 35.57671834 0.2182114 40.64170173 -1 46 C-3.69385606 48.69385606 -5.97594309 48.79503848 -9.6875 49.625 C-17.11686852 51.41694915 -23.34708655 54.51834703 -29.953125 58.29296875 C-33 60 -33 60 -36 61 C-38 54.375 -38 54.375 -38 51 C-35.71280057 46.81942355 -33.0553645 42.84709911 -28.5546875 40.9921875 C-26.84506374 40.57915913 -25.13409894 40.17164445 -23.421875 39.76953125 C-16.9478624 37.71246596 -13.77257291 31.96177381 -10.75 26.25 C-6.87742631 17.96641991 -4.48059564 10.17614368 -5 1 C-2 0 -2 0 0 0 Z " fill="#619820" transform="translate(405,142)"/>
<path d="M0 0 C1.7015625 0.7734375 1.7015625 0.7734375 3.4375 1.5625 C7.55051958 3.22213948 9.73714636 3.00302438 14 2 C14.66 1.67 15.32 1.34 16 1 C17.99960012 0.960008 20.00047242 0.95653201 22 1 C22.25 3.3125 22.25 3.3125 22 6 C18.8639122 8.97467152 15.2922093 10.12317762 11.25 11.5 C7.53401468 12.77685839 3.83521281 14.05865044 0.17578125 15.48828125 C-4.48168366 17.24566649 -9.23686279 18.48381807 -14.0625 19.6875 C-14.92166016 19.91244141 -15.78082031 20.13738281 -16.66601562 20.36914062 C-21.56355235 21.60007232 -25.94747967 22.45334708 -31 22 C-33 20 -33 20 -33.375 16.6875 C-32.84842573 11.50951969 -30.79317525 9.52148203 -26.9375 6.25 C-23.91937471 4.96569137 -21.86925697 4.76221486 -18.625 4.5625 C-14.8840185 4.33151322 -12.35926973 3.95782549 -9.1875 1.9375 C-5.60510341 -0.24003518 -4.10292852 -0.59834374 0 0 Z " fill="#8BC242" transform="translate(308,144)"/>
<path d="M0 0 C-1.28965176 1.37562854 -2.62689293 2.70766393 -4 4 C-4.66 4 -5.32 4 -6 4 C-7.02919166 6.53199363 -8.02190934 9.06222988 -8.9296875 11.640625 C-9.24164063 12.50171875 -9.55359375 13.3628125 -9.875 14.25 C-10.18179688 15.12140625 -10.48859375 15.9928125 -10.8046875 16.890625 C-12 19 -12 19 -13.82128906 19.61425781 C-15.92239587 19.98626014 -17.92405919 20.18715601 -20.0546875 20.28125 C-21.21436035 20.33684082 -21.21436035 20.33684082 -22.39746094 20.39355469 C-23.21504883 20.42868164 -24.03263672 20.46380859 -24.875 20.5 C-32.00534597 20.81015106 -32.00534597 20.81015106 -39.1171875 21.390625 C-50.59358272 22.52592431 -50.59358272 22.52592431 -56 19 C-58.49634626 16.56766262 -59.74414151 14.90713464 -60.6875 11.5625 C-59.58221318 7.44279457 -56.32974558 5.47182644 -53 3 C-52.34 5.64 -51.68 8.28 -51 11 C-40.58164979 13.60458755 -32.75159576 10.87638384 -23 7 C-20.21049449 5.90641919 -17.41889967 4.81869857 -14.62426758 3.73828125 C-12.7236098 3.0021053 -10.82621636 2.25743961 -8.93237305 1.50390625 C-8.06265869 1.16488281 -7.19294434 0.82585937 -6.296875 0.4765625 C-5.51666992 0.16799316 -4.73646484 -0.14057617 -3.93261719 -0.45849609 C-2 -1 -2 -1 0 0 Z " fill="#8AAD3C" transform="translate(207,448)"/>
<path d="M0 0 C0.99 0.33 1.98 0.66 3 1 C2.70490294 12.64292038 -0.90595425 24.42866408 -9 33 C-9.80244141 33.87978516 -9.80244141 33.87978516 -10.62109375 34.77734375 C-14.34166422 38.42917389 -17.66259973 40.0457099 -22.91015625 40.296875 C-25 40 -25 40 -28.0625 37.9375 C-30.33639977 34.48997454 -30.75813639 33.0433941 -30 29 C-27.79460411 25.09043456 -24.80905985 23.18716509 -21.125 20.8125 C-16.23684531 17.56331482 -13.89517089 14.17687015 -11.3515625 8.94140625 C-10.90554688 8.30074219 -10.45953125 7.66007813 -10 7 C-6.88742431 7 -4.89234315 7.17361624 -2 8 C-1.855625 6.865625 -1.71125 5.73125 -1.5625 4.5625 C-1 1 -1 1 0 0 Z " fill="#72A929" transform="translate(398,144)"/>
<path d="M0 0 C1 2 1 2 0.25 4.57421875 C-3.33953504 13.51440447 -7.38633931 18.28975449 -15 24 C-11.04 24.33 -7.08 24.66 -3 25 C-6.04190064 30.0698344 -8.64655951 33.32327975 -14 36 C-16.3329866 36.04022391 -18.66706666 36.04320247 -21 36 C-22.14947895 32.44706507 -22.0868937 31.20023331 -20.5625 27.6875 C-20.046875 26.800625 -19.53125 25.91375 -19 25 C-23.95 23.02 -23.95 23.02 -29 21 C-29.33 18.36 -29.66 15.72 -30 13 C-28.63681641 12.5978125 -28.63681641 12.5978125 -27.24609375 12.1875 C-17.48609415 9.14438217 -8.86572881 5.06792725 0 0 Z " fill="#7BB13A" transform="translate(64,362)"/>
<path d="M0 0 C0.928125 0.20625 1.85625 0.4125 2.8125 0.625 C3.52734375 2.875 3.52734375 2.875 3.8125 5.625 C2.37890625 7.6875 2.37890625 7.6875 0.375 9.625 C-2.60916764 12.45794168 -2.60916764 12.45794168 -3.41015625 16.375 C-3.33667969 17.1175 -3.26320312 17.86 -3.1875 18.625 C-2.1975 18.955 -1.2075 19.285 -0.1875 19.625 C-0.85180493 22.28221974 -1.52446073 24.11728228 -3.73828125 25.8125 C-9.64227133 29.25122655 -15.35101402 30.53416998 -22.1875 29.625 C-24.54511733 28.5254188 -26.15507385 27.29263171 -28.1875 25.625 C-26.91337425 19.67907981 -23.97595387 16.99824281 -19.1875 13.625 C-18.00942392 12.98241305 -16.82205127 12.35650598 -15.625 11.75 C-11.86950713 9.75832288 -9.88657116 6.91294302 -7.546875 3.4296875 C-5.21349191 0.33192029 -3.86571631 -0.45479015 0 0 Z " fill="#8BC242" transform="translate(251.1875,202.375)"/>
<path d="M0 0 C0.33 0 0.66 0 1 0 C1.2083844 4.16768795 0.67069752 7.68011271 -0.421875 11.69921875 C-1.52321065 16.08223697 -2.23084597 20.5487256 -3 25 C-13.00058861 28.85343781 -25.76844727 27.94930879 -36 25 C-36.33 24.34 -36.66 23.68 -37 23 C-27.08236374 17.18182315 -19.7946064 13.41488079 -8 16 C-7.67 14.68 -7.34 13.36 -7 12 C-7.99 11.34 -8.98 10.68 -10 10 C-10 9.34 -10 8.68 -10 8 C-8.06640625 6.30859375 -8.06640625 6.30859375 -5.5625 4.4375 C-2.67307373 2.34532911 -2.67307373 2.34532911 0 0 Z " fill="#619820" transform="translate(156,389)"/>
<path d="M0 0 C0.66 0.33 1.32 0.66 2 1 C1.125 5.875 1.125 5.875 0 7 C0.44054458 11.40544577 1.12223794 15.66229535 2 20 C-2.65989753 21.59441518 -7.32295722 23.17906121 -11.98925781 24.75463867 C-13.57708639 25.29231006 -15.16400812 25.83266715 -16.75 26.37573242 C-19.02632835 27.15466353 -21.30571483 27.92396219 -23.5859375 28.69140625 C-24.65320572 29.06006554 -24.65320572 29.06006554 -25.74203491 29.43617249 C-27.47663319 30.01470249 -29.23702299 30.51477818 -31 31 C-31.66 30.67 -32.32 30.34 -33 30 C-26.91967101 21.75777626 -20.73984712 17.83818569 -11.57421875 13.69140625 C-8.66952894 12.31683719 -6.50509987 10.94576641 -4 9 C-3.34 9 -2.68 9 -2 9 C-1.855625 7.700625 -1.71125 6.40125 -1.5625 5.0625 C-1.125 1.125 -1.125 1.125 0 0 Z " fill="#7AB039" transform="translate(387,128)"/>
<path d="M0 0 C7.20976922 3.32438926 14.18428103 8.65609288 19 15 C20.0625 18.4375 20.0625 18.4375 20 21 C19 22 19 22 16.24316406 22.26318359 C12.47507818 21.95740246 11.06635057 21.0827295 8.109375 18.7890625 C7.23539063 18.12132812 6.36140625 17.45359375 5.4609375 16.765625 C4.11902344 15.70601563 4.11902344 15.70601563 2.75 14.625 C1.83992187 13.92632812 0.92984375 13.22765625 -0.0078125 12.5078125 C-6.50436282 7.49563718 -6.50436282 7.49563718 -9 5 C-8.75 2.9375 -8.75 2.9375 -8 1 C-5.17580639 -0.4120968 -3.13700119 -0.2442434 0 0 Z " fill="#F0F09F" transform="translate(242,327)"/>
<path d="M0 0 C8.99099315 0.16055345 15.81597322 7.2445272 21.84765625 13.19140625 C23.73315419 15.661022 24.21335141 17.38110696 24.5625 20.4375 C21.5625 22.4375 21.5625 22.4375 19.17675781 22.26269531 C14.23455733 20.70268059 10.40800904 17.27658424 6.3125 14.1875 C5.38953125 13.51847656 4.4665625 12.84945313 3.515625 12.16015625 C2.6390625 11.50402344 1.7625 10.84789062 0.859375 10.171875 C0.05854492 9.57600586 -0.74228516 8.98013672 -1.56738281 8.36621094 C-3.792865 6.07100085 -4.20856452 4.59363366 -4.4375 1.4375 C-3.4375 0.4375 -3.4375 0.4375 0 0 Z " fill="#F0F09F" transform="translate(257.4375,388.5625)"/>
<path d="M0 0 C7.78977266 3.39795256 14.93227659 9.19631177 20 16 C20.3359375 18.74609375 20.3359375 18.74609375 20 21 C19 22 19 22 16.2265625 22.27734375 C12.39951995 21.94838489 11.22195499 21.0719294 8.375 18.5625 C4.4634476 15.22933263 0.50057883 12.05954888 -3.625 9 C-5.16027344 7.8553125 -5.16027344 7.8553125 -6.7265625 6.6875 C-7.47679687 6.130625 -8.22703125 5.57375 -9 5 C-8.625 3.0625 -8.625 3.0625 -8 1 C-4.99049825 -0.50475088 -3.39141132 -0.42392641 0 0 Z " fill="#F0F09F" transform="translate(337,326)"/>
<path d="M0 0 C3.19661238 1.7481474 6.09071635 3.81272835 9 6 C9.58265625 6.42796875 10.1653125 6.8559375 10.765625 7.296875 C14.33496167 10.07302574 16.87686002 13.00849684 19 17 C18.75 19.375 18.75 19.375 18 21 C12.98692768 21.40982781 10.74027818 20.5899314 6.8125 17.5 C5.8740625 16.778125 4.935625 16.05625 3.96875 15.3125 C2.9890625 14.549375 2.009375 13.78625 1 13 C-1.05720244 11.49274277 -3.11948241 9.99238383 -5.1875 8.5 C-6.79166667 7.33333333 -8.39583333 6.16666667 -10 5 C-9.625 2.5625 -9.625 2.5625 -9 0 C-5.89773767 -1.55113116 -3.1981161 -0.98729721 0 0 Z " fill="#F0F09F" transform="translate(266,306)"/>
<path d="M0 0 C3.18356681 1.76320623 6.08221652 3.83093077 9 6 C9.9075 6.639375 10.815 7.27875 11.75 7.9375 C14.62388384 10.57189352 17.3551679 13.42836459 19 17 C18.6328125 19.21875 18.6328125 19.21875 18 21 C13.70184811 21.45503394 10.95617068 21.33716826 7.5 18.76953125 C6.31916269 17.80087565 5.1525983 16.8145916 4 15.8125 C2.83461378 14.83830995 1.6679479 13.86564864 0.5 12.89453125 C-0.06847656 12.41580566 -0.63695312 11.93708008 -1.22265625 11.44384766 C-4.04807692 9.14858147 -7.01524649 7.08247471 -10 5 C-9.625 2.5625 -9.625 2.5625 -9 0 C-5.89893088 -1.55053456 -3.19633858 -0.99092538 0 0 Z " fill="#F0F09F" transform="translate(292,284)"/>
<path d="M0 0 C8.45702742 0.13892448 15.99156652 7.9279287 21.6640625 13.5078125 C23.3931638 15.86567791 23.84973694 17.604992 24.125 20.5 C23.795 21.16 23.465 21.82 23.125 22.5 C20.03494309 22.98970791 17.8605582 22.9227716 15.11669922 21.34570312 C12.87545115 19.70876118 10.71310538 18.00429295 8.5625 16.25 C7.82064453 15.66347656 7.07878906 15.07695312 6.31445312 14.47265625 C4.23999945 12.82861015 2.18076332 11.16731814 0.125 9.5 C-0.87402344 8.70078125 -1.87304688 7.9015625 -2.90234375 7.078125 C-3.55332031 6.55734375 -4.20429688 6.0365625 -4.875 5.5 C-3.78156934 0.65766423 -3.78156934 0.65766423 0 0 Z " fill="#F0F09F" transform="translate(315.875,267.5)"/>
<path d="M0 0 C6.52155792 3.51957094 15.50601301 9.2304002 19 16 C18.6875 18.75 18.6875 18.75 18 21 C14.7820188 21.5722022 12.62533853 21.35481075 9.77197266 19.73583984 C7.23072629 17.94980677 4.76570002 16.09262473 2.3125 14.1875 C1.45849609 13.54490234 0.60449219 12.90230469 -0.27539062 12.24023438 C-7.85661448 6.49327364 -7.85661448 6.49327364 -10 4 C-9.8125 1.875 -9.8125 1.875 -9 0 C-5.8965231 -1.55173845 -3.19990442 -0.98365183 0 0 Z " fill="#F0F09F" transform="translate(353,251)"/>
<path d="M0 0 C6.81465392 3.35916686 13.50450303 8.88909986 18 15 C18.30859375 17.71484375 18.30859375 17.71484375 18 20 C17 21 17 21 14.5078125 21.48828125 C9.14855544 20.74228222 5.96377445 17.57257836 1.875 14.1875 C1.07707031 13.54490234 0.27914063 12.90230469 -0.54296875 12.24023438 C-2.03035149 11.04213392 -3.51287881 9.83796123 -4.98876953 8.62573242 C-6.95823868 7.03375681 -8.9648909 5.50680185 -11 4 C-10.625 2.0625 -10.625 2.0625 -10 0 C-6.66561137 -1.66719431 -3.46373691 -0.94627864 0 0 Z " fill="#F0F09F" transform="translate(393,240)"/>
<path d="M0 0 C9.66197869 0.65419647 16.17018159 6.36463428 22.71875 13.12109375 C24.71944631 15.69341758 25.25 17.85007112 25.25 21.08984375 C22.625 21.83984375 22.625 21.83984375 19.25 22.08984375 C13.97545949 18.98717286 9.21502592 15.07240611 4.375 11.33984375 C3.59125 10.73785156 2.8075 10.13585937 2 9.515625 C0.08202187 8.04205644 -1.83460117 6.56676241 -3.75 5.08984375 C-2.63118307 0.13508306 -2.63118307 0.13508306 0 0 Z " fill="#F0F09F" transform="translate(207.75,392.91015625)"/>
<path d="M0 0 C8.03651377 3.97695322 15.01613954 9.52420931 20 17 C19.625 19.1875 19.625 19.1875 19 21 C16.875 21.75 16.875 21.75 14 22 C11.90180727 20.73858652 9.97391954 19.43782644 8 18 C7.31437988 17.50983398 6.62875977 17.01966797 5.92236328 16.51464844 C3.63907964 14.86563806 1.38092298 13.18620684 -0.875 11.5 C-1.65875 10.93152344 -2.4425 10.36304688 -3.25 9.77734375 C-3.98992187 9.22175781 -4.72984375 8.66617187 -5.4921875 8.09375 C-6.50321533 7.34641602 -6.50321533 7.34641602 -7.53466797 6.58398438 C-9 5 -9 5 -9 1 C-5.89687141 -0.55156429 -3.33223648 -0.71871767 0 0 Z " fill="#F0F09F" transform="translate(288,371)"/>
<path d="M0 0 C6.81465392 3.35916686 13.50450303 8.88909986 18 15 C18.30859375 17.71484375 18.30859375 17.71484375 18 20 C17.67 20.33 17.34 20.66 17 21 C11.24961204 20.73700327 7.86098617 18.92215556 3.5625 15.3125 C2.43518073 14.40459405 1.30757685 13.49704139 0.1796875 12.58984375 C-0.36075195 12.14753418 -0.90119141 11.70522461 -1.45800781 11.24951172 C-3.53408901 9.5672154 -5.66678944 7.96710196 -7.8125 6.375 C-9.3903125 5.199375 -9.3903125 5.199375 -11 4 C-10.625 2.0625 -10.625 2.0625 -10 0 C-6.66561137 -1.66719431 -3.46373691 -0.94627864 0 0 Z " fill="#F0F09F" transform="translate(226,356)"/>
<path d="M0 0 C8.03651377 3.97695322 15.01613954 9.52420931 20 17 C19.625 19.1875 19.625 19.1875 19 21 C16.875 21.75 16.875 21.75 14 22 C11.91150052 20.73340633 9.97468933 19.4275061 8 18 C7.35063477 17.54608887 6.70126953 17.09217773 6.03222656 16.62451172 C3.90055407 15.12594496 1.79323553 13.59725356 -0.3125 12.0625 C-1.40401367 11.29389648 -1.40401367 11.29389648 -2.51757812 10.50976562 C-7.77817222 6.65134293 -7.77817222 6.65134293 -8.98046875 3.12109375 C-8.98691406 2.42113281 -8.99335938 1.72117187 -9 1 C-5.89687141 -0.55156429 -3.33223648 -0.71871767 0 0 Z " fill="#F0F09F" transform="translate(315,349)"/>
<path d="M0 0 C6.2801132 -0.8236214 9.43451788 -0.16344775 14.625 3.5625 C26.31573837 12.85598022 26.31573837 12.85598022 27.9375 17.9375 C27.958125 18.618125 27.97875 19.29875 28 20 C25.3203125 21.20703125 25.3203125 21.20703125 22 22 C19.4296875 20.76171875 19.4296875 20.76171875 16.875 18.6875 C15.46927734 17.57955078 15.46927734 17.57955078 14.03515625 16.44921875 C13.03355469 15.64097656 12.03195312 14.83273437 11 14 C8.78385771 12.31573186 6.54736533 10.65929909 4.3125 9 C2.54105607 7.66747801 0.76999477 6.33444632 -1 5 C-0.67 3.35 -0.34 1.7 0 0 Z " fill="#F0F09F" transform="translate(349,303)"/>
<path d="M0 0 C0.33 0 0.66 0 1 0 C2.1216173 11.66481989 -4.45020818 21.79399537 -11 31 C-11.66 31.66 -12.32 32.32 -13 33 C-16 32.8125 -16 32.8125 -19 32 C-21.34168764 28.48746854 -21.49623677 27.13530644 -21 23 C-18.79460411 19.09043456 -15.80905985 17.18716509 -12.125 14.8125 C-6.60821045 11.12105884 -4.00903677 6.7960044 -1 1 C-0.67 0.67 -0.34 0.34 0 0 Z " fill="#7EBB2E" transform="translate(389,150)"/>
<path d="M0 0 C7.4698559 1.24497598 14.29956927 7.62499012 18.6875 13.5 C19.4759134 14.65485906 20.25437324 15.81706472 21 17 C20.34 18.32 19.68 19.64 19 21 C12.47142974 21 9.25229626 18.15596033 4.37890625 14.01171875 C1.70375232 11.74947856 -1.04300875 9.86757342 -4 8 C-3.40072174 4.64404172 -2.15377564 2.62198774 0 0 Z " fill="#EDED8E" transform="translate(380,280)"/>
<path d="M0 0 C-0.33 1.98 -0.66 3.96 -1 6 C-0.34 6 0.32 6 1 6 C0.33494006 7.33413549 -0.33214353 8.66726223 -1 10 C-1.36561035 10.77786865 -1.7312207 11.5557373 -2.10791016 12.35717773 C-3.5354631 14.96813204 -4.83216167 16.95033934 -7 19 C-10.88715545 19.96546163 -14.43048926 19.54856552 -18.375 19.0625 C-19.39722656 18.97419922 -20.41945313 18.88589844 -21.47265625 18.79492188 C-23.98883349 18.57152296 -26.49271525 18.30569661 -29 18 C-29 17.67 -29 17.34 -29 17 C-28.26394531 17.03222656 -27.52789062 17.06445312 -26.76953125 17.09765625 C-23.63879949 17.06043487 -21.01321334 16.87190854 -18 16 C-16.19890378 13.90385868 -15.28406982 11.89074827 -14.18359375 9.36328125 C-11.37060323 3.74658401 -6.2025805 0 0 0 Z " fill="#7EBA2F" transform="translate(364,189)"/>
<path d="M0 0 C3.45334405 1.39461971 6.91152171 2.80585673 9 6 C8.875 8.5625 8.875 8.5625 8 11 C4.24171538 13.50552308 2.46348506 13.37195709 -2 13 C-5.49430129 11.91022797 -8.37724367 10.62275633 -11 8 C-11.375 5.5625 -11.375 5.5625 -11 3 C-7.85334992 -0.6501141 -4.58388682 -0.47419519 0 0 Z " fill="#8AC142" transform="translate(161,319)"/>
<path d="M0 0 C4.06662662 1.55271198 5.57519602 2.36279402 8 6 C7.75 8.625 7.75 8.625 7 11 C2.30107713 13.34946143 -3.73455135 12.39961536 -8.5625 10.875 C-11 9 -11 9 -12.0625 6 C-12 3 -12 3 -10.765625 1.3359375 C-7.54235237 -1.10291037 -3.85674355 -0.49361052 0 0 Z " fill="#96C854" transform="translate(65,322)"/>
<path d="M0 0 C4.25123397 0.61664657 7.28752693 2.33049568 10.2890625 5.33203125 C10.0390625 8.39453125 10.0390625 8.39453125 9.2890625 11.33203125 C5.5934633 13.17983085 1.33081051 12.67245413 -2.7109375 12.33203125 C-6.2734375 11.14453125 -6.2734375 11.14453125 -8.7109375 9.33203125 C-10.01054038 6.35058935 -9.9815495 5.0472201 -8.8359375 2.01953125 C-5.89792504 -0.31359629 -3.67075043 -0.16141736 0 0 Z " fill="#8BC243" transform="translate(169.7109375,233.66796875)"/>
<path d="M0 0 C3.4375 1.5 3.4375 1.5 6 3 C4.44605585 6.49637435 2.82986002 9.39354998 0 12 C-3.70319211 12.38154101 -6.85202104 11.66095758 -10.0625 9.8125 C-11.54010188 6.95580303 -10.89397821 5.00121255 -10 2 C-6.25816125 -0.49455917 -4.43756964 -0.37606522 0 0 Z " fill="#96C854" transform="translate(254,177)"/>
<path d="M0 0 C1.35398055 0.6236657 2.69506876 1.27932207 4 2 C2.58814905 5.58625241 1.19897315 6.78397639 -2.3125 8.3125 C-5.88935779 9.78701786 -8.26706004 10.51650686 -12 9 C-13 8 -13 8 -13.3125 5.125 C-13 2 -13 2 -11.5625 0.0625 C-7.65973027 -1.5557216 -4.05729107 -0.95003471 0 0 Z " fill="#8BC243" transform="translate(263,245)"/>
<path d="M0 0 C0.66 0.33 1.32 0.66 2 1 C0.71034824 2.37562854 -0.62689293 3.70766393 -2 5 C-2.66 5 -3.32 5 -4 5 C-4.144375 5.78375 -4.28875 6.5675 -4.4375 7.375 C-6 10 -6 10 -7.6796875 10.77734375 C-14.3536052 12.45193482 -21.16796149 12.19007217 -28 12 C-25.70071713 9.70071713 -23.90352204 9.03757846 -20.87890625 7.87109375 C-19.35233398 7.27844727 -19.35233398 7.27844727 -17.79492188 6.67382812 C-16.72822266 6.26583984 -15.66152344 5.85785156 -14.5625 5.4375 C-12.96825195 4.8197168 -12.96825195 4.8197168 -11.34179688 4.18945312 C-3.64657738 1.21552579 -3.64657738 1.21552579 0 0 Z " fill="#91BB40" transform="translate(205,447)"/>
<path d="M0 0 C0.66 0.33 1.32 0.66 2 1 C1.69078116 2.45903258 1.37751201 3.91720722 1.0625 5.375 C0.88847656 6.18710938 0.71445312 6.99921875 0.53515625 7.8359375 C0 10 0 10 -1 12 C-7.38342541 11.39779006 -7.38342541 11.39779006 -9.9375 9.75 C-11.43144549 7.2893839 -11.49427897 5.82445123 -11 3 C-7.85589032 -0.64716723 -4.57450806 -0.33885245 0 0 Z " fill="#8BC242" transform="translate(302,205)"/>
<path d="M0 0 C8.30894309 6.82926829 8.30894309 6.82926829 10 10 C9.6875 12.25 9.6875 12.25 9 14 C6.875 14.75 6.875 14.75 4 15 C0.6875 13.0625 0.6875 13.0625 -2 11 C-1.85957123 9.35369672 -1.71250671 7.70795821 -1.5625 6.0625 C-1.48128906 5.14597656 -1.40007812 4.22945313 -1.31640625 3.28515625 C-1 1 -1 1 0 0 Z " fill="#EDED8E" transform="translate(367,310)"/>
<path d="M0 0 C7.39449541 0.59633028 7.39449541 0.59633028 11 3 C10.125 7.875 10.125 7.875 9 9 C4.33521915 9.42407099 1.81535994 8.69319525 -2 6 C-1.125 1.125 -1.125 1.125 0 0 Z " fill="#95C754" transform="translate(216,182)"/>
<path d="M0 0 C3.58357037 0.27565926 5.34858004 1.20193885 8.25 3.25 C7.92 4.9 7.59 6.55 7.25 8.25 C3.35885099 9.26911045 1.64403493 9.41782969 -2.125 7.8125 C-2.99125 7.296875 -3.8575 6.78125 -4.75 6.25 C-3.68838863 0.33530806 -3.68838863 0.33530806 0 0 Z " fill="#8AC142" transform="translate(118.75,353.75)"/>
<path d="M0 0 C7.15384615 0.46153846 7.15384615 0.46153846 10.0625 2.3125 C11 4 11 4 10.75 6.125 C10 8 10 8 9 9 C4.33521915 9.42407099 1.81535994 8.69319525 -2 6 C-1.125 1.125 -1.125 1.125 0 0 Z " fill="#8AC142" transform="translate(115,278)"/>
<path d="M0 0 C4.27452339 0.35621028 5.72574144 1.37988563 8.75 4.3125 C8.09 5.6325 7.43 6.9525 6.75 8.3125 C-0.63461538 8.68173077 -0.63461538 8.68173077 -3.75 6.8125 C-4.245 6.3175 -4.74 5.8225 -5.25 5.3125 C-4.14029803 0.39810558 -4.14029803 0.39810558 0 0 Z " fill="#8AC142" transform="translate(203.25,274.6875)"/>
<path d="M0 0 C1.4370809 -0.05422947 2.87475462 -0.09289723 4.3125 -0.125 C5.11300781 -0.14820313 5.91351563 -0.17140625 6.73828125 -0.1953125 C9 0 9 0 12 2 C12.1875 4.625 12.1875 4.625 12 7 C9.17998673 8.41000664 7.12992745 8.24548451 4 8 C1.125 6.5 1.125 6.5 -1 5 C-0.67 3.35 -0.34 1.7 0 0 Z " fill="#95C754" transform="translate(250,155)"/>
<path d="M0 0 C3.62716299 0.02604785 5.54755703 0.61005703 8.1875 3.25 C7.3125 7.125 7.3125 7.125 6.1875 8.25 C1.95435233 8.48961213 -1.17986489 8.57488647 -4.8125 6.25 C-4.855221 4.58388095 -4.85313832 2.91617115 -4.8125 1.25 C-3.8125 0.25 -3.8125 0.25 0 0 Z " fill="#8BC242" transform="translate(132.8125,339.75)"/>
<path d="M0 0 C1.6875 1.3125 1.6875 1.3125 2.5 3.875 C2.561875 4.679375 2.62375 5.48375 2.6875 6.3125 C1.10789731 7.89210269 -0.50786816 7.48236544 -2.6875 7.5 C-3.47898438 7.51417969 -4.27046875 7.52835937 -5.0859375 7.54296875 C-7.3125 7.3125 -7.3125 7.3125 -10.3125 5.3125 C-10.5 2.6875 -10.5 2.6875 -10.3125 0.3125 C-6.92985172 -1.37882414 -3.56963067 -1.06124155 0 0 Z " fill="#8BC142" transform="translate(147.3125,258.6875)"/>
<path d="M0 0 C7.38461538 -0.36923077 7.38461538 -0.36923077 10.5 1.5 C10.995 1.995 11.49 2.49 12 3 C11.125 6.875 11.125 6.875 10 8 C3.76470588 8.47058824 3.76470588 8.47058824 0.5625 6.5 C0.046875 6.005 -0.46875 5.51 -1 5 C-0.67 3.35 -0.34 1.7 0 0 Z " fill="#96C854" transform="translate(94,284)"/>
<path d="M0 0 C5.31368432 0.27018734 5.31368432 0.27018734 7.6875 2.1875 C8.4375 4.8125 8.4375 4.8125 8.6875 7.1875 C5.66312661 8.6996867 3.02508466 8.36013369 -0.3125 8.1875 C-2.75 7.1875 -2.75 7.1875 -4.3125 6.1875 C-4.355221 4.52138095 -4.35313832 2.85367115 -4.3125 1.1875 C-3.3125 0.1875 -3.3125 0.1875 0 0 Z " fill="#96C854" transform="translate(107.3125,257.8125)"/>
<path d="M0 0 C3.78517206 0.25662183 5.01775858 0.68704824 7.6875 3.25 C7.3575 4.9 7.0275 6.55 6.6875 8.25 C-0.69711538 8.61923077 -0.69711538 8.61923077 -3.8125 6.75 C-4.3075 6.255 -4.8025 5.76 -5.3125 5.25 C-4.19856811 0.31687307 -4.19856811 0.31687307 0 0 Z " fill="#96C854" transform="translate(164.3125,208.75)"/>
<path d="M0 0 C1.99609375 0.05078125 1.99609375 0.05078125 4.4375 0.3125 C5.64212891 0.43044922 5.64212891 0.43044922 6.87109375 0.55078125 C9 1 9 1 11 3 C10.625 5.625 10.625 5.625 10 8 C8.56344146 8.08131463 7.1255517 8.13933559 5.6875 8.1875 C4.48673828 8.23970703 4.48673828 8.23970703 3.26171875 8.29296875 C1 8 1 8 -0.80859375 6.62109375 C-2 5 -2 5 -1.75 2.875 C-1 1 -1 1 0 0 Z " fill="#96C854" transform="translate(195,194)"/>
<path d="M0 0 C7.38461538 -0.36923077 7.38461538 -0.36923077 10.5 1.5 C10.995 1.995 11.49 2.49 12 3 C11.125 6.875 11.125 6.875 10 8 C3.76470588 8.47058824 3.76470588 8.47058824 0.5625 6.5 C0.046875 6.005 -0.46875 5.51 -1 5 C-0.67 3.35 -0.34 1.7 0 0 Z " fill="#7EBB2E" transform="translate(341,179)"/>
<path d="M0 0 C1.99609375 0.05078125 1.99609375 0.05078125 4.4375 0.3125 C5.64212891 0.43044922 5.64212891 0.43044922 6.87109375 0.55078125 C9 1 9 1 11 3 C10.625 5.625 10.625 5.625 10 8 C8.56344146 8.08131463 7.1255517 8.13933559 5.6875 8.1875 C4.48673828 8.23970703 4.48673828 8.23970703 3.26171875 8.29296875 C1 8 1 8 -0.80859375 6.62109375 C-2 5 -2 5 -1.75 2.875 C-1 1 -1 1 0 0 Z " fill="#8BC242" transform="translate(340,123)"/>
<path d="M0 0 C1.99609375 0.05078125 1.99609375 0.05078125 4.4375 0.3125 C5.64212891 0.43044922 5.64212891 0.43044922 6.87109375 0.55078125 C9 1 9 1 11 3 C10.625 5.625 10.625 5.625 10 8 C2.61538462 8.36923077 2.61538462 8.36923077 -0.5 6.5 C-0.995 6.005 -1.49 5.51 -2 5 C-1.125 1.125 -1.125 1.125 0 0 Z " fill="#96C854" transform="translate(130,229)"/>
<path d="M0 0 C1.99609375 0.05078125 1.99609375 0.05078125 4.4375 0.3125 C5.64212891 0.43044922 5.64212891 0.43044922 6.87109375 0.55078125 C9 1 9 1 11 3 C10.625 5.625 10.625 5.625 10 8 C8.56344146 8.08131463 7.1255517 8.13933559 5.6875 8.1875 C4.48673828 8.23970703 4.48673828 8.23970703 3.26171875 8.29296875 C1 8 1 8 -0.80859375 6.62109375 C-2 5 -2 5 -1.75 2.875 C-1 1 -1 1 0 0 Z " fill="#8BC242" transform="translate(267,218)"/>
<path d="M0 0 C7.15384615 0.46153846 7.15384615 0.46153846 10.0625 2.3125 C11 4 11 4 10.55859375 6.10546875 C10.28208984 7.04326172 10.28208984 7.04326172 10 8 C8.5629191 8.05422947 7.12524538 8.09289723 5.6875 8.125 C4.88699219 8.14820313 4.08648437 8.17140625 3.26171875 8.1953125 C1 8 1 8 -2 6 C-1.125 1.125 -1.125 1.125 0 0 Z " fill="#96C854" transform="translate(189,213)"/>
<path d="M0 0 C1.99609375 0.05078125 1.99609375 0.05078125 4.4375 0.3125 C5.64212891 0.43044922 5.64212891 0.43044922 6.87109375 0.55078125 C9 1 9 1 11 3 C10.625 5.625 10.625 5.625 10 8 C2.61538462 8.36923077 2.61538462 8.36923077 -0.5 6.5 C-0.995 6.005 -1.49 5.51 -2 5 C-1.125 1.125 -1.125 1.125 0 0 Z " fill="#7EBB2E" transform="translate(317,194)"/>
<path d="M0 0 C3.05448544 0.17967561 4.62545344 0.61085596 7.1875 2.1875 C6.78946439 5.07325819 6.39740931 6.00939513 4.125 7.9375 C3.485625 8.35 2.84625 8.7625 2.1875 9.1875 C-0.1225 8.1975 -2.4325 7.2075 -4.8125 6.1875 C-3.74675606 0.24978374 -3.74675606 0.24978374 0 0 Z " fill="#8AC142" transform="translate(190.8125,291.8125)"/>
<path d="M0 0 C2.31998359 0.39999717 3.86323424 0.90567879 5.8125 2.25 C7 4 7 4 6.875 6.5625 C6 9 6 9 3 11 C-0.1875 11.125 -0.1875 11.125 -3 11 C-2.69078116 9.54096742 -2.37751201 8.08279278 -2.0625 6.625 C-1.88847656 5.81289062 -1.71445312 5.00078125 -1.53515625 4.1640625 C-1 2 -1 2 0 0 Z " fill="#7DBA2E" transform="translate(304,207)"/>
<path d="M0 0 C0.66 0.66 1.32 1.32 2 2 C0.42210402 3.15330947 -1.1625482 4.29737927 -2.75 5.4375 C-3.63171875 6.07558594 -4.5134375 6.71367187 -5.421875 7.37109375 C-7.72699125 8.8275081 -9.34349572 9.55931821 -12 10 C-11.41018767 3.74798928 -11.41018767 3.74798928 -9.9375 1.0625 C-6.63614182 -0.74792223 -3.72115741 -0.29532995 0 0 Z " fill="#96C854" transform="translate(227,208)"/>
<path d="M0 0 C7.75 -0.125 7.75 -0.125 10 1 C9.67 3.31 9.34 5.62 9 8 C1.25 7.25 1.25 7.25 -1 5 C-0.625 2.375 -0.625 2.375 0 0 Z " fill="#96C854" transform="translate(93,309)"/>
<path d="M0 0 C-1.52741996 3.88797807 -3.51459563 5.72381755 -7 8 C-10.6176068 9.48780449 -14.28533377 10.77695753 -18 12 C-16.50966489 7.67510596 -13.31428771 5.9641698 -9.5625 3.75 C-8.97662109 3.38648438 -8.39074219 3.02296875 -7.78710938 2.6484375 C-4.9766612 0.95132237 -3.33999426 0 0 0 Z " fill="#6DA826" transform="translate(217,284)"/>
<path d="M0 0 C1.65 0.99 3.3 1.98 5 3 C4.125 6.875 4.125 6.875 3 8 C-0.375 8.25 -0.375 8.25 -4 8 C-4.99 7.01 -5.98 6.02 -7 5 C-4.69 3.35 -2.38 1.7 0 0 Z " fill="#71A829" transform="translate(145,398)"/>
<path d="M0 0 C0.33 1.98 0.66 3.96 1 6 C-1.55068845 8.35448165 -2.71017358 8.98327924 -6.25 9.1875 C-7.1575 9.125625 -8.065 9.06375 -9 9 C-3.2 0 -3.2 0 0 0 Z " fill="#8AC142" transform="translate(262,181)"/>
<path d="M0 0 C0.94875 0.04125 1.8975 0.0825 2.875 0.125 C2.35231534 2.88776177 1.76630413 5.4510876 0.875 8.125 C-1.5625 7.375 -1.5625 7.375 -4.125 6.125 C-5.0625 4.125 -5.0625 4.125 -5.125 2.125 C-3.125 0.125 -3.125 0.125 0 0 Z " fill="#8BC142" transform="translate(185.125,310.875)"/>
<path d="M0 0 C0 2.31 0 4.62 0 7 C-1.75 7.6875 -1.75 7.6875 -4 8 C-6.25 6.75 -6.25 6.75 -8 5 C-8 4.01 -8 3.02 -8 2 C-2.25 0 -2.25 0 0 0 Z " fill="#619821" transform="translate(397,145)"/>
<path d="M0 0 C-5.445 4.455 -5.445 4.455 -11 9 C-11.33 8.01 -11.66 7.02 -12 6 C-6.50847458 -1.62711864 -6.50847458 -1.62711864 0 0 Z " fill="#95C753" transform="translate(79,351)"/>
<path d="M0 0 C1.2065625 0.0309375 1.2065625 0.0309375 2.4375 0.0625 C2.4375 3.97088866 0.93182124 5.17844107 -1.5625 8.0625 C-2.5525 7.4025 -3.5425 6.7425 -4.5625 6.0625 C-3.48963568 0.08511307 -3.48963568 0.08511307 0 0 Z " fill="#F0F09F" transform="translate(376.5625,278.9375)"/>
<path d="M0 0 C-2.34109882 1.56073255 -4.56333403 2.86373867 -7.0625 4.125 C-8.10083984 4.65480469 -8.10083984 4.65480469 -9.16015625 5.1953125 C-11 6 -11 6 -13 6 C-12.67 4.68 -12.34 3.36 -12 2 C-7.8803623 0.70756464 -4.33168317 -0.26252625 0 0 Z " fill="#7AB138" transform="translate(354,159)"/>
<path d="M0 0 C-2.52788007 2.79872437 -4.20411134 4.45773019 -8 5 C-7.625 2.5625 -7.625 2.5625 -7 0 C-4.3333581 -1.33332095 -2.83319697 -0.67102033 0 0 Z " fill="#7EB03C" transform="translate(145,398)"/>
<path d="M0 0 C1.65 0 3.3 0 5 0 C3.55746343 3.36591866 1.66735273 5.51047079 -1 8 C-1.125 2.25 -1.125 2.25 0 0 Z " fill="#94C653" transform="translate(85,336)"/>
<path d="M0 0 C0.66 0.33 1.32 0.66 2 1 C-1.3 4.3 -4.6 7.6 -8 11 C-8.66 10.67 -9.32 10.34 -10 10 C-3.84965831 2.51708428 -3.84965831 2.51708428 0 0 Z " fill="#AACD81" transform="translate(214,160)"/>
<path d="M0 0 C0 2.31 0 4.62 0 7 C-0.33 5.68 -0.66 4.36 -1 3 C-2.98 3.99 -4.96 4.98 -7 6 C-5.52522876 2.59668175 -4.14385429 0 0 0 Z " fill="#7BAF3B" transform="translate(160,370)"/>
</svg>
