<svg id="vector" xmlns="http://www.w3.org/2000/svg" width="32" height="32" viewBox="0 0 512 512"><path fill="#744DB2" d="M364.76,435.11m-73.88,0a73.88,73.88 0,1 1,147.76 0a73.88,73.88 0,1 1,-147.76 0" id="path_0"/><path fill="#56C140" d="M192.43,185.24a18.77,18.77 0,0 1,-10.48 -3.19C113.46,136.15 60.38,64.71 46.06,30.89c-4.06,-9.59 0.43,-20.65 10.01,-24.71c9.59,-4.06 20.65,0.43 24.71,10.01c10.51,24.83 58.6,91.94 122.16,134.54c8.65,5.8 10.96,17.51 5.16,26.16c-3.64,5.43 -9.6,8.36 -15.68,8.36z" id="path_1"/><path fill="#16992B" d="M80.52,29.32s0.66,-0.64 1.89,-1.63c1.24,-1.03 2.96,-2.38 5.52,-3.86c2.56,-1.5 5.47,-3.07 8.85,-4.58a98.72,98.72 0,0 1,11.1 -4.16a113.18,113.18 0,0 1,12.48 -3.08c4.25,-0.82 8.65,-1.39 12.9,-1.75c4.27,-0.37 8.52,-0.47 12.59,-0.45c4.07,0.01 8.08,0.33 11.89,0.56c3.82,0.24 7.55,0.6 11.2,0.93l10.87,1.02c3.61,0.28 7.3,0.63 10.97,0.76l2.78,0.14l2.77,0.06c0.94,0.05 1.87,0.08 2.78,0.05l2.76,0.01c3.65,-0.03 7.26,-0.09 10.59,-0.26c3.39,-0.07 6.41,-0.37 9.13,-0.43c2.64,-0.17 4.84,-0.3 6.4,-0.35c1.56,-0.06 2.45,-0.05 2.45,-0.05h0.05a2,2 0,0 1,1.99 2.01s-0,0.88 -0.14,2.46c-0.08,0.78 -0.15,1.77 -0.32,2.88c-0.17,1.11 -0.31,2.45 -0.65,3.81a73.81,73.81 0,0 1,-1.16 4.58c-0.25,0.82 -0.49,1.69 -0.8,2.56l-1.01,2.66c-1.42,3.68 -3.43,7.65 -6.08,11.74c-1.37,1.99 -2.79,4.15 -4.51,6.14c-0.84,1.02 -1.73,2.03 -2.64,3.07c-0.91,1.04 -1.92,1.97 -2.93,2.98c-4.04,4 -8.84,7.67 -14.15,10.96c-5.32,3.3 -11.17,5.95 -17.25,8.13c-6.08,2.13 -12.34,3.59 -18.53,4.53a100.81,100.81 0,0 1,-18.06 1.12c-5.82,-0.16 -11.28,-0.89 -16.39,-1.96c-5.14,-1.07 -9.79,-2.58 -14.13,-4.27a87.5,87.5 0,0 1,-11.69 -5.67a92.06,92.06 0,0 1,-9.35 -6.22c-2.72,-2.06 -5.12,-4.08 -6.95,-5.87c-0.96,-0.92 -1.74,-1.71 -2.59,-2.49a49.01,49.01 0,0 1,-2.07 -1.99c-1.12,-1.12 -1.71,-1.82 -1.71,-1.82c-5.55,-6.61 -4.93,-16.36 1.16,-22.27z" id="path_2"/><path fill="#A47FD6" d="M252.81,143.56m-78.39,0a78.39,78.39 0,1 1,156.78 0a78.39,78.39 0,1 1,-156.78 0" id="path_3"/><path fill="#A47FD6" d="M129.66,293.39m-74.17,0a74.17,74.17 0,1 1,148.35 0a74.17,74.17 0,1 1,-148.35 0" id="path_4"/><path fill="#8866B9" d="M119.71,168.01m-78.17,0a78.17,78.17 0,1 1,156.35 0a78.17,78.17 0,1 1,-156.35 0" id="path_5"/><path fill="#8866B9" d="M340.28,232.17m-79.76,0a79.76,79.76 0,1 1,159.52 0a79.76,79.76 0,1 1,-159.52 0" id="path_6"/><path fill="#8866B9" d="M232.71,383.82m-79.76,0a79.76,79.76 0,1 1,159.52 0a79.76,79.76 0,1 1,-159.52 0" id="path_7"/><path fill="#A47FD6" d="M329.42,335.71m-73.88,0a73.88,73.88 0,1 1,147.76 0a73.88,73.88 0,1 1,-147.76 0" id="path_8"/><path fill="#744DB2" d="M221.35,269.23m-86.11,0a86.11,86.11 0,1 1,172.22 0a86.11,86.11 0,1 1,-172.22 0" id="path_9"/></svg>