<?xml version="1.0" encoding="UTF-8"?>
<svg version="1.1" xmlns="http://www.w3.org/2000/svg" width="1024" height="1024">
<path d="M0 0 C1.67640589 1.52796079 3.35220968 3.0565825 5.02734375 4.5859375 C8.34536341 7.51075029 11.84711598 10.12515168 15.43359375 12.70703125 C15.4190918 12.12219971 15.40458984 11.53736816 15.38964844 10.93481445 C15.29673654 4.1675099 15.83665251 -2.39542397 16.68359375 -9.10546875 C16.84794922 -10.62043945 16.84794922 -10.62043945 17.015625 -12.16601562 C17.69398389 -17.5750352 18.19466352 -21.4794786 22.43359375 -25.29296875 C25.65644773 -27.27668361 28.12748315 -27.54730025 31.88546753 -27.56039429 C32.99296356 -27.56892426 34.10045959 -27.57745422 35.24151611 -27.58624268 C37.05725128 -27.58488312 37.05725128 -27.58488312 38.90966797 -27.58349609 C40.82729446 -27.59357193 40.82729446 -27.59357193 42.78366089 -27.60385132 C46.28786653 -27.62150903 49.79197447 -27.6262066 53.2962203 -27.62748289 C55.48665601 -27.62890519 57.67706694 -27.63317629 59.86749649 -27.63847733 C67.51242905 -27.65697692 75.15729189 -27.66514804 82.80224609 -27.66357422 C89.92325152 -27.66237286 97.04395382 -27.68347398 104.16488254 -27.71506155 C110.28306752 -27.74123184 116.40115353 -27.7519412 122.51939404 -27.7506634 C126.17157533 -27.75015398 129.82348721 -27.75582584 133.47561264 -27.7770195 C137.5501953 -27.80001949 141.62410078 -27.7908765 145.69873047 -27.77880859 C146.90517212 -27.79004761 148.11161377 -27.80128662 149.35461426 -27.81286621 C155.65263411 -27.76540215 159.71687082 -27.66149507 164.43359375 -23.29296875 C166.39521861 -20.35053146 166.77480333 -19.23277252 167.21044922 -15.87402344 C167.387509 -14.53141449 167.387509 -14.53141449 167.56814575 -13.16168213 C167.74517532 -11.70299713 167.74517532 -11.70299713 167.92578125 -10.21484375 C168.0535495 -9.19614197 168.18131775 -8.17744019 168.31295776 -7.12786865 C169.61678761 3.61909172 170.50679925 14.39396829 171.31396484 25.18798828 C171.55953516 28.46961156 171.8141894 31.75043502 172.0703125 35.03125 C173.03878245 47.58256409 173.84561324 60.13213825 174.43359375 72.70703125 C175.53327726 71.77137355 176.63195534 70.83453412 177.73022461 69.8972168 C178.34216171 69.37564499 178.95409882 68.85407318 179.58457947 68.31669617 C181.88843644 66.31106658 184.10167006 64.2213218 186.31445312 62.11645508 C193.6623682 55.13870936 201.33750318 48.79184345 209.43359375 42.70703125 C210.47257813 41.91039062 211.5115625 41.11375 212.58203125 40.29296875 C261.75732375 3.32286467 322.79234729 -10.93136484 383.38134766 -2.90234375 C400.53997179 -0.33701216 417.19371541 4.19208191 433.43359375 10.26953125 C434.16932617 10.53805908 434.90505859 10.80658691 435.66308594 11.08325195 C440.76318477 13.07917671 444.88713251 15.61410876 447.43359375 20.70703125 C447.77803922 25.95982463 448.01101126 29.53337749 444.43359375 33.70703125 C438.91201815 37.23144121 433.09919919 37.68389416 426.74609375 38.51953125 C372.34700612 46.35434911 318.47030955 65.81551938 275.43359375 100.70703125 C274.50417969 101.444375 273.57476563 102.18171875 272.6171875 102.94140625 C256.87193945 115.57344024 241.78867408 129.70958219 229.43359375 145.70703125 C228.41696752 146.99502919 227.40001704 148.28277123 226.3828125 149.5703125 C218.79361722 159.25195089 211.82989625 169.19930143 205.43359375 179.70703125 C204.95035645 180.50061035 204.46711914 181.29418945 203.96923828 182.11181641 C188.20812719 208.26407981 176.61467055 236.03834591 169.43359375 265.70703125 C169.23523926 266.51317871 169.03688477 267.31932617 168.83251953 268.14990234 C168.3858364 271.01315759 168.55175996 273.37634965 168.88671875 276.25390625 C169.07161865 277.94616333 169.07161865 277.94616333 169.26025391 279.67260742 C169.39995605 280.92146729 169.5396582 282.17032715 169.68359375 283.45703125 C174.66277636 331.05275738 175.56422785 378.88731467 175.43359375 426.70703125 C175.90886002 426.16365616 176.38412628 425.62028107 176.87379456 425.06044006 C177.50011276 424.34448166 178.12643097 423.62852325 178.77172852 422.89086914 C179.39136978 422.18249405 180.01101105 421.47411896 180.64942932 420.74427795 C186.90684341 413.59925476 193.13340925 406.79051834 200.43359375 400.70703125 C201.35398437 399.89878906 202.274375 399.09054687 203.22265625 398.2578125 C251.20972958 356.28151866 314.65640257 336.37375323 377.43359375 331.70703125 C378.18979004 331.65063477 378.94598633 331.59423828 379.72509766 331.53613281 C419.72915819 328.73028669 496.72681446 323.70640888 531.49609375 347.83203125 C534.1232054 351.73032596 534.83788121 355.02884784 534.43359375 359.70703125 C532.31634019 364.47085176 530.086946 366.12440807 525.32699585 368.05096436 C522.45077125 369.04758084 519.58303619 369.53347826 516.578125 369.99609375 C515.23898345 370.21171037 513.89995864 370.4280529 512.56103516 370.64501953 C511.85988586 370.75589905 511.15873657 370.86677856 510.43634033 370.98101807 C460.58212591 378.97075158 412.52185787 395.06706459 367.43359375 417.70703125 C366.55944824 418.14547363 365.68530273 418.58391602 364.78466797 419.03564453 C332.75279541 435.22285759 303.28737808 455.94657362 276.43359375 479.70703125 C275.52351562 480.50496094 274.6134375 481.30289063 273.67578125 482.125 C267.15847792 487.96457806 260.92288469 494.09144795 254.71191406 500.253479 C253.2897808 501.66370983 251.86370087 503.0699572 250.4375 504.47607422 C245.07518076 509.83169056 240.10905446 515.34323825 235.39453125 521.27856445 C233.54626239 523.5675 231.62098291 525.7379928 229.62109375 527.89453125 C213.296728 546.17525518 199.39186762 567.71800717 187.828125 589.26464844 C186.35996703 591.83598113 184.72798944 594.23885231 183.05859375 596.68359375 C171.04975022 615.73133514 173.72395174 636.27567216 174.97154236 657.88618469 C175.50332319 667.17130695 175.57033662 676.41034661 175.43359375 685.70703125 C175.42531555 686.40370911 175.41703735 687.10038696 175.4085083 687.81817627 C174.91172884 728.70926024 171.98477228 769.58574774 164.93359375 809.89453125 C164.7442627 811.01778809 164.55493164 812.14104492 164.35986328 813.29833984 C162.56201443 822.98683127 162.56201443 822.98683127 158.43359375 826.70703125 C155.29597901 828.61690973 152.93621168 828.96090517 149.28543091 828.97445679 C148.24524811 828.98298676 147.20506531 828.99151672 146.13336182 829.00030518 C144.42983551 828.99894562 144.42983551 828.99894562 142.69189453 828.99755859 C140.89131088 829.00763443 140.89131088 829.00763443 139.05435181 829.01791382 C135.76499506 829.03365689 132.47578986 829.04026886 129.18639994 829.04154539 C127.12997133 829.04296801 125.07356911 829.04723971 123.01714706 829.05253983 C115.83905103 829.0710377 108.66102923 829.07921076 101.48291016 829.07763672 C94.79814905 829.07643544 88.11371089 829.09753544 81.42903149 829.12912405 C75.68451552 829.15529983 69.94010495 829.16600347 64.19552982 829.1647259 C60.76690684 829.16421663 57.3385709 829.16987972 53.91000748 829.191082 C50.08442573 829.2106582 46.25967694 829.20493578 42.43408203 829.19287109 C41.30244629 829.20411011 40.17081055 829.21534912 39.00488281 829.22692871 C32.85019553 829.1775594 29.06780336 828.91618672 24.43359375 824.70703125 C22.4340843 821.70776707 21.94456878 820.09733043 21.28515625 816.6328125 C21.08647949 815.59036377 20.88780273 814.54791504 20.68310547 813.47387695 C20.4770166 812.33394287 20.27092773 811.19400879 20.05859375 810.01953125 C19.84090332 808.8183667 19.62321289 807.61720215 19.39892578 806.37963867 C4.98120211 724.47032836 7.16395047 638.9586097 15.49609375 556.51953125 C15.57799957 555.69547791 15.6599054 554.87142456 15.74429321 554.0223999 C15.97691258 551.71441651 16.22032338 549.40789243 16.46875 547.1015625 C16.67576538 545.16567261 16.67576538 545.16567261 16.88696289 543.19067383 C17.43359375 539.70703125 17.43359375 539.70703125 18.50927734 536.5390625 C19.45565263 533.63944463 19.55959266 531.98997537 19.1875 529 C19.07680176 528.04657715 18.96610352 527.0931543 18.85205078 526.11083984 C18.71395996 524.98758301 18.57586914 523.86432617 18.43359375 522.70703125 C18.28742307 521.31099779 18.1442266 519.91465089 18.00341797 518.51806641 C17.59580844 514.51388957 17.13847773 510.51720482 16.66137695 506.52075195 C16.46904198 504.86350069 16.28790339 503.20490873 16.1184082 501.54516602 C14.91027203 489.80049793 12.21291978 480.64941983 6.37008667 470.37966919 C5.11461815 468.13731986 4.01367794 465.83350072 2.921875 463.5078125 C-11.87129934 432.82961836 -32.13504918 405.21328305 -54.56640625 379.70703125 C-55.36820312 378.79179687 -56.17 377.8765625 -56.99609375 376.93359375 C-63.3441574 369.85540138 -70.04341131 363.12638924 -76.75390625 356.39453125 C-77.22753601 355.91822266 -77.70116577 355.44191406 -78.18914795 354.95117188 C-83.8038402 349.3124177 -89.4850898 343.84018123 -95.56640625 338.70703125 C-96.20054443 338.16618896 -96.83468262 337.62534668 -97.48803711 337.06811523 C-108.12112164 328.04954097 -119.12176916 319.66702468 -130.56640625 311.70703125 C-131.20255859 311.26407715 -131.83871094 310.82112305 -132.49414062 310.36474609 C-151.60177297 297.1508335 -171.82910741 286.13283971 -192.56640625 275.70703125 C-193.42057129 275.27261719 -194.27473633 274.83820313 -195.15478516 274.390625 C-237.15244783 253.12420881 -284.14246475 240.602516 -330.44482422 233.08935547 C-331.60751076 232.89233284 -331.60751076 232.89233284 -332.79368591 232.69132996 C-334.23545844 232.4472312 -335.67933288 232.21509467 -337.12538147 231.99775696 C-341.61155141 231.22529528 -344.28614434 229.8499834 -347.56640625 226.70703125 C-349.50734132 223.79850836 -349.83341298 221.72635643 -349.50390625 218.26953125 C-349.45105469 217.52832031 -349.39820313 216.78710938 -349.34375 216.0234375 C-348.20566782 212.63206699 -346.24315731 211.04631884 -343.56640625 208.70703125 C-334.24604544 204.7994242 -323.67011258 203.39177046 -313.75390625 201.64453125 C-313.03620056 201.51663208 -312.31849487 201.38873291 -311.57904053 201.25695801 C-259.73257856 192.05398573 -206.55505552 190.87216825 -154.56640625 199.70703125 C-153.44556641 199.89716797 -152.32472656 200.08730469 -151.16992188 200.28320312 C-101.95747137 208.98453495 -55.19631766 229.64153787 -17.56640625 262.70703125 C-16.88964844 263.27292969 -16.21289062 263.83882813 -15.515625 264.421875 C-4.88084432 273.37148701 5.18623793 283.50854491 13.43359375 294.70703125 C13.72815491 292.58243054 14.01898516 290.45731272 14.30859375 288.33203125 C14.39882813 287.67025879 14.4890625 287.00848633 14.58203125 286.32666016 C15.09150195 282.5153594 15.54965942 278.7041988 15.94140625 274.87890625 C16.02406738 274.0801709 16.10672852 273.28143555 16.19189453 272.45849609 C16.35018278 270.90215489 16.50243298 269.34518494 16.64794922 267.78759766 C16.95738967 264.76158147 17.26730491 262.09101293 18.48242188 259.28515625 C19.55645245 256.37402614 19.53803654 254.62836804 19.21484375 251.55859375 C19.10527344 250.50575195 18.99570312 249.45291016 18.8828125 248.36816406 C17.97007835 240.92938077 16.9689313 233.50465036 15.93359375 226.08203125 C15.48336921 222.84015838 15.0359962 219.59790421 14.58984375 216.35546875 C14.42899292 215.20289581 14.42899292 215.20289581 14.26489258 214.02703857 C13.61094376 209.27112966 13.09889551 204.53445855 12.85742188 199.73681641 C12.28463079 196.99362226 10.92133261 195.06939121 9.43359375 192.70703125 C8.66963867 191.08055687 7.9370873 189.43901287 7.234375 187.78515625 C6.63399414 186.38366333 6.63399414 186.38366333 6.02148438 184.95385742 C5.60060547 183.96490479 5.17972656 182.97595215 4.74609375 181.95703125 C-13.66946626 139.2453967 -37.90134628 99.62068134 -69.3359375 65.15625 C-70.7837952 63.56639574 -72.21951268 61.96536802 -73.640625 60.3515625 C-82.59136466 50.20959686 -92.11434279 40.31566571 -102.56640625 31.70703125 C-103.09363281 31.26601074 -103.62085938 30.82499023 -104.1640625 30.37060547 C-146.0644974 -4.64069205 -194.71773985 -29.77709539 -248.33935547 -40.87329102 C-259.06657429 -43.21080742 -259.06657429 -43.21080742 -262.56640625 -48.29296875 C-264.16991488 -52.29403116 -263.81416338 -55.60185677 -262.37890625 -59.60546875 C-260.18057226 -62.86506742 -258.18064104 -64.77938983 -254.39477539 -65.98388672 C-168.57852002 -81.51245775 -65.51712179 -58.53660653 0 0 Z " fill="#000000" transform="translate(419.56640625,132.29296875)"/>
<path d="M0 0 C34.98 0 69.96 0 106 0 C106.99 11.22 107.98 22.44 109 34 C109.31324219 37.47917969 109.62648438 40.95835937 109.94921875 44.54296875 C112.0451044 70.53329007 112.29684385 96.48806547 112.31052017 122.54773331 C112.31247009 125.39383981 112.31758053 128.23992749 112.3230896 131.08602905 C112.36431407 159.88097631 111.85673932 188.59782192 108.0625 217.1875 C107.88825328 218.55330103 107.71468509 219.91918877 107.54174805 221.28515625 C107.04320472 225.19218943 106.52358139 229.09623878 106 233 C105.84853516 234.1442041 105.69707031 235.2884082 105.54101562 236.46728516 C105.13970419 239.47939079 104.72976288 242.49006647 104.3125 245.5 C104.13376343 246.79973755 104.13376343 246.79973755 103.95141602 248.12573242 C103.1211494 253.8788506 103.1211494 253.8788506 102 255 C98.95597578 255.09530981 95.93468292 255.12551639 92.89038086 255.11352539 C91.93438492 255.11367142 90.97838898 255.11381744 89.99342346 255.1139679 C86.81720755 255.11326835 83.64104948 255.10547403 80.46484375 255.09765625 C78.26908907 255.09579222 76.07333398 255.09436825 73.87757874 255.09336853 C68.08579367 255.08954219 62.2940335 255.07971091 56.5022583 255.06866455 C50.59721209 255.05845293 44.69216187 255.05387145 38.78710938 255.04882812 C27.19139528 255.03808875 15.59569971 255.02101093 4 255 C2.6423737 250.3701963 1.60258766 245.95739735 1 241.16796875 C0.835 239.87310547 0.67 238.57824219 0.5 237.24414062 C0.33331357 235.89192952 0.16664691 234.53971598 0 233.1875 C-0.165 231.89134766 -0.33 230.59519531 -0.5 229.25976562 C-1.01488185 225.17490222 -1.51053899 221.08796492 -2 217 C-2.08258371 216.31319908 -2.16516743 215.62639816 -2.25025368 214.9187851 C-3.55856684 203.93343742 -4.52718885 192.97329005 -5.10546875 181.92578125 C-5.14721914 181.14645044 -5.18896954 180.36711964 -5.23198509 179.56417274 C-6.20655713 160.99701835 -6.35612704 142.43788847 -6.31765366 123.84873962 C-6.3124036 121.13772347 -6.31049795 118.42671885 -6.30899048 115.71569824 C-6.27139604 76.80264749 -3.75526021 38.8043555 0 0 Z " fill="#7FE73C" transform="translate(459,128)"/>
<path d="M0 0 C34.98 0 69.96 0 106 0 C106.804375 9.44625 107.60875 18.8925 108.4375 28.625 C108.68943115 31.55713379 108.9413623 34.48926758 109.20092773 37.51025391 C111.48783931 64.40983707 112.21329044 91.10788682 112.24023438 118.09570312 C112.24457809 121.8295287 112.25833542 125.56311787 112.28125 129.296875 C112.40450868 149.82948699 112.1091515 170.23761596 110.609375 190.72265625 C110.54662636 191.58131538 110.48387772 192.43997452 110.4192276 193.32465363 C108.86347944 214.12368416 106.09489678 234.52551611 102 255 C69.66 255 37.32 255 4 255 C0.52385762 237.61928808 0.52385762 237.61928808 -0.5625 229.1875 C-0.68616943 228.24503418 -0.80983887 227.30256836 -0.93725586 226.33154297 C-1.29773601 223.55511875 -1.64924545 220.77766651 -2 218 C-2.09667969 217.26507324 -2.19335938 216.53014648 -2.29296875 215.77294922 C-6.13965145 186.40018187 -6.37334387 156.80061718 -6.31765366 127.23036575 C-6.31242813 124.27181027 -6.31050365 121.31326532 -6.30899048 118.35470581 C-6.2838462 90.10844127 -5.66156573 62.13811672 -3 34 C-2.01 22.78 -1.02 11.56 0 0 Z " fill="#7FE73C" transform="translate(459,683)"/>
<path d="M0 0 C34.98 0 69.96 0 106 0 C106.99 11.22 107.98 22.44 109 34 C109.31324219 37.3928125 109.62648438 40.785625 109.94921875 44.28125 C112.01327105 68.81511635 112.29673585 93.31765466 112.31052017 117.92263794 C112.31246419 120.57611943 112.31756805 123.22958048 112.3230896 125.88305664 C112.3694497 156.01055661 111.44326525 186.03951125 108.0625 216 C107.88874645 217.59462672 107.71516559 219.18927226 107.54174805 220.78393555 C104.10990844 251.89009156 104.10990844 251.89009156 102 254 C98.95597578 254.09530981 95.93468292 254.12551639 92.89038086 254.11352539 C91.93438492 254.11367142 90.97838898 254.11381744 89.99342346 254.1139679 C86.81720755 254.11326835 83.64104948 254.10547403 80.46484375 254.09765625 C78.26908907 254.09579222 76.07333398 254.09436825 73.87757874 254.09336853 C68.08579367 254.08954219 62.2940335 254.07971091 56.5022583 254.06866455 C50.59721209 254.05845293 44.69216187 254.05387145 38.78710938 254.04882812 C27.19139528 254.03808875 15.59569971 254.02101093 4 254 C3.51949866 251.96872088 3.04228652 249.93666357 2.56640625 247.90429688 C2.30029541 246.77278198 2.03418457 245.64126709 1.76000977 244.47546387 C-0.71591916 233.15323891 -1.79027774 221.51621347 -3 210 C-3.11758667 208.88927124 -3.11758667 208.88927124 -3.23754883 207.75610352 C-6.070013 180.46657179 -6.28929919 153.13582887 -6.31007385 125.72859192 C-6.31245456 123.05110945 -6.31776664 120.37364442 -6.32336426 117.69616699 C-6.38329322 78.17401399 -3.51470406 39.54042068 0 0 Z " fill="#7FE73C" transform="translate(459,406)"/>
<path d="M0 0 C0.96104645 -0.00108765 1.9220929 -0.00217529 2.91226196 -0.0032959 C12.66138844 -0.00204776 22.39240093 0.10913706 32.12890625 0.6328125 C32.84230667 0.67078445 33.55570709 0.70875641 34.29072571 0.74787903 C40.3381308 1.11395739 46.25311165 1.98898627 52.1875 3.1875 C48.96059323 4.9462223 45.74752915 5.9893198 42.21875 7 C41.02266113 7.34764404 39.82657227 7.69528809 38.59423828 8.0534668 C37.64100677 8.32941177 37.64100677 8.32941177 36.66851807 8.6109314 C-27.19911234 27.19938907 -86.79293689 57.18942628 -137.8125 100.1875 C-138.33489258 100.62497559 -138.85728516 101.06245117 -139.39550781 101.51318359 C-154.98599602 114.59010329 -170.67820749 128.36480353 -183.87109375 143.91015625 C-185.42481955 145.73273601 -187.00079953 147.52424539 -188.59765625 149.30859375 C-197.63897359 159.47409605 -205.79970035 170.200152 -213.8125 181.1875 C-214.35293945 181.92258789 -214.89337891 182.65767578 -215.45019531 183.41503906 C-222.17869707 192.59026873 -228.27815985 202.00420181 -233.98120117 211.85351562 C-234.45404541 212.66498047 -234.92688965 213.47644531 -235.4140625 214.3125 C-236.03788818 215.39917969 -236.03788818 215.39917969 -236.67431641 216.5078125 C-237.8125 218.1875 -237.8125 218.1875 -239.8125 219.1875 C-239.92319824 218.11266357 -240.03389648 217.03782715 -240.14794922 215.93041992 C-240.56081019 211.94318583 -240.98456435 207.95717208 -241.41162109 203.97143555 C-241.59493634 202.2461633 -241.7752951 200.52057425 -241.95263672 198.79467773 C-242.20804807 196.31404845 -242.47406767 193.83475255 -242.7421875 191.35546875 C-242.81936005 190.58349655 -242.89653259 189.81152435 -242.9760437 189.01615906 C-243.38062863 185.3691601 -243.74093922 183.29484117 -245.8125 180.1875 C-245.81176758 178.11645508 -245.81176758 178.11645508 -245.45703125 175.70703125 C-245.33062256 174.80227051 -245.20421387 173.89750977 -245.07397461 172.96533203 C-244.92581299 171.98677246 -244.77765137 171.00821289 -244.625 170 C-244.32989609 167.91027372 -244.03565244 165.82042582 -243.7421875 163.73046875 C-243.58717773 162.65071777 -243.43216797 161.5709668 -243.27246094 160.45849609 C-242.68237073 156.26209025 -242.14811129 152.06007355 -241.62792969 147.85449219 C-241.37569676 145.82424527 -241.11591078 143.79492266 -240.84863281 141.76660156 C-240.27263948 137.33711125 -239.7577819 132.961847 -239.6015625 128.49609375 C-239.04156732 116.08660058 -233.53959144 108.62597721 -225.8125 99.1875 C-224.98476223 98.13585573 -224.15902682 97.08263018 -223.3359375 96.02734375 C-221.21482398 93.36283542 -219.03752511 90.76557337 -216.8125 88.1875 C-216.15507813 87.41921875 -215.49765625 86.6509375 -214.8203125 85.859375 C-202.73077667 72.08186624 -189.81051701 59.74140253 -174.8125 49.1875 C-174.15233887 48.72037598 -173.49217773 48.25325195 -172.81201172 47.77197266 C-147.19787554 29.88203005 -118.83194699 18.2317863 -88.8125 10.1875 C-87.67482178 9.8783667 -87.67482178 9.8783667 -86.51416016 9.56298828 C-73.16252 5.98860718 -59.49654534 4.01316373 -45.8125 2.1875 C-44.9251416 2.06600586 -44.0377832 1.94451172 -43.12353516 1.81933594 C-28.80092152 -0.04725639 -14.41783735 0.00878164 0 0 Z " fill="#12A916" transform="translate(828.8125,485.8125)"/>
<path d="M0 0 C1.12341797 0.00054382 2.24683594 0.00108765 3.40429688 0.00164795 C71.10406575 0.15114044 140.58158827 16.24444169 192.875 61.375 C193.761875 62.13167969 194.64875 62.88835937 195.5625 63.66796875 C207.90305551 74.48625179 219.18356342 86.1284679 228.875 99.375 C229.57810303 100.3347876 229.57810303 100.3347876 230.29541016 101.31396484 C240.0314743 114.66769343 240.0314743 114.66769343 239.7890625 121.58984375 C239.76814041 122.24862518 239.74721832 122.90740662 239.72566223 123.58615112 C239.679173 125.04868107 239.63051875 126.51114331 239.58004761 127.97354126 C239.43956753 132.07831232 239.31852205 136.18362822 239.19921875 140.2890625 C239.17257645 141.20365738 239.14593414 142.11825226 239.1184845 143.06056213 C238.75327999 156.09104525 238.55714129 169.12537185 238.34545135 182.15907669 C238.31238489 184.19458586 238.27905624 186.23009059 238.2456665 188.26559448 C238.11948573 195.96868839 237.99585387 203.67182067 237.875 211.375 C234.76492341 208.42553251 232.74934114 205.02756067 230.5625 201.375 C224.58307788 191.60849799 217.80372532 182.48282356 210.875 173.375 C210.13781738 172.40385254 210.13781738 172.40385254 209.38574219 171.41308594 C193.25998005 150.26991778 175.1368217 129.32383403 154.84375 112.06640625 C152.59718493 110.13632158 150.42916096 108.13081861 148.25 106.125 C142.04904486 100.53846877 135.49475475 95.45003139 128.875 90.375 C128.24819336 89.8912793 127.62138672 89.40755859 126.97558594 88.90917969 C76.360756 49.92521052 19.14133496 23.75424328 -42.125 6.375 C-43.54564856 5.96901461 -44.96623543 5.56281315 -46.38671875 5.15625 C-47.29035156 4.8984375 -48.19398438 4.640625 -49.125 4.375 C-48.795 3.715 -48.465 3.055 -48.125 2.375 C-46.29885864 1.9703064 -46.29885864 1.9703064 -43.87939453 1.75537109 C-42.52248001 1.63230087 -42.52248001 1.63230087 -41.13815308 1.50674438 C-40.14639069 1.42975311 -39.1546283 1.35276184 -38.1328125 1.2734375 C-37.10229767 1.18975922 -36.07178284 1.10608093 -35.01004028 1.01986694 C-23.34448866 0.1419661 -11.69411188 -0.02154133 0 0 Z " fill="#12A916" transform="translate(192.125,348.625)"/>
<path d="M0 0 C11.3819075 -0.35346158 22.52722879 0.17339766 33.84375 1.45751953 C34.96418701 1.58352539 36.08462402 1.70953125 37.23901367 1.83935547 C45.88206189 2.90536465 45.88206189 2.90536465 49.71875 5.08251953 C48.52838135 5.42863281 48.52838135 5.42863281 47.31396484 5.78173828 C8.71654741 17.05300835 -28.06564655 30.94406939 -61.28125 54.08251953 C-61.87389648 54.48970215 -62.46654297 54.89688477 -63.07714844 55.31640625 C-74.78075299 63.36462968 -85.44671822 72.40615104 -95.94140625 81.96533203 C-97.49675368 83.37267478 -99.06716137 84.7635564 -100.65234375 86.13720703 C-104.89771673 89.81700756 -108.7480927 93.5671273 -112.3671875 97.86376953 C-113.74715342 99.4634035 -115.17571697 101.02156127 -116.6328125 102.55126953 C-135.3399372 122.19650963 -149.92944639 145.40555776 -163.10205078 168.99121094 C-164.45049449 171.38267445 -165.84751317 173.74123211 -167.28125 176.08251953 C-168.80344272 173.03813409 -168.18456573 169.96475553 -167.9765625 166.64892578 C-167.8882386 165.05436344 -167.79994242 163.45979956 -167.71166992 161.86523438 C-167.55930269 159.23871357 -167.40429448 156.61237411 -167.24697876 153.98614502 C-166.62216366 143.42286839 -166.21844046 132.93499102 -166.37890625 122.35205078 C-166.39900943 119.482503 -166.41533451 116.6129509 -166.43133545 113.74337769 C-166.45599507 111.90724136 -166.50351817 110.07124917 -166.57550049 108.23635864 C-166.92174377 99.27219619 -167.04874875 92.14560608 -160.90190125 85.133255 C-158.6296992 82.81508453 -156.27451814 80.62203027 -153.83493042 78.48141479 C-151.8536038 76.69747752 -150.15838241 74.74066073 -148.4609375 72.68798828 C-137.65039001 60.19513644 -124.66750386 49.67388596 -111.28125 40.08251953 C-110.6713623 39.64246582 -110.06147461 39.20241211 -109.43310547 38.74902344 C-77.40810592 15.87402376 -39.48830864 1.42840842 0 0 Z " fill="#12A816" transform="translate(759.28125,148.91748046875)"/>
<path d="M0 0 C56.92265268 2.53572493 115.3271078 21.09655541 160 57 C160.53286621 57.41862305 161.06573242 57.83724609 161.61474609 58.26855469 C188.87025901 79.74051802 188.87025901 79.74051802 194 90 C194.10384888 92.34576297 194.14047479 94.65407604 194.125 97 C194.12101196 98.13804077 194.12101196 98.13804077 194.11694336 99.29907227 C194.05993852 106.55456131 193.74134516 113.79441675 193.4284668 121.04248047 C192.90835644 133.89858834 192.68483773 146.76129331 192.4375 159.625 C192.41535431 160.77636444 192.39320862 161.92772888 192.37039185 163.11398315 C192.24369658 169.74259699 192.12015002 176.37126435 192 183 C189.83730741 180.89762797 188.31899384 179.03896756 186.90625 176.3671875 C186.52170654 175.65248291 186.13716309 174.93777832 185.7409668 174.20141602 C185.33144775 173.43369873 184.92192871 172.66598145 184.5 171.875 C179.44291867 162.6004228 173.8707819 153.77609116 168 145 C167.49065918 144.23010742 166.98131836 143.46021484 166.45654297 142.66699219 C159.31220639 131.88117823 151.75721976 121.64494581 143.44433594 111.73242188 C141.38752209 109.26535781 139.38583045 106.75459309 137.375 104.25 C132.94094171 98.83867203 128.23409244 93.70151517 123.46777344 88.58544922 C121.93815763 86.93319954 120.42476578 85.26720623 118.9140625 83.59765625 C114.1874834 78.38898539 109.50944856 73.30676155 104.1015625 68.7890625 C101.96903147 66.97363645 99.92616373 65.07733295 97.88427734 63.16113281 C90.92293171 56.65246607 83.60256525 50.74004292 76 45 C75.34854004 44.50274414 74.69708008 44.00548828 74.02587891 43.49316406 C51.32327816 26.24723922 26.28509168 12.00223891 0 1 C0 0.67 0 0.34 0 0 Z " fill="#12A916" transform="translate(238,87)"/>
<path d="M0 0 C4.18093946 2.35177845 5.51186299 4.55221405 7 9 C7.41048397 11.40641676 7.74822683 13.82574543 8.03515625 16.25 C8.11873886 16.94456299 8.20232147 17.63912598 8.28843689 18.35473633 C8.46384153 19.82350996 8.63594105 21.29268162 8.80493164 22.76220703 C9.05859852 24.96610338 9.32227794 27.16860867 9.58789062 29.37109375 C11.15023153 42.55287985 12.15526107 55.6164809 12.23828125 68.8984375 C12.25270012 70.84545311 12.25270012 70.84545311 12.26741028 72.83180237 C12.29428421 77.01285712 12.30506039 81.19387137 12.3125 85.375 C12.31423973 86.08501789 12.31597946 86.79503578 12.31777191 87.52656937 C12.35718228 105.73232576 12.14384516 123.81998546 10.125 141.9375 C10.03795807 142.71961853 9.95091614 143.50173706 9.86123657 144.30755615 C7.26497304 166.88783118 7.26497304 166.88783118 1 173 C-2.60572704 174.20190901 -5.2102435 174.32670315 -9 174 C-12.50551193 171.81879257 -14.54559517 169.8495027 -16 166 C-16.08203125 163.19921875 -16.08203125 163.19921875 -15.8125 159.6875 C-15.76288116 159.03670975 -15.71326233 158.38591949 -15.66213989 157.71540833 C-15.28267481 152.96334138 -14.81268536 148.22933048 -14.27758789 143.4921875 C-12.25910699 125.19271563 -11.52231734 107.12327605 -11.60888672 88.71948242 C-11.62602509 85.03942432 -11.6157702 81.36001566 -11.59854507 77.67997932 C-11.51846879 57.38446755 -11.91938226 36.96274849 -16 17 C-16.67032166 11.72227753 -16.83767012 7.32748929 -13.625 2.875 C-9.66614632 -1.10266059 -5.28873862 -1.11248926 0 0 Z " fill="#020401" transform="translate(536,164)"/>
<path d="M0 0 C4.6044797 1.92745662 6.55739343 4.72366403 9 9 C9.58616625 11.75066377 9.98341553 14.22868224 10.23046875 17.00390625 C10.35159782 18.14351051 10.35159782 18.14351051 10.47517395 19.30613708 C10.7281857 21.72362435 10.95801954 24.14267811 11.1875 26.5625 C11.35203023 28.15965892 11.51803382 29.75666679 11.68554688 31.35351562 C12.15421805 35.89990752 12.60084659 40.44694361 13 45 C13.08808929 45.99065964 13.17617859 46.98131927 13.26693726 48.0019989 C13.90186509 55.5985459 14.17256383 63.14026867 14.203125 70.76171875 C14.21004868 71.93954422 14.21697235 73.11736969 14.22410583 74.33088684 C14.2413006 78.11645882 14.24769419 81.90189079 14.25 85.6875 C14.25133942 86.97946289 14.25267883 88.27142578 14.25405884 89.60253906 C14.24949581 109.89887523 13.60907525 129.86633187 11 150 C10.8772168 151.00369629 10.75443359 152.00739258 10.62792969 153.04150391 C10.30185075 155.6371102 9.94577574 158.22478531 9.5625 160.8125 C9.46477295 161.50085938 9.3670459 162.18921875 9.26635742 162.8984375 C8.51489051 167.22544159 7.02915741 169.842439 4 173 C0.28289437 174.85855282 -3.95277281 174.57908439 -8 174 C-11.34625024 171.47323961 -12.67977847 169.96066458 -14 166 C-14.27047498 161.22160862 -13.86841409 156.84889899 -13.125 152.125 C-10.14654205 132.1854576 -9.67222566 112.06958591 -9.73925781 91.94189453 C-9.74997389 88.13427752 -9.7392855 84.32713412 -9.7265625 80.51953125 C-9.71492215 59.53517871 -10.65607956 38.65287824 -13.60546875 17.86328125 C-14.89433858 8.50940415 -14.89433858 8.50940415 -12.94921875 5.2265625 C-8.93068443 0.17672292 -6.3196372 -0.42844998 0 0 Z " fill="#020301" transform="translate(534,728)"/>
<path d="M0 0 C4.23722753 1.78905162 5.99031048 3.91691321 8 8 C8.1796875 10.7421875 8.1796875 10.7421875 7.875 13.875 C7.75898438 15.10734375 7.64296875 16.3396875 7.5234375 17.609375 C7.15292951 20.85472254 6.72670243 24.09119762 6.2890625 27.328125 C6.16031738 28.28348145 6.03157227 29.23883789 5.89892578 30.22314453 C5.64441484 32.07450136 5.38071112 33.92463363 5.10498047 35.77294922 C2.79987268 52.09521056 2.83406908 68.66651631 2.86962891 85.1184082 C2.87500277 88.06401699 2.86963427 91.00947381 2.86328125 93.95507812 C2.85627449 109.7678476 3.02525898 125.5480378 5.5625 141.1875 C9.04350073 164.91586646 9.04350073 164.91586646 5.09765625 170.87109375 C2.25851467 173.75253167 0.62713483 174.18669653 -3.3125 174.3125 C-6.49706386 174.25116009 -7.9618426 174.0190787 -10.875 172.5625 C-26.19310924 154.09066238 -20.43936562 107.47205731 -20.4375 84.9375 C-20.43841141 84.25444038 -20.43932281 83.57138077 -20.44026184 82.86762238 C-20.46274496 63.94200829 -19.92277136 45.19871133 -17.75 26.375 C-17.64767059 25.45903046 -17.54534119 24.54306091 -17.43991089 23.59933472 C-17.14537781 21.04943671 -16.82296699 18.5053242 -16.484375 15.9609375 C-16.395616 15.232733 -16.30685699 14.5045285 -16.21540833 13.7542572 C-15.50849682 8.96158058 -14.01188485 5.77784437 -11 2 C-7.28612182 -0.47591878 -4.30417439 -0.53907468 0 0 Z " fill="#010200" transform="translate(499,446)"/>
</svg>
