<?xml version="1.0" encoding="UTF-8"?>
<svg version="1.1" xmlns="http://www.w3.org/2000/svg" width="512" height="512">
<path d="M0 0 C2.29918542 0.90815609 3.64194003 1.94465446 5.46484375 3.61328125 C6.15320313 4.2371875 6.8415625 4.86109375 7.55078125 5.50390625 C8.36804688 6.261875 9.1853125 7.01984375 10.02734375 7.80078125 C11.08186829 8.77491602 12.13656722 9.74886203 13.19140625 10.72265625 C14.89207723 12.29362338 16.59203859 13.86531689 18.28955078 15.43969727 C22.12441666 18.99081241 26.01917709 22.44510684 30.02734375 25.80078125 C28.48194993 29.94695979 25.78636886 31.7332019 22.27734375 34.30078125 C3.26252443 47.82930252 3.26252443 47.82930252 -10.97265625 65.80078125 C-10.3492334 65.70990234 -9.72581055 65.61902344 -9.08349609 65.52539062 C12.39716059 62.43806573 32.26839317 61.89819301 53.52734375 66.80078125 C54.25155518 66.96674805 54.9757666 67.13271484 55.72192383 67.30371094 C60.76988971 68.54332721 60.76988971 68.54332721 63.02734375 70.80078125 C62.05796875 70.94773437 61.08859375 71.0946875 60.08984375 71.24609375 C46.13015663 73.52056304 33.48657625 78.0320636 21.02734375 84.80078125 C21.02734375 85.13078125 21.02734375 85.46078125 21.02734375 85.80078125 C40.74534253 88.88516095 59.86143188 87.75615119 79.703125 86.23828125 C84.16431931 85.90536601 88.5557031 85.69509993 93.02734375 85.80078125 C91.68249661 89.8424008 89.97682755 92.18756279 86.90234375 95.11328125 C86.17789062 95.81066406 85.4534375 96.50804687 84.70703125 97.2265625 C84.15273438 97.74605469 83.5984375 98.26554687 83.02734375 98.80078125 C83.54941406 98.9709375 84.07148438 99.14109375 84.609375 99.31640625 C96.61818815 103.27027117 107.92599172 107.74577703 119.02734375 113.80078125 C120.10628906 114.37699219 121.18523437 114.95320313 122.296875 115.546875 C137.46541552 123.97816903 150.74117837 136.12113598 160.02734375 150.80078125 C160.5378125 151.56648437 161.04828125 152.3321875 161.57421875 153.12109375 C181.46252964 184.18376488 181.14399256 225.38838298 173.83984375 260.23828125 C170.10412892 277.07566163 164.26734079 292.67082062 156.02734375 307.80078125 C155.54612061 308.70086914 155.54612061 308.70086914 155.05517578 309.61914062 C148.42914392 321.96260679 140.66755555 333.32466146 131.09765625 343.578125 C129.23108419 345.58204859 127.47118301 347.6383104 125.71484375 349.73828125 C111.16208124 366.27101145 92.5360855 378.87073508 73.02734375 388.80078125 C72.33995117 389.15865723 71.65255859 389.5165332 70.94433594 389.88525391 C43.7003173 403.97452605 13.26305761 410.0277711 -17.22265625 410.05078125 C-18.42668091 410.05179337 -18.42668091 410.05179337 -19.6550293 410.05282593 C-32.31604131 410.03594079 -44.55164717 409.44365983 -56.97265625 406.80078125 C-57.77944824 406.63449219 -58.58624023 406.46820313 -59.41748047 406.296875 C-103.23026989 397.01341167 -145.70031258 372.85043093 -172.97265625 336.80078125 C-173.70742187 335.87007813 -174.4421875 334.939375 -175.19921875 333.98046875 C-195.76684968 307.47578972 -209.11812434 275.14696433 -212.97265625 241.80078125 C-213.13894531 240.455 -213.13894531 240.455 -213.30859375 239.08203125 C-216.76517044 205.82415828 -212.29376316 168.30217637 -190.84765625 141.36328125 C-189.56065825 139.83849505 -188.2695973 138.31711918 -186.97265625 136.80078125 C-186.20953125 135.79015625 -185.44640625 134.77953125 -184.66015625 133.73828125 C-172.52261094 120.47166196 -155.66962681 110.34227879 -138.97265625 103.80078125 C-137.98265625 103.80078125 -136.99265625 103.80078125 -135.97265625 103.80078125 C-135.97265625 103.14078125 -135.97265625 102.48078125 -135.97265625 101.80078125 C-137.10703125 101.47078125 -138.24140625 101.14078125 -139.41015625 100.80078125 C-144.32523466 99.16503063 -148.97444486 97.05502565 -153.66015625 94.86328125 C-154.38452881 94.52748047 -155.10890137 94.19167969 -155.85522461 93.84570312 C-160.16309048 91.80266526 -164.07331272 89.54567347 -167.97265625 86.80078125 C-164.8422484 85.23557732 -162.04896544 86.73531882 -158.84765625 87.67578125 C-148.75440331 90.62642979 -139.21254396 90.99354396 -128.72265625 90.98828125 C-128.06191101 90.98900635 -127.40116577 90.98973145 -126.72039795 90.99047852 C-116.75378085 90.98927376 -106.96352908 90.4760984 -97.07421875 89.23828125 C-93.017457 88.74350707 -89.05702104 88.72702297 -84.97265625 88.80078125 C-85.359375 88.22972656 -85.74609375 87.65867187 -86.14453125 87.0703125 C-92.90075285 76.55134373 -96.55294783 65.40636293 -94.97265625 52.80078125 C-94.31265625 51.81078125 -93.65265625 50.82078125 -92.97265625 49.80078125 C-91.98265625 50.62578125 -90.99265625 51.45078125 -89.97265625 52.30078125 C-76.11428426 62.56268992 -58.96162839 67.87080532 -42.97265625 73.80078125 C-42.84310547 72.2384375 -42.84310547 72.2384375 -42.7109375 70.64453125 C-40.36204122 45.53350048 -30.54131198 22.97889029 -10.97265625 6.55078125 C-2.68036198 -0.27069002 -2.68036198 -0.27069002 0 0 Z " fill="#DE4118" transform="translate(273.97265625,51.19921875)"/>
<path d="M0 0 C15.49835663 7.6152419 28.8136011 20.47806639 38 35 C38.51046875 35.76570313 39.0209375 36.53140625 39.546875 37.3203125 C59.43518589 68.38298363 59.11664881 109.58760173 51.8125 144.4375 C48.07678517 161.27488038 42.23999704 176.87003937 34 192 C33.67918457 192.60005859 33.35836914 193.20011719 33.02783203 193.81835938 C26.40180017 206.16182554 18.6402118 217.52388021 9.0703125 227.77734375 C7.20374044 229.78126734 5.44383926 231.83752915 3.6875 233.9375 C-10.86526251 250.4702302 -29.49125825 263.06995383 -49 273 C-49.68739258 273.35787598 -50.37478516 273.71575195 -51.08300781 274.08447266 C-78.32702645 288.1737448 -108.76428614 294.22698985 -139.25 294.25 C-140.45402466 294.25101212 -140.45402466 294.25101212 -141.68237305 294.25204468 C-154.34338506 294.23515954 -166.57899092 293.64287858 -179 291 C-179.80679199 290.83371094 -180.61358398 290.66742188 -181.44482422 290.49609375 C-225.38540516 281.18555276 -267.54195463 257.00575246 -295 221 C-296.3302168 219.33084488 -297.66269275 217.66347975 -299 216 C-298.505 215.01 -298.505 215.01 -298 214 C-297.35675781 214.49556396 -296.71351563 214.99112793 -296.05078125 215.50170898 C-289.02909931 220.77610898 -281.81395433 225.07191812 -274 229.0625 C-273.41051575 229.36470459 -272.82103149 229.66690918 -272.21368408 229.97827148 C-245.10750809 243.82477167 -215.86650968 251.49121829 -185.3125 251.25 C-184.61989075 251.24723053 -183.92728149 251.24446106 -183.21368408 251.24160767 C-166.81055473 251.16505879 -150.9587996 249.9896999 -135 246 C-133.86046875 245.73574219 -132.7209375 245.47148437 -131.546875 245.19921875 C-101.30862682 237.77055821 -73.73432769 222.94862871 -50.49951172 202.32763672 C-49.03333223 201.02951167 -47.55002163 199.75081757 -46.06640625 198.47265625 C-39.62653507 192.81878876 -34.23786257 186.76822938 -29 180 C-28.18660156 178.99066406 -27.37320312 177.98132813 -26.53515625 176.94140625 C2.82250999 140.24007036 17.34029216 91.29405909 12.49609375 44.53515625 C10.8275005 31.1053245 7.10405093 18.45703743 1.796875 6.015625 C1.01125973 4.02848051 0.46900152 2.08236676 0 0 Z " fill="#BE3713" transform="translate(396,167)"/>
<path d="M0 0 C2.29918542 0.90815609 3.64194003 1.94465446 5.46484375 3.61328125 C6.15320313 4.2371875 6.8415625 4.86109375 7.55078125 5.50390625 C8.36804688 6.261875 9.1853125 7.01984375 10.02734375 7.80078125 C11.08186829 8.77491602 12.13656722 9.74886203 13.19140625 10.72265625 C14.89207723 12.29362338 16.59203859 13.86531689 18.28955078 15.43969727 C22.12441666 18.99081241 26.01917709 22.44510684 30.02734375 25.80078125 C28.48194993 29.94695979 25.78636886 31.7332019 22.27734375 34.30078125 C3.26252443 47.82930252 3.26252443 47.82930252 -10.97265625 65.80078125 C-10.3492334 65.70990234 -9.72581055 65.61902344 -9.08349609 65.52539062 C12.39716059 62.43806573 32.26839317 61.89819301 53.52734375 66.80078125 C54.25155518 66.96674805 54.9757666 67.13271484 55.72192383 67.30371094 C60.76988971 68.54332721 60.76988971 68.54332721 63.02734375 70.80078125 C62.05796875 70.94773437 61.08859375 71.0946875 60.08984375 71.24609375 C46.13015663 73.52056304 33.48657625 78.0320636 21.02734375 84.80078125 C21.02734375 85.13078125 21.02734375 85.46078125 21.02734375 85.80078125 C40.74534253 88.88516095 59.86143188 87.75615119 79.703125 86.23828125 C84.16431931 85.90536601 88.5557031 85.69509993 93.02734375 85.80078125 C91.41455568 91.7143375 87.5098686 95.64097112 82.39208984 98.81494141 C62.16409758 110.32499972 38.67654913 115.08667489 15.51953125 114.765625 C3.46628705 114.00553877 3.46628705 114.00553877 -7.4921875 117.84375 C-9.86525202 120.37783021 -11.89347764 123.02441774 -13.97265625 125.80078125 C-34.22690071 142.84810367 -65.804482 145.1403818 -90.97265625 144.80078125 C-89.83376953 143.89972656 -89.83376953 143.89972656 -88.671875 142.98046875 C-78.54178696 134.80016611 -71.24969281 124.11387703 -64.97265625 112.80078125 C-65.72248779 112.81125488 -66.47231934 112.82172852 -67.24487305 112.83251953 C-70.71659856 112.8746722 -74.18826992 112.90029283 -77.66015625 112.92578125 C-78.83900391 112.94253906 -80.01785156 112.95929688 -81.23242188 112.9765625 C-110.22462591 113.13542389 -144.17408568 103.721604 -167.97265625 86.80078125 C-164.8422484 85.23557732 -162.04896544 86.73531882 -158.84765625 87.67578125 C-148.75440331 90.62642979 -139.21254396 90.99354396 -128.72265625 90.98828125 C-128.06191101 90.98900635 -127.40116577 90.98973145 -126.72039795 90.99047852 C-116.75378085 90.98927376 -106.96352908 90.4760984 -97.07421875 89.23828125 C-93.017457 88.74350707 -89.05702104 88.72702297 -84.97265625 88.80078125 C-85.359375 88.22972656 -85.74609375 87.65867187 -86.14453125 87.0703125 C-92.90075285 76.55134373 -96.55294783 65.40636293 -94.97265625 52.80078125 C-94.31265625 51.81078125 -93.65265625 50.82078125 -92.97265625 49.80078125 C-91.98265625 50.62578125 -90.99265625 51.45078125 -89.97265625 52.30078125 C-76.11428426 62.56268992 -58.96162839 67.87080532 -42.97265625 73.80078125 C-42.84310547 72.2384375 -42.84310547 72.2384375 -42.7109375 70.64453125 C-40.36204122 45.53350048 -30.54131198 22.97889029 -10.97265625 6.55078125 C-2.68036198 -0.27069002 -2.68036198 -0.27069002 0 0 Z " fill="#619200" transform="translate(273.97265625,51.19921875)"/>
<path d="M0 0 C0.495 0.99 0.495 0.99 1 2 C-3.82991859 8.3842275 -8.74960195 13.97973348 -15 19 C-4.30779968 19.19558903 6.32799208 18.59054589 17 18 C17.59273563 36.26081702 7.60679037 49.18549884 -4.05078125 62.30859375 C-20.12475313 79.29069964 -44.91233543 94.63675902 -68.70947266 95.29272461 C-76.94401779 95.37252817 -84.46945382 95.09330661 -90.90234375 89.28125 C-96.23296521 83.36112452 -96.51394582 77.7750202 -96.3359375 69.984375 C-94.81336435 51.92594923 -79.40675542 36.24585952 -66.3125 24.875 C-46.73768163 9.13937181 -25.42454277 -0.94946425 0 0 Z " fill="#E67051" transform="translate(200,176)"/>
<path d="M0 0 C0.680625 0.12375 1.36125 0.2475 2.0625 0.375 C0.44971193 6.28855625 -3.45497515 10.21518987 -8.57275391 13.38916016 C-28.80074617 24.89921847 -52.28829462 29.66089364 -75.4453125 29.33984375 C-87.4985567 28.57975752 -87.4985567 28.57975752 -98.45703125 32.41796875 C-100.83009577 34.95204896 -102.85832139 37.59863649 -104.9375 40.375 C-125.19174446 57.42232242 -156.76932575 59.71460055 -181.9375 59.375 C-180.761875 58.446875 -180.761875 58.446875 -179.5625 57.5 C-176.96912353 55.47641339 -176.96912353 55.47641339 -174.9375 53.375 C-172.34985352 52.86010742 -172.34985352 52.86010742 -169.06640625 52.48046875 C-167.86121338 52.3323877 -166.65602051 52.18430664 -165.41430664 52.03173828 C-164.12258545 51.87688965 -162.83086426 51.72204102 -161.5 51.5625 C-140.51252539 48.8849489 -118.26272307 44.95722933 -101.9375 30.375 C-101.49535156 29.71121338 -101.05320312 29.04742676 -100.59765625 28.36352539 C-98.00762403 24.64985196 -96.25211044 22.65652422 -91.71801758 21.68554688 C-88.44543718 21.50541664 -85.20947391 21.44235254 -81.93286133 21.51644897 C-78.33773005 21.59452976 -74.74388422 21.5380794 -71.1484375 21.5 C-70.43786194 21.49586594 -69.72728638 21.49173187 -68.99517822 21.48747253 C-59.82015918 21.40588755 -50.9269228 20.11666381 -41.9375 18.375 C-41.22255371 18.24254883 -40.50760742 18.11009766 -39.77099609 17.97363281 C-27.71867225 15.66222824 -14.96685983 11.29386331 -5.75 2.875 C-2.9375 0.375 -2.9375 0.375 0 0 Z " fill="#567C00" transform="translate(364.9375,136.625)"/>
<path d="M0 0 C2.29918542 0.90815609 3.64194003 1.94465446 5.46484375 3.61328125 C6.15320313 4.2371875 6.8415625 4.86109375 7.55078125 5.50390625 C8.36804688 6.261875 9.1853125 7.01984375 10.02734375 7.80078125 C11.08186829 8.77491602 12.13656722 9.74886203 13.19140625 10.72265625 C14.89207723 12.29362338 16.59203859 13.86531689 18.28955078 15.43969727 C22.12441666 18.99081241 26.01917709 22.44510684 30.02734375 25.80078125 C28.34582302 29.54098623 26.33694902 31.36212473 23.02734375 33.80078125 C20.06408431 32.44969159 17.8194921 30.91371477 15.40234375 28.73828125 C14.37753906 27.82175781 14.37753906 27.82175781 13.33203125 26.88671875 C12.57148438 26.19835937 11.8109375 25.51 11.02734375 24.80078125 C10.12242187 23.98867187 9.2175 23.1765625 8.28515625 22.33984375 C5.86230629 20.16408331 3.44336819 17.98411481 1.02734375 15.80078125 C-14.59713918 21.29571486 -25.60185472 37.1642591 -32.76953125 51.359375 C-37.06867742 60.90475647 -39.30360032 70.51082175 -40.97265625 80.80078125 C-41.30265625 80.80078125 -41.63265625 80.80078125 -41.97265625 80.80078125 C-42.91726385 74.35560152 -42.89850523 68.89135392 -41.78515625 62.48828125 C-41.6449707 61.65723877 -41.50478516 60.82619629 -41.36035156 59.9699707 C-37.02492488 35.55829297 -24.37798095 16.68554736 -4.97265625 1.80078125 C-1.97265625 -0.19921875 -1.97265625 -0.19921875 0 0 Z " fill="#87AD3E" transform="translate(273.97265625,51.19921875)"/>
<path d="M0 0 C0.66 0.66 1.32 1.32 2 2 C1.34 2 0.68 2 0 2 C0 1.34 0 0.68 0 0 Z " fill="#4FB000" transform="translate(104,135)"/>
</svg>
