<svg width="200" height="200" viewBox="0 0 200 200" fill="none" xmlns="http://www.w3.org/2000/svg">
<rect width="200" height="200" rx="50" fill="#4A9E60"/>
<path d="M66.45 148.532C80.4213 148.532 91.7472 136.564 91.7472 121.8C91.7472 107.036 80.4213 95.0679 66.45 95.0679C52.4788 95.0679 41.1528 107.036 41.1528 121.8C41.1528 136.564 52.4788 148.532 66.45 148.532Z" fill="#68737F"/>
<path d="M142.656 148.526C152.575 148.526 160.617 140.029 160.617 129.546C160.617 119.064 152.575 110.567 142.656 110.567C132.736 110.567 124.694 119.064 124.694 129.546C124.694 140.029 132.736 148.526 142.656 148.526Z" fill="#68737F"/>
<path d="M99.7695 105.999C94.0542 92.5582 81.2987 83.1886 66.4514 83.1886C55.1737 83.1886 45.0931 88.5911 38.3903 97.0757L45.2681 107.216C49.7834 99.9083 57.5778 95.0694 66.4514 95.0694C74.825 95.0694 82.2389 99.3755 86.8431 105.999H99.7695Z" fill="white"/>
<path d="M111.764 59.3741H105.125L110.75 85.6161L117.708 86.7755L111.764 59.3741Z" fill="#68737F"/>
<path d="M61.8986 83.4938L66.7875 59.3667H60.1542L54.9278 85.1611C57.1639 84.3759 59.4945 83.8108 61.8986 83.4938Z" fill="#68737F"/>
<path d="M117.382 59.3667H54.5334V55.9588C54.5334 53.5019 56.4181 51.5103 58.7431 51.5103H109.296C110.849 51.5103 112.311 52.2793 113.247 53.5885L117.382 59.3667Z" fill="white"/>
<path d="M144.168 51.4662H140.739H139.544C137.604 51.4662 136.031 53.1291 136.031 55.1794V56.4416V63.689H140.739V58.4538C140.739 57.3428 141.592 56.4416 142.643 56.4416H144.168V51.4662Z" fill="#A1B4BF"/>
<path d="M142.111 90.8116V63.689H134.139V89.4907L142.111 90.8116Z" fill="#68737F"/>
<path d="M66.4514 133.682C72.6608 133.682 77.6945 128.363 77.6945 121.802C77.6945 115.24 72.6608 109.921 66.4514 109.921C60.2421 109.921 55.2084 115.24 55.2084 121.802C55.2084 128.363 60.2421 133.682 66.4514 133.682Z" fill="#A1B4BF"/>
<path d="M142.657 136.23C146.149 136.23 148.981 133.238 148.981 129.548C148.981 125.857 146.149 122.866 142.657 122.866C139.165 122.866 136.333 125.857 136.333 129.548C136.333 133.238 139.165 136.23 142.657 136.23Z" fill="#A1B4BF"/>
<path d="M125.528 123.821C127.828 116.142 134.622 110.574 142.65 110.574C147.025 110.574 151.031 112.229 154.146 114.977V100.649C154.146 96.1378 151.037 92.2969 146.819 91.5983L110.749 85.6234V96.9847C110.749 101.963 106.929 105.999 102.218 105.999H86.8223C89.9042 110.429 91.7486 115.881 91.7486 121.8C91.7486 122.483 91.7 123.15 91.6528 123.82L125.528 123.821Z" fill="white"/>
<path d="M81.8139 86.7726L83.3959 59.3667H76.7334L75.1334 84.3054C77.4542 84.9042 79.6917 85.7291 81.8139 86.7726Z" fill="#68737F"/>
<path d="M66.4514 150C51.7361 150 39.7653 137.35 39.7653 121.8C39.7653 106.25 51.7361 93.6002 66.4514 93.6002C81.1653 93.6002 93.1361 106.25 93.1361 121.8C93.1361 137.35 81.1653 150 66.4514 150ZM66.4514 96.537C53.2681 96.537 42.5431 107.87 42.5431 121.802C42.5431 135.733 53.2681 147.066 66.4514 147.066C79.6347 147.066 90.3583 135.733 90.3583 121.802C90.3583 107.87 79.6334 96.537 66.4514 96.537Z" fill="black"/>
<path d="M142.65 150C131.981 150 123.3 140.827 123.3 129.552C123.3 118.276 131.981 109.103 142.65 109.103C153.319 109.103 162 118.278 162 129.554C162 140.827 153.319 150 142.65 150ZM142.65 112.04C133.513 112.04 126.078 119.897 126.078 129.554C126.078 139.21 133.513 147.066 142.65 147.066C151.788 147.066 159.222 139.21 159.222 129.554C159.222 119.897 151.789 112.04 142.65 112.04Z" fill="black"/>
<path d="M45.2667 108.683C44.8195 108.683 44.3987 108.456 44.1376 108.071L37.2598 97.9298C36.8917 97.3853 36.9167 96.6471 37.3223 96.1349C44.557 86.9736 55.175 81.7194 66.45 81.7194C81.3445 81.7194 94.9195 91.0141 101.036 105.396C101.229 105.851 101.19 106.378 100.935 106.795C100.679 107.213 100.24 107.465 99.7695 107.465H86.8417C86.4 107.465 85.9834 107.244 85.7223 106.866C81.2264 100.397 74.0223 96.5355 66.4514 96.5355C58.3556 96.5355 50.8723 100.827 46.4306 108.017C46.1792 108.422 45.7556 108.67 45.2987 108.682C45.2876 108.683 45.2764 108.683 45.2667 108.683ZM40.1528 97.1578L45.2584 104.686C50.2987 97.7082 58.082 93.6002 66.45 93.6002C74.6653 93.6002 82.4931 97.6715 87.532 104.53H97.5472C91.5014 92.3835 79.5236 84.6547 66.4487 84.6547C56.3584 84.6547 46.8348 89.1986 40.1528 97.1578Z" fill="black"/>
<path d="M117.701 88.2432C117.629 88.2432 117.557 88.2373 117.486 88.2256L110.532 87.0734C109.971 86.981 109.519 86.5348 109.393 85.9477L103.771 59.691C103.679 59.2566 103.778 58.8002 104.04 58.4509C104.303 58.1016 104.704 57.899 105.125 57.899H111.758C112.406 57.899 112.968 58.3716 113.113 59.0394L119.054 86.4482C119.157 86.9223 119.031 87.4213 118.717 87.7765C118.453 88.0759 118.085 88.2432 117.701 88.2432ZM111.894 84.3274L115.89 84.9893L110.653 60.8344H106.864L111.894 84.3274Z" fill="black"/>
<path d="M54.9278 86.6287C54.5903 86.6287 54.2598 86.4996 54.0015 86.2545C53.6292 85.9022 53.4653 85.368 53.5695 84.8529L58.7973 59.0585C58.9348 58.3819 59.5001 57.8976 60.1556 57.8976H66.7889C67.2084 57.8976 67.6056 58.0972 67.8695 58.4421C68.132 58.787 68.2348 59.239 68.1473 59.672L63.2584 83.7991C63.1348 84.4096 62.6584 84.8705 62.0723 84.9483C59.8001 85.2477 57.5445 85.7863 55.3667 86.551C55.2223 86.6053 55.0751 86.6287 54.9278 86.6287ZM61.2778 60.8344L56.7765 83.0491C58.0834 82.6836 59.4098 82.3945 60.7445 82.1802L65.0695 60.8344H61.2778Z" fill="black"/>
<path d="M117.382 60.8344H54.532C53.7653 60.8344 53.1431 60.1769 53.1431 59.3667V55.9588C53.1431 52.6976 55.6542 50.044 58.7417 50.044H109.294C111.271 50.044 113.163 51.0391 114.354 52.7049L118.49 58.4832C118.808 58.9279 118.861 59.5223 118.626 60.0213C118.392 60.5188 117.91 60.8344 117.382 60.8344ZM55.9209 57.899H114.59L112.139 54.4735C111.471 53.5371 110.407 52.9779 109.296 52.9779H58.7417C57.1862 52.9779 55.9209 54.315 55.9209 55.9573V57.899Z" fill="black"/>
<path d="M140.739 65.1567H136.031C135.263 65.1567 134.642 64.4992 134.642 63.689V55.1794C134.642 52.3233 136.84 50 139.543 50H144.167C144.935 50 145.556 50.6575 145.556 51.4677V56.4431C145.556 57.2532 144.935 57.9108 144.167 57.9108H142.642C142.357 57.9108 142.126 58.1559 142.126 58.4553V63.6905C142.128 64.4992 141.507 65.1567 140.739 65.1567ZM137.421 62.2213H139.351V58.4538C139.351 56.5341 140.828 54.9739 142.644 54.9739H142.781V52.9339H139.546C138.375 52.9339 137.422 53.9407 137.422 55.178L137.421 62.2213Z" fill="black"/>
<path d="M142.117 92.2866C142.044 92.2866 141.972 92.2808 141.901 92.269L133.919 90.9466C133.244 90.8351 132.746 90.2201 132.746 89.4966V63.689C132.746 62.8788 133.367 62.2213 134.135 62.2213H142.117C142.885 62.2213 143.506 62.8788 143.506 63.689V90.8189C143.506 91.2475 143.328 91.6555 143.019 91.9344C142.765 92.1633 142.444 92.2866 142.117 92.2866ZM135.524 88.2417L140.728 89.1032V65.1567H135.524V88.2417Z" fill="black"/>
<path d="M66.4514 135.149C59.4862 135.149 53.8195 129.16 53.8195 121.8C53.8195 114.44 59.4862 108.452 66.4514 108.452C73.4167 108.452 79.0834 114.44 79.0834 121.8C79.0834 129.16 73.4153 135.149 66.4514 135.149ZM66.4514 111.388C61.0181 111.388 56.5973 116.06 56.5973 121.802C56.5973 127.543 61.0181 132.215 66.4514 132.215C71.8848 132.215 76.3056 127.543 76.3056 121.802C76.3056 116.06 71.8848 111.388 66.4514 111.388Z" fill="black"/>
<path d="M142.65 137.702C138.396 137.702 134.936 134.046 134.936 129.552C134.936 125.057 138.396 121.401 142.65 121.401C146.903 121.401 150.364 125.057 150.364 129.552C150.364 134.046 146.904 137.702 142.65 137.702ZM142.65 124.338C139.928 124.338 137.714 126.677 137.714 129.554C137.714 132.429 139.928 134.768 142.65 134.768C145.372 134.768 147.586 132.429 147.586 129.554C147.586 126.677 145.372 124.338 142.65 124.338Z" fill="black"/>
<path d="M66.4514 150C65.6848 150 65.0626 149.344 65.0626 148.532V142.22C65.0626 141.408 65.6848 140.752 66.4514 140.752C67.2181 140.752 67.8403 141.408 67.8403 142.22V148.532C67.8403 149.344 67.2181 150 66.4514 150Z" fill="black"/>
<path d="M66.4514 102.98C65.6848 102.98 65.0626 102.324 65.0626 101.512V95.2014C65.0626 94.3913 65.6848 93.7338 66.4514 93.7338C67.2181 93.7338 67.8403 94.3913 67.8403 95.2014V101.512C67.8403 102.324 67.2181 102.98 66.4514 102.98Z" fill="black"/>
<path d="M91.6847 123.334H85.7111C84.9445 123.334 84.3222 122.678 84.3222 121.866C84.3222 121.055 84.9445 120.398 85.7111 120.398H91.6847C92.4514 120.398 93.0736 121.055 93.0736 121.866C93.0736 122.678 92.4514 123.334 91.6847 123.334Z" fill="black"/>
<path d="M47.1889 123.334H41.2167C40.4501 123.334 39.8278 122.678 39.8278 121.866C39.8278 121.055 40.4501 120.398 41.2167 120.398H47.1903C47.957 120.398 48.5792 121.055 48.5792 121.866C48.5778 122.678 47.957 123.334 47.1889 123.334Z" fill="black"/>
<path d="M48.607 142.191C48.2514 142.191 47.8959 142.047 47.625 141.76C47.082 141.187 47.082 140.259 47.625 139.685L51.8486 135.222C52.3917 134.648 53.2695 134.648 53.8125 135.222C54.3556 135.796 54.3556 136.723 53.8125 137.297L49.5889 141.76C49.3181 142.047 48.9625 142.191 48.607 142.191Z" fill="black"/>
<path d="M80.0709 108.943C79.7153 108.943 79.3598 108.799 79.0889 108.513C78.5459 107.939 78.5459 107.012 79.0889 106.438L83.3125 101.975C83.8556 101.401 84.7334 101.401 85.2764 101.975C85.8195 102.549 85.8195 103.476 85.2764 104.05L81.0528 108.513C80.7806 108.799 80.4264 108.943 80.0709 108.943Z" fill="black"/>
<path d="M84.2931 142.191C83.9376 142.191 83.582 142.047 83.3112 141.76L79.0876 137.297C78.5445 136.723 78.5445 135.796 79.0876 135.222C79.6306 134.648 80.5084 134.648 81.0514 135.222L85.2751 139.685C85.8181 140.259 85.8181 141.187 85.2751 141.76C85.0042 142.047 84.6487 142.191 84.2931 142.191Z" fill="black"/>
<path d="M52.8306 108.943C52.475 108.943 52.1195 108.799 51.8486 108.513L47.625 104.05C47.082 103.476 47.082 102.549 47.625 101.975C48.1681 101.401 49.0459 101.401 49.5889 101.975L53.8125 106.438C54.3556 107.012 54.3556 107.939 53.8125 108.513C53.5417 108.799 53.1861 108.943 52.8306 108.943Z" fill="black"/>
<path d="M142.65 150C141.882 150 141.261 149.344 141.261 148.532V144.181C141.261 143.369 141.882 142.713 142.65 142.713C143.418 142.713 144.039 143.369 144.039 144.181V148.532C144.039 149.344 143.418 150 142.65 150Z" fill="black"/>
<path d="M142.65 116.392C141.882 116.392 141.261 115.736 141.261 114.924V110.572C141.261 109.761 141.882 109.105 142.65 109.105C143.418 109.105 144.039 109.761 144.039 110.572V114.924C144.039 115.736 143.418 116.392 142.65 116.392Z" fill="black"/>
<path d="M125.528 125.287H91.6514C91.2653 125.287 90.8959 125.117 90.6334 124.818C90.3709 124.52 90.2376 124.118 90.2667 123.71C90.3139 123.039 90.3584 122.427 90.3584 121.8C90.3584 116.409 88.7487 111.246 85.7028 106.868C85.3931 106.42 85.3459 105.829 85.5834 105.336C85.8195 104.841 86.2987 104.53 86.8223 104.53H102.218C106.156 104.53 109.36 101.144 109.36 96.9832V85.6219C109.36 85.1934 109.538 84.7854 109.846 84.5065C110.156 84.2276 110.567 84.1073 110.965 84.1719L147.038 90.1468C151.963 90.9613 155.538 95.3776 155.538 100.647V114.974C155.538 115.543 155.225 116.062 154.738 116.302C154.25 116.544 153.672 116.467 153.26 116.1C150.288 113.481 146.521 112.037 142.653 112.037C135.393 112.037 129.044 116.949 126.854 124.26C126.671 124.873 126.133 125.287 125.528 125.287ZM93.1278 122.352H124.54C127.365 114.384 134.519 109.105 142.651 109.105C146.228 109.105 149.733 110.161 152.758 112.121V100.649C152.758 96.835 150.171 93.6398 146.606 93.0484L112.138 87.3391V96.9847C112.138 102.764 107.688 107.467 102.218 107.467H89.407C91.8542 111.811 93.1362 116.715 93.1362 121.802C93.1362 121.985 93.1334 122.168 93.1278 122.352Z" fill="black"/>
<path d="M160.611 131.021H156.493C155.725 131.021 155.104 130.365 155.104 129.554C155.104 128.742 155.725 128.086 156.493 128.086H160.611C161.379 128.086 162 128.742 162 129.554C162 130.365 161.379 131.021 160.611 131.021Z" fill="black"/>
<path d="M128.808 131.021H124.69C123.922 131.021 123.301 130.365 123.301 129.554C123.301 128.742 123.922 128.086 124.69 128.086H128.808C129.576 128.086 130.197 128.742 130.197 129.554C130.197 130.365 129.575 131.021 128.808 131.021Z" fill="black"/>
<path d="M129.95 144.44C129.594 144.44 129.239 144.297 128.968 144.01C128.425 143.437 128.425 142.509 128.968 141.935L131.881 138.857C132.424 138.284 133.301 138.284 133.844 138.857C134.388 139.431 134.388 140.359 133.844 140.933L130.932 144.01C130.661 144.298 130.306 144.44 129.95 144.44Z" fill="black"/>
<path d="M152.439 120.677C152.083 120.677 151.728 120.534 151.457 120.247C150.914 119.673 150.914 118.746 151.457 118.172L154.368 115.094C154.911 114.52 155.789 114.52 156.332 115.094C156.875 115.668 156.875 116.596 156.332 117.17L153.421 120.247C153.15 120.534 152.794 120.677 152.439 120.677Z" fill="black"/>
<path d="M155.35 144.44C154.994 144.44 154.639 144.297 154.368 144.01L151.457 140.933C150.914 140.359 150.914 139.431 151.457 138.857C152 138.284 152.878 138.284 153.421 138.857L156.332 141.935C156.875 142.509 156.875 143.437 156.332 144.01C156.061 144.298 155.706 144.44 155.35 144.44Z" fill="black"/>
<path d="M132.863 120.677C132.507 120.677 132.151 120.534 131.881 120.247L128.968 117.17C128.425 116.596 128.425 115.668 128.968 115.094C129.511 114.52 130.389 114.52 130.932 115.094L133.844 118.172C134.388 118.746 134.388 119.673 133.844 120.247C133.572 120.534 133.217 120.677 132.863 120.677Z" fill="black"/>
<path d="M119.068 106.711C118.3 106.711 117.679 106.055 117.679 105.243V97.0434C117.679 96.2332 118.3 95.5757 119.068 95.5757C119.836 95.5757 120.457 96.2332 120.457 97.0434V105.243C120.457 106.055 119.836 106.711 119.068 106.711Z" fill="black"/>
<path d="M127.5 106.711C126.732 106.711 126.111 106.055 126.111 105.243V97.0434C126.111 96.2332 126.732 95.5757 127.5 95.5757C128.268 95.5757 128.889 96.2332 128.889 97.0434V105.243C128.889 106.055 128.268 106.711 127.5 106.711Z" fill="black"/>
<path d="M81.8139 88.2402C81.6139 88.2402 81.4139 88.1948 81.2278 88.1038C79.2 87.1072 77.0389 86.3088 74.8042 85.732C74.1487 85.5632 73.7028 84.9189 73.7487 84.2071L75.3473 59.2684C75.3973 58.4978 76.0028 57.899 76.7334 57.899H83.3959C83.7792 57.899 84.1459 58.0663 84.4084 58.3613C84.6709 58.6563 84.807 59.0526 84.7834 59.4562L83.2014 86.8621C83.1737 87.3464 82.9209 87.7853 82.5264 88.0333C82.3056 88.1698 82.0598 88.2402 81.8139 88.2402ZM76.5973 83.1915C77.9459 83.5863 79.2653 84.0544 80.5473 84.596L81.9195 60.8344H78.032L76.5973 83.1915Z" fill="black"/>
</svg>
